M48
;DRILL file {KiCad 4.0.6} date 2017 April 08, Saturday 14:22:34
;FORMAT={-:-/ absolute / metric / decimal}
FMAT,2
METRIC,TZ
T1C0.500
T2C0.762
T3C0.800
T4C0.900
T5C1.001
T6C1.016
%
G90
G05
M71
T1
X64.451Y28.997
X64.451Y99.997
X116.451Y28.997
X116.451Y99.997
T2
X25.747Y56.883
X25.747Y84.932
X25.747Y127.882
X25.747Y155.933
X28.287Y56.883
X28.287Y84.932
X28.287Y127.882
X28.287Y155.933
X30.827Y56.883
X30.827Y84.932
X30.827Y127.882
X30.827Y155.933
X33.367Y56.883
X33.367Y84.932
X33.367Y127.882
X33.367Y155.933
X35.907Y56.883
X35.907Y84.932
X35.907Y127.882
X35.907Y155.933
X38.447Y56.883
X38.447Y84.932
X38.447Y127.882
X38.447Y155.933
X40.987Y56.883
X40.987Y84.932
X40.987Y127.882
X40.987Y155.933
X43.527Y56.883
X43.527Y84.932
X43.527Y127.882
X43.527Y155.933
X46.067Y56.883
X46.067Y84.932
X46.067Y127.882
X46.067Y155.933
X48.607Y56.883
X48.607Y84.932
X48.607Y127.882
X48.607Y155.933
X51.148Y56.883
X51.148Y84.932
X51.148Y127.882
X51.148Y155.933
X53.688Y56.883
X53.688Y84.932
X53.688Y127.882
X53.688Y155.933
X56.227Y56.883
X56.227Y84.932
X56.227Y127.882
X56.227Y155.933
X58.767Y56.883
X58.767Y84.932
X58.767Y127.882
X58.767Y155.933
X61.307Y56.883
X61.307Y84.932
X61.307Y127.882
X61.307Y155.933
X77.748Y56.883
X77.748Y84.932
X77.748Y127.882
X77.748Y155.933
X80.287Y56.883
X80.287Y84.932
X80.287Y127.882
X80.287Y155.933
X82.828Y56.883
X82.828Y84.932
X82.828Y127.882
X82.828Y155.933
X85.367Y56.883
X85.367Y84.932
X85.367Y127.882
X85.367Y155.933
X87.907Y56.883
X87.907Y84.932
X87.907Y127.882
X87.907Y155.933
X90.447Y56.883
X90.447Y84.932
X90.447Y127.882
X90.447Y155.933
X92.987Y56.883
X92.987Y84.932
X92.987Y127.882
X92.987Y155.933
X95.527Y56.883
X95.527Y84.932
X95.527Y127.882
X95.527Y155.933
X98.067Y56.883
X98.067Y84.932
X98.067Y127.882
X98.067Y155.933
X100.608Y56.883
X100.608Y84.932
X100.608Y127.882
X100.608Y155.933
X103.147Y56.883
X103.147Y84.932
X103.147Y127.882
X103.147Y155.933
X105.688Y56.883
X105.688Y84.932
X105.688Y127.882
X105.688Y155.933
X108.227Y56.883
X108.227Y84.932
X108.227Y127.882
X108.227Y155.933
X110.767Y56.883
X110.767Y84.932
X110.767Y127.882
X110.767Y155.933
X113.307Y56.883
X113.307Y84.932
X113.307Y127.882
X113.307Y155.933
T3
X55.71Y64.
X55.71Y135.
X58.25Y64.
X58.25Y135.
X60.79Y64.
X60.79Y135.
X107.71Y64.
X107.71Y135.
X110.25Y64.
X110.25Y135.
X112.79Y64.
X112.79Y135.
T4
X63.Y70.
X63.Y72.5
X63.Y75.
X63.Y77.5
X63.Y80.
X63.Y141.
X63.Y143.5
X63.Y146.
X63.Y148.5
X63.Y151.
X115.Y70.
X115.Y72.5
X115.Y75.
X115.Y77.5
X115.Y80.
X115.Y141.
X115.Y143.5
X115.Y146.
X115.Y148.5
X115.Y151.
T5
X28.25Y59.63
X28.25Y67.25
X28.25Y130.63
X28.25Y138.25
X31.5Y59.63
X31.5Y67.25
X31.5Y130.63
X31.5Y138.25
X42.25Y71.
X42.25Y142.
X49.87Y71.
X49.87Y142.
X53.13Y60.25
X53.13Y131.25
X60.75Y60.25
X60.75Y131.25
X80.25Y59.63
X80.25Y67.25
X80.25Y130.63
X80.25Y138.25
X83.5Y59.63
X83.5Y67.25
X83.5Y130.63
X83.5Y138.25
X94.25Y71.
X94.25Y142.
X101.87Y71.
X101.87Y142.
X105.13Y60.25
X105.13Y131.25
X112.75Y60.25
X112.75Y131.25
T6
X22.067Y57.392
X22.067Y59.932
X22.067Y62.472
X22.067Y65.013
X22.067Y128.392
X22.067Y130.933
X22.067Y133.472
X22.067Y136.012
X74.067Y57.392
X74.067Y59.932
X74.067Y62.472
X74.067Y65.013
X74.067Y128.392
X74.067Y130.933
X74.067Y133.472
X74.067Y136.012
T0
M30
