M48
;DRILL file {KiCad 4.0.5} date 2017 March 19, Sunday 23:28:37
;FORMAT={-:-/ absolute / metric / decimal}
FMAT,2
METRIC,TZ
T1C0.900
T2C1.000
T3C1.016
%
G90
G05
M71
T1
X38.75Y35.25
X38.75Y37.75
X38.75Y40.25
X38.75Y42.75
X38.75Y45.25
X38.75Y83.25
X38.75Y85.75
X38.75Y88.25
X38.75Y90.75
X38.75Y93.25
X86.75Y35.25
X86.75Y37.75
X86.75Y40.25
X86.75Y42.75
X86.75Y45.25
X86.75Y83.25
X86.75Y85.75
X86.75Y88.25
X86.75Y90.75
X86.75Y93.25
T2
X16.25Y21.25
X16.25Y61.25
X16.25Y69.25
X16.25Y109.25
X56.25Y21.25
X56.25Y61.25
X56.25Y69.25
X56.25Y109.25
X64.25Y21.25
X64.25Y61.25
X64.25Y69.25
X64.25Y109.25
X104.25Y21.25
X104.25Y61.25
X104.25Y69.25
X104.25Y109.25
T3
X29.47Y29.25
X29.47Y77.25
X32.01Y29.25
X32.01Y77.25
X34.55Y29.25
X34.55Y77.25
X37.09Y29.25
X37.09Y77.25
X39.63Y29.25
X39.63Y77.25
X42.17Y29.25
X42.17Y77.25
X44.71Y29.25
X44.71Y77.25
X47.21Y33.
X47.21Y81.
X47.25Y29.25
X47.25Y77.25
X49.75Y33.
X49.75Y81.
X49.79Y29.25
X49.79Y77.25
X52.29Y33.
X52.29Y81.
X52.33Y29.25
X52.33Y77.25
X54.83Y33.
X54.83Y81.
X54.87Y29.25
X54.87Y77.25
X77.47Y29.25
X77.47Y77.25
X80.01Y29.25
X80.01Y77.25
X82.55Y29.25
X82.55Y77.25
X85.09Y29.25
X85.09Y77.25
X87.63Y29.25
X87.63Y77.25
X90.17Y29.25
X90.17Y77.25
X92.71Y29.25
X92.71Y77.25
X95.21Y33.
X95.21Y81.
X95.25Y29.25
X95.25Y77.25
X97.75Y33.
X97.75Y81.
X97.79Y29.25
X97.79Y77.25
X100.29Y33.
X100.29Y81.
X100.33Y29.25
X100.33Y77.25
X102.83Y33.
X102.83Y81.
X102.87Y29.25
X102.87Y77.25
T0
M30
