M48
;DRILL file {KiCad 4.0.5} date Monday, 20 March 2017 'PMt' 20:37:38
;FORMAT={-:-/ absolute / metric / decimal}
FMAT,2
METRIC,TZ
T1C0.900
T2C1.000
T3C1.016
%
G90
G05
M71
T1
X38.75Y-35.25
X38.75Y-37.75
X38.75Y-40.25
X38.75Y-42.75
X38.75Y-45.25
X38.75Y-83.25
X38.75Y-85.75
X38.75Y-88.25
X38.75Y-90.75
X38.75Y-93.25
X86.75Y-35.25
X86.75Y-37.75
X86.75Y-40.25
X86.75Y-42.75
X86.75Y-45.25
X86.75Y-83.25
X86.75Y-85.75
X86.75Y-88.25
X86.75Y-90.75
X86.75Y-93.25
T2
X16.25Y-21.25
X16.25Y-61.25
X16.25Y-69.25
X16.25Y-109.25
X56.25Y-21.25
X56.25Y-61.25
X56.25Y-69.25
X56.25Y-109.25
X64.25Y-21.25
X64.25Y-61.25
X64.25Y-69.25
X64.25Y-109.25
X104.25Y-21.25
X104.25Y-61.25
X104.25Y-69.25
X104.25Y-109.25
T3
X29.47Y-29.25
X29.47Y-77.25
X32.01Y-29.25
X32.01Y-77.25
X34.55Y-29.25
X34.55Y-77.25
X37.09Y-29.25
X37.09Y-77.25
X39.63Y-29.25
X39.63Y-77.25
X42.17Y-29.25
X42.17Y-77.25
X44.71Y-29.25
X44.71Y-77.25
X47.21Y-33.
X47.21Y-81.
X47.25Y-29.25
X47.25Y-77.25
X49.75Y-33.
X49.75Y-81.
X49.79Y-29.25
X49.79Y-77.25
X52.29Y-33.
X52.29Y-81.
X52.33Y-29.25
X52.33Y-77.25
X54.83Y-33.
X54.83Y-81.
X54.87Y-29.25
X54.87Y-77.25
X77.47Y-29.25
X77.47Y-77.25
X80.01Y-29.25
X80.01Y-77.25
X82.55Y-29.25
X82.55Y-77.25
X85.09Y-29.25
X85.09Y-77.25
X87.63Y-29.25
X87.63Y-77.25
X90.17Y-29.25
X90.17Y-77.25
X92.71Y-29.25
X92.71Y-77.25
X95.21Y-33.
X95.21Y-81.
X95.25Y-29.25
X95.25Y-77.25
X97.75Y-33.
X97.75Y-81.
X97.79Y-29.25
X97.79Y-77.25
X100.29Y-33.
X100.29Y-81.
X100.33Y-29.25
X100.33Y-77.25
X102.83Y-33.
X102.83Y-81.
X102.87Y-29.25
X102.87Y-77.25
T0
M30
