M48
;DRILL file {KiCad 4.0.6} date 2017 April 01, Saturday 00:33:41
;FORMAT={-:-/ absolute / metric / decimal}
FMAT,2
METRIC,TZ
T1C0.500
T2C0.762
T3C0.800
T4C0.900
T5C1.016
%
G90
G05
M71
T1
X31.072Y51.937
X31.072Y124.937
X86.072Y51.937
X86.072Y124.937
T2
X25.747Y56.883
X25.747Y84.932
X25.747Y129.882
X25.747Y157.933
X28.287Y56.883
X28.287Y84.932
X28.287Y129.882
X28.287Y157.933
X30.827Y56.883
X30.827Y84.932
X30.827Y129.882
X30.827Y157.933
X33.367Y56.883
X33.367Y84.932
X33.367Y129.882
X33.367Y157.933
X35.907Y56.883
X35.907Y84.932
X35.907Y129.882
X35.907Y157.933
X38.447Y56.883
X38.447Y84.932
X38.447Y129.882
X38.447Y157.933
X40.987Y56.883
X40.987Y84.932
X40.987Y129.882
X40.987Y157.933
X43.527Y56.883
X43.527Y84.932
X43.527Y129.882
X43.527Y157.933
X46.067Y56.883
X46.067Y84.932
X46.067Y129.882
X46.067Y157.933
X48.607Y56.883
X48.607Y84.932
X48.607Y129.882
X48.607Y157.933
X51.148Y56.883
X51.148Y84.932
X51.148Y129.882
X51.148Y157.933
X53.688Y56.883
X53.688Y84.932
X53.688Y129.882
X53.688Y157.933
X56.227Y56.883
X56.227Y84.932
X56.227Y129.882
X56.227Y157.933
X58.767Y56.883
X58.767Y84.932
X58.767Y129.882
X58.767Y157.933
X61.307Y56.883
X61.307Y84.932
X61.307Y129.882
X61.307Y157.933
X80.748Y56.883
X80.748Y84.932
X80.748Y129.882
X80.748Y157.933
X83.287Y56.883
X83.287Y84.932
X83.287Y129.882
X83.287Y157.933
X85.828Y56.883
X85.828Y84.932
X85.828Y129.882
X85.828Y157.933
X88.367Y56.883
X88.367Y84.932
X88.367Y129.882
X88.367Y157.933
X90.907Y56.883
X90.907Y84.932
X90.907Y129.882
X90.907Y157.933
X93.447Y56.883
X93.447Y84.932
X93.447Y129.882
X93.447Y157.933
X95.987Y56.883
X95.987Y84.932
X95.987Y129.882
X95.987Y157.933
X98.527Y56.883
X98.527Y84.932
X98.527Y129.882
X98.527Y157.933
X101.067Y56.883
X101.067Y84.932
X101.067Y129.882
X101.067Y157.933
X103.608Y56.883
X103.608Y84.932
X103.608Y129.882
X103.608Y157.933
X106.147Y56.883
X106.147Y84.932
X106.147Y129.882
X106.147Y157.933
X108.688Y56.883
X108.688Y84.932
X108.688Y129.882
X108.688Y157.933
X111.227Y56.883
X111.227Y84.932
X111.227Y129.882
X111.227Y157.933
X113.767Y56.883
X113.767Y84.932
X113.767Y129.882
X113.767Y157.933
X116.307Y56.883
X116.307Y84.932
X116.307Y129.882
X116.307Y157.933
T3
X19.067Y19.932
X19.067Y86.932
X19.067Y92.932
X19.067Y159.933
X67.067Y19.932
X67.067Y86.932
X67.067Y92.932
X67.067Y159.933
X74.067Y19.932
X74.067Y86.932
X74.067Y92.932
X74.067Y159.933
X122.067Y19.932
X122.067Y86.932
X122.067Y92.932
X122.067Y159.933
T4
X63.067Y65.932
X63.067Y68.432
X63.067Y70.932
X63.067Y73.432
X63.067Y75.932
X63.067Y138.933
X63.067Y141.433
X63.067Y143.933
X63.067Y146.433
X63.067Y148.933
X118.067Y65.932
X118.067Y68.432
X118.067Y70.932
X118.067Y73.432
X118.067Y75.932
X118.067Y138.933
X118.067Y141.433
X118.067Y143.933
X118.067Y146.433
X118.067Y148.933
T5
X22.067Y57.392
X22.067Y59.932
X22.067Y62.472
X22.067Y65.013
X22.067Y130.392
X22.067Y132.933
X22.067Y135.472
X22.067Y138.012
X77.067Y57.392
X77.067Y59.932
X77.067Y62.472
X77.067Y65.013
X77.067Y130.392
X77.067Y132.933
X77.067Y135.472
X77.067Y138.012
T0
M30
