M48
;DRILL file {KiCad 4.0.5} date 2017 March 13, Monday 22:05:18
;FORMAT={-:-/ absolute / metric / decimal}
FMAT,2
METRIC,TZ
T1C0.500
T2C0.900
T3C1.016
%
G90
G05
M71
T1
X57.45Y28.05
X57.45Y83.05
X64.75Y44.5
X64.75Y99.5
X66.021Y28.15
X66.021Y83.15
X67.25Y26.5
X67.25Y81.5
X67.5Y41.75
X67.5Y96.75
X70.Y39.16
X70.Y47.75
X70.Y94.16
X70.Y102.75
X70.308Y25.
X70.308Y80.
X74.Y53.
X74.Y108.
X74.75Y34.9
X74.75Y89.9
X127.45Y28.05
X127.45Y83.05
X134.75Y44.5
X134.75Y99.5
X136.021Y28.15
X136.021Y83.15
X137.25Y26.5
X137.25Y81.5
X137.5Y41.75
X137.5Y96.75
X140.Y39.16
X140.Y47.75
X140.Y94.16
X140.Y102.75
X140.308Y25.
X140.308Y80.
X144.Y53.
X144.Y108.
X144.75Y34.9
X144.75Y89.9
T2
X61.5Y58.
X61.5Y113.
X64.Y58.
X64.Y113.
X66.5Y58.
X66.5Y113.
X69.Y58.
X69.Y113.
X71.5Y58.
X71.5Y113.
X131.5Y58.
X131.5Y113.
X134.Y58.
X134.Y113.
X136.5Y58.
X136.5Y113.
X139.Y58.
X139.Y113.
X141.5Y58.
X141.5Y113.
T3
X75.Y21.92
X75.Y24.46
X75.Y27.
X75.Y29.54
X75.Y76.92
X75.Y79.46
X75.Y82.
X75.Y84.54
X79.Y23.92
X79.Y26.46
X79.Y29.
X79.Y31.54
X79.Y34.08
X79.Y36.62
X79.Y39.16
X79.Y41.7
X79.Y44.24
X79.Y46.78
X79.Y49.32
X79.Y78.92
X79.Y81.46
X79.Y84.
X79.Y86.54
X79.Y89.08
X79.Y91.62
X79.Y94.16
X79.Y96.7
X79.Y99.24
X79.Y101.78
X79.Y104.32
X145.Y21.92
X145.Y24.46
X145.Y27.
X145.Y29.54
X145.Y76.92
X145.Y79.46
X145.Y82.
X145.Y84.54
X149.Y23.92
X149.Y26.46
X149.Y29.
X149.Y31.54
X149.Y34.08
X149.Y36.62
X149.Y39.16
X149.Y41.7
X149.Y44.24
X149.Y46.78
X149.Y49.32
X149.Y78.92
X149.Y81.46
X149.Y84.
X149.Y86.54
X149.Y89.08
X149.Y91.62
X149.Y94.16
X149.Y96.7
X149.Y99.24
X149.Y101.78
X149.Y104.32
T0
M30
