M48
;DRILL file {KiCad 4.0.6} date 2017 April 01, Saturday 00:07:33
;FORMAT={-:-/ absolute / metric / decimal}
FMAT,2
METRIC,TZ
T1C0.500
T2C0.762
T3C0.800
T4C0.900
T5C1.016
%
G90
G05
M71
T1
X66.996Y44.004
X66.996Y99.004
X139.996Y44.004
X139.996Y99.004
T2
X34.Y38.68
X34.Y41.22
X34.Y43.76
X34.Y46.3
X34.Y48.84
X34.Y51.38
X34.Y53.92
X34.Y56.46
X34.Y59.
X34.Y61.54
X34.Y64.08
X34.Y66.62
X34.Y69.16
X34.Y71.7
X34.Y74.24
X34.Y93.68
X34.Y96.22
X34.Y98.76
X34.Y101.3
X34.Y103.84
X34.Y106.38
X34.Y108.92
X34.Y111.46
X34.Y114.
X34.Y116.54
X34.Y119.08
X34.Y121.62
X34.Y124.16
X34.Y126.7
X34.Y129.24
X62.05Y38.68
X62.05Y41.22
X62.05Y43.76
X62.05Y46.3
X62.05Y48.84
X62.05Y51.38
X62.05Y53.92
X62.05Y56.46
X62.05Y59.
X62.05Y61.54
X62.05Y64.08
X62.05Y66.62
X62.05Y69.16
X62.05Y71.7
X62.05Y74.24
X62.05Y93.68
X62.05Y96.22
X62.05Y98.76
X62.05Y101.3
X62.05Y103.84
X62.05Y106.38
X62.05Y108.92
X62.05Y111.46
X62.05Y114.
X62.05Y116.54
X62.05Y119.08
X62.05Y121.62
X62.05Y124.16
X62.05Y126.7
X62.05Y129.24
X107.Y38.68
X107.Y41.22
X107.Y43.76
X107.Y46.3
X107.Y48.84
X107.Y51.38
X107.Y53.92
X107.Y56.46
X107.Y59.
X107.Y61.54
X107.Y64.08
X107.Y66.62
X107.Y69.16
X107.Y71.7
X107.Y74.24
X107.Y93.68
X107.Y96.22
X107.Y98.76
X107.Y101.3
X107.Y103.84
X107.Y106.38
X107.Y108.92
X107.Y111.46
X107.Y114.
X107.Y116.54
X107.Y119.08
X107.Y121.62
X107.Y124.16
X107.Y126.7
X107.Y129.24
X135.05Y38.68
X135.05Y41.22
X135.05Y43.76
X135.05Y46.3
X135.05Y48.84
X135.05Y51.38
X135.05Y53.92
X135.05Y56.46
X135.05Y59.
X135.05Y61.54
X135.05Y64.08
X135.05Y66.62
X135.05Y69.16
X135.05Y71.7
X135.05Y74.24
X135.05Y93.68
X135.05Y96.22
X135.05Y98.76
X135.05Y101.3
X135.05Y103.84
X135.05Y106.38
X135.05Y108.92
X135.05Y111.46
X135.05Y114.
X135.05Y116.54
X135.05Y119.08
X135.05Y121.62
X135.05Y124.16
X135.05Y126.7
X135.05Y129.24
T3
X32.Y32.
X32.Y80.
X32.Y87.
X32.Y135.
X99.Y32.
X99.Y80.
X99.Y87.
X99.Y135.
X105.Y32.
X105.Y80.
X105.Y87.
X105.Y135.
X172.Y32.
X172.Y80.
X172.Y87.
X172.Y135.
T4
X43.Y76.
X43.Y131.
X45.5Y76.
X45.5Y131.
X48.Y76.
X48.Y131.
X50.5Y76.
X50.5Y131.
X53.Y76.
X53.Y131.
X116.Y76.
X116.Y131.
X118.5Y76.
X118.5Y131.
X121.Y76.
X121.Y131.
X123.5Y76.
X123.5Y131.
X126.Y76.
X126.Y131.
T5
X53.92Y35.
X53.92Y90.
X56.46Y35.
X56.46Y90.
X59.Y35.
X59.Y90.
X61.54Y35.
X61.54Y90.
X126.92Y35.
X126.92Y90.
X129.46Y35.
X129.46Y90.
X132.Y35.
X132.Y90.
X134.54Y35.
X134.54Y90.
T0
M30
