M48
;DRILL file {KiCad 4.0.6} date Saturday, 01 April 2017 'PMt' 18:32:50
;FORMAT={-:-/ absolute / metric / decimal}
FMAT,2
METRIC,TZ
T1C0.500
T2C0.762
T3C0.900
T4C1.016
%
G90
G05
M71
T1
X31.072Y51.937
X31.072Y122.937
X82.072Y51.937
X82.072Y122.937
T2
X25.747Y56.883
X25.747Y84.932
X25.747Y127.882
X25.747Y155.933
X28.287Y56.883
X28.287Y84.932
X28.287Y127.882
X28.287Y155.933
X30.827Y56.883
X30.827Y84.932
X30.827Y127.882
X30.827Y155.933
X33.367Y56.883
X33.367Y84.932
X33.367Y127.882
X33.367Y155.933
X35.907Y56.883
X35.907Y84.932
X35.907Y127.882
X35.907Y155.933
X38.447Y56.883
X38.447Y84.932
X38.447Y127.882
X38.447Y155.933
X40.987Y56.883
X40.987Y84.932
X40.987Y127.882
X40.987Y155.933
X43.527Y56.883
X43.527Y84.932
X43.527Y127.882
X43.527Y155.933
X46.067Y56.883
X46.067Y84.932
X46.067Y127.882
X46.067Y155.933
X48.607Y56.883
X48.607Y84.932
X48.607Y127.882
X48.607Y155.933
X51.148Y56.883
X51.148Y84.932
X51.148Y127.882
X51.148Y155.933
X53.688Y56.883
X53.688Y84.932
X53.688Y127.882
X53.688Y155.933
X56.227Y56.883
X56.227Y84.932
X56.227Y127.882
X56.227Y155.933
X58.767Y56.883
X58.767Y84.932
X58.767Y127.882
X58.767Y155.933
X61.307Y56.883
X61.307Y84.932
X61.307Y127.882
X61.307Y155.933
X76.748Y56.883
X76.748Y84.932
X76.748Y127.882
X76.748Y155.933
X79.287Y56.883
X79.287Y84.932
X79.287Y127.882
X79.287Y155.933
X81.828Y56.883
X81.828Y84.932
X81.828Y127.882
X81.828Y155.933
X84.367Y56.883
X84.367Y84.932
X84.367Y127.882
X84.367Y155.933
X86.907Y56.883
X86.907Y84.932
X86.907Y127.882
X86.907Y155.933
X89.447Y56.883
X89.447Y84.932
X89.447Y127.882
X89.447Y155.933
X91.987Y56.883
X91.987Y84.932
X91.987Y127.882
X91.987Y155.933
X94.527Y56.883
X94.527Y84.932
X94.527Y127.882
X94.527Y155.933
X97.067Y56.883
X97.067Y84.932
X97.067Y127.882
X97.067Y155.933
X99.608Y56.883
X99.608Y84.932
X99.608Y127.882
X99.608Y155.933
X102.147Y56.883
X102.147Y84.932
X102.147Y127.882
X102.147Y155.933
X104.688Y56.883
X104.688Y84.932
X104.688Y127.882
X104.688Y155.933
X107.227Y56.883
X107.227Y84.932
X107.227Y127.882
X107.227Y155.933
X109.767Y56.883
X109.767Y84.932
X109.767Y127.882
X109.767Y155.933
X112.307Y56.883
X112.307Y84.932
X112.307Y127.882
X112.307Y155.933
T3
X63.067Y65.932
X63.067Y68.432
X63.067Y70.932
X63.067Y73.432
X63.067Y75.932
X63.067Y136.933
X63.067Y139.433
X63.067Y141.933
X63.067Y144.433
X63.067Y146.933
X114.067Y65.932
X114.067Y68.432
X114.067Y70.932
X114.067Y73.432
X114.067Y75.932
X114.067Y136.933
X114.067Y139.433
X114.067Y141.933
X114.067Y144.433
X114.067Y146.933
T4
X22.067Y57.392
X22.067Y59.932
X22.067Y62.472
X22.067Y65.013
X22.067Y128.392
X22.067Y130.933
X22.067Y133.472
X22.067Y136.012
X73.067Y57.392
X73.067Y59.932
X73.067Y62.472
X73.067Y65.013
X73.067Y128.392
X73.067Y130.933
X73.067Y133.472
X73.067Y136.012
T0
M30
