G04 #@! TF.FileFunction,Legend,Top*
%FSLAX46Y46*%
G04 Gerber Fmt 4.6, Leading zero omitted, Abs format (unit mm)*
G04 Created by KiCad (PCBNEW 4.0.6) date 2017 May 11, Thursday 23:22:10*
%MOMM*%
%LPD*%
G01*
G04 APERTURE LIST*
%ADD10C,1.000000*%
%ADD11C,0.150000*%
G04 APERTURE END LIST*
D10*
D11*
X24867500Y-81007500D02*
X24867500Y-81957500D01*
X24867500Y-81957500D02*
X24467500Y-81957500D01*
X24867500Y-70857500D02*
X24867500Y-69907500D01*
X24867500Y-69907500D02*
X24467500Y-69907500D01*
X20767500Y-81957500D02*
X20367500Y-81957500D01*
X20367500Y-81957500D02*
X20367500Y-75932500D01*
X20767500Y-69907500D02*
X20367500Y-69907500D01*
X20367500Y-69907500D02*
X20367500Y-75932500D01*
X24867500Y-70857500D02*
X26367500Y-70857500D01*
X20797500Y-58662500D02*
X20797500Y-66282500D01*
X23337500Y-58662500D02*
X23337500Y-66282500D01*
X23617500Y-55842500D02*
X23617500Y-57392500D01*
X20797500Y-66282500D02*
X23337500Y-66282500D01*
X23337500Y-58662500D02*
X20797500Y-58662500D01*
X20517500Y-57392500D02*
X20517500Y-55842500D01*
X20517500Y-55842500D02*
X23617500Y-55842500D01*
X53650000Y-75000000D02*
X53650000Y-67400000D01*
X53650000Y-67400000D02*
X65450000Y-67400000D01*
X65450000Y-67400000D02*
X65450000Y-68600000D01*
X65450000Y-68600000D02*
X60950000Y-68600000D01*
X60950000Y-68600000D02*
X60950000Y-75000000D01*
X53650000Y-75000000D02*
X53650000Y-82600000D01*
X53650000Y-82600000D02*
X65450000Y-82600000D01*
X65450000Y-82600000D02*
X65450000Y-81400000D01*
X65450000Y-81400000D02*
X60950000Y-81400000D01*
X60950000Y-81400000D02*
X60950000Y-75000000D01*
X60300000Y-69750000D02*
X54300000Y-69750000D01*
X54300000Y-69750000D02*
X54300000Y-70250000D01*
X54300000Y-70250000D02*
X60300000Y-70250000D01*
X60300000Y-70250000D02*
X60300000Y-69750000D01*
X60300000Y-72250000D02*
X54300000Y-72250000D01*
X54300000Y-72250000D02*
X54300000Y-72750000D01*
X54300000Y-72750000D02*
X60300000Y-72750000D01*
X60300000Y-72750000D02*
X60300000Y-72250000D01*
X60300000Y-74750000D02*
X54300000Y-74750000D01*
X54300000Y-74750000D02*
X54300000Y-75250000D01*
X54300000Y-75250000D02*
X60300000Y-75250000D01*
X60300000Y-75250000D02*
X60300000Y-74750000D01*
X60300000Y-77250000D02*
X54300000Y-77250000D01*
X54300000Y-77250000D02*
X54300000Y-77750000D01*
X54300000Y-77750000D02*
X60300000Y-77750000D01*
X60300000Y-77750000D02*
X60300000Y-77250000D01*
X60300000Y-79750000D02*
X54300000Y-79750000D01*
X54300000Y-79750000D02*
X54300000Y-80250000D01*
X54300000Y-80250000D02*
X60300000Y-80250000D01*
X60300000Y-80250000D02*
X60300000Y-79750000D01*
X64500000Y-70000000D02*
X65100000Y-69700000D01*
X65100000Y-69700000D02*
X65100000Y-70300000D01*
X65100000Y-70300000D02*
X64500000Y-70000000D01*
X73587500Y-86422500D02*
X15587500Y-86422500D01*
X73587500Y-55422500D02*
X73587500Y-86422500D01*
X15587500Y-55422500D02*
X73587500Y-55422500D01*
X15587500Y-86422500D02*
X15587500Y-55422500D01*
X60437695Y-63003010D02*
G75*
G03X59950000Y-62300000I-2187695J-996990D01*
G01*
X56062305Y-63003010D02*
G75*
G02X56550000Y-62300000I2187695J-996990D01*
G01*
X59950000Y-62300000D02*
X56550000Y-62300000D01*
X60434879Y-64993127D02*
G75*
G02X58250000Y-66400000I-2184879J993127D01*
G01*
X56065121Y-64993127D02*
G75*
G03X58250000Y-66400000I2184879J993127D01*
G01*
X30230000Y-65980000D02*
X30230000Y-60900000D01*
X30230000Y-60900000D02*
X32770000Y-60900000D01*
X32770000Y-60900000D02*
X32770000Y-65980000D01*
X32770000Y-65980000D02*
X30230000Y-65980000D01*
X26980000Y-65980000D02*
X26980000Y-60900000D01*
X26980000Y-60900000D02*
X29520000Y-60900000D01*
X29520000Y-60900000D02*
X29520000Y-65980000D01*
X29520000Y-65980000D02*
X26980000Y-65980000D01*
X43520000Y-69730000D02*
X48600000Y-69730000D01*
X48600000Y-69730000D02*
X48600000Y-72270000D01*
X48600000Y-72270000D02*
X43520000Y-72270000D01*
X43520000Y-72270000D02*
X43520000Y-69730000D01*
X28019881Y-76670595D02*
X27019881Y-76670595D01*
X27019881Y-76289642D01*
X27067500Y-76194404D01*
X27115119Y-76146785D01*
X27210357Y-76099166D01*
X27353214Y-76099166D01*
X27448452Y-76146785D01*
X27496071Y-76194404D01*
X27543690Y-76289642D01*
X27543690Y-76670595D01*
X28019881Y-75146785D02*
X28019881Y-75718214D01*
X28019881Y-75432500D02*
X27019881Y-75432500D01*
X27162738Y-75527738D01*
X27257976Y-75622976D01*
X27305595Y-75718214D01*
X21329405Y-52744881D02*
X21329405Y-51744881D01*
X21710358Y-51744881D01*
X21805596Y-51792500D01*
X21853215Y-51840119D01*
X21900834Y-51935357D01*
X21900834Y-52078214D01*
X21853215Y-52173452D01*
X21805596Y-52221071D01*
X21710358Y-52268690D01*
X21329405Y-52268690D01*
X22281786Y-51840119D02*
X22329405Y-51792500D01*
X22424643Y-51744881D01*
X22662739Y-51744881D01*
X22757977Y-51792500D01*
X22805596Y-51840119D01*
X22853215Y-51935357D01*
X22853215Y-52030595D01*
X22805596Y-52173452D01*
X22234167Y-52744881D01*
X22853215Y-52744881D01*
X57589881Y-25650595D02*
X56589881Y-25650595D01*
X56589881Y-25269642D01*
X56637500Y-25174404D01*
X56685119Y-25126785D01*
X56780357Y-25079166D01*
X56923214Y-25079166D01*
X57018452Y-25126785D01*
X57066071Y-25174404D01*
X57113690Y-25269642D01*
X57113690Y-25650595D01*
X56589881Y-24174404D02*
X56589881Y-24650595D01*
X57066071Y-24698214D01*
X57018452Y-24650595D01*
X56970833Y-24555357D01*
X56970833Y-24317261D01*
X57018452Y-24222023D01*
X57066071Y-24174404D01*
X57161310Y-24126785D01*
X57399405Y-24126785D01*
X57494643Y-24174404D01*
X57542262Y-24222023D01*
X57589881Y-24317261D01*
X57589881Y-24555357D01*
X57542262Y-24650595D01*
X57494643Y-24698214D01*
X66952381Y-75738095D02*
X65952381Y-75738095D01*
X65952381Y-75357142D01*
X66000000Y-75261904D01*
X66047619Y-75214285D01*
X66142857Y-75166666D01*
X66285714Y-75166666D01*
X66380952Y-75214285D01*
X66428571Y-75261904D01*
X66476190Y-75357142D01*
X66476190Y-75738095D01*
X65952381Y-74833333D02*
X65952381Y-74214285D01*
X66333333Y-74547619D01*
X66333333Y-74404761D01*
X66380952Y-74309523D01*
X66428571Y-74261904D01*
X66523810Y-74214285D01*
X66761905Y-74214285D01*
X66857143Y-74261904D01*
X66904762Y-74309523D01*
X66952381Y-74404761D01*
X66952381Y-74690476D01*
X66904762Y-74785714D01*
X66857143Y-74833333D01*
X70157881Y-72702405D02*
X70967405Y-72702405D01*
X71062643Y-72654786D01*
X71110262Y-72607167D01*
X71157881Y-72511929D01*
X71157881Y-72321452D01*
X71110262Y-72226214D01*
X71062643Y-72178595D01*
X70967405Y-72130976D01*
X70157881Y-72130976D01*
X71157881Y-71130976D02*
X71157881Y-71702405D01*
X71157881Y-71416691D02*
X70157881Y-71416691D01*
X70300738Y-71511929D01*
X70395976Y-71607167D01*
X70443595Y-71702405D01*
X60694762Y-68547619D02*
X60599524Y-68500000D01*
X60504286Y-68404762D01*
X60361429Y-68261905D01*
X60266190Y-68214286D01*
X60170952Y-68214286D01*
X60218571Y-68452381D02*
X60123333Y-68404762D01*
X60028095Y-68309524D01*
X59980476Y-68119048D01*
X59980476Y-67785714D01*
X60028095Y-67595238D01*
X60123333Y-67500000D01*
X60218571Y-67452381D01*
X60409048Y-67452381D01*
X60504286Y-67500000D01*
X60599524Y-67595238D01*
X60647143Y-67785714D01*
X60647143Y-68119048D01*
X60599524Y-68309524D01*
X60504286Y-68404762D01*
X60409048Y-68452381D01*
X60218571Y-68452381D01*
X61599524Y-68452381D02*
X61028095Y-68452381D01*
X61313809Y-68452381D02*
X61313809Y-67452381D01*
X61218571Y-67595238D01*
X61123333Y-67690476D01*
X61028095Y-67738095D01*
X28452261Y-63357746D02*
X27976070Y-63691080D01*
X28452261Y-63929175D02*
X27452261Y-63929175D01*
X27452261Y-63548222D01*
X27499880Y-63452984D01*
X27547499Y-63405365D01*
X27642737Y-63357746D01*
X27785594Y-63357746D01*
X27880832Y-63405365D01*
X27928451Y-63452984D01*
X27976070Y-63548222D01*
X27976070Y-63929175D01*
X28452261Y-62405365D02*
X28452261Y-62976794D01*
X28452261Y-62691080D02*
X27452261Y-62691080D01*
X27595118Y-62786318D01*
X27690356Y-62881556D01*
X27737975Y-62976794D01*
X26134881Y-63234166D02*
X25658690Y-63567500D01*
X26134881Y-63805595D02*
X25134881Y-63805595D01*
X25134881Y-63424642D01*
X25182500Y-63329404D01*
X25230119Y-63281785D01*
X25325357Y-63234166D01*
X25468214Y-63234166D01*
X25563452Y-63281785D01*
X25611071Y-63329404D01*
X25658690Y-63424642D01*
X25658690Y-63805595D01*
X25230119Y-62853214D02*
X25182500Y-62805595D01*
X25134881Y-62710357D01*
X25134881Y-62472261D01*
X25182500Y-62377023D01*
X25230119Y-62329404D01*
X25325357Y-62281785D01*
X25420595Y-62281785D01*
X25563452Y-62329404D01*
X26134881Y-62900833D01*
X26134881Y-62281785D01*
X46142254Y-67952261D02*
X45808920Y-67476070D01*
X45570825Y-67952261D02*
X45570825Y-66952261D01*
X45951778Y-66952261D01*
X46047016Y-66999880D01*
X46094635Y-67047499D01*
X46142254Y-67142737D01*
X46142254Y-67285594D01*
X46094635Y-67380832D01*
X46047016Y-67428451D01*
X45951778Y-67476070D01*
X45570825Y-67476070D01*
X46999397Y-67285594D02*
X46999397Y-67952261D01*
X46761301Y-66904642D02*
X46523206Y-67618928D01*
X47142254Y-67618928D01*
M02*
