G04 #@! TF.FileFunction,Other,User*
%FSLAX46Y46*%
G04 Gerber Fmt 4.6, Leading zero omitted, Abs format (unit mm)*
G04 Created by KiCad (PCBNEW 4.0.6) date 2017 May 11, Thursday 23:22:10*
%MOMM*%
%LPD*%
G01*
G04 APERTURE LIST*
%ADD10C,1.000000*%
%ADD11C,0.050000*%
G04 APERTURE END LIST*
D10*
D11*
X26917500Y-75932500D02*
X26917500Y-70382500D01*
X26917500Y-70382500D02*
X25317500Y-70382500D01*
X25317500Y-70382500D02*
X25317500Y-67382500D01*
X25317500Y-67382500D02*
X19917500Y-67382500D01*
X19917500Y-67382500D02*
X19917500Y-75932500D01*
X26917500Y-75932500D02*
X26917500Y-81482500D01*
X26917500Y-81482500D02*
X25317500Y-81482500D01*
X25317500Y-81482500D02*
X25317500Y-84482500D01*
X25317500Y-84482500D02*
X19917500Y-84482500D01*
X19917500Y-84482500D02*
X19917500Y-75932500D01*
X20317500Y-55642500D02*
X20317500Y-66792500D01*
X23817500Y-55642500D02*
X23817500Y-66792500D01*
X20317500Y-55642500D02*
X23817500Y-55642500D01*
X20317500Y-66792500D02*
X23817500Y-66792500D01*
X65800000Y-67050000D02*
X53300000Y-67050000D01*
X53300000Y-67050000D02*
X53300000Y-82950000D01*
X53300000Y-82950000D02*
X65800000Y-82950000D01*
X65800000Y-82950000D02*
X65800000Y-67050000D01*
X61790000Y-62050000D02*
X61790000Y-66650000D01*
X61790000Y-62050000D02*
X54690000Y-62050000D01*
X61790000Y-66650000D02*
X54690000Y-66650000D01*
X54690000Y-62050000D02*
X54690000Y-66650000D01*
X30000000Y-68500000D02*
X30000000Y-58400000D01*
X33000000Y-68500000D02*
X30000000Y-68500000D01*
X30000000Y-58400000D02*
X33000000Y-58400000D01*
X33000000Y-68500000D02*
X33000000Y-58400000D01*
X26750000Y-68500000D02*
X26750000Y-58400000D01*
X29750000Y-68500000D02*
X26750000Y-68500000D01*
X26750000Y-58400000D02*
X29750000Y-58400000D01*
X29750000Y-68500000D02*
X29750000Y-58400000D01*
X41000000Y-69500000D02*
X51100000Y-69500000D01*
X41000000Y-72500000D02*
X41000000Y-69500000D01*
X51100000Y-69500000D02*
X51100000Y-72500000D01*
X41000000Y-72500000D02*
X51100000Y-72500000D01*
M02*
