G04 #@! TF.FileFunction,Other,Fab,Bot*
%FSLAX46Y46*%
G04 Gerber Fmt 4.6, Leading zero omitted, Abs format (unit mm)*
G04 Created by KiCad (PCBNEW 4.0.6) date 2017 May 11, Thursday 23:22:10*
%MOMM*%
%LPD*%
G01*
G04 APERTURE LIST*
%ADD10C,1.000000*%
%ADD11C,0.150000*%
G04 APERTURE END LIST*
D10*
D11*
X35467500Y-46132500D02*
X35467500Y-47732500D01*
X38667500Y-46132500D02*
X35467500Y-46132500D01*
X38667500Y-47732500D02*
X38667500Y-46132500D01*
X35467500Y-47732500D02*
X38667500Y-47732500D01*
X45467500Y-46132500D02*
X45467500Y-47732500D01*
X48667500Y-46132500D02*
X45467500Y-46132500D01*
X48667500Y-47732500D02*
X48667500Y-46132500D01*
X45467500Y-47732500D02*
X48667500Y-47732500D01*
X48667500Y-67732500D02*
X48667500Y-66132500D01*
X45467500Y-67732500D02*
X48667500Y-67732500D01*
X45467500Y-66132500D02*
X45467500Y-67732500D01*
X48667500Y-66132500D02*
X45467500Y-66132500D01*
X35467500Y-66132500D02*
X35467500Y-67732500D01*
X38667500Y-66132500D02*
X35467500Y-66132500D01*
X38667500Y-67732500D02*
X38667500Y-66132500D01*
X35467500Y-67732500D02*
X38667500Y-67732500D01*
X40377024Y-55384881D02*
X40138929Y-56384881D01*
X39948452Y-55670595D01*
X39757976Y-56384881D01*
X39519881Y-55384881D01*
X39186548Y-56337262D02*
X39043691Y-56384881D01*
X38805595Y-56384881D01*
X38710357Y-56337262D01*
X38662738Y-56289643D01*
X38615119Y-56194405D01*
X38615119Y-56099167D01*
X38662738Y-56003929D01*
X38710357Y-55956310D01*
X38805595Y-55908690D01*
X38996072Y-55861071D01*
X39091310Y-55813452D01*
X39138929Y-55765833D01*
X39186548Y-55670595D01*
X39186548Y-55575357D01*
X39138929Y-55480119D01*
X39091310Y-55432500D01*
X38996072Y-55384881D01*
X38757976Y-55384881D01*
X38615119Y-55432500D01*
X38234167Y-55480119D02*
X38186548Y-55432500D01*
X38091310Y-55384881D01*
X37853214Y-55384881D01*
X37757976Y-55432500D01*
X37710357Y-55480119D01*
X37662738Y-55575357D01*
X37662738Y-55670595D01*
X37710357Y-55813452D01*
X38281786Y-56384881D01*
X37662738Y-56384881D01*
X37091310Y-55813452D02*
X37186548Y-55765833D01*
X37234167Y-55718214D01*
X37281786Y-55622976D01*
X37281786Y-55575357D01*
X37234167Y-55480119D01*
X37186548Y-55432500D01*
X37091310Y-55384881D01*
X36900833Y-55384881D01*
X36805595Y-55432500D01*
X36757976Y-55480119D01*
X36710357Y-55575357D01*
X36710357Y-55622976D01*
X36757976Y-55718214D01*
X36805595Y-55765833D01*
X36900833Y-55813452D01*
X37091310Y-55813452D01*
X37186548Y-55861071D01*
X37234167Y-55908690D01*
X37281786Y-56003929D01*
X37281786Y-56194405D01*
X37234167Y-56289643D01*
X37186548Y-56337262D01*
X37091310Y-56384881D01*
X36900833Y-56384881D01*
X36805595Y-56337262D01*
X36757976Y-56289643D01*
X36710357Y-56194405D01*
X36710357Y-56003929D01*
X36757976Y-55908690D01*
X36805595Y-55861071D01*
X36900833Y-55813452D01*
X35757976Y-56384881D02*
X36329405Y-56384881D01*
X36043691Y-56384881D02*
X36043691Y-55384881D01*
X36138929Y-55527738D01*
X36234167Y-55622976D01*
X36329405Y-55670595D01*
X35377024Y-55480119D02*
X35329405Y-55432500D01*
X35234167Y-55384881D01*
X34996071Y-55384881D01*
X34900833Y-55432500D01*
X34853214Y-55480119D01*
X34805595Y-55575357D01*
X34805595Y-55670595D01*
X34853214Y-55813452D01*
X35424643Y-56384881D01*
X34805595Y-56384881D01*
X34043690Y-55861071D02*
X33900833Y-55908690D01*
X33853214Y-55956310D01*
X33805595Y-56051548D01*
X33805595Y-56194405D01*
X33853214Y-56289643D01*
X33900833Y-56337262D01*
X33996071Y-56384881D01*
X34377024Y-56384881D01*
X34377024Y-55384881D01*
X34043690Y-55384881D01*
X33948452Y-55432500D01*
X33900833Y-55480119D01*
X33853214Y-55575357D01*
X33853214Y-55670595D01*
X33900833Y-55765833D01*
X33948452Y-55813452D01*
X34043690Y-55861071D01*
X34377024Y-55861071D01*
X38615119Y-45084881D02*
X39186548Y-45084881D01*
X38900834Y-45084881D02*
X38900834Y-44084881D01*
X38996072Y-44227738D01*
X39091310Y-44322976D01*
X39186548Y-44370595D01*
X37996072Y-44084881D02*
X37900833Y-44084881D01*
X37805595Y-44132500D01*
X37757976Y-44180119D01*
X37710357Y-44275357D01*
X37662738Y-44465833D01*
X37662738Y-44703929D01*
X37710357Y-44894405D01*
X37757976Y-44989643D01*
X37805595Y-45037262D01*
X37900833Y-45084881D01*
X37996072Y-45084881D01*
X38091310Y-45037262D01*
X38138929Y-44989643D01*
X38186548Y-44894405D01*
X38234167Y-44703929D01*
X38234167Y-44465833D01*
X38186548Y-44275357D01*
X38138929Y-44180119D01*
X38091310Y-44132500D01*
X37996072Y-44084881D01*
X37043691Y-44084881D02*
X36948452Y-44084881D01*
X36853214Y-44132500D01*
X36805595Y-44180119D01*
X36757976Y-44275357D01*
X36710357Y-44465833D01*
X36710357Y-44703929D01*
X36757976Y-44894405D01*
X36805595Y-44989643D01*
X36853214Y-45037262D01*
X36948452Y-45084881D01*
X37043691Y-45084881D01*
X37138929Y-45037262D01*
X37186548Y-44989643D01*
X37234167Y-44894405D01*
X37281786Y-44703929D01*
X37281786Y-44465833D01*
X37234167Y-44275357D01*
X37186548Y-44180119D01*
X37138929Y-44132500D01*
X37043691Y-44084881D01*
X36281786Y-44418214D02*
X36281786Y-45084881D01*
X36281786Y-44513452D02*
X36234167Y-44465833D01*
X36138929Y-44418214D01*
X35996071Y-44418214D01*
X35900833Y-44465833D01*
X35853214Y-44561071D01*
X35853214Y-45084881D01*
X35043690Y-44561071D02*
X35377024Y-44561071D01*
X35377024Y-45084881D02*
X35377024Y-44084881D01*
X34900833Y-44084881D01*
X48615119Y-45084881D02*
X49186548Y-45084881D01*
X48900834Y-45084881D02*
X48900834Y-44084881D01*
X48996072Y-44227738D01*
X49091310Y-44322976D01*
X49186548Y-44370595D01*
X47996072Y-44084881D02*
X47900833Y-44084881D01*
X47805595Y-44132500D01*
X47757976Y-44180119D01*
X47710357Y-44275357D01*
X47662738Y-44465833D01*
X47662738Y-44703929D01*
X47710357Y-44894405D01*
X47757976Y-44989643D01*
X47805595Y-45037262D01*
X47900833Y-45084881D01*
X47996072Y-45084881D01*
X48091310Y-45037262D01*
X48138929Y-44989643D01*
X48186548Y-44894405D01*
X48234167Y-44703929D01*
X48234167Y-44465833D01*
X48186548Y-44275357D01*
X48138929Y-44180119D01*
X48091310Y-44132500D01*
X47996072Y-44084881D01*
X47043691Y-44084881D02*
X46948452Y-44084881D01*
X46853214Y-44132500D01*
X46805595Y-44180119D01*
X46757976Y-44275357D01*
X46710357Y-44465833D01*
X46710357Y-44703929D01*
X46757976Y-44894405D01*
X46805595Y-44989643D01*
X46853214Y-45037262D01*
X46948452Y-45084881D01*
X47043691Y-45084881D01*
X47138929Y-45037262D01*
X47186548Y-44989643D01*
X47234167Y-44894405D01*
X47281786Y-44703929D01*
X47281786Y-44465833D01*
X47234167Y-44275357D01*
X47186548Y-44180119D01*
X47138929Y-44132500D01*
X47043691Y-44084881D01*
X46281786Y-44418214D02*
X46281786Y-45084881D01*
X46281786Y-44513452D02*
X46234167Y-44465833D01*
X46138929Y-44418214D01*
X45996071Y-44418214D01*
X45900833Y-44465833D01*
X45853214Y-44561071D01*
X45853214Y-45084881D01*
X45043690Y-44561071D02*
X45377024Y-44561071D01*
X45377024Y-45084881D02*
X45377024Y-44084881D01*
X44900833Y-44084881D01*
X50377024Y-55384881D02*
X50138929Y-56384881D01*
X49948452Y-55670595D01*
X49757976Y-56384881D01*
X49519881Y-55384881D01*
X49186548Y-56337262D02*
X49043691Y-56384881D01*
X48805595Y-56384881D01*
X48710357Y-56337262D01*
X48662738Y-56289643D01*
X48615119Y-56194405D01*
X48615119Y-56099167D01*
X48662738Y-56003929D01*
X48710357Y-55956310D01*
X48805595Y-55908690D01*
X48996072Y-55861071D01*
X49091310Y-55813452D01*
X49138929Y-55765833D01*
X49186548Y-55670595D01*
X49186548Y-55575357D01*
X49138929Y-55480119D01*
X49091310Y-55432500D01*
X48996072Y-55384881D01*
X48757976Y-55384881D01*
X48615119Y-55432500D01*
X48234167Y-55480119D02*
X48186548Y-55432500D01*
X48091310Y-55384881D01*
X47853214Y-55384881D01*
X47757976Y-55432500D01*
X47710357Y-55480119D01*
X47662738Y-55575357D01*
X47662738Y-55670595D01*
X47710357Y-55813452D01*
X48281786Y-56384881D01*
X47662738Y-56384881D01*
X47091310Y-55813452D02*
X47186548Y-55765833D01*
X47234167Y-55718214D01*
X47281786Y-55622976D01*
X47281786Y-55575357D01*
X47234167Y-55480119D01*
X47186548Y-55432500D01*
X47091310Y-55384881D01*
X46900833Y-55384881D01*
X46805595Y-55432500D01*
X46757976Y-55480119D01*
X46710357Y-55575357D01*
X46710357Y-55622976D01*
X46757976Y-55718214D01*
X46805595Y-55765833D01*
X46900833Y-55813452D01*
X47091310Y-55813452D01*
X47186548Y-55861071D01*
X47234167Y-55908690D01*
X47281786Y-56003929D01*
X47281786Y-56194405D01*
X47234167Y-56289643D01*
X47186548Y-56337262D01*
X47091310Y-56384881D01*
X46900833Y-56384881D01*
X46805595Y-56337262D01*
X46757976Y-56289643D01*
X46710357Y-56194405D01*
X46710357Y-56003929D01*
X46757976Y-55908690D01*
X46805595Y-55861071D01*
X46900833Y-55813452D01*
X45757976Y-56384881D02*
X46329405Y-56384881D01*
X46043691Y-56384881D02*
X46043691Y-55384881D01*
X46138929Y-55527738D01*
X46234167Y-55622976D01*
X46329405Y-55670595D01*
X45377024Y-55480119D02*
X45329405Y-55432500D01*
X45234167Y-55384881D01*
X44996071Y-55384881D01*
X44900833Y-55432500D01*
X44853214Y-55480119D01*
X44805595Y-55575357D01*
X44805595Y-55670595D01*
X44853214Y-55813452D01*
X45424643Y-56384881D01*
X44805595Y-56384881D01*
X44043690Y-55861071D02*
X43900833Y-55908690D01*
X43853214Y-55956310D01*
X43805595Y-56051548D01*
X43805595Y-56194405D01*
X43853214Y-56289643D01*
X43900833Y-56337262D01*
X43996071Y-56384881D01*
X44377024Y-56384881D01*
X44377024Y-55384881D01*
X44043690Y-55384881D01*
X43948452Y-55432500D01*
X43900833Y-55480119D01*
X43853214Y-55575357D01*
X43853214Y-55670595D01*
X43900833Y-55765833D01*
X43948452Y-55813452D01*
X44043690Y-55861071D01*
X44377024Y-55861071D01*
X40377024Y-65384881D02*
X40138929Y-66384881D01*
X39948452Y-65670595D01*
X39757976Y-66384881D01*
X39519881Y-65384881D01*
X39186548Y-66337262D02*
X39043691Y-66384881D01*
X38805595Y-66384881D01*
X38710357Y-66337262D01*
X38662738Y-66289643D01*
X38615119Y-66194405D01*
X38615119Y-66099167D01*
X38662738Y-66003929D01*
X38710357Y-65956310D01*
X38805595Y-65908690D01*
X38996072Y-65861071D01*
X39091310Y-65813452D01*
X39138929Y-65765833D01*
X39186548Y-65670595D01*
X39186548Y-65575357D01*
X39138929Y-65480119D01*
X39091310Y-65432500D01*
X38996072Y-65384881D01*
X38757976Y-65384881D01*
X38615119Y-65432500D01*
X38234167Y-65480119D02*
X38186548Y-65432500D01*
X38091310Y-65384881D01*
X37853214Y-65384881D01*
X37757976Y-65432500D01*
X37710357Y-65480119D01*
X37662738Y-65575357D01*
X37662738Y-65670595D01*
X37710357Y-65813452D01*
X38281786Y-66384881D01*
X37662738Y-66384881D01*
X37091310Y-65813452D02*
X37186548Y-65765833D01*
X37234167Y-65718214D01*
X37281786Y-65622976D01*
X37281786Y-65575357D01*
X37234167Y-65480119D01*
X37186548Y-65432500D01*
X37091310Y-65384881D01*
X36900833Y-65384881D01*
X36805595Y-65432500D01*
X36757976Y-65480119D01*
X36710357Y-65575357D01*
X36710357Y-65622976D01*
X36757976Y-65718214D01*
X36805595Y-65765833D01*
X36900833Y-65813452D01*
X37091310Y-65813452D01*
X37186548Y-65861071D01*
X37234167Y-65908690D01*
X37281786Y-66003929D01*
X37281786Y-66194405D01*
X37234167Y-66289643D01*
X37186548Y-66337262D01*
X37091310Y-66384881D01*
X36900833Y-66384881D01*
X36805595Y-66337262D01*
X36757976Y-66289643D01*
X36710357Y-66194405D01*
X36710357Y-66003929D01*
X36757976Y-65908690D01*
X36805595Y-65861071D01*
X36900833Y-65813452D01*
X35757976Y-66384881D02*
X36329405Y-66384881D01*
X36043691Y-66384881D02*
X36043691Y-65384881D01*
X36138929Y-65527738D01*
X36234167Y-65622976D01*
X36329405Y-65670595D01*
X35377024Y-65480119D02*
X35329405Y-65432500D01*
X35234167Y-65384881D01*
X34996071Y-65384881D01*
X34900833Y-65432500D01*
X34853214Y-65480119D01*
X34805595Y-65575357D01*
X34805595Y-65670595D01*
X34853214Y-65813452D01*
X35424643Y-66384881D01*
X34805595Y-66384881D01*
X34043690Y-65861071D02*
X33900833Y-65908690D01*
X33853214Y-65956310D01*
X33805595Y-66051548D01*
X33805595Y-66194405D01*
X33853214Y-66289643D01*
X33900833Y-66337262D01*
X33996071Y-66384881D01*
X34377024Y-66384881D01*
X34377024Y-65384881D01*
X34043690Y-65384881D01*
X33948452Y-65432500D01*
X33900833Y-65480119D01*
X33853214Y-65575357D01*
X33853214Y-65670595D01*
X33900833Y-65765833D01*
X33948452Y-65813452D01*
X34043690Y-65861071D01*
X34377024Y-65861071D01*
X48615119Y-69684881D02*
X49186548Y-69684881D01*
X48900834Y-69684881D02*
X48900834Y-68684881D01*
X48996072Y-68827738D01*
X49091310Y-68922976D01*
X49186548Y-68970595D01*
X47996072Y-68684881D02*
X47900833Y-68684881D01*
X47805595Y-68732500D01*
X47757976Y-68780119D01*
X47710357Y-68875357D01*
X47662738Y-69065833D01*
X47662738Y-69303929D01*
X47710357Y-69494405D01*
X47757976Y-69589643D01*
X47805595Y-69637262D01*
X47900833Y-69684881D01*
X47996072Y-69684881D01*
X48091310Y-69637262D01*
X48138929Y-69589643D01*
X48186548Y-69494405D01*
X48234167Y-69303929D01*
X48234167Y-69065833D01*
X48186548Y-68875357D01*
X48138929Y-68780119D01*
X48091310Y-68732500D01*
X47996072Y-68684881D01*
X47043691Y-68684881D02*
X46948452Y-68684881D01*
X46853214Y-68732500D01*
X46805595Y-68780119D01*
X46757976Y-68875357D01*
X46710357Y-69065833D01*
X46710357Y-69303929D01*
X46757976Y-69494405D01*
X46805595Y-69589643D01*
X46853214Y-69637262D01*
X46948452Y-69684881D01*
X47043691Y-69684881D01*
X47138929Y-69637262D01*
X47186548Y-69589643D01*
X47234167Y-69494405D01*
X47281786Y-69303929D01*
X47281786Y-69065833D01*
X47234167Y-68875357D01*
X47186548Y-68780119D01*
X47138929Y-68732500D01*
X47043691Y-68684881D01*
X46281786Y-69018214D02*
X46281786Y-69684881D01*
X46281786Y-69113452D02*
X46234167Y-69065833D01*
X46138929Y-69018214D01*
X45996071Y-69018214D01*
X45900833Y-69065833D01*
X45853214Y-69161071D01*
X45853214Y-69684881D01*
X45043690Y-69161071D02*
X45377024Y-69161071D01*
X45377024Y-69684881D02*
X45377024Y-68684881D01*
X44900833Y-68684881D01*
X50377024Y-57384881D02*
X50138929Y-58384881D01*
X49948452Y-57670595D01*
X49757976Y-58384881D01*
X49519881Y-57384881D01*
X49186548Y-58337262D02*
X49043691Y-58384881D01*
X48805595Y-58384881D01*
X48710357Y-58337262D01*
X48662738Y-58289643D01*
X48615119Y-58194405D01*
X48615119Y-58099167D01*
X48662738Y-58003929D01*
X48710357Y-57956310D01*
X48805595Y-57908690D01*
X48996072Y-57861071D01*
X49091310Y-57813452D01*
X49138929Y-57765833D01*
X49186548Y-57670595D01*
X49186548Y-57575357D01*
X49138929Y-57480119D01*
X49091310Y-57432500D01*
X48996072Y-57384881D01*
X48757976Y-57384881D01*
X48615119Y-57432500D01*
X48234167Y-57480119D02*
X48186548Y-57432500D01*
X48091310Y-57384881D01*
X47853214Y-57384881D01*
X47757976Y-57432500D01*
X47710357Y-57480119D01*
X47662738Y-57575357D01*
X47662738Y-57670595D01*
X47710357Y-57813452D01*
X48281786Y-58384881D01*
X47662738Y-58384881D01*
X47091310Y-57813452D02*
X47186548Y-57765833D01*
X47234167Y-57718214D01*
X47281786Y-57622976D01*
X47281786Y-57575357D01*
X47234167Y-57480119D01*
X47186548Y-57432500D01*
X47091310Y-57384881D01*
X46900833Y-57384881D01*
X46805595Y-57432500D01*
X46757976Y-57480119D01*
X46710357Y-57575357D01*
X46710357Y-57622976D01*
X46757976Y-57718214D01*
X46805595Y-57765833D01*
X46900833Y-57813452D01*
X47091310Y-57813452D01*
X47186548Y-57861071D01*
X47234167Y-57908690D01*
X47281786Y-58003929D01*
X47281786Y-58194405D01*
X47234167Y-58289643D01*
X47186548Y-58337262D01*
X47091310Y-58384881D01*
X46900833Y-58384881D01*
X46805595Y-58337262D01*
X46757976Y-58289643D01*
X46710357Y-58194405D01*
X46710357Y-58003929D01*
X46757976Y-57908690D01*
X46805595Y-57861071D01*
X46900833Y-57813452D01*
X45757976Y-58384881D02*
X46329405Y-58384881D01*
X46043691Y-58384881D02*
X46043691Y-57384881D01*
X46138929Y-57527738D01*
X46234167Y-57622976D01*
X46329405Y-57670595D01*
X45377024Y-57480119D02*
X45329405Y-57432500D01*
X45234167Y-57384881D01*
X44996071Y-57384881D01*
X44900833Y-57432500D01*
X44853214Y-57480119D01*
X44805595Y-57575357D01*
X44805595Y-57670595D01*
X44853214Y-57813452D01*
X45424643Y-58384881D01*
X44805595Y-58384881D01*
X44043690Y-57861071D02*
X43900833Y-57908690D01*
X43853214Y-57956310D01*
X43805595Y-58051548D01*
X43805595Y-58194405D01*
X43853214Y-58289643D01*
X43900833Y-58337262D01*
X43996071Y-58384881D01*
X44377024Y-58384881D01*
X44377024Y-57384881D01*
X44043690Y-57384881D01*
X43948452Y-57432500D01*
X43900833Y-57480119D01*
X43853214Y-57575357D01*
X43853214Y-57670595D01*
X43900833Y-57765833D01*
X43948452Y-57813452D01*
X44043690Y-57861071D01*
X44377024Y-57861071D01*
X38615119Y-65084881D02*
X39186548Y-65084881D01*
X38900834Y-65084881D02*
X38900834Y-64084881D01*
X38996072Y-64227738D01*
X39091310Y-64322976D01*
X39186548Y-64370595D01*
X37996072Y-64084881D02*
X37900833Y-64084881D01*
X37805595Y-64132500D01*
X37757976Y-64180119D01*
X37710357Y-64275357D01*
X37662738Y-64465833D01*
X37662738Y-64703929D01*
X37710357Y-64894405D01*
X37757976Y-64989643D01*
X37805595Y-65037262D01*
X37900833Y-65084881D01*
X37996072Y-65084881D01*
X38091310Y-65037262D01*
X38138929Y-64989643D01*
X38186548Y-64894405D01*
X38234167Y-64703929D01*
X38234167Y-64465833D01*
X38186548Y-64275357D01*
X38138929Y-64180119D01*
X38091310Y-64132500D01*
X37996072Y-64084881D01*
X37043691Y-64084881D02*
X36948452Y-64084881D01*
X36853214Y-64132500D01*
X36805595Y-64180119D01*
X36757976Y-64275357D01*
X36710357Y-64465833D01*
X36710357Y-64703929D01*
X36757976Y-64894405D01*
X36805595Y-64989643D01*
X36853214Y-65037262D01*
X36948452Y-65084881D01*
X37043691Y-65084881D01*
X37138929Y-65037262D01*
X37186548Y-64989643D01*
X37234167Y-64894405D01*
X37281786Y-64703929D01*
X37281786Y-64465833D01*
X37234167Y-64275357D01*
X37186548Y-64180119D01*
X37138929Y-64132500D01*
X37043691Y-64084881D01*
X36281786Y-64418214D02*
X36281786Y-65084881D01*
X36281786Y-64513452D02*
X36234167Y-64465833D01*
X36138929Y-64418214D01*
X35996071Y-64418214D01*
X35900833Y-64465833D01*
X35853214Y-64561071D01*
X35853214Y-65084881D01*
X35043690Y-64561071D02*
X35377024Y-64561071D01*
X35377024Y-65084881D02*
X35377024Y-64084881D01*
X34900833Y-64084881D01*
X57535238Y-56892381D02*
X58106667Y-56892381D01*
X57820953Y-56892381D02*
X57820953Y-55892381D01*
X57916191Y-56035238D01*
X58011429Y-56130476D01*
X58106667Y-56178095D01*
X56916191Y-55892381D02*
X56820952Y-55892381D01*
X56725714Y-55940000D01*
X56678095Y-55987619D01*
X56630476Y-56082857D01*
X56582857Y-56273333D01*
X56582857Y-56511429D01*
X56630476Y-56701905D01*
X56678095Y-56797143D01*
X56725714Y-56844762D01*
X56820952Y-56892381D01*
X56916191Y-56892381D01*
X57011429Y-56844762D01*
X57059048Y-56797143D01*
X57106667Y-56701905D01*
X57154286Y-56511429D01*
X57154286Y-56273333D01*
X57106667Y-56082857D01*
X57059048Y-55987619D01*
X57011429Y-55940000D01*
X56916191Y-55892381D01*
X56154286Y-56892381D02*
X56154286Y-55892381D01*
X56059048Y-56511429D02*
X55773333Y-56892381D01*
X55773333Y-56225714D02*
X56154286Y-56606667D01*
M02*
