G04 #@! TF.FileFunction,Copper,L1,Top,Signal*
%FSLAX46Y46*%
G04 Gerber Fmt 4.6, Leading zero omitted, Abs format (unit mm)*
G04 Created by KiCad (PCBNEW 4.0.6) date 2017 May 11, Thursday 23:22:10*
%MOMM*%
%LPD*%
G01*
G04 APERTURE LIST*
%ADD10C,1.000000*%
%ADD11C,0.300000*%
%ADD12R,1.700000X0.800000*%
%ADD13R,3.100000X2.200000*%
%ADD14R,2.032000X1.727200*%
%ADD15O,2.032000X1.727200*%
%ADD16R,2.050000X0.760000*%
%ADD17R,1.750000X1.750000*%
%ADD18C,1.750000*%
%ADD19C,1.524000*%
%ADD20C,1.998980*%
%ADD21C,1.300000*%
%ADD22C,0.250000*%
%ADD23C,0.254000*%
G04 APERTURE END LIST*
D10*
D11*
X23135357Y-46061070D02*
X23135357Y-45561070D01*
X23921071Y-45346784D02*
X23921071Y-46061070D01*
X22421071Y-46061070D01*
X22421071Y-45346784D01*
X23849643Y-44775356D02*
X23921071Y-44561070D01*
X23921071Y-44203927D01*
X23849643Y-44061070D01*
X23778214Y-43989641D01*
X23635357Y-43918213D01*
X23492500Y-43918213D01*
X23349643Y-43989641D01*
X23278214Y-44061070D01*
X23206786Y-44203927D01*
X23135357Y-44489641D01*
X23063929Y-44632499D01*
X22992500Y-44703927D01*
X22849643Y-44775356D01*
X22706786Y-44775356D01*
X22563929Y-44703927D01*
X22492500Y-44632499D01*
X22421071Y-44489641D01*
X22421071Y-44132499D01*
X22492500Y-43918213D01*
X23921071Y-43275356D02*
X22421071Y-43275356D01*
X22421071Y-42703928D01*
X22492500Y-42561070D01*
X22563929Y-42489642D01*
X22706786Y-42418213D01*
X22921071Y-42418213D01*
X23063929Y-42489642D01*
X23135357Y-42561070D01*
X23206786Y-42703928D01*
X23206786Y-43275356D01*
X23063929Y-41561070D02*
X22992500Y-41703928D01*
X22921071Y-41775356D01*
X22778214Y-41846785D01*
X22706786Y-41846785D01*
X22563929Y-41775356D01*
X22492500Y-41703928D01*
X22421071Y-41561070D01*
X22421071Y-41275356D01*
X22492500Y-41132499D01*
X22563929Y-41061070D01*
X22706786Y-40989642D01*
X22778214Y-40989642D01*
X22921071Y-41061070D01*
X22992500Y-41132499D01*
X23063929Y-41275356D01*
X23063929Y-41561070D01*
X23135357Y-41703928D01*
X23206786Y-41775356D01*
X23349643Y-41846785D01*
X23635357Y-41846785D01*
X23778214Y-41775356D01*
X23849643Y-41703928D01*
X23921071Y-41561070D01*
X23921071Y-41275356D01*
X23849643Y-41132499D01*
X23778214Y-41061070D01*
X23635357Y-40989642D01*
X23349643Y-40989642D01*
X23206786Y-41061070D01*
X23135357Y-41132499D01*
X23063929Y-41275356D01*
X22563929Y-40418214D02*
X22492500Y-40346785D01*
X22421071Y-40203928D01*
X22421071Y-39846785D01*
X22492500Y-39703928D01*
X22563929Y-39632499D01*
X22706786Y-39561071D01*
X22849643Y-39561071D01*
X23063929Y-39632499D01*
X23921071Y-40489642D01*
X23921071Y-39561071D01*
X22421071Y-38275357D02*
X22421071Y-38561071D01*
X22492500Y-38703928D01*
X22563929Y-38775357D01*
X22778214Y-38918214D01*
X23063929Y-38989643D01*
X23635357Y-38989643D01*
X23778214Y-38918214D01*
X23849643Y-38846786D01*
X23921071Y-38703928D01*
X23921071Y-38418214D01*
X23849643Y-38275357D01*
X23778214Y-38203928D01*
X23635357Y-38132500D01*
X23278214Y-38132500D01*
X23135357Y-38203928D01*
X23063929Y-38275357D01*
X22992500Y-38418214D01*
X22992500Y-38703928D01*
X23063929Y-38846786D01*
X23135357Y-38918214D01*
X23278214Y-38989643D01*
X22421071Y-36846786D02*
X22421071Y-37132500D01*
X22492500Y-37275357D01*
X22563929Y-37346786D01*
X22778214Y-37489643D01*
X23063929Y-37561072D01*
X23635357Y-37561072D01*
X23778214Y-37489643D01*
X23849643Y-37418215D01*
X23921071Y-37275357D01*
X23921071Y-36989643D01*
X23849643Y-36846786D01*
X23778214Y-36775357D01*
X23635357Y-36703929D01*
X23278214Y-36703929D01*
X23135357Y-36775357D01*
X23063929Y-36846786D01*
X22992500Y-36989643D01*
X22992500Y-37275357D01*
X23063929Y-37418215D01*
X23135357Y-37489643D01*
X23278214Y-37561072D01*
X23349643Y-36061072D02*
X23349643Y-34918215D01*
X23492500Y-34275358D02*
X23492500Y-33561072D01*
X23921071Y-34418215D02*
X22421071Y-33918215D01*
X23921071Y-33418215D01*
X23921071Y-32918215D02*
X22921071Y-32918215D01*
X22421071Y-32918215D02*
X22492500Y-32989644D01*
X22563929Y-32918215D01*
X22492500Y-32846787D01*
X22421071Y-32918215D01*
X22563929Y-32918215D01*
X23921071Y-32203929D02*
X22921071Y-32203929D01*
X23206786Y-32203929D02*
X23063929Y-32132501D01*
X22992500Y-32061072D01*
X22921071Y-31918215D01*
X22921071Y-31775358D01*
X24063929Y-30275358D02*
X23992500Y-30418215D01*
X23849643Y-30561072D01*
X23635357Y-30775358D01*
X23563929Y-30918215D01*
X23563929Y-31061072D01*
X23921071Y-30989644D02*
X23849643Y-31132501D01*
X23706786Y-31275358D01*
X23421071Y-31346787D01*
X22921071Y-31346787D01*
X22635357Y-31275358D01*
X22492500Y-31132501D01*
X22421071Y-30989644D01*
X22421071Y-30703930D01*
X22492500Y-30561072D01*
X22635357Y-30418215D01*
X22921071Y-30346787D01*
X23421071Y-30346787D01*
X23706786Y-30418215D01*
X23849643Y-30561072D01*
X23921071Y-30703930D01*
X23921071Y-30989644D01*
X22921071Y-29061072D02*
X23921071Y-29061072D01*
X22921071Y-29703929D02*
X23706786Y-29703929D01*
X23849643Y-29632501D01*
X23921071Y-29489643D01*
X23921071Y-29275358D01*
X23849643Y-29132501D01*
X23778214Y-29061072D01*
X23921071Y-27703929D02*
X23135357Y-27703929D01*
X22992500Y-27775358D01*
X22921071Y-27918215D01*
X22921071Y-28203929D01*
X22992500Y-28346786D01*
X23849643Y-27703929D02*
X23921071Y-27846786D01*
X23921071Y-28203929D01*
X23849643Y-28346786D01*
X23706786Y-28418215D01*
X23563929Y-28418215D01*
X23421071Y-28346786D01*
X23349643Y-28203929D01*
X23349643Y-27846786D01*
X23278214Y-27703929D01*
X23921071Y-26775357D02*
X23849643Y-26918215D01*
X23706786Y-26989643D01*
X22421071Y-26989643D01*
X23921071Y-26203929D02*
X22921071Y-26203929D01*
X22421071Y-26203929D02*
X22492500Y-26275358D01*
X22563929Y-26203929D01*
X22492500Y-26132501D01*
X22421071Y-26203929D01*
X22563929Y-26203929D01*
X22921071Y-25703929D02*
X22921071Y-25132500D01*
X22421071Y-25489643D02*
X23706786Y-25489643D01*
X23849643Y-25418215D01*
X23921071Y-25275357D01*
X23921071Y-25132500D01*
X22921071Y-24775357D02*
X23921071Y-24418214D01*
X22921071Y-24061072D02*
X23921071Y-24418214D01*
X24278214Y-24561072D01*
X24349643Y-24632500D01*
X24421071Y-24775357D01*
X26471071Y-37739642D02*
X25471071Y-37739642D01*
X25756786Y-37739642D02*
X25613929Y-37668214D01*
X25542500Y-37596785D01*
X25471071Y-37453928D01*
X25471071Y-37311071D01*
X26399643Y-36239643D02*
X26471071Y-36382500D01*
X26471071Y-36668214D01*
X26399643Y-36811071D01*
X26256786Y-36882500D01*
X25685357Y-36882500D01*
X25542500Y-36811071D01*
X25471071Y-36668214D01*
X25471071Y-36382500D01*
X25542500Y-36239643D01*
X25685357Y-36168214D01*
X25828214Y-36168214D01*
X25971071Y-36882500D01*
X25471071Y-35668214D02*
X26471071Y-35311071D01*
X25471071Y-34953929D01*
X25113929Y-33311072D02*
X25042500Y-33239643D01*
X24971071Y-33096786D01*
X24971071Y-32739643D01*
X25042500Y-32596786D01*
X25113929Y-32525357D01*
X25256786Y-32453929D01*
X25399643Y-32453929D01*
X25613929Y-32525357D01*
X26471071Y-33382500D01*
X26471071Y-32453929D01*
X31571071Y-42882500D02*
X31499643Y-43025358D01*
X31356786Y-43096786D01*
X30071071Y-43096786D01*
X31499643Y-41739644D02*
X31571071Y-41882501D01*
X31571071Y-42168215D01*
X31499643Y-42311072D01*
X31356786Y-42382501D01*
X30785357Y-42382501D01*
X30642500Y-42311072D01*
X30571071Y-42168215D01*
X30571071Y-41882501D01*
X30642500Y-41739644D01*
X30785357Y-41668215D01*
X30928214Y-41668215D01*
X31071071Y-42382501D01*
X31499643Y-41096787D02*
X31571071Y-40953930D01*
X31571071Y-40668215D01*
X31499643Y-40525358D01*
X31356786Y-40453930D01*
X31285357Y-40453930D01*
X31142500Y-40525358D01*
X31071071Y-40668215D01*
X31071071Y-40882501D01*
X30999643Y-41025358D01*
X30856786Y-41096787D01*
X30785357Y-41096787D01*
X30642500Y-41025358D01*
X30571071Y-40882501D01*
X30571071Y-40668215D01*
X30642500Y-40525358D01*
X31499643Y-39882501D02*
X31571071Y-39739644D01*
X31571071Y-39453929D01*
X31499643Y-39311072D01*
X31356786Y-39239644D01*
X31285357Y-39239644D01*
X31142500Y-39311072D01*
X31071071Y-39453929D01*
X31071071Y-39668215D01*
X30999643Y-39811072D01*
X30856786Y-39882501D01*
X30785357Y-39882501D01*
X30642500Y-39811072D01*
X30571071Y-39668215D01*
X30571071Y-39453929D01*
X30642500Y-39311072D01*
X30999643Y-38596786D02*
X30999643Y-37453929D01*
X31499643Y-36811072D02*
X31571071Y-36668215D01*
X31571071Y-36382500D01*
X31499643Y-36239643D01*
X31356786Y-36168215D01*
X31285357Y-36168215D01*
X31142500Y-36239643D01*
X31071071Y-36382500D01*
X31071071Y-36596786D01*
X30999643Y-36739643D01*
X30856786Y-36811072D01*
X30785357Y-36811072D01*
X30642500Y-36739643D01*
X30571071Y-36596786D01*
X30571071Y-36382500D01*
X30642500Y-36239643D01*
X31571071Y-35525357D02*
X30571071Y-35525357D01*
X30713929Y-35525357D02*
X30642500Y-35453929D01*
X30571071Y-35311071D01*
X30571071Y-35096786D01*
X30642500Y-34953929D01*
X30785357Y-34882500D01*
X31571071Y-34882500D01*
X30785357Y-34882500D02*
X30642500Y-34811071D01*
X30571071Y-34668214D01*
X30571071Y-34453929D01*
X30642500Y-34311071D01*
X30785357Y-34239643D01*
X31571071Y-34239643D01*
X31571071Y-33311071D02*
X31499643Y-33453929D01*
X31428214Y-33525357D01*
X31285357Y-33596786D01*
X30856786Y-33596786D01*
X30713929Y-33525357D01*
X30642500Y-33453929D01*
X30571071Y-33311071D01*
X30571071Y-33096786D01*
X30642500Y-32953929D01*
X30713929Y-32882500D01*
X30856786Y-32811071D01*
X31285357Y-32811071D01*
X31428214Y-32882500D01*
X31499643Y-32953929D01*
X31571071Y-33096786D01*
X31571071Y-33311071D01*
X30571071Y-31525357D02*
X31785357Y-31525357D01*
X31928214Y-31596786D01*
X31999643Y-31668214D01*
X32071071Y-31811071D01*
X32071071Y-32025357D01*
X31999643Y-32168214D01*
X31499643Y-31525357D02*
X31571071Y-31668214D01*
X31571071Y-31953928D01*
X31499643Y-32096786D01*
X31428214Y-32168214D01*
X31285357Y-32239643D01*
X30856786Y-32239643D01*
X30713929Y-32168214D01*
X30642500Y-32096786D01*
X30571071Y-31953928D01*
X30571071Y-31668214D01*
X30642500Y-31525357D01*
X31428214Y-30811071D02*
X31499643Y-30739643D01*
X31571071Y-30811071D01*
X31499643Y-30882500D01*
X31428214Y-30811071D01*
X31571071Y-30811071D01*
X31571071Y-29882499D02*
X31499643Y-30025357D01*
X31428214Y-30096785D01*
X31285357Y-30168214D01*
X30856786Y-30168214D01*
X30713929Y-30096785D01*
X30642500Y-30025357D01*
X30571071Y-29882499D01*
X30571071Y-29668214D01*
X30642500Y-29525357D01*
X30713929Y-29453928D01*
X30856786Y-29382499D01*
X31285357Y-29382499D01*
X31428214Y-29453928D01*
X31499643Y-29525357D01*
X31571071Y-29668214D01*
X31571071Y-29882499D01*
X31571071Y-28739642D02*
X30571071Y-28739642D01*
X30856786Y-28739642D02*
X30713929Y-28668214D01*
X30642500Y-28596785D01*
X30571071Y-28453928D01*
X30571071Y-28311071D01*
X30571071Y-27168214D02*
X31785357Y-27168214D01*
X31928214Y-27239643D01*
X31999643Y-27311071D01*
X32071071Y-27453928D01*
X32071071Y-27668214D01*
X31999643Y-27811071D01*
X31499643Y-27168214D02*
X31571071Y-27311071D01*
X31571071Y-27596785D01*
X31499643Y-27739643D01*
X31428214Y-27811071D01*
X31285357Y-27882500D01*
X30856786Y-27882500D01*
X30713929Y-27811071D01*
X30642500Y-27739643D01*
X30571071Y-27596785D01*
X30571071Y-27311071D01*
X30642500Y-27168214D01*
D12*
X25517500Y-71557500D03*
X25517500Y-72807500D03*
X25517500Y-74057500D03*
X25517500Y-75307500D03*
X25517500Y-76557500D03*
X25517500Y-77807500D03*
X25517500Y-79057500D03*
X25517500Y-80307500D03*
D13*
X22617500Y-69057500D03*
X22617500Y-82807500D03*
D14*
X22067500Y-57392500D03*
D15*
X22067500Y-59932500D03*
X22067500Y-62472500D03*
X22067500Y-65012500D03*
D16*
X59317500Y-21932500D03*
X59317500Y-23202500D03*
X59317500Y-24472500D03*
X59317500Y-25742500D03*
X59317500Y-27012500D03*
X62867500Y-23202500D03*
X62867500Y-21932500D03*
X62867500Y-24472500D03*
X62867500Y-25742500D03*
X62867500Y-27012500D03*
D17*
X63000000Y-70000000D03*
D18*
X63000000Y-72500000D03*
X63000000Y-75000000D03*
X63000000Y-77500000D03*
X63000000Y-80000000D03*
D19*
X25747500Y-84932500D03*
X28287500Y-84932500D03*
X30827500Y-84932500D03*
X33367500Y-84932500D03*
X35907500Y-84932500D03*
X38447500Y-84932500D03*
X40987500Y-84932500D03*
X43527500Y-84932500D03*
X46067500Y-84932500D03*
X48607500Y-84932500D03*
X51147500Y-84932500D03*
X53687500Y-84932500D03*
X56227500Y-84932500D03*
X58767500Y-84932500D03*
X61307500Y-84932500D03*
X61307500Y-56882500D03*
X58767500Y-56882500D03*
X56227500Y-56882500D03*
X53687500Y-56882500D03*
X51147500Y-56882500D03*
X48607500Y-56882500D03*
X46067500Y-56882500D03*
X43527500Y-56882500D03*
X40987500Y-56882500D03*
X38447500Y-56882500D03*
X35907500Y-56882500D03*
X33367500Y-56882500D03*
X30827500Y-56882500D03*
X28287500Y-56882500D03*
X25747500Y-56882500D03*
X58250000Y-64000000D03*
X55710000Y-64000000D03*
X60790000Y-64000000D03*
D20*
X31500000Y-67250000D03*
X31500000Y-59630000D03*
X28250000Y-67250000D03*
X28250000Y-59630000D03*
X53130000Y-60250000D03*
X60750000Y-60250000D03*
X42250000Y-71000000D03*
X49870000Y-71000000D03*
D21*
X64451500Y-29100000D03*
D22*
X58767500Y-84932500D02*
X57300000Y-86400000D01*
X57300000Y-86400000D02*
X50075000Y-86400000D01*
X50075000Y-86400000D02*
X48607500Y-84932500D01*
X58767500Y-56882500D02*
X60800000Y-54850000D01*
X60800000Y-54850000D02*
X60800000Y-23860100D01*
X60800000Y-23860100D02*
X61062700Y-23597400D01*
X62867500Y-23202500D02*
X61517200Y-23202500D01*
X59317500Y-23202500D02*
X60667800Y-23202500D01*
X58767500Y-79232500D02*
X58767500Y-84932500D01*
X63000000Y-75000000D02*
X58767500Y-79232500D01*
X61122300Y-23597400D02*
X61062700Y-23597400D01*
X61517200Y-23202500D02*
X61122300Y-23597400D01*
X61062700Y-23597400D02*
X60667800Y-23202500D01*
X24342200Y-80987200D02*
X24342200Y-79057500D01*
X28287500Y-84932500D02*
X24342200Y-80987200D01*
X25517500Y-79057500D02*
X24342200Y-79057500D01*
X59317500Y-21932500D02*
X62867500Y-21932500D01*
X25517500Y-80307500D02*
X26692800Y-80307500D01*
X30827500Y-81814000D02*
X30827500Y-84932500D01*
X31436000Y-81814000D02*
X30827500Y-81814000D01*
X42250000Y-71000000D02*
X31436000Y-81814000D01*
X28199300Y-81814000D02*
X26692800Y-80307500D01*
X30827500Y-81814000D02*
X28199300Y-81814000D01*
X62867500Y-21932500D02*
X64217800Y-21932500D01*
X65376500Y-23091200D02*
X64217800Y-21932500D01*
X65376500Y-75123500D02*
X65376500Y-23091200D01*
X63000000Y-77500000D02*
X65376500Y-75123500D01*
X53130000Y-60250000D02*
X49750000Y-60250000D01*
X49750000Y-60250000D02*
X47337500Y-57837500D01*
X47337500Y-57837500D02*
X47337500Y-56137500D01*
X47337500Y-56137500D02*
X46700000Y-55500000D01*
X46700000Y-55500000D02*
X39830000Y-55500000D01*
X39830000Y-55500000D02*
X38447500Y-56882500D01*
X35700000Y-59630000D02*
X31500000Y-59630000D01*
X38447500Y-56882500D02*
X35700000Y-59630000D01*
X58250000Y-77830000D02*
X51147500Y-84932500D01*
X58250000Y-64000000D02*
X58250000Y-77830000D01*
X60750000Y-60250000D02*
X59000000Y-58500000D01*
X59000000Y-58500000D02*
X50800000Y-58500000D01*
X50800000Y-58500000D02*
X49877600Y-57577600D01*
X49877600Y-57577600D02*
X49877600Y-55877600D01*
X49877600Y-55877600D02*
X48900000Y-54900000D01*
X48900000Y-54900000D02*
X35350000Y-54900000D01*
X35350000Y-54900000D02*
X33367500Y-56882500D01*
X60790000Y-60290000D02*
X60790000Y-64000000D01*
X60750000Y-60250000D02*
X60790000Y-60290000D01*
X55710000Y-65160000D02*
X55710000Y-64000000D01*
X49870000Y-71000000D02*
X55710000Y-65160000D01*
X64451500Y-29100000D02*
X64700000Y-28851500D01*
X64700000Y-28851500D02*
X64700000Y-28400000D01*
X64700000Y-28400000D02*
X64684500Y-28384500D01*
X64684500Y-28384500D02*
X64684500Y-24939200D01*
X64684500Y-24939200D02*
X64217800Y-24472500D01*
X64217800Y-24472500D02*
X62867500Y-24472500D01*
X25517500Y-74057500D02*
X26692800Y-74057500D01*
X28250000Y-72500300D02*
X26692800Y-74057500D01*
X28250000Y-67250000D02*
X28250000Y-72500300D01*
X43527500Y-58472800D02*
X26692800Y-75307500D01*
X43527500Y-56882500D02*
X43527500Y-58472800D01*
X25517500Y-75307500D02*
X26692800Y-75307500D01*
X62867500Y-27012500D02*
X64217800Y-27012500D01*
X63000000Y-70000000D02*
X63000000Y-68799700D01*
X63000000Y-29139200D02*
X63000000Y-68799700D01*
X64217800Y-27921400D02*
X63000000Y-29139200D01*
X64217800Y-27012500D02*
X64217800Y-27921400D01*
X46067500Y-56882500D02*
X46067500Y-57960130D01*
X46067500Y-57960130D02*
X49953170Y-61845800D01*
X49953170Y-61845800D02*
X58345800Y-61845800D01*
X58345800Y-61845800D02*
X59520000Y-63020000D01*
X59520000Y-63020000D02*
X59520000Y-64820000D01*
X60000000Y-65300000D02*
X61200000Y-65300000D01*
X59520000Y-64820000D02*
X60000000Y-65300000D01*
X61233800Y-70733800D02*
X63000000Y-72500000D01*
X61200000Y-65300000D02*
X61233800Y-65333800D01*
X61233800Y-65333800D02*
X61233800Y-70733800D01*
X62867500Y-25742500D02*
X61400000Y-25742500D01*
X61400000Y-25742500D02*
X61400000Y-55285500D01*
X61400000Y-55285500D02*
X62440400Y-56325900D01*
X62440400Y-56325900D02*
X62440400Y-64459600D01*
X62440400Y-64459600D02*
X61600000Y-65300000D01*
X61600000Y-65300000D02*
X61200000Y-65300000D01*
X25517500Y-76557500D02*
X27442500Y-76557500D01*
X27442500Y-76557500D02*
X46067500Y-57932500D01*
X46067500Y-57932500D02*
X46067500Y-56882500D01*
X30145500Y-65895500D02*
X29850000Y-65600000D01*
X29850000Y-65600000D02*
X27500000Y-65600000D01*
X24342200Y-77807500D02*
X25517500Y-77807500D01*
X27500000Y-65600000D02*
X26600000Y-66500000D01*
X26600000Y-66500000D02*
X26600000Y-68362100D01*
X26600000Y-68362100D02*
X24342200Y-70619900D01*
X24342200Y-70619900D02*
X24342200Y-77807500D01*
X59317500Y-27012500D02*
X57967200Y-27012500D01*
X57967200Y-27012500D02*
X32100000Y-52879700D01*
X29900000Y-65650000D02*
X30145500Y-65895500D01*
X32100000Y-52879700D02*
X32100000Y-57300000D01*
X32100000Y-57300000D02*
X31094491Y-58305509D01*
X31094491Y-58305509D02*
X30394491Y-58305509D01*
X30394491Y-58305509D02*
X29900000Y-58800000D01*
X29900000Y-58800000D02*
X29900000Y-65650000D01*
X31500000Y-67250000D02*
X30145500Y-65895500D01*
X28287500Y-56882500D02*
X25400000Y-59770000D01*
X25127500Y-62472500D02*
X22067500Y-62472500D01*
X25400000Y-59770000D02*
X25400000Y-62200000D01*
X25400000Y-62200000D02*
X25127500Y-62472500D01*
X22067500Y-65012500D02*
X23333500Y-65012500D01*
X23333500Y-65012500D02*
X25850011Y-62495989D01*
X25850011Y-62495989D02*
X25850011Y-60049989D01*
X25850011Y-60049989D02*
X27800000Y-58100000D01*
X27800000Y-58100000D02*
X29610000Y-58100000D01*
X29610000Y-58100000D02*
X30065501Y-57644499D01*
X30065501Y-57644499D02*
X30827500Y-56882500D01*
D23*
G36*
X27661899Y-82351401D02*
X27908461Y-82516148D01*
X28199300Y-82574000D01*
X30067500Y-82574000D01*
X30067500Y-83734969D01*
X30037197Y-83747490D01*
X29643871Y-84140130D01*
X29564105Y-84332227D01*
X29509897Y-84201357D01*
X29267713Y-84131892D01*
X28467105Y-84932500D01*
X29267713Y-85733108D01*
X29509897Y-85663643D01*
X29560009Y-85523182D01*
X29642490Y-85722803D01*
X30035130Y-86116129D01*
X30291300Y-86222500D01*
X28855435Y-86222500D01*
X29018643Y-86154897D01*
X29088108Y-85912713D01*
X28287500Y-85112105D01*
X27486892Y-85912713D01*
X27556357Y-86154897D01*
X27745846Y-86222500D01*
X26283707Y-86222500D01*
X26537803Y-86117510D01*
X26931129Y-85724870D01*
X27010895Y-85532773D01*
X27065103Y-85663643D01*
X27307287Y-85733108D01*
X28107895Y-84932500D01*
X27307287Y-84131892D01*
X27065103Y-84201357D01*
X27014991Y-84341818D01*
X26932510Y-84142197D01*
X26742932Y-83952287D01*
X27486892Y-83952287D01*
X28287500Y-84752895D01*
X29088108Y-83952287D01*
X29018643Y-83710103D01*
X28495198Y-83523356D01*
X27940132Y-83551138D01*
X27556357Y-83710103D01*
X27486892Y-83952287D01*
X26742932Y-83952287D01*
X26539870Y-83748871D01*
X26026600Y-83535743D01*
X25470839Y-83535258D01*
X24957197Y-83747490D01*
X24814940Y-83889499D01*
X24814940Y-81707500D01*
X24770662Y-81472183D01*
X24695218Y-81354940D01*
X26367500Y-81354940D01*
X26602817Y-81310662D01*
X26613978Y-81303480D01*
X27661899Y-82351401D01*
X27661899Y-82351401D01*
G37*
X27661899Y-82351401D02*
X27908461Y-82516148D01*
X28199300Y-82574000D01*
X30067500Y-82574000D01*
X30067500Y-83734969D01*
X30037197Y-83747490D01*
X29643871Y-84140130D01*
X29564105Y-84332227D01*
X29509897Y-84201357D01*
X29267713Y-84131892D01*
X28467105Y-84932500D01*
X29267713Y-85733108D01*
X29509897Y-85663643D01*
X29560009Y-85523182D01*
X29642490Y-85722803D01*
X30035130Y-86116129D01*
X30291300Y-86222500D01*
X28855435Y-86222500D01*
X29018643Y-86154897D01*
X29088108Y-85912713D01*
X28287500Y-85112105D01*
X27486892Y-85912713D01*
X27556357Y-86154897D01*
X27745846Y-86222500D01*
X26283707Y-86222500D01*
X26537803Y-86117510D01*
X26931129Y-85724870D01*
X27010895Y-85532773D01*
X27065103Y-85663643D01*
X27307287Y-85733108D01*
X28107895Y-84932500D01*
X27307287Y-84131892D01*
X27065103Y-84201357D01*
X27014991Y-84341818D01*
X26932510Y-84142197D01*
X26742932Y-83952287D01*
X27486892Y-83952287D01*
X28287500Y-84752895D01*
X29088108Y-83952287D01*
X29018643Y-83710103D01*
X28495198Y-83523356D01*
X27940132Y-83551138D01*
X27556357Y-83710103D01*
X27486892Y-83952287D01*
X26742932Y-83952287D01*
X26539870Y-83748871D01*
X26026600Y-83535743D01*
X25470839Y-83535258D01*
X24957197Y-83747490D01*
X24814940Y-83889499D01*
X24814940Y-81707500D01*
X24770662Y-81472183D01*
X24695218Y-81354940D01*
X26367500Y-81354940D01*
X26602817Y-81310662D01*
X26613978Y-81303480D01*
X27661899Y-82351401D01*
G36*
X66357500Y-86222500D02*
X61843707Y-86222500D01*
X62097803Y-86117510D01*
X62491129Y-85724870D01*
X62704257Y-85211600D01*
X62704742Y-84655839D01*
X62492510Y-84142197D01*
X62099870Y-83748871D01*
X61586600Y-83535743D01*
X61030839Y-83535258D01*
X60517197Y-83747490D01*
X60123871Y-84140130D01*
X60044105Y-84332227D01*
X59989897Y-84201357D01*
X59747713Y-84131892D01*
X58947105Y-84932500D01*
X59747713Y-85733108D01*
X59989897Y-85663643D01*
X60040009Y-85523182D01*
X60122490Y-85722803D01*
X60515130Y-86116129D01*
X60771300Y-86222500D01*
X59335435Y-86222500D01*
X59498643Y-86154897D01*
X59568108Y-85912713D01*
X58767500Y-85112105D01*
X57966892Y-85912713D01*
X58036357Y-86154897D01*
X58225846Y-86222500D01*
X56763707Y-86222500D01*
X57017803Y-86117510D01*
X57411129Y-85724870D01*
X57490895Y-85532773D01*
X57545103Y-85663643D01*
X57787287Y-85733108D01*
X58587895Y-84932500D01*
X57787287Y-84131892D01*
X57545103Y-84201357D01*
X57494991Y-84341818D01*
X57412510Y-84142197D01*
X57222932Y-83952287D01*
X57966892Y-83952287D01*
X58767500Y-84752895D01*
X59568108Y-83952287D01*
X59498643Y-83710103D01*
X58975198Y-83523356D01*
X58420132Y-83551138D01*
X58036357Y-83710103D01*
X57966892Y-83952287D01*
X57222932Y-83952287D01*
X57019870Y-83748871D01*
X56506600Y-83535743D01*
X55950839Y-83535258D01*
X55437197Y-83747490D01*
X55043871Y-84140130D01*
X54957551Y-84348012D01*
X54872510Y-84142197D01*
X54479870Y-83748871D01*
X53966600Y-83535743D01*
X53619362Y-83535440D01*
X58787401Y-78367401D01*
X58952148Y-78120839D01*
X59010000Y-77830000D01*
X59010000Y-74765306D01*
X61478410Y-74765306D01*
X61504421Y-75365458D01*
X61684047Y-75799116D01*
X61937940Y-75882455D01*
X62820395Y-75000000D01*
X61937940Y-74117545D01*
X61684047Y-74200884D01*
X61478410Y-74765306D01*
X59010000Y-74765306D01*
X59010000Y-65384802D01*
X59462599Y-65837402D01*
X59709161Y-66002148D01*
X60000000Y-66060000D01*
X60473800Y-66060000D01*
X60473800Y-70733800D01*
X60531652Y-71024639D01*
X60696399Y-71271201D01*
X61529361Y-72104163D01*
X61490262Y-72198325D01*
X61489738Y-72799040D01*
X61719138Y-73354229D01*
X62143537Y-73779370D01*
X62166469Y-73788892D01*
X62117545Y-73937940D01*
X63000000Y-74820395D01*
X63882455Y-73937940D01*
X63833682Y-73789352D01*
X63854229Y-73780862D01*
X64279370Y-73356463D01*
X64509738Y-72801675D01*
X64510262Y-72200960D01*
X64280862Y-71645771D01*
X64112283Y-71476897D01*
X64326441Y-71339090D01*
X64471431Y-71126890D01*
X64522440Y-70875000D01*
X64522440Y-69125000D01*
X64478162Y-68889683D01*
X64339090Y-68673559D01*
X64126890Y-68528569D01*
X63875000Y-68477560D01*
X63760000Y-68477560D01*
X63760000Y-30204242D01*
X64194776Y-30384777D01*
X64616500Y-30385145D01*
X64616500Y-74808698D01*
X64507837Y-74917361D01*
X64495579Y-74634542D01*
X64315953Y-74200884D01*
X64062060Y-74117545D01*
X63179605Y-75000000D01*
X63193748Y-75014143D01*
X63014143Y-75193748D01*
X63000000Y-75179605D01*
X62117545Y-76062060D01*
X62166318Y-76210648D01*
X62145771Y-76219138D01*
X61720630Y-76643537D01*
X61490262Y-77198325D01*
X61489738Y-77799040D01*
X61719138Y-78354229D01*
X62114536Y-78750318D01*
X61720630Y-79143537D01*
X61490262Y-79698325D01*
X61489738Y-80299040D01*
X61719138Y-80854229D01*
X62143537Y-81279370D01*
X62698325Y-81509738D01*
X63299040Y-81510262D01*
X63854229Y-81280862D01*
X64279370Y-80856463D01*
X64509738Y-80301675D01*
X64510262Y-79700960D01*
X64280862Y-79145771D01*
X63885464Y-78749682D01*
X64279370Y-78356463D01*
X64509738Y-77801675D01*
X64510262Y-77200960D01*
X64470375Y-77104427D01*
X65913901Y-75660901D01*
X66078648Y-75414339D01*
X66136500Y-75123500D01*
X66136500Y-23091200D01*
X66110391Y-22959940D01*
X66078648Y-22800360D01*
X65913901Y-22553799D01*
X64755201Y-21395099D01*
X64508639Y-21230352D01*
X64429681Y-21214646D01*
X64356590Y-21101059D01*
X64144390Y-20956069D01*
X63892500Y-20905060D01*
X61842500Y-20905060D01*
X61607183Y-20949338D01*
X61391059Y-21088410D01*
X61333603Y-21172500D01*
X60852561Y-21172500D01*
X60806590Y-21101059D01*
X60594390Y-20956069D01*
X60342500Y-20905060D01*
X58292500Y-20905060D01*
X58057183Y-20949338D01*
X57841059Y-21088410D01*
X57696069Y-21300610D01*
X57645060Y-21552500D01*
X57645060Y-22312500D01*
X57689338Y-22547817D01*
X57707359Y-22575822D01*
X57657500Y-22696191D01*
X57657500Y-22916750D01*
X57816250Y-23075500D01*
X59190500Y-23075500D01*
X59190500Y-23055500D01*
X59444500Y-23055500D01*
X59444500Y-23075500D01*
X60818750Y-23075500D01*
X60977500Y-22916750D01*
X60977500Y-22696191D01*
X60975971Y-22692500D01*
X61209029Y-22692500D01*
X61207500Y-22696191D01*
X61207500Y-22916750D01*
X61366250Y-23075500D01*
X62740500Y-23075500D01*
X62740500Y-23055500D01*
X62994500Y-23055500D01*
X62994500Y-23075500D01*
X63014500Y-23075500D01*
X63014500Y-23329500D01*
X62994500Y-23329500D01*
X62994500Y-23349500D01*
X62740500Y-23349500D01*
X62740500Y-23329500D01*
X61366250Y-23329500D01*
X61207500Y-23488250D01*
X61207500Y-23708809D01*
X61256046Y-23826009D01*
X61246069Y-23840610D01*
X61195060Y-24092500D01*
X61195060Y-24852500D01*
X61226033Y-25017105D01*
X61109161Y-25040352D01*
X60949409Y-25147095D01*
X60945662Y-25127183D01*
X60934844Y-25110371D01*
X60938931Y-25104390D01*
X60989940Y-24852500D01*
X60989940Y-24092500D01*
X60945662Y-23857183D01*
X60927641Y-23829178D01*
X60977500Y-23708809D01*
X60977500Y-23488250D01*
X60818750Y-23329500D01*
X59444500Y-23329500D01*
X59444500Y-23349500D01*
X59190500Y-23349500D01*
X59190500Y-23329500D01*
X57816250Y-23329500D01*
X57657500Y-23488250D01*
X57657500Y-23708809D01*
X57706046Y-23826009D01*
X57696069Y-23840610D01*
X57645060Y-24092500D01*
X57645060Y-24852500D01*
X57689338Y-25087817D01*
X57700156Y-25104629D01*
X57696069Y-25110610D01*
X57645060Y-25362500D01*
X57645060Y-26122500D01*
X57680261Y-26309576D01*
X57676361Y-26310352D01*
X57429799Y-26475099D01*
X31562599Y-52342299D01*
X31397852Y-52588861D01*
X31340000Y-52879700D01*
X31340000Y-55582659D01*
X31106600Y-55485743D01*
X30550839Y-55485258D01*
X30037197Y-55697490D01*
X29643871Y-56090130D01*
X29557551Y-56298012D01*
X29472510Y-56092197D01*
X29079870Y-55698871D01*
X28566600Y-55485743D01*
X28010839Y-55485258D01*
X27497197Y-55697490D01*
X27103871Y-56090130D01*
X27017551Y-56298012D01*
X26932510Y-56092197D01*
X26539870Y-55698871D01*
X26026600Y-55485743D01*
X25470839Y-55485258D01*
X24957197Y-55697490D01*
X24563871Y-56090130D01*
X24350743Y-56603400D01*
X24350258Y-57159161D01*
X24562490Y-57672803D01*
X24955130Y-58066129D01*
X25468400Y-58279257D01*
X25815638Y-58279560D01*
X24862599Y-59232599D01*
X24697852Y-59479161D01*
X24640000Y-59770000D01*
X24640000Y-61712500D01*
X23512148Y-61712500D01*
X23311915Y-61412830D01*
X23002431Y-61206039D01*
X23418232Y-60834536D01*
X23672209Y-60307291D01*
X23674858Y-60291526D01*
X23553717Y-60059500D01*
X22194500Y-60059500D01*
X22194500Y-60079500D01*
X21940500Y-60079500D01*
X21940500Y-60059500D01*
X20581283Y-60059500D01*
X20460142Y-60291526D01*
X20462791Y-60307291D01*
X20716768Y-60834536D01*
X21132569Y-61206039D01*
X20823085Y-61412830D01*
X20498229Y-61899011D01*
X20384155Y-62472500D01*
X20498229Y-63045989D01*
X20823085Y-63532170D01*
X21137866Y-63742500D01*
X20823085Y-63952830D01*
X20498229Y-64439011D01*
X20384155Y-65012500D01*
X20498229Y-65585989D01*
X20823085Y-66072170D01*
X21309266Y-66397026D01*
X21882755Y-66511100D01*
X22252245Y-66511100D01*
X22825734Y-66397026D01*
X23311915Y-66072170D01*
X23539532Y-65731517D01*
X23624339Y-65714648D01*
X23870901Y-65549901D01*
X26387412Y-63033390D01*
X26552159Y-62786828D01*
X26610011Y-62495989D01*
X26610011Y-60364791D01*
X26733899Y-60240903D01*
X26863538Y-60554655D01*
X27322927Y-61014846D01*
X27923453Y-61264206D01*
X28573694Y-61264774D01*
X29140000Y-61030781D01*
X29140000Y-64840000D01*
X27500000Y-64840000D01*
X27209160Y-64897852D01*
X26962599Y-65062599D01*
X26062599Y-65962599D01*
X25897852Y-66209161D01*
X25840000Y-66500000D01*
X25840000Y-68047298D01*
X24814940Y-69072358D01*
X24814940Y-67957500D01*
X24770662Y-67722183D01*
X24631590Y-67506059D01*
X24419390Y-67361069D01*
X24167500Y-67310060D01*
X21067500Y-67310060D01*
X20832183Y-67354338D01*
X20616059Y-67493410D01*
X20471069Y-67705610D01*
X20420060Y-67957500D01*
X20420060Y-70157500D01*
X20464338Y-70392817D01*
X20603410Y-70608941D01*
X20815610Y-70753931D01*
X21067500Y-70804940D01*
X23582200Y-70804940D01*
X23582200Y-77807500D01*
X23640052Y-78098339D01*
X23804799Y-78344901D01*
X24043578Y-78504447D01*
X24032500Y-78531191D01*
X24032500Y-78771750D01*
X24191250Y-78930500D01*
X25390500Y-78930500D01*
X25390500Y-78910500D01*
X25644500Y-78910500D01*
X25644500Y-78930500D01*
X26843750Y-78930500D01*
X27002500Y-78771750D01*
X27002500Y-78531191D01*
X26966830Y-78445076D01*
X27014940Y-78207500D01*
X27014940Y-77407500D01*
X26998005Y-77317500D01*
X27442500Y-77317500D01*
X27733339Y-77259648D01*
X27979901Y-77094901D01*
X46053685Y-59021117D01*
X49415769Y-62383201D01*
X49662330Y-62547948D01*
X49953170Y-62605800D01*
X55425977Y-62605800D01*
X54919697Y-62814990D01*
X54526371Y-63207630D01*
X54313243Y-63720900D01*
X54312758Y-64276661D01*
X54524990Y-64790303D01*
X54764733Y-65030465D01*
X50361083Y-69434115D01*
X50196547Y-69365794D01*
X49546306Y-69365226D01*
X48945345Y-69613538D01*
X48485154Y-70072927D01*
X48235794Y-70673453D01*
X48235226Y-71323694D01*
X48483538Y-71924655D01*
X48942927Y-72384846D01*
X49543453Y-72634206D01*
X50193694Y-72634774D01*
X50794655Y-72386462D01*
X51254846Y-71927073D01*
X51504206Y-71326547D01*
X51504774Y-70676306D01*
X51435691Y-70509111D01*
X56247401Y-65697401D01*
X56412148Y-65450840D01*
X56461866Y-65200892D01*
X56500303Y-65185010D01*
X56893629Y-64792370D01*
X56979949Y-64584488D01*
X57064990Y-64790303D01*
X57457630Y-65183629D01*
X57490000Y-65197070D01*
X57490000Y-77515198D01*
X51456881Y-83548317D01*
X51426600Y-83535743D01*
X50870839Y-83535258D01*
X50357197Y-83747490D01*
X49963871Y-84140130D01*
X49884105Y-84332227D01*
X49829897Y-84201357D01*
X49587713Y-84131892D01*
X48787105Y-84932500D01*
X49587713Y-85733108D01*
X49829897Y-85663643D01*
X49880009Y-85523182D01*
X49962490Y-85722803D01*
X50355130Y-86116129D01*
X50611300Y-86222500D01*
X49175435Y-86222500D01*
X49338643Y-86154897D01*
X49408108Y-85912713D01*
X48607500Y-85112105D01*
X47806892Y-85912713D01*
X47876357Y-86154897D01*
X48065846Y-86222500D01*
X46603707Y-86222500D01*
X46857803Y-86117510D01*
X47251129Y-85724870D01*
X47330895Y-85532773D01*
X47385103Y-85663643D01*
X47627287Y-85733108D01*
X48427895Y-84932500D01*
X47627287Y-84131892D01*
X47385103Y-84201357D01*
X47334991Y-84341818D01*
X47252510Y-84142197D01*
X47062932Y-83952287D01*
X47806892Y-83952287D01*
X48607500Y-84752895D01*
X49408108Y-83952287D01*
X49338643Y-83710103D01*
X48815198Y-83523356D01*
X48260132Y-83551138D01*
X47876357Y-83710103D01*
X47806892Y-83952287D01*
X47062932Y-83952287D01*
X46859870Y-83748871D01*
X46346600Y-83535743D01*
X45790839Y-83535258D01*
X45277197Y-83747490D01*
X44883871Y-84140130D01*
X44797551Y-84348012D01*
X44712510Y-84142197D01*
X44319870Y-83748871D01*
X43806600Y-83535743D01*
X43250839Y-83535258D01*
X42737197Y-83747490D01*
X42343871Y-84140130D01*
X42257551Y-84348012D01*
X42172510Y-84142197D01*
X41779870Y-83748871D01*
X41266600Y-83535743D01*
X40710839Y-83535258D01*
X40197197Y-83747490D01*
X39803871Y-84140130D01*
X39717551Y-84348012D01*
X39632510Y-84142197D01*
X39239870Y-83748871D01*
X38726600Y-83535743D01*
X38170839Y-83535258D01*
X37657197Y-83747490D01*
X37263871Y-84140130D01*
X37177551Y-84348012D01*
X37092510Y-84142197D01*
X36699870Y-83748871D01*
X36186600Y-83535743D01*
X35630839Y-83535258D01*
X35117197Y-83747490D01*
X34723871Y-84140130D01*
X34637551Y-84348012D01*
X34552510Y-84142197D01*
X34159870Y-83748871D01*
X33646600Y-83535743D01*
X33090839Y-83535258D01*
X32577197Y-83747490D01*
X32183871Y-84140130D01*
X32097551Y-84348012D01*
X32012510Y-84142197D01*
X31619870Y-83748871D01*
X31587500Y-83735430D01*
X31587500Y-82543865D01*
X31726839Y-82516148D01*
X31973401Y-82351401D01*
X41758917Y-72565885D01*
X41923453Y-72634206D01*
X42573694Y-72634774D01*
X43174655Y-72386462D01*
X43634846Y-71927073D01*
X43884206Y-71326547D01*
X43884774Y-70676306D01*
X43636462Y-70075345D01*
X43177073Y-69615154D01*
X42576547Y-69365794D01*
X41926306Y-69365226D01*
X41325345Y-69613538D01*
X40865154Y-70072927D01*
X40615794Y-70673453D01*
X40615226Y-71323694D01*
X40684309Y-71490889D01*
X31121198Y-81054000D01*
X28514102Y-81054000D01*
X27230201Y-79770099D01*
X26991422Y-79610553D01*
X27002500Y-79583809D01*
X27002500Y-79343250D01*
X26843750Y-79184500D01*
X25644500Y-79184500D01*
X25644500Y-79204500D01*
X25390500Y-79204500D01*
X25390500Y-79184500D01*
X24191250Y-79184500D01*
X24032500Y-79343250D01*
X24032500Y-79583809D01*
X24068170Y-79669924D01*
X24020060Y-79907500D01*
X24020060Y-80707500D01*
X24064338Y-80942817D01*
X24139782Y-81060060D01*
X21067500Y-81060060D01*
X20832183Y-81104338D01*
X20616059Y-81243410D01*
X20471069Y-81455610D01*
X20420060Y-81707500D01*
X20420060Y-83907500D01*
X20464338Y-84142817D01*
X20603410Y-84358941D01*
X20815610Y-84503931D01*
X21067500Y-84554940D01*
X24167500Y-84554940D01*
X24402817Y-84510662D01*
X24412637Y-84504343D01*
X24350743Y-84653400D01*
X24350258Y-85209161D01*
X24562490Y-85722803D01*
X24955130Y-86116129D01*
X25211300Y-86222500D01*
X19777500Y-86222500D01*
X19777500Y-56528900D01*
X20404060Y-56528900D01*
X20404060Y-58256100D01*
X20448338Y-58491417D01*
X20587410Y-58707541D01*
X20799610Y-58852531D01*
X20894427Y-58871732D01*
X20716768Y-59030464D01*
X20462791Y-59557709D01*
X20460142Y-59573474D01*
X20581283Y-59805500D01*
X21940500Y-59805500D01*
X21940500Y-59785500D01*
X22194500Y-59785500D01*
X22194500Y-59805500D01*
X23553717Y-59805500D01*
X23674858Y-59573474D01*
X23672209Y-59557709D01*
X23418232Y-59030464D01*
X23242655Y-58873593D01*
X23318817Y-58859262D01*
X23534941Y-58720190D01*
X23679931Y-58507990D01*
X23730940Y-58256100D01*
X23730940Y-56528900D01*
X23686662Y-56293583D01*
X23547590Y-56077459D01*
X23335390Y-55932469D01*
X23083500Y-55881460D01*
X21051500Y-55881460D01*
X20816183Y-55925738D01*
X20600059Y-56064810D01*
X20455069Y-56277010D01*
X20404060Y-56528900D01*
X19777500Y-56528900D01*
X19777500Y-23211786D01*
X21407500Y-23211786D01*
X21407500Y-47053213D01*
X32877500Y-47053213D01*
X32877500Y-23211786D01*
X21407500Y-23211786D01*
X19777500Y-23211786D01*
X19777500Y-20642500D01*
X66357500Y-20642500D01*
X66357500Y-86222500D01*
X66357500Y-86222500D01*
G37*
X66357500Y-86222500D02*
X61843707Y-86222500D01*
X62097803Y-86117510D01*
X62491129Y-85724870D01*
X62704257Y-85211600D01*
X62704742Y-84655839D01*
X62492510Y-84142197D01*
X62099870Y-83748871D01*
X61586600Y-83535743D01*
X61030839Y-83535258D01*
X60517197Y-83747490D01*
X60123871Y-84140130D01*
X60044105Y-84332227D01*
X59989897Y-84201357D01*
X59747713Y-84131892D01*
X58947105Y-84932500D01*
X59747713Y-85733108D01*
X59989897Y-85663643D01*
X60040009Y-85523182D01*
X60122490Y-85722803D01*
X60515130Y-86116129D01*
X60771300Y-86222500D01*
X59335435Y-86222500D01*
X59498643Y-86154897D01*
X59568108Y-85912713D01*
X58767500Y-85112105D01*
X57966892Y-85912713D01*
X58036357Y-86154897D01*
X58225846Y-86222500D01*
X56763707Y-86222500D01*
X57017803Y-86117510D01*
X57411129Y-85724870D01*
X57490895Y-85532773D01*
X57545103Y-85663643D01*
X57787287Y-85733108D01*
X58587895Y-84932500D01*
X57787287Y-84131892D01*
X57545103Y-84201357D01*
X57494991Y-84341818D01*
X57412510Y-84142197D01*
X57222932Y-83952287D01*
X57966892Y-83952287D01*
X58767500Y-84752895D01*
X59568108Y-83952287D01*
X59498643Y-83710103D01*
X58975198Y-83523356D01*
X58420132Y-83551138D01*
X58036357Y-83710103D01*
X57966892Y-83952287D01*
X57222932Y-83952287D01*
X57019870Y-83748871D01*
X56506600Y-83535743D01*
X55950839Y-83535258D01*
X55437197Y-83747490D01*
X55043871Y-84140130D01*
X54957551Y-84348012D01*
X54872510Y-84142197D01*
X54479870Y-83748871D01*
X53966600Y-83535743D01*
X53619362Y-83535440D01*
X58787401Y-78367401D01*
X58952148Y-78120839D01*
X59010000Y-77830000D01*
X59010000Y-74765306D01*
X61478410Y-74765306D01*
X61504421Y-75365458D01*
X61684047Y-75799116D01*
X61937940Y-75882455D01*
X62820395Y-75000000D01*
X61937940Y-74117545D01*
X61684047Y-74200884D01*
X61478410Y-74765306D01*
X59010000Y-74765306D01*
X59010000Y-65384802D01*
X59462599Y-65837402D01*
X59709161Y-66002148D01*
X60000000Y-66060000D01*
X60473800Y-66060000D01*
X60473800Y-70733800D01*
X60531652Y-71024639D01*
X60696399Y-71271201D01*
X61529361Y-72104163D01*
X61490262Y-72198325D01*
X61489738Y-72799040D01*
X61719138Y-73354229D01*
X62143537Y-73779370D01*
X62166469Y-73788892D01*
X62117545Y-73937940D01*
X63000000Y-74820395D01*
X63882455Y-73937940D01*
X63833682Y-73789352D01*
X63854229Y-73780862D01*
X64279370Y-73356463D01*
X64509738Y-72801675D01*
X64510262Y-72200960D01*
X64280862Y-71645771D01*
X64112283Y-71476897D01*
X64326441Y-71339090D01*
X64471431Y-71126890D01*
X64522440Y-70875000D01*
X64522440Y-69125000D01*
X64478162Y-68889683D01*
X64339090Y-68673559D01*
X64126890Y-68528569D01*
X63875000Y-68477560D01*
X63760000Y-68477560D01*
X63760000Y-30204242D01*
X64194776Y-30384777D01*
X64616500Y-30385145D01*
X64616500Y-74808698D01*
X64507837Y-74917361D01*
X64495579Y-74634542D01*
X64315953Y-74200884D01*
X64062060Y-74117545D01*
X63179605Y-75000000D01*
X63193748Y-75014143D01*
X63014143Y-75193748D01*
X63000000Y-75179605D01*
X62117545Y-76062060D01*
X62166318Y-76210648D01*
X62145771Y-76219138D01*
X61720630Y-76643537D01*
X61490262Y-77198325D01*
X61489738Y-77799040D01*
X61719138Y-78354229D01*
X62114536Y-78750318D01*
X61720630Y-79143537D01*
X61490262Y-79698325D01*
X61489738Y-80299040D01*
X61719138Y-80854229D01*
X62143537Y-81279370D01*
X62698325Y-81509738D01*
X63299040Y-81510262D01*
X63854229Y-81280862D01*
X64279370Y-80856463D01*
X64509738Y-80301675D01*
X64510262Y-79700960D01*
X64280862Y-79145771D01*
X63885464Y-78749682D01*
X64279370Y-78356463D01*
X64509738Y-77801675D01*
X64510262Y-77200960D01*
X64470375Y-77104427D01*
X65913901Y-75660901D01*
X66078648Y-75414339D01*
X66136500Y-75123500D01*
X66136500Y-23091200D01*
X66110391Y-22959940D01*
X66078648Y-22800360D01*
X65913901Y-22553799D01*
X64755201Y-21395099D01*
X64508639Y-21230352D01*
X64429681Y-21214646D01*
X64356590Y-21101059D01*
X64144390Y-20956069D01*
X63892500Y-20905060D01*
X61842500Y-20905060D01*
X61607183Y-20949338D01*
X61391059Y-21088410D01*
X61333603Y-21172500D01*
X60852561Y-21172500D01*
X60806590Y-21101059D01*
X60594390Y-20956069D01*
X60342500Y-20905060D01*
X58292500Y-20905060D01*
X58057183Y-20949338D01*
X57841059Y-21088410D01*
X57696069Y-21300610D01*
X57645060Y-21552500D01*
X57645060Y-22312500D01*
X57689338Y-22547817D01*
X57707359Y-22575822D01*
X57657500Y-22696191D01*
X57657500Y-22916750D01*
X57816250Y-23075500D01*
X59190500Y-23075500D01*
X59190500Y-23055500D01*
X59444500Y-23055500D01*
X59444500Y-23075500D01*
X60818750Y-23075500D01*
X60977500Y-22916750D01*
X60977500Y-22696191D01*
X60975971Y-22692500D01*
X61209029Y-22692500D01*
X61207500Y-22696191D01*
X61207500Y-22916750D01*
X61366250Y-23075500D01*
X62740500Y-23075500D01*
X62740500Y-23055500D01*
X62994500Y-23055500D01*
X62994500Y-23075500D01*
X63014500Y-23075500D01*
X63014500Y-23329500D01*
X62994500Y-23329500D01*
X62994500Y-23349500D01*
X62740500Y-23349500D01*
X62740500Y-23329500D01*
X61366250Y-23329500D01*
X61207500Y-23488250D01*
X61207500Y-23708809D01*
X61256046Y-23826009D01*
X61246069Y-23840610D01*
X61195060Y-24092500D01*
X61195060Y-24852500D01*
X61226033Y-25017105D01*
X61109161Y-25040352D01*
X60949409Y-25147095D01*
X60945662Y-25127183D01*
X60934844Y-25110371D01*
X60938931Y-25104390D01*
X60989940Y-24852500D01*
X60989940Y-24092500D01*
X60945662Y-23857183D01*
X60927641Y-23829178D01*
X60977500Y-23708809D01*
X60977500Y-23488250D01*
X60818750Y-23329500D01*
X59444500Y-23329500D01*
X59444500Y-23349500D01*
X59190500Y-23349500D01*
X59190500Y-23329500D01*
X57816250Y-23329500D01*
X57657500Y-23488250D01*
X57657500Y-23708809D01*
X57706046Y-23826009D01*
X57696069Y-23840610D01*
X57645060Y-24092500D01*
X57645060Y-24852500D01*
X57689338Y-25087817D01*
X57700156Y-25104629D01*
X57696069Y-25110610D01*
X57645060Y-25362500D01*
X57645060Y-26122500D01*
X57680261Y-26309576D01*
X57676361Y-26310352D01*
X57429799Y-26475099D01*
X31562599Y-52342299D01*
X31397852Y-52588861D01*
X31340000Y-52879700D01*
X31340000Y-55582659D01*
X31106600Y-55485743D01*
X30550839Y-55485258D01*
X30037197Y-55697490D01*
X29643871Y-56090130D01*
X29557551Y-56298012D01*
X29472510Y-56092197D01*
X29079870Y-55698871D01*
X28566600Y-55485743D01*
X28010839Y-55485258D01*
X27497197Y-55697490D01*
X27103871Y-56090130D01*
X27017551Y-56298012D01*
X26932510Y-56092197D01*
X26539870Y-55698871D01*
X26026600Y-55485743D01*
X25470839Y-55485258D01*
X24957197Y-55697490D01*
X24563871Y-56090130D01*
X24350743Y-56603400D01*
X24350258Y-57159161D01*
X24562490Y-57672803D01*
X24955130Y-58066129D01*
X25468400Y-58279257D01*
X25815638Y-58279560D01*
X24862599Y-59232599D01*
X24697852Y-59479161D01*
X24640000Y-59770000D01*
X24640000Y-61712500D01*
X23512148Y-61712500D01*
X23311915Y-61412830D01*
X23002431Y-61206039D01*
X23418232Y-60834536D01*
X23672209Y-60307291D01*
X23674858Y-60291526D01*
X23553717Y-60059500D01*
X22194500Y-60059500D01*
X22194500Y-60079500D01*
X21940500Y-60079500D01*
X21940500Y-60059500D01*
X20581283Y-60059500D01*
X20460142Y-60291526D01*
X20462791Y-60307291D01*
X20716768Y-60834536D01*
X21132569Y-61206039D01*
X20823085Y-61412830D01*
X20498229Y-61899011D01*
X20384155Y-62472500D01*
X20498229Y-63045989D01*
X20823085Y-63532170D01*
X21137866Y-63742500D01*
X20823085Y-63952830D01*
X20498229Y-64439011D01*
X20384155Y-65012500D01*
X20498229Y-65585989D01*
X20823085Y-66072170D01*
X21309266Y-66397026D01*
X21882755Y-66511100D01*
X22252245Y-66511100D01*
X22825734Y-66397026D01*
X23311915Y-66072170D01*
X23539532Y-65731517D01*
X23624339Y-65714648D01*
X23870901Y-65549901D01*
X26387412Y-63033390D01*
X26552159Y-62786828D01*
X26610011Y-62495989D01*
X26610011Y-60364791D01*
X26733899Y-60240903D01*
X26863538Y-60554655D01*
X27322927Y-61014846D01*
X27923453Y-61264206D01*
X28573694Y-61264774D01*
X29140000Y-61030781D01*
X29140000Y-64840000D01*
X27500000Y-64840000D01*
X27209160Y-64897852D01*
X26962599Y-65062599D01*
X26062599Y-65962599D01*
X25897852Y-66209161D01*
X25840000Y-66500000D01*
X25840000Y-68047298D01*
X24814940Y-69072358D01*
X24814940Y-67957500D01*
X24770662Y-67722183D01*
X24631590Y-67506059D01*
X24419390Y-67361069D01*
X24167500Y-67310060D01*
X21067500Y-67310060D01*
X20832183Y-67354338D01*
X20616059Y-67493410D01*
X20471069Y-67705610D01*
X20420060Y-67957500D01*
X20420060Y-70157500D01*
X20464338Y-70392817D01*
X20603410Y-70608941D01*
X20815610Y-70753931D01*
X21067500Y-70804940D01*
X23582200Y-70804940D01*
X23582200Y-77807500D01*
X23640052Y-78098339D01*
X23804799Y-78344901D01*
X24043578Y-78504447D01*
X24032500Y-78531191D01*
X24032500Y-78771750D01*
X24191250Y-78930500D01*
X25390500Y-78930500D01*
X25390500Y-78910500D01*
X25644500Y-78910500D01*
X25644500Y-78930500D01*
X26843750Y-78930500D01*
X27002500Y-78771750D01*
X27002500Y-78531191D01*
X26966830Y-78445076D01*
X27014940Y-78207500D01*
X27014940Y-77407500D01*
X26998005Y-77317500D01*
X27442500Y-77317500D01*
X27733339Y-77259648D01*
X27979901Y-77094901D01*
X46053685Y-59021117D01*
X49415769Y-62383201D01*
X49662330Y-62547948D01*
X49953170Y-62605800D01*
X55425977Y-62605800D01*
X54919697Y-62814990D01*
X54526371Y-63207630D01*
X54313243Y-63720900D01*
X54312758Y-64276661D01*
X54524990Y-64790303D01*
X54764733Y-65030465D01*
X50361083Y-69434115D01*
X50196547Y-69365794D01*
X49546306Y-69365226D01*
X48945345Y-69613538D01*
X48485154Y-70072927D01*
X48235794Y-70673453D01*
X48235226Y-71323694D01*
X48483538Y-71924655D01*
X48942927Y-72384846D01*
X49543453Y-72634206D01*
X50193694Y-72634774D01*
X50794655Y-72386462D01*
X51254846Y-71927073D01*
X51504206Y-71326547D01*
X51504774Y-70676306D01*
X51435691Y-70509111D01*
X56247401Y-65697401D01*
X56412148Y-65450840D01*
X56461866Y-65200892D01*
X56500303Y-65185010D01*
X56893629Y-64792370D01*
X56979949Y-64584488D01*
X57064990Y-64790303D01*
X57457630Y-65183629D01*
X57490000Y-65197070D01*
X57490000Y-77515198D01*
X51456881Y-83548317D01*
X51426600Y-83535743D01*
X50870839Y-83535258D01*
X50357197Y-83747490D01*
X49963871Y-84140130D01*
X49884105Y-84332227D01*
X49829897Y-84201357D01*
X49587713Y-84131892D01*
X48787105Y-84932500D01*
X49587713Y-85733108D01*
X49829897Y-85663643D01*
X49880009Y-85523182D01*
X49962490Y-85722803D01*
X50355130Y-86116129D01*
X50611300Y-86222500D01*
X49175435Y-86222500D01*
X49338643Y-86154897D01*
X49408108Y-85912713D01*
X48607500Y-85112105D01*
X47806892Y-85912713D01*
X47876357Y-86154897D01*
X48065846Y-86222500D01*
X46603707Y-86222500D01*
X46857803Y-86117510D01*
X47251129Y-85724870D01*
X47330895Y-85532773D01*
X47385103Y-85663643D01*
X47627287Y-85733108D01*
X48427895Y-84932500D01*
X47627287Y-84131892D01*
X47385103Y-84201357D01*
X47334991Y-84341818D01*
X47252510Y-84142197D01*
X47062932Y-83952287D01*
X47806892Y-83952287D01*
X48607500Y-84752895D01*
X49408108Y-83952287D01*
X49338643Y-83710103D01*
X48815198Y-83523356D01*
X48260132Y-83551138D01*
X47876357Y-83710103D01*
X47806892Y-83952287D01*
X47062932Y-83952287D01*
X46859870Y-83748871D01*
X46346600Y-83535743D01*
X45790839Y-83535258D01*
X45277197Y-83747490D01*
X44883871Y-84140130D01*
X44797551Y-84348012D01*
X44712510Y-84142197D01*
X44319870Y-83748871D01*
X43806600Y-83535743D01*
X43250839Y-83535258D01*
X42737197Y-83747490D01*
X42343871Y-84140130D01*
X42257551Y-84348012D01*
X42172510Y-84142197D01*
X41779870Y-83748871D01*
X41266600Y-83535743D01*
X40710839Y-83535258D01*
X40197197Y-83747490D01*
X39803871Y-84140130D01*
X39717551Y-84348012D01*
X39632510Y-84142197D01*
X39239870Y-83748871D01*
X38726600Y-83535743D01*
X38170839Y-83535258D01*
X37657197Y-83747490D01*
X37263871Y-84140130D01*
X37177551Y-84348012D01*
X37092510Y-84142197D01*
X36699870Y-83748871D01*
X36186600Y-83535743D01*
X35630839Y-83535258D01*
X35117197Y-83747490D01*
X34723871Y-84140130D01*
X34637551Y-84348012D01*
X34552510Y-84142197D01*
X34159870Y-83748871D01*
X33646600Y-83535743D01*
X33090839Y-83535258D01*
X32577197Y-83747490D01*
X32183871Y-84140130D01*
X32097551Y-84348012D01*
X32012510Y-84142197D01*
X31619870Y-83748871D01*
X31587500Y-83735430D01*
X31587500Y-82543865D01*
X31726839Y-82516148D01*
X31973401Y-82351401D01*
X41758917Y-72565885D01*
X41923453Y-72634206D01*
X42573694Y-72634774D01*
X43174655Y-72386462D01*
X43634846Y-71927073D01*
X43884206Y-71326547D01*
X43884774Y-70676306D01*
X43636462Y-70075345D01*
X43177073Y-69615154D01*
X42576547Y-69365794D01*
X41926306Y-69365226D01*
X41325345Y-69613538D01*
X40865154Y-70072927D01*
X40615794Y-70673453D01*
X40615226Y-71323694D01*
X40684309Y-71490889D01*
X31121198Y-81054000D01*
X28514102Y-81054000D01*
X27230201Y-79770099D01*
X26991422Y-79610553D01*
X27002500Y-79583809D01*
X27002500Y-79343250D01*
X26843750Y-79184500D01*
X25644500Y-79184500D01*
X25644500Y-79204500D01*
X25390500Y-79204500D01*
X25390500Y-79184500D01*
X24191250Y-79184500D01*
X24032500Y-79343250D01*
X24032500Y-79583809D01*
X24068170Y-79669924D01*
X24020060Y-79907500D01*
X24020060Y-80707500D01*
X24064338Y-80942817D01*
X24139782Y-81060060D01*
X21067500Y-81060060D01*
X20832183Y-81104338D01*
X20616059Y-81243410D01*
X20471069Y-81455610D01*
X20420060Y-81707500D01*
X20420060Y-83907500D01*
X20464338Y-84142817D01*
X20603410Y-84358941D01*
X20815610Y-84503931D01*
X21067500Y-84554940D01*
X24167500Y-84554940D01*
X24402817Y-84510662D01*
X24412637Y-84504343D01*
X24350743Y-84653400D01*
X24350258Y-85209161D01*
X24562490Y-85722803D01*
X24955130Y-86116129D01*
X25211300Y-86222500D01*
X19777500Y-86222500D01*
X19777500Y-56528900D01*
X20404060Y-56528900D01*
X20404060Y-58256100D01*
X20448338Y-58491417D01*
X20587410Y-58707541D01*
X20799610Y-58852531D01*
X20894427Y-58871732D01*
X20716768Y-59030464D01*
X20462791Y-59557709D01*
X20460142Y-59573474D01*
X20581283Y-59805500D01*
X21940500Y-59805500D01*
X21940500Y-59785500D01*
X22194500Y-59785500D01*
X22194500Y-59805500D01*
X23553717Y-59805500D01*
X23674858Y-59573474D01*
X23672209Y-59557709D01*
X23418232Y-59030464D01*
X23242655Y-58873593D01*
X23318817Y-58859262D01*
X23534941Y-58720190D01*
X23679931Y-58507990D01*
X23730940Y-58256100D01*
X23730940Y-56528900D01*
X23686662Y-56293583D01*
X23547590Y-56077459D01*
X23335390Y-55932469D01*
X23083500Y-55881460D01*
X21051500Y-55881460D01*
X20816183Y-55925738D01*
X20600059Y-56064810D01*
X20455069Y-56277010D01*
X20404060Y-56528900D01*
X19777500Y-56528900D01*
X19777500Y-23211786D01*
X21407500Y-23211786D01*
X21407500Y-47053213D01*
X32877500Y-47053213D01*
X32877500Y-23211786D01*
X21407500Y-23211786D01*
X19777500Y-23211786D01*
X19777500Y-20642500D01*
X66357500Y-20642500D01*
X66357500Y-86222500D01*
G36*
X41181248Y-56868358D02*
X41167105Y-56882500D01*
X41967713Y-57683108D01*
X42209897Y-57613643D01*
X42260009Y-57473182D01*
X42342490Y-57672803D01*
X42735130Y-58066129D01*
X42767500Y-58079570D01*
X42767500Y-58157998D01*
X32981717Y-67943781D01*
X33134206Y-67576547D01*
X33134774Y-66926306D01*
X32886462Y-66325345D01*
X32427073Y-65865154D01*
X31826547Y-65615794D01*
X31176306Y-65615226D01*
X31009111Y-65684309D01*
X30660000Y-65335198D01*
X30660000Y-61051002D01*
X31173453Y-61264206D01*
X31823694Y-61264774D01*
X32424655Y-61016462D01*
X32884846Y-60557073D01*
X32954221Y-60390000D01*
X35700000Y-60390000D01*
X35990839Y-60332148D01*
X36237401Y-60167401D01*
X38138119Y-58266683D01*
X38168400Y-58279257D01*
X38724161Y-58279742D01*
X39237803Y-58067510D01*
X39442957Y-57862713D01*
X40186892Y-57862713D01*
X40256357Y-58104897D01*
X40779802Y-58291644D01*
X41334868Y-58263862D01*
X41718643Y-58104897D01*
X41788108Y-57862713D01*
X40987500Y-57062105D01*
X40186892Y-57862713D01*
X39442957Y-57862713D01*
X39631129Y-57674870D01*
X39710895Y-57482773D01*
X39765103Y-57613643D01*
X40007287Y-57683108D01*
X40807895Y-56882500D01*
X40793753Y-56868358D01*
X40973358Y-56688753D01*
X40987500Y-56702895D01*
X41001643Y-56688753D01*
X41181248Y-56868358D01*
X41181248Y-56868358D01*
G37*
X41181248Y-56868358D02*
X41167105Y-56882500D01*
X41967713Y-57683108D01*
X42209897Y-57613643D01*
X42260009Y-57473182D01*
X42342490Y-57672803D01*
X42735130Y-58066129D01*
X42767500Y-58079570D01*
X42767500Y-58157998D01*
X32981717Y-67943781D01*
X33134206Y-67576547D01*
X33134774Y-66926306D01*
X32886462Y-66325345D01*
X32427073Y-65865154D01*
X31826547Y-65615794D01*
X31176306Y-65615226D01*
X31009111Y-65684309D01*
X30660000Y-65335198D01*
X30660000Y-61051002D01*
X31173453Y-61264206D01*
X31823694Y-61264774D01*
X32424655Y-61016462D01*
X32884846Y-60557073D01*
X32954221Y-60390000D01*
X35700000Y-60390000D01*
X35990839Y-60332148D01*
X36237401Y-60167401D01*
X38138119Y-58266683D01*
X38168400Y-58279257D01*
X38724161Y-58279742D01*
X39237803Y-58067510D01*
X39442957Y-57862713D01*
X40186892Y-57862713D01*
X40256357Y-58104897D01*
X40779802Y-58291644D01*
X41334868Y-58263862D01*
X41718643Y-58104897D01*
X41788108Y-57862713D01*
X40987500Y-57062105D01*
X40186892Y-57862713D01*
X39442957Y-57862713D01*
X39631129Y-57674870D01*
X39710895Y-57482773D01*
X39765103Y-57613643D01*
X40007287Y-57683108D01*
X40807895Y-56882500D01*
X40793753Y-56868358D01*
X40973358Y-56688753D01*
X40987500Y-56702895D01*
X41001643Y-56688753D01*
X41181248Y-56868358D01*
G36*
X60640000Y-55285500D02*
X60697852Y-55576339D01*
X60722203Y-55612783D01*
X60517197Y-55697490D01*
X60123871Y-56090130D01*
X60044105Y-56282227D01*
X59989897Y-56151357D01*
X59747713Y-56081892D01*
X58947105Y-56882500D01*
X59747713Y-57683108D01*
X59989897Y-57613643D01*
X60040009Y-57473182D01*
X60122490Y-57672803D01*
X60515130Y-58066129D01*
X61028400Y-58279257D01*
X61584161Y-58279742D01*
X61680400Y-58239977D01*
X61680400Y-58868487D01*
X61677073Y-58865154D01*
X61076547Y-58615794D01*
X60426306Y-58615226D01*
X60259111Y-58684309D01*
X59538999Y-57964197D01*
X59568108Y-57862713D01*
X58767500Y-57062105D01*
X58753358Y-57076248D01*
X58573753Y-56896643D01*
X58587895Y-56882500D01*
X57787287Y-56081892D01*
X57545103Y-56151357D01*
X57494991Y-56291818D01*
X57412510Y-56092197D01*
X57222932Y-55902287D01*
X57966892Y-55902287D01*
X58767500Y-56702895D01*
X59568108Y-55902287D01*
X59498643Y-55660103D01*
X58975198Y-55473356D01*
X58420132Y-55501138D01*
X58036357Y-55660103D01*
X57966892Y-55902287D01*
X57222932Y-55902287D01*
X57019870Y-55698871D01*
X56506600Y-55485743D01*
X55950839Y-55485258D01*
X55437197Y-55697490D01*
X55043871Y-56090130D01*
X54957551Y-56298012D01*
X54872510Y-56092197D01*
X54479870Y-55698871D01*
X53966600Y-55485743D01*
X53410839Y-55485258D01*
X52897197Y-55697490D01*
X52503871Y-56090130D01*
X52417551Y-56298012D01*
X52332510Y-56092197D01*
X51939870Y-55698871D01*
X51426600Y-55485743D01*
X50870839Y-55485258D01*
X50583199Y-55604108D01*
X50579748Y-55586761D01*
X50579748Y-55586760D01*
X50415001Y-55340199D01*
X49437401Y-54362599D01*
X49190839Y-54197852D01*
X48900000Y-54140000D01*
X35350000Y-54140000D01*
X35059160Y-54197852D01*
X34812599Y-54362599D01*
X33676881Y-55498317D01*
X33646600Y-55485743D01*
X33090839Y-55485258D01*
X32860000Y-55580638D01*
X32860000Y-53194502D01*
X58061368Y-27993134D01*
X58292500Y-28039940D01*
X60342500Y-28039940D01*
X60577817Y-27995662D01*
X60640000Y-27955648D01*
X60640000Y-55285500D01*
X60640000Y-55285500D01*
G37*
X60640000Y-55285500D02*
X60697852Y-55576339D01*
X60722203Y-55612783D01*
X60517197Y-55697490D01*
X60123871Y-56090130D01*
X60044105Y-56282227D01*
X59989897Y-56151357D01*
X59747713Y-56081892D01*
X58947105Y-56882500D01*
X59747713Y-57683108D01*
X59989897Y-57613643D01*
X60040009Y-57473182D01*
X60122490Y-57672803D01*
X60515130Y-58066129D01*
X61028400Y-58279257D01*
X61584161Y-58279742D01*
X61680400Y-58239977D01*
X61680400Y-58868487D01*
X61677073Y-58865154D01*
X61076547Y-58615794D01*
X60426306Y-58615226D01*
X60259111Y-58684309D01*
X59538999Y-57964197D01*
X59568108Y-57862713D01*
X58767500Y-57062105D01*
X58753358Y-57076248D01*
X58573753Y-56896643D01*
X58587895Y-56882500D01*
X57787287Y-56081892D01*
X57545103Y-56151357D01*
X57494991Y-56291818D01*
X57412510Y-56092197D01*
X57222932Y-55902287D01*
X57966892Y-55902287D01*
X58767500Y-56702895D01*
X59568108Y-55902287D01*
X59498643Y-55660103D01*
X58975198Y-55473356D01*
X58420132Y-55501138D01*
X58036357Y-55660103D01*
X57966892Y-55902287D01*
X57222932Y-55902287D01*
X57019870Y-55698871D01*
X56506600Y-55485743D01*
X55950839Y-55485258D01*
X55437197Y-55697490D01*
X55043871Y-56090130D01*
X54957551Y-56298012D01*
X54872510Y-56092197D01*
X54479870Y-55698871D01*
X53966600Y-55485743D01*
X53410839Y-55485258D01*
X52897197Y-55697490D01*
X52503871Y-56090130D01*
X52417551Y-56298012D01*
X52332510Y-56092197D01*
X51939870Y-55698871D01*
X51426600Y-55485743D01*
X50870839Y-55485258D01*
X50583199Y-55604108D01*
X50579748Y-55586761D01*
X50579748Y-55586760D01*
X50415001Y-55340199D01*
X49437401Y-54362599D01*
X49190839Y-54197852D01*
X48900000Y-54140000D01*
X35350000Y-54140000D01*
X35059160Y-54197852D01*
X34812599Y-54362599D01*
X33676881Y-55498317D01*
X33646600Y-55485743D01*
X33090839Y-55485258D01*
X32860000Y-55580638D01*
X32860000Y-53194502D01*
X58061368Y-27993134D01*
X58292500Y-28039940D01*
X60342500Y-28039940D01*
X60577817Y-27995662D01*
X60640000Y-27955648D01*
X60640000Y-55285500D01*
M02*
