G04 #@! TF.FileFunction,Copper,L2,Bot,Signal*
%FSLAX46Y46*%
G04 Gerber Fmt 4.6, Leading zero omitted, Abs format (unit mm)*
G04 Created by KiCad (PCBNEW 4.0.6) date 2017 May 11, Thursday 23:22:10*
%MOMM*%
%LPD*%
G01*
G04 APERTURE LIST*
%ADD10C,1.000000*%
%ADD11C,0.010000*%
%ADD12R,1.600000X1.000000*%
%ADD13R,2.000000X1.600000*%
%ADD14R,2.032000X1.727200*%
%ADD15O,2.032000X1.727200*%
%ADD16R,1.750000X1.750000*%
%ADD17C,1.750000*%
%ADD18C,1.524000*%
%ADD19C,1.998980*%
%ADD20C,1.300000*%
%ADD21C,0.250000*%
%ADD22C,0.254000*%
G04 APERTURE END LIST*
D10*
D11*
G36*
X34828100Y-33061903D02*
X34716550Y-33117522D01*
X34618092Y-33219931D01*
X34590977Y-33257864D01*
X34561438Y-33307500D01*
X34542272Y-33361412D01*
X34531307Y-33433364D01*
X34526371Y-33537122D01*
X34525287Y-33674101D01*
X34530182Y-33861815D01*
X34547196Y-34002758D01*
X34579823Y-34107908D01*
X34631558Y-34188243D01*
X34705896Y-34254741D01*
X34711358Y-34258678D01*
X34784620Y-34298953D01*
X34872840Y-34318880D01*
X34985038Y-34323793D01*
X35167433Y-34323793D01*
X35167509Y-34500857D01*
X35169207Y-34599470D01*
X35179550Y-34657314D01*
X35206578Y-34692006D01*
X35258332Y-34721164D01*
X35270761Y-34727121D01*
X35328923Y-34755039D01*
X35373956Y-34772672D01*
X35407441Y-34774194D01*
X35430962Y-34753781D01*
X35446100Y-34705607D01*
X35454437Y-34623846D01*
X35457556Y-34502672D01*
X35457040Y-34336260D01*
X35454471Y-34118785D01*
X35453668Y-34053736D01*
X35450778Y-33829502D01*
X35448188Y-33682821D01*
X35167586Y-33682821D01*
X35166009Y-33807326D01*
X35159000Y-33888787D01*
X35143142Y-33942515D01*
X35115019Y-33983823D01*
X35095925Y-34003971D01*
X35017865Y-34062921D01*
X34948753Y-34067720D01*
X34877440Y-34019038D01*
X34875632Y-34017241D01*
X34846617Y-33979618D01*
X34828967Y-33928484D01*
X34820064Y-33849738D01*
X34817291Y-33729276D01*
X34817241Y-33702588D01*
X34823942Y-33536583D01*
X34845752Y-33421505D01*
X34885235Y-33351254D01*
X34944956Y-33319729D01*
X34979472Y-33316552D01*
X35061389Y-33331460D01*
X35117579Y-33380548D01*
X35151402Y-33470362D01*
X35166220Y-33607445D01*
X35167586Y-33682821D01*
X35448188Y-33682821D01*
X35447713Y-33655952D01*
X35443753Y-33525382D01*
X35438174Y-33430087D01*
X35430254Y-33362364D01*
X35419269Y-33314507D01*
X35404499Y-33278813D01*
X35385218Y-33247578D01*
X35376951Y-33235824D01*
X35267288Y-33124797D01*
X35128635Y-33061847D01*
X34968246Y-33044297D01*
X34828100Y-33061903D01*
X34828100Y-33061903D01*
G37*
X34828100Y-33061903D02*
X34716550Y-33117522D01*
X34618092Y-33219931D01*
X34590977Y-33257864D01*
X34561438Y-33307500D01*
X34542272Y-33361412D01*
X34531307Y-33433364D01*
X34526371Y-33537122D01*
X34525287Y-33674101D01*
X34530182Y-33861815D01*
X34547196Y-34002758D01*
X34579823Y-34107908D01*
X34631558Y-34188243D01*
X34705896Y-34254741D01*
X34711358Y-34258678D01*
X34784620Y-34298953D01*
X34872840Y-34318880D01*
X34985038Y-34323793D01*
X35167433Y-34323793D01*
X35167509Y-34500857D01*
X35169207Y-34599470D01*
X35179550Y-34657314D01*
X35206578Y-34692006D01*
X35258332Y-34721164D01*
X35270761Y-34727121D01*
X35328923Y-34755039D01*
X35373956Y-34772672D01*
X35407441Y-34774194D01*
X35430962Y-34753781D01*
X35446100Y-34705607D01*
X35454437Y-34623846D01*
X35457556Y-34502672D01*
X35457040Y-34336260D01*
X35454471Y-34118785D01*
X35453668Y-34053736D01*
X35450778Y-33829502D01*
X35448188Y-33682821D01*
X35167586Y-33682821D01*
X35166009Y-33807326D01*
X35159000Y-33888787D01*
X35143142Y-33942515D01*
X35115019Y-33983823D01*
X35095925Y-34003971D01*
X35017865Y-34062921D01*
X34948753Y-34067720D01*
X34877440Y-34019038D01*
X34875632Y-34017241D01*
X34846617Y-33979618D01*
X34828967Y-33928484D01*
X34820064Y-33849738D01*
X34817291Y-33729276D01*
X34817241Y-33702588D01*
X34823942Y-33536583D01*
X34845752Y-33421505D01*
X34885235Y-33351254D01*
X34944956Y-33319729D01*
X34979472Y-33316552D01*
X35061389Y-33331460D01*
X35117579Y-33380548D01*
X35151402Y-33470362D01*
X35166220Y-33607445D01*
X35167586Y-33682821D01*
X35448188Y-33682821D01*
X35447713Y-33655952D01*
X35443753Y-33525382D01*
X35438174Y-33430087D01*
X35430254Y-33362364D01*
X35419269Y-33314507D01*
X35404499Y-33278813D01*
X35385218Y-33247578D01*
X35376951Y-33235824D01*
X35267288Y-33124797D01*
X35128635Y-33061847D01*
X34968246Y-33044297D01*
X34828100Y-33061903D01*
G36*
X32582571Y-33077719D02*
X32488877Y-33131914D01*
X32423736Y-33185707D01*
X32376093Y-33242066D01*
X32343272Y-33310987D01*
X32322594Y-33402468D01*
X32311380Y-33526506D01*
X32306951Y-33693098D01*
X32306437Y-33812851D01*
X32306437Y-34253659D01*
X32430517Y-34309283D01*
X32554598Y-34364907D01*
X32569195Y-33882095D01*
X32575227Y-33701779D01*
X32581555Y-33570901D01*
X32589394Y-33480511D01*
X32599963Y-33421664D01*
X32614477Y-33385413D01*
X32634152Y-33362810D01*
X32640465Y-33357917D01*
X32736112Y-33319706D01*
X32832793Y-33334827D01*
X32890345Y-33374943D01*
X32913755Y-33403370D01*
X32929961Y-33440672D01*
X32940259Y-33497223D01*
X32945951Y-33583394D01*
X32948336Y-33709558D01*
X32948736Y-33841042D01*
X32948814Y-34005999D01*
X32951639Y-34122761D01*
X32961093Y-34201510D01*
X32981060Y-34252431D01*
X33015424Y-34285706D01*
X33068068Y-34311520D01*
X33138383Y-34338344D01*
X33215180Y-34367542D01*
X33206038Y-33849346D01*
X33202357Y-33662539D01*
X33198050Y-33524490D01*
X33191877Y-33425568D01*
X33182598Y-33356145D01*
X33168973Y-33306590D01*
X33149761Y-33267273D01*
X33126598Y-33232584D01*
X33014848Y-33121770D01*
X32878487Y-33057689D01*
X32730175Y-33042339D01*
X32582571Y-33077719D01*
X32582571Y-33077719D01*
G37*
X32582571Y-33077719D02*
X32488877Y-33131914D01*
X32423736Y-33185707D01*
X32376093Y-33242066D01*
X32343272Y-33310987D01*
X32322594Y-33402468D01*
X32311380Y-33526506D01*
X32306951Y-33693098D01*
X32306437Y-33812851D01*
X32306437Y-34253659D01*
X32430517Y-34309283D01*
X32554598Y-34364907D01*
X32569195Y-33882095D01*
X32575227Y-33701779D01*
X32581555Y-33570901D01*
X32589394Y-33480511D01*
X32599963Y-33421664D01*
X32614477Y-33385413D01*
X32634152Y-33362810D01*
X32640465Y-33357917D01*
X32736112Y-33319706D01*
X32832793Y-33334827D01*
X32890345Y-33374943D01*
X32913755Y-33403370D01*
X32929961Y-33440672D01*
X32940259Y-33497223D01*
X32945951Y-33583394D01*
X32948336Y-33709558D01*
X32948736Y-33841042D01*
X32948814Y-34005999D01*
X32951639Y-34122761D01*
X32961093Y-34201510D01*
X32981060Y-34252431D01*
X33015424Y-34285706D01*
X33068068Y-34311520D01*
X33138383Y-34338344D01*
X33215180Y-34367542D01*
X33206038Y-33849346D01*
X33202357Y-33662539D01*
X33198050Y-33524490D01*
X33191877Y-33425568D01*
X33182598Y-33356145D01*
X33168973Y-33306590D01*
X33149761Y-33267273D01*
X33126598Y-33232584D01*
X33014848Y-33121770D01*
X32878487Y-33057689D01*
X32730175Y-33042339D01*
X32582571Y-33077719D01*
G36*
X35951779Y-33066015D02*
X35814939Y-33137968D01*
X35713949Y-33253766D01*
X35678075Y-33328213D01*
X35650161Y-33439992D01*
X35635871Y-33581227D01*
X35634516Y-33735371D01*
X35645405Y-33885879D01*
X35667847Y-34016205D01*
X35701150Y-34109803D01*
X35711385Y-34125922D01*
X35832618Y-34246249D01*
X35976613Y-34318317D01*
X36132861Y-34339408D01*
X36290852Y-34306802D01*
X36334820Y-34287253D01*
X36420444Y-34227012D01*
X36495592Y-34147135D01*
X36502694Y-34137004D01*
X36531561Y-34088181D01*
X36550643Y-34035990D01*
X36561916Y-33967285D01*
X36567355Y-33868918D01*
X36568938Y-33727744D01*
X36568965Y-33696092D01*
X36568893Y-33686019D01*
X36277011Y-33686019D01*
X36275313Y-33819256D01*
X36268628Y-33907674D01*
X36254575Y-33964785D01*
X36230771Y-34004102D01*
X36218621Y-34017241D01*
X36148764Y-34067172D01*
X36080941Y-34064895D01*
X36012365Y-34021584D01*
X35971465Y-33975346D01*
X35947242Y-33907857D01*
X35933639Y-33801433D01*
X35932706Y-33789020D01*
X35930384Y-33596147D01*
X35954650Y-33452900D01*
X36005176Y-33360160D01*
X36081632Y-33318807D01*
X36108924Y-33316552D01*
X36180589Y-33327893D01*
X36229610Y-33367184D01*
X36259582Y-33442326D01*
X36274101Y-33561222D01*
X36277011Y-33686019D01*
X36568893Y-33686019D01*
X36567878Y-33545659D01*
X36563312Y-33440549D01*
X36553312Y-33367714D01*
X36535921Y-33314108D01*
X36509184Y-33266681D01*
X36503276Y-33257864D01*
X36403968Y-33139007D01*
X36295758Y-33070008D01*
X36164019Y-33042619D01*
X36119283Y-33041281D01*
X35951779Y-33066015D01*
X35951779Y-33066015D01*
G37*
X35951779Y-33066015D02*
X35814939Y-33137968D01*
X35713949Y-33253766D01*
X35678075Y-33328213D01*
X35650161Y-33439992D01*
X35635871Y-33581227D01*
X35634516Y-33735371D01*
X35645405Y-33885879D01*
X35667847Y-34016205D01*
X35701150Y-34109803D01*
X35711385Y-34125922D01*
X35832618Y-34246249D01*
X35976613Y-34318317D01*
X36132861Y-34339408D01*
X36290852Y-34306802D01*
X36334820Y-34287253D01*
X36420444Y-34227012D01*
X36495592Y-34147135D01*
X36502694Y-34137004D01*
X36531561Y-34088181D01*
X36550643Y-34035990D01*
X36561916Y-33967285D01*
X36567355Y-33868918D01*
X36568938Y-33727744D01*
X36568965Y-33696092D01*
X36568893Y-33686019D01*
X36277011Y-33686019D01*
X36275313Y-33819256D01*
X36268628Y-33907674D01*
X36254575Y-33964785D01*
X36230771Y-34004102D01*
X36218621Y-34017241D01*
X36148764Y-34067172D01*
X36080941Y-34064895D01*
X36012365Y-34021584D01*
X35971465Y-33975346D01*
X35947242Y-33907857D01*
X35933639Y-33801433D01*
X35932706Y-33789020D01*
X35930384Y-33596147D01*
X35954650Y-33452900D01*
X36005176Y-33360160D01*
X36081632Y-33318807D01*
X36108924Y-33316552D01*
X36180589Y-33327893D01*
X36229610Y-33367184D01*
X36259582Y-33442326D01*
X36274101Y-33561222D01*
X36277011Y-33686019D01*
X36568893Y-33686019D01*
X36567878Y-33545659D01*
X36563312Y-33440549D01*
X36553312Y-33367714D01*
X36535921Y-33314108D01*
X36509184Y-33266681D01*
X36503276Y-33257864D01*
X36403968Y-33139007D01*
X36295758Y-33070008D01*
X36164019Y-33042619D01*
X36119283Y-33041281D01*
X35951779Y-33066015D01*
G36*
X33684448Y-33084676D02*
X33569342Y-33162111D01*
X33480389Y-33273949D01*
X33427251Y-33416265D01*
X33416503Y-33521015D01*
X33417724Y-33564726D01*
X33427944Y-33598194D01*
X33456039Y-33628179D01*
X33510884Y-33661440D01*
X33601355Y-33704738D01*
X33736328Y-33764833D01*
X33737011Y-33765134D01*
X33861249Y-33822037D01*
X33963127Y-33872565D01*
X34032233Y-33911280D01*
X34058154Y-33932740D01*
X34058161Y-33932913D01*
X34035315Y-33979644D01*
X33981891Y-34031154D01*
X33920558Y-34068261D01*
X33889485Y-34075632D01*
X33804711Y-34050138D01*
X33731707Y-33986291D01*
X33696087Y-33916094D01*
X33661820Y-33864343D01*
X33594697Y-33805409D01*
X33515792Y-33754496D01*
X33446179Y-33726809D01*
X33431623Y-33725287D01*
X33415237Y-33750321D01*
X33414250Y-33814311D01*
X33426292Y-33900593D01*
X33448993Y-33992501D01*
X33479986Y-34073369D01*
X33481552Y-34076509D01*
X33574819Y-34206734D01*
X33695696Y-34295311D01*
X33832973Y-34338786D01*
X33975440Y-34333706D01*
X34111888Y-34276616D01*
X34117955Y-34272602D01*
X34225290Y-34175326D01*
X34295868Y-34048409D01*
X34334926Y-33881526D01*
X34340168Y-33834639D01*
X34349452Y-33613329D01*
X34338322Y-33510124D01*
X34058161Y-33510124D01*
X34054521Y-33574503D01*
X34034611Y-33593291D01*
X33984974Y-33579235D01*
X33906733Y-33546009D01*
X33819274Y-33504359D01*
X33817101Y-33503256D01*
X33742970Y-33464265D01*
X33713219Y-33438244D01*
X33720555Y-33410965D01*
X33751447Y-33375121D01*
X33830040Y-33323251D01*
X33914677Y-33319439D01*
X33990597Y-33357189D01*
X34043035Y-33430001D01*
X34058161Y-33510124D01*
X34338322Y-33510124D01*
X34330356Y-33436261D01*
X34281366Y-33295829D01*
X34213164Y-33197447D01*
X34090065Y-33098030D01*
X33954472Y-33048711D01*
X33816045Y-33045568D01*
X33684448Y-33084676D01*
X33684448Y-33084676D01*
G37*
X33684448Y-33084676D02*
X33569342Y-33162111D01*
X33480389Y-33273949D01*
X33427251Y-33416265D01*
X33416503Y-33521015D01*
X33417724Y-33564726D01*
X33427944Y-33598194D01*
X33456039Y-33628179D01*
X33510884Y-33661440D01*
X33601355Y-33704738D01*
X33736328Y-33764833D01*
X33737011Y-33765134D01*
X33861249Y-33822037D01*
X33963127Y-33872565D01*
X34032233Y-33911280D01*
X34058154Y-33932740D01*
X34058161Y-33932913D01*
X34035315Y-33979644D01*
X33981891Y-34031154D01*
X33920558Y-34068261D01*
X33889485Y-34075632D01*
X33804711Y-34050138D01*
X33731707Y-33986291D01*
X33696087Y-33916094D01*
X33661820Y-33864343D01*
X33594697Y-33805409D01*
X33515792Y-33754496D01*
X33446179Y-33726809D01*
X33431623Y-33725287D01*
X33415237Y-33750321D01*
X33414250Y-33814311D01*
X33426292Y-33900593D01*
X33448993Y-33992501D01*
X33479986Y-34073369D01*
X33481552Y-34076509D01*
X33574819Y-34206734D01*
X33695696Y-34295311D01*
X33832973Y-34338786D01*
X33975440Y-34333706D01*
X34111888Y-34276616D01*
X34117955Y-34272602D01*
X34225290Y-34175326D01*
X34295868Y-34048409D01*
X34334926Y-33881526D01*
X34340168Y-33834639D01*
X34349452Y-33613329D01*
X34338322Y-33510124D01*
X34058161Y-33510124D01*
X34054521Y-33574503D01*
X34034611Y-33593291D01*
X33984974Y-33579235D01*
X33906733Y-33546009D01*
X33819274Y-33504359D01*
X33817101Y-33503256D01*
X33742970Y-33464265D01*
X33713219Y-33438244D01*
X33720555Y-33410965D01*
X33751447Y-33375121D01*
X33830040Y-33323251D01*
X33914677Y-33319439D01*
X33990597Y-33357189D01*
X34043035Y-33430001D01*
X34058161Y-33510124D01*
X34338322Y-33510124D01*
X34330356Y-33436261D01*
X34281366Y-33295829D01*
X34213164Y-33197447D01*
X34090065Y-33098030D01*
X33954472Y-33048711D01*
X33816045Y-33045568D01*
X33684448Y-33084676D01*
G36*
X31255402Y-32923857D02*
X31246846Y-33043188D01*
X31237019Y-33113506D01*
X31223401Y-33144179D01*
X31203473Y-33144571D01*
X31197011Y-33140910D01*
X31111060Y-33114398D01*
X30999255Y-33115946D01*
X30885586Y-33143199D01*
X30814490Y-33178455D01*
X30741595Y-33234778D01*
X30688307Y-33298519D01*
X30651725Y-33379510D01*
X30628950Y-33487586D01*
X30617081Y-33632580D01*
X30613218Y-33824326D01*
X30613149Y-33861109D01*
X30613103Y-34274288D01*
X30705046Y-34306339D01*
X30770348Y-34328144D01*
X30806176Y-34338297D01*
X30807230Y-34338391D01*
X30810758Y-34310860D01*
X30813761Y-34234923D01*
X30816010Y-34120565D01*
X30817276Y-33977769D01*
X30817471Y-33890951D01*
X30817877Y-33719773D01*
X30819968Y-33597088D01*
X30825053Y-33513000D01*
X30834440Y-33457614D01*
X30849439Y-33421032D01*
X30871358Y-33393359D01*
X30885043Y-33380032D01*
X30979051Y-33326328D01*
X31081636Y-33322307D01*
X31174710Y-33367725D01*
X31191922Y-33384123D01*
X31217168Y-33414957D01*
X31234680Y-33451531D01*
X31245858Y-33504415D01*
X31252104Y-33584177D01*
X31254818Y-33701385D01*
X31255402Y-33862991D01*
X31255402Y-34274288D01*
X31347345Y-34306339D01*
X31412647Y-34328144D01*
X31448475Y-34338297D01*
X31449529Y-34338391D01*
X31452225Y-34310448D01*
X31454655Y-34231630D01*
X31456722Y-34109453D01*
X31458329Y-33951432D01*
X31459377Y-33765083D01*
X31459769Y-33557920D01*
X31459770Y-33548706D01*
X31459770Y-32759020D01*
X31364885Y-32718997D01*
X31270000Y-32678973D01*
X31255402Y-32923857D01*
X31255402Y-32923857D01*
G37*
X31255402Y-32923857D02*
X31246846Y-33043188D01*
X31237019Y-33113506D01*
X31223401Y-33144179D01*
X31203473Y-33144571D01*
X31197011Y-33140910D01*
X31111060Y-33114398D01*
X30999255Y-33115946D01*
X30885586Y-33143199D01*
X30814490Y-33178455D01*
X30741595Y-33234778D01*
X30688307Y-33298519D01*
X30651725Y-33379510D01*
X30628950Y-33487586D01*
X30617081Y-33632580D01*
X30613218Y-33824326D01*
X30613149Y-33861109D01*
X30613103Y-34274288D01*
X30705046Y-34306339D01*
X30770348Y-34328144D01*
X30806176Y-34338297D01*
X30807230Y-34338391D01*
X30810758Y-34310860D01*
X30813761Y-34234923D01*
X30816010Y-34120565D01*
X30817276Y-33977769D01*
X30817471Y-33890951D01*
X30817877Y-33719773D01*
X30819968Y-33597088D01*
X30825053Y-33513000D01*
X30834440Y-33457614D01*
X30849439Y-33421032D01*
X30871358Y-33393359D01*
X30885043Y-33380032D01*
X30979051Y-33326328D01*
X31081636Y-33322307D01*
X31174710Y-33367725D01*
X31191922Y-33384123D01*
X31217168Y-33414957D01*
X31234680Y-33451531D01*
X31245858Y-33504415D01*
X31252104Y-33584177D01*
X31254818Y-33701385D01*
X31255402Y-33862991D01*
X31255402Y-34274288D01*
X31347345Y-34306339D01*
X31412647Y-34328144D01*
X31448475Y-34338297D01*
X31449529Y-34338391D01*
X31452225Y-34310448D01*
X31454655Y-34231630D01*
X31456722Y-34109453D01*
X31458329Y-33951432D01*
X31459377Y-33765083D01*
X31459769Y-33557920D01*
X31459770Y-33548706D01*
X31459770Y-32759020D01*
X31364885Y-32718997D01*
X31270000Y-32678973D01*
X31255402Y-32923857D01*
G36*
X29920056Y-33124360D02*
X29805657Y-33166842D01*
X29804348Y-33167658D01*
X29733597Y-33219730D01*
X29681364Y-33280584D01*
X29644629Y-33359887D01*
X29620366Y-33467309D01*
X29605555Y-33612517D01*
X29597171Y-33805179D01*
X29596436Y-33832628D01*
X29585880Y-34246521D01*
X29674709Y-34292456D01*
X29738982Y-34323498D01*
X29777790Y-34338206D01*
X29779585Y-34338391D01*
X29786300Y-34311250D01*
X29791635Y-34238041D01*
X29794917Y-34131081D01*
X29795632Y-34044469D01*
X29795649Y-33904162D01*
X29802063Y-33816051D01*
X29824420Y-33774025D01*
X29872268Y-33771975D01*
X29955151Y-33803790D01*
X30080287Y-33862272D01*
X30172303Y-33910845D01*
X30219629Y-33952986D01*
X30233542Y-33998916D01*
X30233563Y-34001189D01*
X30210605Y-34080311D01*
X30142630Y-34123055D01*
X30038602Y-34129246D01*
X29963670Y-34128172D01*
X29924161Y-34149753D01*
X29899522Y-34201591D01*
X29885341Y-34267632D01*
X29905777Y-34305104D01*
X29913472Y-34310467D01*
X29985917Y-34332006D01*
X30087367Y-34335055D01*
X30191843Y-34320778D01*
X30265875Y-34294688D01*
X30368228Y-34207785D01*
X30426409Y-34086816D01*
X30437931Y-33992308D01*
X30429138Y-33907062D01*
X30397320Y-33837476D01*
X30334316Y-33775672D01*
X30231969Y-33713772D01*
X30082118Y-33643897D01*
X30072988Y-33639948D01*
X29938003Y-33577588D01*
X29854706Y-33526446D01*
X29819003Y-33480488D01*
X29826797Y-33433683D01*
X29873993Y-33379998D01*
X29888106Y-33367644D01*
X29982641Y-33319741D01*
X30080594Y-33321758D01*
X30165903Y-33368724D01*
X30222504Y-33455669D01*
X30227763Y-33472734D01*
X30278977Y-33555504D01*
X30343963Y-33595372D01*
X30437931Y-33634882D01*
X30437931Y-33532658D01*
X30409347Y-33384072D01*
X30324505Y-33247784D01*
X30280355Y-33202191D01*
X30179995Y-33143674D01*
X30052365Y-33117184D01*
X29920056Y-33124360D01*
X29920056Y-33124360D01*
G37*
X29920056Y-33124360D02*
X29805657Y-33166842D01*
X29804348Y-33167658D01*
X29733597Y-33219730D01*
X29681364Y-33280584D01*
X29644629Y-33359887D01*
X29620366Y-33467309D01*
X29605555Y-33612517D01*
X29597171Y-33805179D01*
X29596436Y-33832628D01*
X29585880Y-34246521D01*
X29674709Y-34292456D01*
X29738982Y-34323498D01*
X29777790Y-34338206D01*
X29779585Y-34338391D01*
X29786300Y-34311250D01*
X29791635Y-34238041D01*
X29794917Y-34131081D01*
X29795632Y-34044469D01*
X29795649Y-33904162D01*
X29802063Y-33816051D01*
X29824420Y-33774025D01*
X29872268Y-33771975D01*
X29955151Y-33803790D01*
X30080287Y-33862272D01*
X30172303Y-33910845D01*
X30219629Y-33952986D01*
X30233542Y-33998916D01*
X30233563Y-34001189D01*
X30210605Y-34080311D01*
X30142630Y-34123055D01*
X30038602Y-34129246D01*
X29963670Y-34128172D01*
X29924161Y-34149753D01*
X29899522Y-34201591D01*
X29885341Y-34267632D01*
X29905777Y-34305104D01*
X29913472Y-34310467D01*
X29985917Y-34332006D01*
X30087367Y-34335055D01*
X30191843Y-34320778D01*
X30265875Y-34294688D01*
X30368228Y-34207785D01*
X30426409Y-34086816D01*
X30437931Y-33992308D01*
X30429138Y-33907062D01*
X30397320Y-33837476D01*
X30334316Y-33775672D01*
X30231969Y-33713772D01*
X30082118Y-33643897D01*
X30072988Y-33639948D01*
X29938003Y-33577588D01*
X29854706Y-33526446D01*
X29819003Y-33480488D01*
X29826797Y-33433683D01*
X29873993Y-33379998D01*
X29888106Y-33367644D01*
X29982641Y-33319741D01*
X30080594Y-33321758D01*
X30165903Y-33368724D01*
X30222504Y-33455669D01*
X30227763Y-33472734D01*
X30278977Y-33555504D01*
X30343963Y-33595372D01*
X30437931Y-33634882D01*
X30437931Y-33532658D01*
X30409347Y-33384072D01*
X30324505Y-33247784D01*
X30280355Y-33202191D01*
X30179995Y-33143674D01*
X30052365Y-33117184D01*
X29920056Y-33124360D01*
G36*
X28934057Y-33121920D02*
X28801435Y-33170859D01*
X28693990Y-33257419D01*
X28651968Y-33318352D01*
X28606157Y-33430161D01*
X28607109Y-33511006D01*
X28655192Y-33565378D01*
X28672983Y-33574624D01*
X28749796Y-33603450D01*
X28789024Y-33596065D01*
X28802311Y-33547658D01*
X28802988Y-33520920D01*
X28827314Y-33422548D01*
X28890719Y-33353734D01*
X28978846Y-33320498D01*
X29077337Y-33328861D01*
X29157398Y-33372296D01*
X29184439Y-33397072D01*
X29203606Y-33427129D01*
X29216554Y-33472565D01*
X29224936Y-33543476D01*
X29230407Y-33649960D01*
X29234622Y-33802112D01*
X29235713Y-33850287D01*
X29239693Y-34015095D01*
X29244219Y-34131088D01*
X29251005Y-34207833D01*
X29261769Y-34254893D01*
X29278227Y-34281835D01*
X29302094Y-34298223D01*
X29317374Y-34305463D01*
X29382267Y-34330220D01*
X29420466Y-34338391D01*
X29433088Y-34311103D01*
X29440792Y-34228603D01*
X29443620Y-34089941D01*
X29441614Y-33894162D01*
X29440989Y-33863965D01*
X29436579Y-33685349D01*
X29431365Y-33554923D01*
X29423945Y-33462492D01*
X29412918Y-33397858D01*
X29396883Y-33350825D01*
X29374439Y-33311196D01*
X29362698Y-33294215D01*
X29295381Y-33219080D01*
X29220090Y-33160638D01*
X29210872Y-33155536D01*
X29075867Y-33115260D01*
X28934057Y-33121920D01*
X28934057Y-33121920D01*
G37*
X28934057Y-33121920D02*
X28801435Y-33170859D01*
X28693990Y-33257419D01*
X28651968Y-33318352D01*
X28606157Y-33430161D01*
X28607109Y-33511006D01*
X28655192Y-33565378D01*
X28672983Y-33574624D01*
X28749796Y-33603450D01*
X28789024Y-33596065D01*
X28802311Y-33547658D01*
X28802988Y-33520920D01*
X28827314Y-33422548D01*
X28890719Y-33353734D01*
X28978846Y-33320498D01*
X29077337Y-33328861D01*
X29157398Y-33372296D01*
X29184439Y-33397072D01*
X29203606Y-33427129D01*
X29216554Y-33472565D01*
X29224936Y-33543476D01*
X29230407Y-33649960D01*
X29234622Y-33802112D01*
X29235713Y-33850287D01*
X29239693Y-34015095D01*
X29244219Y-34131088D01*
X29251005Y-34207833D01*
X29261769Y-34254893D01*
X29278227Y-34281835D01*
X29302094Y-34298223D01*
X29317374Y-34305463D01*
X29382267Y-34330220D01*
X29420466Y-34338391D01*
X29433088Y-34311103D01*
X29440792Y-34228603D01*
X29443620Y-34089941D01*
X29441614Y-33894162D01*
X29440989Y-33863965D01*
X29436579Y-33685349D01*
X29431365Y-33554923D01*
X29423945Y-33462492D01*
X29412918Y-33397858D01*
X29396883Y-33350825D01*
X29374439Y-33311196D01*
X29362698Y-33294215D01*
X29295381Y-33219080D01*
X29220090Y-33160638D01*
X29210872Y-33155536D01*
X29075867Y-33115260D01*
X28934057Y-33121920D01*
G36*
X27606086Y-33354455D02*
X27606457Y-33572661D01*
X27607892Y-33740519D01*
X27610998Y-33866070D01*
X27616378Y-33957355D01*
X27624638Y-34022415D01*
X27636384Y-34069291D01*
X27652219Y-34106024D01*
X27664210Y-34126991D01*
X27763510Y-34240694D01*
X27889412Y-34311965D01*
X28028709Y-34337538D01*
X28168195Y-34314150D01*
X28251257Y-34272119D01*
X28338455Y-34199411D01*
X28397883Y-34110612D01*
X28433739Y-33994320D01*
X28450219Y-33839135D01*
X28452553Y-33725287D01*
X28452239Y-33717106D01*
X28248276Y-33717106D01*
X28247030Y-33847657D01*
X28241322Y-33934080D01*
X28228196Y-33990618D01*
X28204694Y-34031514D01*
X28176614Y-34062362D01*
X28082312Y-34121905D01*
X27981060Y-34126992D01*
X27885364Y-34077279D01*
X27877916Y-34070543D01*
X27846126Y-34035502D01*
X27826192Y-33993811D01*
X27815400Y-33931762D01*
X27811035Y-33835644D01*
X27810345Y-33729379D01*
X27811841Y-33595880D01*
X27818036Y-33506822D01*
X27831486Y-33448293D01*
X27854749Y-33406382D01*
X27873825Y-33384123D01*
X27962437Y-33327985D01*
X28064492Y-33321235D01*
X28161905Y-33364114D01*
X28180704Y-33380032D01*
X28212707Y-33415382D01*
X28232682Y-33457502D01*
X28243407Y-33520251D01*
X28247661Y-33617487D01*
X28248276Y-33717106D01*
X28452239Y-33717106D01*
X28445496Y-33541947D01*
X28421528Y-33404195D01*
X28376452Y-33300632D01*
X28306072Y-33219856D01*
X28251257Y-33178455D01*
X28151624Y-33133728D01*
X28036145Y-33112967D01*
X27928801Y-33118525D01*
X27868736Y-33140943D01*
X27845165Y-33147323D01*
X27829523Y-33123535D01*
X27818605Y-33059788D01*
X27810345Y-32962687D01*
X27801301Y-32854541D01*
X27788739Y-32789475D01*
X27765881Y-32752268D01*
X27725949Y-32727699D01*
X27700862Y-32716819D01*
X27605977Y-32677072D01*
X27606086Y-33354455D01*
X27606086Y-33354455D01*
G37*
X27606086Y-33354455D02*
X27606457Y-33572661D01*
X27607892Y-33740519D01*
X27610998Y-33866070D01*
X27616378Y-33957355D01*
X27624638Y-34022415D01*
X27636384Y-34069291D01*
X27652219Y-34106024D01*
X27664210Y-34126991D01*
X27763510Y-34240694D01*
X27889412Y-34311965D01*
X28028709Y-34337538D01*
X28168195Y-34314150D01*
X28251257Y-34272119D01*
X28338455Y-34199411D01*
X28397883Y-34110612D01*
X28433739Y-33994320D01*
X28450219Y-33839135D01*
X28452553Y-33725287D01*
X28452239Y-33717106D01*
X28248276Y-33717106D01*
X28247030Y-33847657D01*
X28241322Y-33934080D01*
X28228196Y-33990618D01*
X28204694Y-34031514D01*
X28176614Y-34062362D01*
X28082312Y-34121905D01*
X27981060Y-34126992D01*
X27885364Y-34077279D01*
X27877916Y-34070543D01*
X27846126Y-34035502D01*
X27826192Y-33993811D01*
X27815400Y-33931762D01*
X27811035Y-33835644D01*
X27810345Y-33729379D01*
X27811841Y-33595880D01*
X27818036Y-33506822D01*
X27831486Y-33448293D01*
X27854749Y-33406382D01*
X27873825Y-33384123D01*
X27962437Y-33327985D01*
X28064492Y-33321235D01*
X28161905Y-33364114D01*
X28180704Y-33380032D01*
X28212707Y-33415382D01*
X28232682Y-33457502D01*
X28243407Y-33520251D01*
X28247661Y-33617487D01*
X28248276Y-33717106D01*
X28452239Y-33717106D01*
X28445496Y-33541947D01*
X28421528Y-33404195D01*
X28376452Y-33300632D01*
X28306072Y-33219856D01*
X28251257Y-33178455D01*
X28151624Y-33133728D01*
X28036145Y-33112967D01*
X27928801Y-33118525D01*
X27868736Y-33140943D01*
X27845165Y-33147323D01*
X27829523Y-33123535D01*
X27818605Y-33059788D01*
X27810345Y-32962687D01*
X27801301Y-32854541D01*
X27788739Y-32789475D01*
X27765881Y-32752268D01*
X27725949Y-32727699D01*
X27700862Y-32716819D01*
X27605977Y-32677072D01*
X27606086Y-33354455D01*
G36*
X26419876Y-33139840D02*
X26415421Y-33216653D01*
X26411929Y-33333391D01*
X26409685Y-33480821D01*
X26408965Y-33635455D01*
X26408965Y-34158727D01*
X26501355Y-34251117D01*
X26565022Y-34308047D01*
X26620911Y-34331107D01*
X26697298Y-34329647D01*
X26727620Y-34325934D01*
X26822390Y-34315126D01*
X26900778Y-34308933D01*
X26919885Y-34308361D01*
X26984301Y-34312102D01*
X27076429Y-34321494D01*
X27112150Y-34325934D01*
X27199886Y-34332801D01*
X27258847Y-34317885D01*
X27317310Y-34271835D01*
X27338415Y-34251117D01*
X27430805Y-34158727D01*
X27430805Y-33179947D01*
X27356442Y-33146066D01*
X27292410Y-33120970D01*
X27254948Y-33112184D01*
X27245343Y-33139950D01*
X27236365Y-33217530D01*
X27228614Y-33336348D01*
X27222686Y-33487828D01*
X27219827Y-33615805D01*
X27211839Y-34119425D01*
X27142152Y-34129278D01*
X27078771Y-34122389D01*
X27047714Y-34100083D01*
X27039033Y-34058379D01*
X27031622Y-33969544D01*
X27026069Y-33844834D01*
X27022964Y-33695507D01*
X27022516Y-33618661D01*
X27022069Y-33176287D01*
X26930126Y-33144235D01*
X26865051Y-33122443D01*
X26829653Y-33112281D01*
X26828632Y-33112184D01*
X26825080Y-33139809D01*
X26821177Y-33216411D01*
X26817249Y-33332579D01*
X26813624Y-33478904D01*
X26811092Y-33615805D01*
X26803103Y-34119425D01*
X26627931Y-34119425D01*
X26619893Y-33659965D01*
X26611854Y-33200505D01*
X26526457Y-33156344D01*
X26463407Y-33126019D01*
X26426090Y-33112258D01*
X26425013Y-33112184D01*
X26419876Y-33139840D01*
X26419876Y-33139840D01*
G37*
X26419876Y-33139840D02*
X26415421Y-33216653D01*
X26411929Y-33333391D01*
X26409685Y-33480821D01*
X26408965Y-33635455D01*
X26408965Y-34158727D01*
X26501355Y-34251117D01*
X26565022Y-34308047D01*
X26620911Y-34331107D01*
X26697298Y-34329647D01*
X26727620Y-34325934D01*
X26822390Y-34315126D01*
X26900778Y-34308933D01*
X26919885Y-34308361D01*
X26984301Y-34312102D01*
X27076429Y-34321494D01*
X27112150Y-34325934D01*
X27199886Y-34332801D01*
X27258847Y-34317885D01*
X27317310Y-34271835D01*
X27338415Y-34251117D01*
X27430805Y-34158727D01*
X27430805Y-33179947D01*
X27356442Y-33146066D01*
X27292410Y-33120970D01*
X27254948Y-33112184D01*
X27245343Y-33139950D01*
X27236365Y-33217530D01*
X27228614Y-33336348D01*
X27222686Y-33487828D01*
X27219827Y-33615805D01*
X27211839Y-34119425D01*
X27142152Y-34129278D01*
X27078771Y-34122389D01*
X27047714Y-34100083D01*
X27039033Y-34058379D01*
X27031622Y-33969544D01*
X27026069Y-33844834D01*
X27022964Y-33695507D01*
X27022516Y-33618661D01*
X27022069Y-33176287D01*
X26930126Y-33144235D01*
X26865051Y-33122443D01*
X26829653Y-33112281D01*
X26828632Y-33112184D01*
X26825080Y-33139809D01*
X26821177Y-33216411D01*
X26817249Y-33332579D01*
X26813624Y-33478904D01*
X26811092Y-33615805D01*
X26803103Y-34119425D01*
X26627931Y-34119425D01*
X26619893Y-33659965D01*
X26611854Y-33200505D01*
X26526457Y-33156344D01*
X26463407Y-33126019D01*
X26426090Y-33112258D01*
X26425013Y-33112184D01*
X26419876Y-33139840D01*
G36*
X25685594Y-33135156D02*
X25601531Y-33173393D01*
X25535550Y-33219726D01*
X25487206Y-33271532D01*
X25453828Y-33338363D01*
X25432747Y-33429769D01*
X25421293Y-33555301D01*
X25416797Y-33724508D01*
X25416322Y-33835933D01*
X25416322Y-34270627D01*
X25490684Y-34304509D01*
X25549254Y-34329272D01*
X25578270Y-34338391D01*
X25583821Y-34311257D01*
X25588225Y-34238094D01*
X25590922Y-34131263D01*
X25591494Y-34046437D01*
X25593954Y-33923887D01*
X25600588Y-33826668D01*
X25610274Y-33767134D01*
X25617968Y-33754483D01*
X25669689Y-33767402D01*
X25750883Y-33800539D01*
X25844898Y-33845461D01*
X25935083Y-33893735D01*
X26004785Y-33936928D01*
X26037352Y-33966608D01*
X26037481Y-33966929D01*
X26034680Y-34021857D01*
X26009561Y-34074292D01*
X25965459Y-34116881D01*
X25901091Y-34131126D01*
X25846079Y-34129466D01*
X25768165Y-34128245D01*
X25727268Y-34146498D01*
X25702705Y-34194726D01*
X25699608Y-34203820D01*
X25688960Y-34272598D01*
X25717435Y-34314360D01*
X25791656Y-34334263D01*
X25871832Y-34337944D01*
X26016110Y-34310658D01*
X26090797Y-34271690D01*
X26183037Y-34180148D01*
X26231957Y-34067782D01*
X26236346Y-33949051D01*
X26194999Y-33838411D01*
X26132803Y-33769080D01*
X26070706Y-33730265D01*
X25973105Y-33681125D01*
X25859368Y-33631292D01*
X25840410Y-33623677D01*
X25715479Y-33568545D01*
X25643461Y-33519954D01*
X25620300Y-33471647D01*
X25641936Y-33417370D01*
X25679080Y-33374943D01*
X25766873Y-33322702D01*
X25863470Y-33318784D01*
X25952056Y-33359041D01*
X26015814Y-33439326D01*
X26024183Y-33460040D01*
X26072904Y-33536225D01*
X26144035Y-33592785D01*
X26233793Y-33639201D01*
X26233793Y-33507584D01*
X26228510Y-33427168D01*
X26205858Y-33363786D01*
X26155633Y-33296163D01*
X26107418Y-33244076D01*
X26032446Y-33170322D01*
X25974194Y-33130702D01*
X25911628Y-33114810D01*
X25840807Y-33112184D01*
X25685594Y-33135156D01*
X25685594Y-33135156D01*
G37*
X25685594Y-33135156D02*
X25601531Y-33173393D01*
X25535550Y-33219726D01*
X25487206Y-33271532D01*
X25453828Y-33338363D01*
X25432747Y-33429769D01*
X25421293Y-33555301D01*
X25416797Y-33724508D01*
X25416322Y-33835933D01*
X25416322Y-34270627D01*
X25490684Y-34304509D01*
X25549254Y-34329272D01*
X25578270Y-34338391D01*
X25583821Y-34311257D01*
X25588225Y-34238094D01*
X25590922Y-34131263D01*
X25591494Y-34046437D01*
X25593954Y-33923887D01*
X25600588Y-33826668D01*
X25610274Y-33767134D01*
X25617968Y-33754483D01*
X25669689Y-33767402D01*
X25750883Y-33800539D01*
X25844898Y-33845461D01*
X25935083Y-33893735D01*
X26004785Y-33936928D01*
X26037352Y-33966608D01*
X26037481Y-33966929D01*
X26034680Y-34021857D01*
X26009561Y-34074292D01*
X25965459Y-34116881D01*
X25901091Y-34131126D01*
X25846079Y-34129466D01*
X25768165Y-34128245D01*
X25727268Y-34146498D01*
X25702705Y-34194726D01*
X25699608Y-34203820D01*
X25688960Y-34272598D01*
X25717435Y-34314360D01*
X25791656Y-34334263D01*
X25871832Y-34337944D01*
X26016110Y-34310658D01*
X26090797Y-34271690D01*
X26183037Y-34180148D01*
X26231957Y-34067782D01*
X26236346Y-33949051D01*
X26194999Y-33838411D01*
X26132803Y-33769080D01*
X26070706Y-33730265D01*
X25973105Y-33681125D01*
X25859368Y-33631292D01*
X25840410Y-33623677D01*
X25715479Y-33568545D01*
X25643461Y-33519954D01*
X25620300Y-33471647D01*
X25641936Y-33417370D01*
X25679080Y-33374943D01*
X25766873Y-33322702D01*
X25863470Y-33318784D01*
X25952056Y-33359041D01*
X26015814Y-33439326D01*
X26024183Y-33460040D01*
X26072904Y-33536225D01*
X26144035Y-33592785D01*
X26233793Y-33639201D01*
X26233793Y-33507584D01*
X26228510Y-33427168D01*
X26205858Y-33363786D01*
X26155633Y-33296163D01*
X26107418Y-33244076D01*
X26032446Y-33170322D01*
X25974194Y-33130702D01*
X25911628Y-33114810D01*
X25840807Y-33112184D01*
X25685594Y-33135156D01*
G36*
X24664310Y-33140018D02*
X24629415Y-33155269D01*
X24546123Y-33221235D01*
X24474897Y-33316618D01*
X24430847Y-33418406D01*
X24423678Y-33468587D01*
X24447715Y-33538647D01*
X24500439Y-33575717D01*
X24556969Y-33598164D01*
X24582854Y-33602300D01*
X24595458Y-33572283D01*
X24620346Y-33506961D01*
X24631265Y-33477445D01*
X24692492Y-33375348D01*
X24781139Y-33324423D01*
X24894807Y-33325989D01*
X24903226Y-33327994D01*
X24963912Y-33356767D01*
X25008526Y-33412859D01*
X25038998Y-33503163D01*
X25057256Y-33634571D01*
X25065229Y-33813974D01*
X25065977Y-33909433D01*
X25066348Y-34059913D01*
X25068777Y-34162495D01*
X25075240Y-34227672D01*
X25087712Y-34265938D01*
X25108167Y-34287785D01*
X25138581Y-34303707D01*
X25140339Y-34304509D01*
X25198909Y-34329272D01*
X25227925Y-34338391D01*
X25232384Y-34310822D01*
X25236201Y-34234620D01*
X25239101Y-34119541D01*
X25240809Y-33975341D01*
X25241149Y-33869814D01*
X25239412Y-33665613D01*
X25232618Y-33510697D01*
X25218393Y-33396024D01*
X25194362Y-33312551D01*
X25158152Y-33251236D01*
X25107388Y-33203034D01*
X25057261Y-33169393D01*
X24936725Y-33124619D01*
X24796443Y-33114521D01*
X24664310Y-33140018D01*
X24664310Y-33140018D01*
G37*
X24664310Y-33140018D02*
X24629415Y-33155269D01*
X24546123Y-33221235D01*
X24474897Y-33316618D01*
X24430847Y-33418406D01*
X24423678Y-33468587D01*
X24447715Y-33538647D01*
X24500439Y-33575717D01*
X24556969Y-33598164D01*
X24582854Y-33602300D01*
X24595458Y-33572283D01*
X24620346Y-33506961D01*
X24631265Y-33477445D01*
X24692492Y-33375348D01*
X24781139Y-33324423D01*
X24894807Y-33325989D01*
X24903226Y-33327994D01*
X24963912Y-33356767D01*
X25008526Y-33412859D01*
X25038998Y-33503163D01*
X25057256Y-33634571D01*
X25065229Y-33813974D01*
X25065977Y-33909433D01*
X25066348Y-34059913D01*
X25068777Y-34162495D01*
X25075240Y-34227672D01*
X25087712Y-34265938D01*
X25108167Y-34287785D01*
X25138581Y-34303707D01*
X25140339Y-34304509D01*
X25198909Y-34329272D01*
X25227925Y-34338391D01*
X25232384Y-34310822D01*
X25236201Y-34234620D01*
X25239101Y-34119541D01*
X25240809Y-33975341D01*
X25241149Y-33869814D01*
X25239412Y-33665613D01*
X25232618Y-33510697D01*
X25218393Y-33396024D01*
X25194362Y-33312551D01*
X25158152Y-33251236D01*
X25107388Y-33203034D01*
X25057261Y-33169393D01*
X24936725Y-33124619D01*
X24796443Y-33114521D01*
X24664310Y-33140018D01*
G36*
X23656561Y-33156540D02*
X23541050Y-33232034D01*
X23485336Y-33299617D01*
X23441196Y-33422255D01*
X23437691Y-33519298D01*
X23445632Y-33649056D01*
X23744885Y-33780039D01*
X23890389Y-33846958D01*
X23985463Y-33900790D01*
X24034899Y-33947416D01*
X24043489Y-33992720D01*
X24016028Y-34042582D01*
X23985747Y-34075632D01*
X23897637Y-34128633D01*
X23801804Y-34132347D01*
X23713788Y-34091041D01*
X23649131Y-34008983D01*
X23637567Y-33980008D01*
X23582175Y-33889509D01*
X23518447Y-33850940D01*
X23431034Y-33817946D01*
X23431034Y-33943034D01*
X23438762Y-34028156D01*
X23469034Y-34099938D01*
X23532482Y-34182356D01*
X23541912Y-34193066D01*
X23612487Y-34266391D01*
X23673153Y-34305742D01*
X23749050Y-34323845D01*
X23811970Y-34329774D01*
X23924513Y-34331251D01*
X24004630Y-34312535D01*
X24054610Y-34284747D01*
X24133162Y-34223641D01*
X24187537Y-34157554D01*
X24221948Y-34074441D01*
X24240612Y-33962254D01*
X24247744Y-33808946D01*
X24248313Y-33731136D01*
X24246378Y-33637853D01*
X24070101Y-33637853D01*
X24068056Y-33687896D01*
X24062961Y-33696092D01*
X24029334Y-33684958D01*
X23956970Y-33655493D01*
X23860253Y-33613601D01*
X23840027Y-33604597D01*
X23717797Y-33542442D01*
X23650453Y-33487815D01*
X23635652Y-33436649D01*
X23671053Y-33384876D01*
X23700289Y-33362000D01*
X23805784Y-33316250D01*
X23904524Y-33323808D01*
X23987188Y-33379651D01*
X24044452Y-33478753D01*
X24062812Y-33557414D01*
X24070101Y-33637853D01*
X24246378Y-33637853D01*
X24244541Y-33549351D01*
X24230641Y-33414853D01*
X24203106Y-33316916D01*
X24158428Y-33244811D01*
X24093099Y-33187813D01*
X24064617Y-33169393D01*
X23935237Y-33121422D01*
X23793588Y-33118403D01*
X23656561Y-33156540D01*
X23656561Y-33156540D01*
G37*
X23656561Y-33156540D02*
X23541050Y-33232034D01*
X23485336Y-33299617D01*
X23441196Y-33422255D01*
X23437691Y-33519298D01*
X23445632Y-33649056D01*
X23744885Y-33780039D01*
X23890389Y-33846958D01*
X23985463Y-33900790D01*
X24034899Y-33947416D01*
X24043489Y-33992720D01*
X24016028Y-34042582D01*
X23985747Y-34075632D01*
X23897637Y-34128633D01*
X23801804Y-34132347D01*
X23713788Y-34091041D01*
X23649131Y-34008983D01*
X23637567Y-33980008D01*
X23582175Y-33889509D01*
X23518447Y-33850940D01*
X23431034Y-33817946D01*
X23431034Y-33943034D01*
X23438762Y-34028156D01*
X23469034Y-34099938D01*
X23532482Y-34182356D01*
X23541912Y-34193066D01*
X23612487Y-34266391D01*
X23673153Y-34305742D01*
X23749050Y-34323845D01*
X23811970Y-34329774D01*
X23924513Y-34331251D01*
X24004630Y-34312535D01*
X24054610Y-34284747D01*
X24133162Y-34223641D01*
X24187537Y-34157554D01*
X24221948Y-34074441D01*
X24240612Y-33962254D01*
X24247744Y-33808946D01*
X24248313Y-33731136D01*
X24246378Y-33637853D01*
X24070101Y-33637853D01*
X24068056Y-33687896D01*
X24062961Y-33696092D01*
X24029334Y-33684958D01*
X23956970Y-33655493D01*
X23860253Y-33613601D01*
X23840027Y-33604597D01*
X23717797Y-33542442D01*
X23650453Y-33487815D01*
X23635652Y-33436649D01*
X23671053Y-33384876D01*
X23700289Y-33362000D01*
X23805784Y-33316250D01*
X23904524Y-33323808D01*
X23987188Y-33379651D01*
X24044452Y-33478753D01*
X24062812Y-33557414D01*
X24070101Y-33637853D01*
X24246378Y-33637853D01*
X24244541Y-33549351D01*
X24230641Y-33414853D01*
X24203106Y-33316916D01*
X24158428Y-33244811D01*
X24093099Y-33187813D01*
X24064617Y-33169393D01*
X23935237Y-33121422D01*
X23793588Y-33118403D01*
X23656561Y-33156540D01*
G36*
X29790986Y-23652998D02*
X29632994Y-23653863D01*
X29518653Y-23656205D01*
X29440593Y-23660762D01*
X29391446Y-23668270D01*
X29363841Y-23679466D01*
X29350408Y-23695088D01*
X29343779Y-23715873D01*
X29343135Y-23718563D01*
X29333065Y-23767113D01*
X29314425Y-23862905D01*
X29289155Y-23995743D01*
X29259193Y-24155431D01*
X29226478Y-24331774D01*
X29225336Y-24337967D01*
X29192567Y-24510782D01*
X29161907Y-24663469D01*
X29135336Y-24786871D01*
X29114833Y-24871831D01*
X29102374Y-24909190D01*
X29101780Y-24909852D01*
X29065081Y-24928095D01*
X28989414Y-24958497D01*
X28891122Y-24994493D01*
X28890575Y-24994685D01*
X28766767Y-25041222D01*
X28620804Y-25100504D01*
X28483219Y-25160109D01*
X28476707Y-25163056D01*
X28252610Y-25264765D01*
X27756381Y-24925897D01*
X27604154Y-24822592D01*
X27466259Y-24730237D01*
X27350685Y-24654084D01*
X27265421Y-24599385D01*
X27218456Y-24571393D01*
X27213996Y-24569317D01*
X27179866Y-24578560D01*
X27116119Y-24623156D01*
X27020269Y-24705209D01*
X26889831Y-24826821D01*
X26756672Y-24956205D01*
X26628306Y-25083702D01*
X26513419Y-25200046D01*
X26418927Y-25298052D01*
X26351747Y-25370536D01*
X26318794Y-25410313D01*
X26317568Y-25412361D01*
X26313926Y-25439656D01*
X26327650Y-25484234D01*
X26362131Y-25552112D01*
X26420761Y-25649311D01*
X26506930Y-25781851D01*
X26621800Y-25952476D01*
X26723746Y-26102655D01*
X26814877Y-26237350D01*
X26889927Y-26348740D01*
X26943631Y-26429005D01*
X26970720Y-26470325D01*
X26972426Y-26473130D01*
X26969118Y-26512721D01*
X26944047Y-26589669D01*
X26902202Y-26689432D01*
X26887288Y-26721291D01*
X26822214Y-26863226D01*
X26752788Y-27024273D01*
X26696391Y-27163621D01*
X26655753Y-27267044D01*
X26623474Y-27345642D01*
X26604822Y-27386720D01*
X26602503Y-27389885D01*
X26568197Y-27395128D01*
X26487331Y-27409494D01*
X26370657Y-27430937D01*
X26228925Y-27457413D01*
X26072890Y-27486877D01*
X25913302Y-27517283D01*
X25760915Y-27546588D01*
X25626479Y-27572745D01*
X25520748Y-27593710D01*
X25454474Y-27607439D01*
X25438218Y-27611320D01*
X25421427Y-27620900D01*
X25408751Y-27642536D01*
X25399622Y-27683531D01*
X25393469Y-27751189D01*
X25389720Y-27852812D01*
X25387808Y-27995703D01*
X25387160Y-28187165D01*
X25387126Y-28265645D01*
X25387126Y-28903906D01*
X25540402Y-28934160D01*
X25625678Y-28950564D01*
X25752930Y-28974509D01*
X25906685Y-29003107D01*
X26071466Y-29033467D01*
X26117011Y-29041806D01*
X26269068Y-29071370D01*
X26401532Y-29100442D01*
X26503286Y-29126329D01*
X26563212Y-29146337D01*
X26573195Y-29152301D01*
X26597707Y-29194534D01*
X26632852Y-29276370D01*
X26671827Y-29381683D01*
X26679558Y-29404368D01*
X26730640Y-29545018D01*
X26794046Y-29703714D01*
X26856096Y-29846225D01*
X26856402Y-29846886D01*
X26959733Y-30070440D01*
X26280039Y-31070232D01*
X26716379Y-31507300D01*
X26848351Y-31637381D01*
X26968721Y-31752048D01*
X27070727Y-31845181D01*
X27147609Y-31910658D01*
X27192607Y-31942357D01*
X27199062Y-31944368D01*
X27236960Y-31928529D01*
X27314292Y-31884496D01*
X27422611Y-31817490D01*
X27553468Y-31732734D01*
X27694948Y-31637816D01*
X27838539Y-31540998D01*
X27966565Y-31456751D01*
X28070895Y-31390258D01*
X28143400Y-31346702D01*
X28175842Y-31331264D01*
X28215424Y-31344328D01*
X28290481Y-31378750D01*
X28385532Y-31427380D01*
X28395608Y-31432785D01*
X28523609Y-31496980D01*
X28611382Y-31528463D01*
X28665972Y-31528798D01*
X28694425Y-31499548D01*
X28694590Y-31499138D01*
X28708812Y-31464498D01*
X28742731Y-31382269D01*
X28793716Y-31258814D01*
X28859138Y-31100498D01*
X28936366Y-30913686D01*
X29022771Y-30704742D01*
X29106449Y-30502446D01*
X29198412Y-30279200D01*
X29282850Y-30072392D01*
X29357231Y-29888362D01*
X29419026Y-29733451D01*
X29465703Y-29613996D01*
X29494732Y-29536339D01*
X29503678Y-29507356D01*
X29481244Y-29474110D01*
X29422561Y-29421123D01*
X29344311Y-29362704D01*
X29121466Y-29177952D01*
X28947282Y-28966182D01*
X28823846Y-28731856D01*
X28753246Y-28479434D01*
X28737569Y-28213377D01*
X28748964Y-28090575D01*
X28811050Y-27835793D01*
X28917977Y-27610801D01*
X29063111Y-27417817D01*
X29239822Y-27259061D01*
X29441478Y-27136750D01*
X29661446Y-27053105D01*
X29893094Y-27010344D01*
X30129791Y-27010687D01*
X30364905Y-27056352D01*
X30591804Y-27149559D01*
X30803856Y-27292527D01*
X30892364Y-27373383D01*
X31062111Y-27581007D01*
X31180301Y-27807895D01*
X31247722Y-28047433D01*
X31265160Y-28293007D01*
X31233402Y-28538003D01*
X31153235Y-28775808D01*
X31025445Y-28999807D01*
X30850820Y-29203387D01*
X30655688Y-29362704D01*
X30574409Y-29423602D01*
X30516991Y-29476015D01*
X30496322Y-29507406D01*
X30507144Y-29541639D01*
X30537923Y-29623419D01*
X30586126Y-29746407D01*
X30649222Y-29904263D01*
X30724678Y-30090649D01*
X30809962Y-30299226D01*
X30893781Y-30502496D01*
X30986255Y-30725933D01*
X31071911Y-30932984D01*
X31148118Y-31117286D01*
X31212247Y-31272475D01*
X31261668Y-31392188D01*
X31293752Y-31470061D01*
X31305641Y-31499138D01*
X31333726Y-31528677D01*
X31388051Y-31528591D01*
X31475605Y-31497326D01*
X31603381Y-31433329D01*
X31604392Y-31432785D01*
X31700598Y-31383121D01*
X31778369Y-31346945D01*
X31822223Y-31331408D01*
X31824158Y-31331264D01*
X31857171Y-31347024D01*
X31930054Y-31390850D01*
X32034678Y-31457557D01*
X32162910Y-31541964D01*
X32305052Y-31637816D01*
X32449767Y-31734867D01*
X32580196Y-31819270D01*
X32687890Y-31885801D01*
X32764402Y-31929238D01*
X32800938Y-31944368D01*
X32834582Y-31924482D01*
X32902224Y-31868903D01*
X32997107Y-31783754D01*
X33112470Y-31675153D01*
X33241555Y-31549221D01*
X33283771Y-31507149D01*
X33720261Y-31069931D01*
X33388023Y-30582340D01*
X33287054Y-30432605D01*
X33198438Y-30298220D01*
X33127146Y-30186969D01*
X33078150Y-30106639D01*
X33056422Y-30065014D01*
X33055785Y-30062053D01*
X33067240Y-30022818D01*
X33098051Y-29943895D01*
X33142884Y-29838509D01*
X33174353Y-29767954D01*
X33233192Y-29632876D01*
X33288604Y-29496409D01*
X33331564Y-29381103D01*
X33343234Y-29345977D01*
X33376389Y-29252174D01*
X33408799Y-29179694D01*
X33426601Y-29152301D01*
X33465886Y-29135536D01*
X33551626Y-29111770D01*
X33672697Y-29083697D01*
X33817973Y-29054009D01*
X33882988Y-29041806D01*
X34048087Y-29011468D01*
X34206448Y-28982093D01*
X34342596Y-28956569D01*
X34441057Y-28937785D01*
X34459598Y-28934160D01*
X34612873Y-28903906D01*
X34612873Y-28265645D01*
X34612529Y-28055770D01*
X34611116Y-27896980D01*
X34608064Y-27781973D01*
X34602803Y-27703446D01*
X34594763Y-27654096D01*
X34583373Y-27626619D01*
X34568063Y-27613713D01*
X34561782Y-27611320D01*
X34523896Y-27602833D01*
X34440195Y-27585900D01*
X34321433Y-27562566D01*
X34178361Y-27534875D01*
X34021732Y-27504873D01*
X33862297Y-27474604D01*
X33710809Y-27446115D01*
X33578019Y-27421449D01*
X33474681Y-27402651D01*
X33411545Y-27391767D01*
X33397497Y-27389885D01*
X33384770Y-27364704D01*
X33356600Y-27297622D01*
X33318252Y-27201333D01*
X33303609Y-27163621D01*
X33244548Y-27017921D01*
X33175000Y-26856951D01*
X33112712Y-26721291D01*
X33066879Y-26617561D01*
X33036387Y-26532326D01*
X33026208Y-26480126D01*
X33027831Y-26473130D01*
X33049343Y-26440102D01*
X33098465Y-26366643D01*
X33169923Y-26260577D01*
X33258445Y-26129726D01*
X33358759Y-25981912D01*
X33378594Y-25952734D01*
X33494988Y-25779863D01*
X33580548Y-25648226D01*
X33638684Y-25551761D01*
X33672808Y-25484408D01*
X33686331Y-25440106D01*
X33682664Y-25412794D01*
X33682570Y-25412620D01*
X33653707Y-25376746D01*
X33589867Y-25307391D01*
X33497969Y-25211745D01*
X33384933Y-25096999D01*
X33257679Y-24970341D01*
X33243328Y-24956205D01*
X33082957Y-24800903D01*
X32959195Y-24686870D01*
X32869555Y-24612002D01*
X32811552Y-24574196D01*
X32786004Y-24569317D01*
X32748718Y-24590603D01*
X32671343Y-24639773D01*
X32561867Y-24711575D01*
X32428280Y-24800755D01*
X32278570Y-24902063D01*
X32243618Y-24925897D01*
X31747390Y-25264765D01*
X31523293Y-25163056D01*
X31387011Y-25103783D01*
X31240724Y-25044170D01*
X31114965Y-24996640D01*
X31109425Y-24994685D01*
X31011057Y-24958677D01*
X30935229Y-24928229D01*
X30898282Y-24909905D01*
X30898220Y-24909852D01*
X30886496Y-24876729D01*
X30866568Y-24795267D01*
X30840413Y-24674625D01*
X30810010Y-24523959D01*
X30777337Y-24352428D01*
X30774664Y-24337967D01*
X30741890Y-24161235D01*
X30711802Y-24000810D01*
X30686339Y-23866888D01*
X30667441Y-23769663D01*
X30657047Y-23719332D01*
X30656865Y-23718563D01*
X30650539Y-23697153D01*
X30638239Y-23680988D01*
X30612594Y-23669331D01*
X30566235Y-23661445D01*
X30491792Y-23656593D01*
X30381895Y-23654039D01*
X30229175Y-23653045D01*
X30026262Y-23652874D01*
X30000000Y-23652874D01*
X29790986Y-23652998D01*
X29790986Y-23652998D01*
G37*
X29790986Y-23652998D02*
X29632994Y-23653863D01*
X29518653Y-23656205D01*
X29440593Y-23660762D01*
X29391446Y-23668270D01*
X29363841Y-23679466D01*
X29350408Y-23695088D01*
X29343779Y-23715873D01*
X29343135Y-23718563D01*
X29333065Y-23767113D01*
X29314425Y-23862905D01*
X29289155Y-23995743D01*
X29259193Y-24155431D01*
X29226478Y-24331774D01*
X29225336Y-24337967D01*
X29192567Y-24510782D01*
X29161907Y-24663469D01*
X29135336Y-24786871D01*
X29114833Y-24871831D01*
X29102374Y-24909190D01*
X29101780Y-24909852D01*
X29065081Y-24928095D01*
X28989414Y-24958497D01*
X28891122Y-24994493D01*
X28890575Y-24994685D01*
X28766767Y-25041222D01*
X28620804Y-25100504D01*
X28483219Y-25160109D01*
X28476707Y-25163056D01*
X28252610Y-25264765D01*
X27756381Y-24925897D01*
X27604154Y-24822592D01*
X27466259Y-24730237D01*
X27350685Y-24654084D01*
X27265421Y-24599385D01*
X27218456Y-24571393D01*
X27213996Y-24569317D01*
X27179866Y-24578560D01*
X27116119Y-24623156D01*
X27020269Y-24705209D01*
X26889831Y-24826821D01*
X26756672Y-24956205D01*
X26628306Y-25083702D01*
X26513419Y-25200046D01*
X26418927Y-25298052D01*
X26351747Y-25370536D01*
X26318794Y-25410313D01*
X26317568Y-25412361D01*
X26313926Y-25439656D01*
X26327650Y-25484234D01*
X26362131Y-25552112D01*
X26420761Y-25649311D01*
X26506930Y-25781851D01*
X26621800Y-25952476D01*
X26723746Y-26102655D01*
X26814877Y-26237350D01*
X26889927Y-26348740D01*
X26943631Y-26429005D01*
X26970720Y-26470325D01*
X26972426Y-26473130D01*
X26969118Y-26512721D01*
X26944047Y-26589669D01*
X26902202Y-26689432D01*
X26887288Y-26721291D01*
X26822214Y-26863226D01*
X26752788Y-27024273D01*
X26696391Y-27163621D01*
X26655753Y-27267044D01*
X26623474Y-27345642D01*
X26604822Y-27386720D01*
X26602503Y-27389885D01*
X26568197Y-27395128D01*
X26487331Y-27409494D01*
X26370657Y-27430937D01*
X26228925Y-27457413D01*
X26072890Y-27486877D01*
X25913302Y-27517283D01*
X25760915Y-27546588D01*
X25626479Y-27572745D01*
X25520748Y-27593710D01*
X25454474Y-27607439D01*
X25438218Y-27611320D01*
X25421427Y-27620900D01*
X25408751Y-27642536D01*
X25399622Y-27683531D01*
X25393469Y-27751189D01*
X25389720Y-27852812D01*
X25387808Y-27995703D01*
X25387160Y-28187165D01*
X25387126Y-28265645D01*
X25387126Y-28903906D01*
X25540402Y-28934160D01*
X25625678Y-28950564D01*
X25752930Y-28974509D01*
X25906685Y-29003107D01*
X26071466Y-29033467D01*
X26117011Y-29041806D01*
X26269068Y-29071370D01*
X26401532Y-29100442D01*
X26503286Y-29126329D01*
X26563212Y-29146337D01*
X26573195Y-29152301D01*
X26597707Y-29194534D01*
X26632852Y-29276370D01*
X26671827Y-29381683D01*
X26679558Y-29404368D01*
X26730640Y-29545018D01*
X26794046Y-29703714D01*
X26856096Y-29846225D01*
X26856402Y-29846886D01*
X26959733Y-30070440D01*
X26280039Y-31070232D01*
X26716379Y-31507300D01*
X26848351Y-31637381D01*
X26968721Y-31752048D01*
X27070727Y-31845181D01*
X27147609Y-31910658D01*
X27192607Y-31942357D01*
X27199062Y-31944368D01*
X27236960Y-31928529D01*
X27314292Y-31884496D01*
X27422611Y-31817490D01*
X27553468Y-31732734D01*
X27694948Y-31637816D01*
X27838539Y-31540998D01*
X27966565Y-31456751D01*
X28070895Y-31390258D01*
X28143400Y-31346702D01*
X28175842Y-31331264D01*
X28215424Y-31344328D01*
X28290481Y-31378750D01*
X28385532Y-31427380D01*
X28395608Y-31432785D01*
X28523609Y-31496980D01*
X28611382Y-31528463D01*
X28665972Y-31528798D01*
X28694425Y-31499548D01*
X28694590Y-31499138D01*
X28708812Y-31464498D01*
X28742731Y-31382269D01*
X28793716Y-31258814D01*
X28859138Y-31100498D01*
X28936366Y-30913686D01*
X29022771Y-30704742D01*
X29106449Y-30502446D01*
X29198412Y-30279200D01*
X29282850Y-30072392D01*
X29357231Y-29888362D01*
X29419026Y-29733451D01*
X29465703Y-29613996D01*
X29494732Y-29536339D01*
X29503678Y-29507356D01*
X29481244Y-29474110D01*
X29422561Y-29421123D01*
X29344311Y-29362704D01*
X29121466Y-29177952D01*
X28947282Y-28966182D01*
X28823846Y-28731856D01*
X28753246Y-28479434D01*
X28737569Y-28213377D01*
X28748964Y-28090575D01*
X28811050Y-27835793D01*
X28917977Y-27610801D01*
X29063111Y-27417817D01*
X29239822Y-27259061D01*
X29441478Y-27136750D01*
X29661446Y-27053105D01*
X29893094Y-27010344D01*
X30129791Y-27010687D01*
X30364905Y-27056352D01*
X30591804Y-27149559D01*
X30803856Y-27292527D01*
X30892364Y-27373383D01*
X31062111Y-27581007D01*
X31180301Y-27807895D01*
X31247722Y-28047433D01*
X31265160Y-28293007D01*
X31233402Y-28538003D01*
X31153235Y-28775808D01*
X31025445Y-28999807D01*
X30850820Y-29203387D01*
X30655688Y-29362704D01*
X30574409Y-29423602D01*
X30516991Y-29476015D01*
X30496322Y-29507406D01*
X30507144Y-29541639D01*
X30537923Y-29623419D01*
X30586126Y-29746407D01*
X30649222Y-29904263D01*
X30724678Y-30090649D01*
X30809962Y-30299226D01*
X30893781Y-30502496D01*
X30986255Y-30725933D01*
X31071911Y-30932984D01*
X31148118Y-31117286D01*
X31212247Y-31272475D01*
X31261668Y-31392188D01*
X31293752Y-31470061D01*
X31305641Y-31499138D01*
X31333726Y-31528677D01*
X31388051Y-31528591D01*
X31475605Y-31497326D01*
X31603381Y-31433329D01*
X31604392Y-31432785D01*
X31700598Y-31383121D01*
X31778369Y-31346945D01*
X31822223Y-31331408D01*
X31824158Y-31331264D01*
X31857171Y-31347024D01*
X31930054Y-31390850D01*
X32034678Y-31457557D01*
X32162910Y-31541964D01*
X32305052Y-31637816D01*
X32449767Y-31734867D01*
X32580196Y-31819270D01*
X32687890Y-31885801D01*
X32764402Y-31929238D01*
X32800938Y-31944368D01*
X32834582Y-31924482D01*
X32902224Y-31868903D01*
X32997107Y-31783754D01*
X33112470Y-31675153D01*
X33241555Y-31549221D01*
X33283771Y-31507149D01*
X33720261Y-31069931D01*
X33388023Y-30582340D01*
X33287054Y-30432605D01*
X33198438Y-30298220D01*
X33127146Y-30186969D01*
X33078150Y-30106639D01*
X33056422Y-30065014D01*
X33055785Y-30062053D01*
X33067240Y-30022818D01*
X33098051Y-29943895D01*
X33142884Y-29838509D01*
X33174353Y-29767954D01*
X33233192Y-29632876D01*
X33288604Y-29496409D01*
X33331564Y-29381103D01*
X33343234Y-29345977D01*
X33376389Y-29252174D01*
X33408799Y-29179694D01*
X33426601Y-29152301D01*
X33465886Y-29135536D01*
X33551626Y-29111770D01*
X33672697Y-29083697D01*
X33817973Y-29054009D01*
X33882988Y-29041806D01*
X34048087Y-29011468D01*
X34206448Y-28982093D01*
X34342596Y-28956569D01*
X34441057Y-28937785D01*
X34459598Y-28934160D01*
X34612873Y-28903906D01*
X34612873Y-28265645D01*
X34612529Y-28055770D01*
X34611116Y-27896980D01*
X34608064Y-27781973D01*
X34602803Y-27703446D01*
X34594763Y-27654096D01*
X34583373Y-27626619D01*
X34568063Y-27613713D01*
X34561782Y-27611320D01*
X34523896Y-27602833D01*
X34440195Y-27585900D01*
X34321433Y-27562566D01*
X34178361Y-27534875D01*
X34021732Y-27504873D01*
X33862297Y-27474604D01*
X33710809Y-27446115D01*
X33578019Y-27421449D01*
X33474681Y-27402651D01*
X33411545Y-27391767D01*
X33397497Y-27389885D01*
X33384770Y-27364704D01*
X33356600Y-27297622D01*
X33318252Y-27201333D01*
X33303609Y-27163621D01*
X33244548Y-27017921D01*
X33175000Y-26856951D01*
X33112712Y-26721291D01*
X33066879Y-26617561D01*
X33036387Y-26532326D01*
X33026208Y-26480126D01*
X33027831Y-26473130D01*
X33049343Y-26440102D01*
X33098465Y-26366643D01*
X33169923Y-26260577D01*
X33258445Y-26129726D01*
X33358759Y-25981912D01*
X33378594Y-25952734D01*
X33494988Y-25779863D01*
X33580548Y-25648226D01*
X33638684Y-25551761D01*
X33672808Y-25484408D01*
X33686331Y-25440106D01*
X33682664Y-25412794D01*
X33682570Y-25412620D01*
X33653707Y-25376746D01*
X33589867Y-25307391D01*
X33497969Y-25211745D01*
X33384933Y-25096999D01*
X33257679Y-24970341D01*
X33243328Y-24956205D01*
X33082957Y-24800903D01*
X32959195Y-24686870D01*
X32869555Y-24612002D01*
X32811552Y-24574196D01*
X32786004Y-24569317D01*
X32748718Y-24590603D01*
X32671343Y-24639773D01*
X32561867Y-24711575D01*
X32428280Y-24800755D01*
X32278570Y-24902063D01*
X32243618Y-24925897D01*
X31747390Y-25264765D01*
X31523293Y-25163056D01*
X31387011Y-25103783D01*
X31240724Y-25044170D01*
X31114965Y-24996640D01*
X31109425Y-24994685D01*
X31011057Y-24958677D01*
X30935229Y-24928229D01*
X30898282Y-24909905D01*
X30898220Y-24909852D01*
X30886496Y-24876729D01*
X30866568Y-24795267D01*
X30840413Y-24674625D01*
X30810010Y-24523959D01*
X30777337Y-24352428D01*
X30774664Y-24337967D01*
X30741890Y-24161235D01*
X30711802Y-24000810D01*
X30686339Y-23866888D01*
X30667441Y-23769663D01*
X30657047Y-23719332D01*
X30656865Y-23718563D01*
X30650539Y-23697153D01*
X30638239Y-23680988D01*
X30612594Y-23669331D01*
X30566235Y-23661445D01*
X30491792Y-23656593D01*
X30381895Y-23654039D01*
X30229175Y-23653045D01*
X30026262Y-23652874D01*
X30000000Y-23652874D01*
X29790986Y-23652998D01*
D12*
X34567500Y-53532500D03*
X34567500Y-50332500D03*
X39567500Y-53532500D03*
X39567500Y-50332500D03*
D13*
X35067500Y-46932500D03*
X39067500Y-46932500D03*
X45067500Y-46932500D03*
X49067500Y-46932500D03*
D12*
X44567500Y-53532500D03*
X44567500Y-50332500D03*
X49567500Y-53532500D03*
X49567500Y-50332500D03*
X34567500Y-63532500D03*
X34567500Y-60332500D03*
X39567500Y-63532500D03*
X39567500Y-60332500D03*
D13*
X49067500Y-66932500D03*
X45067500Y-66932500D03*
D12*
X49567500Y-60332500D03*
X49567500Y-63532500D03*
X44567500Y-60332500D03*
X44567500Y-63532500D03*
D13*
X35067500Y-66932500D03*
X39067500Y-66932500D03*
D14*
X22067500Y-57392500D03*
D15*
X22067500Y-59932500D03*
X22067500Y-62472500D03*
X22067500Y-65012500D03*
D16*
X63000000Y-70000000D03*
D17*
X63000000Y-72500000D03*
X63000000Y-75000000D03*
X63000000Y-77500000D03*
X63000000Y-80000000D03*
D18*
X25747500Y-84932500D03*
X28287500Y-84932500D03*
X30827500Y-84932500D03*
X33367500Y-84932500D03*
X35907500Y-84932500D03*
X38447500Y-84932500D03*
X40987500Y-84932500D03*
X43527500Y-84932500D03*
X46067500Y-84932500D03*
X48607500Y-84932500D03*
X51147500Y-84932500D03*
X53687500Y-84932500D03*
X56227500Y-84932500D03*
X58767500Y-84932500D03*
X61307500Y-84932500D03*
X61307500Y-56882500D03*
X58767500Y-56882500D03*
X56227500Y-56882500D03*
X53687500Y-56882500D03*
X51147500Y-56882500D03*
X48607500Y-56882500D03*
X46067500Y-56882500D03*
X43527500Y-56882500D03*
X40987500Y-56882500D03*
X38447500Y-56882500D03*
X35907500Y-56882500D03*
X33367500Y-56882500D03*
X30827500Y-56882500D03*
X28287500Y-56882500D03*
X25747500Y-56882500D03*
X58250000Y-64000000D03*
X55710000Y-64000000D03*
X60790000Y-64000000D03*
D19*
X31500000Y-67250000D03*
X31500000Y-59630000D03*
X28250000Y-67250000D03*
X28250000Y-59630000D03*
X53130000Y-60250000D03*
X60750000Y-60250000D03*
X42250000Y-71000000D03*
X49870000Y-71000000D03*
D20*
X64451500Y-29100000D03*
D21*
X32800000Y-61700000D02*
X33200000Y-61300000D01*
X33200000Y-61300000D02*
X33200000Y-58854500D01*
X33200000Y-58854500D02*
X32271600Y-57926100D01*
X32271600Y-57926100D02*
X32271600Y-54703100D01*
X32271600Y-54703100D02*
X33442200Y-53532500D01*
X22067500Y-59932500D02*
X23568911Y-59932500D01*
X23568911Y-59932500D02*
X25336411Y-61700000D01*
X25336411Y-61700000D02*
X32859200Y-61700000D01*
X32859200Y-61700000D02*
X32859200Y-61697600D01*
X32859200Y-61697600D02*
X34694100Y-63532500D01*
X60250000Y-55400000D02*
X62000000Y-55400000D01*
X58767500Y-56882500D02*
X60250000Y-55400000D01*
X62000000Y-55400000D02*
X64900000Y-58300000D01*
X64900000Y-58300000D02*
X64900000Y-73100000D01*
X64900000Y-73100000D02*
X63000000Y-75000000D01*
X40983400Y-55991300D02*
X40092100Y-55100000D01*
X40092100Y-55100000D02*
X37260300Y-55100000D01*
X37260300Y-55100000D02*
X35692800Y-53532500D01*
X35692800Y-53532500D02*
X34567500Y-53532500D01*
X41749499Y-57644499D02*
X40987500Y-56882500D01*
X45220100Y-58820100D02*
X42925100Y-58820100D01*
X42925100Y-58820100D02*
X41749499Y-57644499D01*
X46549989Y-63852289D02*
X46549989Y-60149989D01*
X49067500Y-66369800D02*
X46549989Y-63852289D01*
X46549989Y-60149989D02*
X45220100Y-58820100D01*
X35067500Y-46932500D02*
X35067500Y-45400000D01*
X35067500Y-45400000D02*
X45067500Y-45400000D01*
X45067500Y-45400000D02*
X45067500Y-46932500D01*
X44567500Y-53532500D02*
X45692800Y-53532500D01*
X44567500Y-53532500D02*
X43442200Y-53532500D01*
X49567500Y-60332500D02*
X48531700Y-60332500D01*
X47337500Y-59138300D02*
X48531700Y-60332500D01*
X47337500Y-55177200D02*
X47337500Y-59138300D01*
X45692800Y-53532500D02*
X47337500Y-55177200D01*
X49067500Y-66932500D02*
X49067500Y-66369800D01*
X54369800Y-66369800D02*
X63000000Y-75000000D01*
X49067500Y-66369800D02*
X54369800Y-66369800D01*
X35067500Y-46932500D02*
X35067500Y-48057800D01*
X28287500Y-74837800D02*
X28287500Y-84932500D01*
X35067500Y-68057800D02*
X28287500Y-74837800D01*
X35067500Y-66932500D02*
X35067500Y-68057800D01*
X33442200Y-49683100D02*
X35067500Y-48057800D01*
X33442200Y-53532500D02*
X33442200Y-49683100D01*
X34567500Y-53532500D02*
X33442200Y-53532500D01*
X35067500Y-63779300D02*
X35067500Y-66932500D01*
X34820700Y-63532500D02*
X35067500Y-63779300D01*
X40983400Y-55991300D02*
X43442200Y-53532500D01*
X40987500Y-55995400D02*
X40983400Y-55991300D01*
X40987500Y-56882500D02*
X40987500Y-55995400D01*
X34567500Y-63532500D02*
X34694100Y-63532500D01*
X34694100Y-63532500D02*
X34820700Y-63532500D01*
X50617500Y-50332500D02*
X49567500Y-50332500D01*
X63640500Y-76959500D02*
X65350011Y-75249989D01*
X62739800Y-76959500D02*
X63640500Y-76959500D01*
X65350011Y-58113600D02*
X57568911Y-50332500D01*
X65350011Y-75249989D02*
X65350011Y-58113600D01*
X57568911Y-50332500D02*
X50617500Y-50332500D01*
X45067500Y-68057800D02*
X45709700Y-68700000D01*
X54480300Y-68700000D02*
X62739800Y-76959500D01*
X45709700Y-68700000D02*
X54480300Y-68700000D01*
X41417000Y-49282000D02*
X42099000Y-48600000D01*
X42099000Y-48600000D02*
X47989200Y-48600000D01*
X47989200Y-48600000D02*
X48442200Y-49053000D01*
X44567500Y-63532500D02*
X43442200Y-63532500D01*
X40692800Y-60783100D02*
X40692800Y-60332500D01*
X43442200Y-63532500D02*
X40692800Y-60783100D01*
X39567500Y-60332500D02*
X40692800Y-60332500D01*
X44567500Y-63532500D02*
X45692800Y-63532500D01*
X45692800Y-65181900D02*
X45692800Y-63532500D01*
X45067500Y-65807200D02*
X45692800Y-65181900D01*
X45067500Y-66932500D02*
X45067500Y-65807200D01*
X49067500Y-46932500D02*
X49067500Y-47945200D01*
X39567500Y-50332500D02*
X40692800Y-50332500D01*
X49567500Y-50332500D02*
X48442200Y-50332500D01*
X48442200Y-50332500D02*
X48442200Y-49053000D01*
X48442200Y-48570500D02*
X49067500Y-47945200D01*
X48442200Y-49053000D02*
X48442200Y-48570500D01*
X41417000Y-49608300D02*
X40692800Y-50332500D01*
X41417000Y-49282000D02*
X41417000Y-49608300D01*
X40192800Y-48057800D02*
X41417000Y-49282000D01*
X39067500Y-48057800D02*
X40192800Y-48057800D01*
X39067500Y-46932500D02*
X39067500Y-48057800D01*
X45067500Y-66932500D02*
X45067500Y-68057800D01*
X63000000Y-77219700D02*
X62739800Y-76959500D01*
X63000000Y-77500000D02*
X63000000Y-77219700D01*
X39067500Y-66932500D02*
X39067500Y-68057800D01*
X42250000Y-71000000D02*
X42250000Y-69591200D01*
X43534100Y-69591200D02*
X42250000Y-69591200D01*
X45067500Y-68057800D02*
X43534100Y-69591200D01*
X40600900Y-69591200D02*
X39067500Y-68057800D01*
X42250000Y-69591200D02*
X40600900Y-69591200D01*
X57940000Y-63690000D02*
X58250000Y-64000000D01*
X57940000Y-60250000D02*
X57940000Y-63690000D01*
X53130000Y-60250000D02*
X57940000Y-60250000D01*
X57940000Y-60250000D02*
X61307500Y-56882500D01*
X31500000Y-59630000D02*
X28250000Y-59630000D01*
X27201400Y-58581400D02*
X22067500Y-58581400D01*
X28250000Y-59630000D02*
X27201400Y-58581400D01*
X22067500Y-57392500D02*
X22067500Y-58581400D01*
X55710000Y-64000000D02*
X54000000Y-64000000D01*
X54000000Y-64000000D02*
X51550011Y-61550011D01*
X51550011Y-61550011D02*
X51550011Y-58549989D01*
X43200000Y-49200000D02*
X40700000Y-51700000D01*
X51550011Y-58549989D02*
X52256800Y-57843200D01*
X52256800Y-57843200D02*
X52256800Y-53256800D01*
X52256800Y-53256800D02*
X51000000Y-52000000D01*
X51000000Y-52000000D02*
X48800000Y-52000000D01*
X35692800Y-50332500D02*
X35617500Y-50332500D01*
X48800000Y-52000000D02*
X46000000Y-49200000D01*
X46000000Y-49200000D02*
X43200000Y-49200000D01*
X40700000Y-51700000D02*
X37060300Y-51700000D01*
X37060300Y-51700000D02*
X35692800Y-50332500D01*
X35617500Y-50332500D02*
X34567500Y-50332500D01*
X40692800Y-53081900D02*
X40692800Y-53532500D01*
X43442200Y-50332500D02*
X40692800Y-53081900D01*
X44567500Y-50332500D02*
X43442200Y-50332500D01*
X39567500Y-53532500D02*
X40692800Y-53532500D01*
X49567500Y-63532500D02*
X51100000Y-63532500D01*
X51100000Y-63532500D02*
X51100000Y-58800000D01*
X51100000Y-58800000D02*
X49900000Y-57600000D01*
X49900000Y-57600000D02*
X49900000Y-54890000D01*
X49900000Y-54890000D02*
X49600000Y-54590000D01*
X49600000Y-54590000D02*
X49600000Y-53532500D01*
X49600000Y-53532500D02*
X49567500Y-53532500D01*
X36518100Y-59507200D02*
X35692800Y-60332500D01*
X42616900Y-59507200D02*
X36518100Y-59507200D01*
X43442200Y-60332500D02*
X42616900Y-59507200D01*
X44567500Y-60332500D02*
X43442200Y-60332500D01*
X34567500Y-60332500D02*
X35692800Y-60332500D01*
X63996600Y-28996600D02*
X64348100Y-28996600D01*
X64348100Y-28996600D02*
X64451500Y-29100000D01*
X28250000Y-67250000D02*
X28250000Y-65250000D01*
X28250000Y-65250000D02*
X24202500Y-61202500D01*
X24202500Y-61202500D02*
X20802500Y-61202500D01*
X20802500Y-61202500D02*
X20200000Y-60600000D01*
X20200000Y-60600000D02*
X20200000Y-56400000D01*
X20200000Y-56400000D02*
X47603400Y-28996600D01*
X47603400Y-28996600D02*
X63996600Y-28996600D01*
X63996600Y-28996600D02*
X64000000Y-29000000D01*
X63000000Y-70000000D02*
X61799700Y-70000000D01*
X61799700Y-70000000D02*
X57199700Y-65400000D01*
X57199700Y-65400000D02*
X48900000Y-65400000D01*
X48900000Y-65400000D02*
X47000000Y-63500000D01*
X47000000Y-63500000D02*
X47000000Y-59900000D01*
X47000000Y-59900000D02*
X43982500Y-56882500D01*
X43982500Y-56882500D02*
X43527500Y-56882500D01*
D22*
G36*
X66357500Y-86222500D02*
X61843707Y-86222500D01*
X62097803Y-86117510D01*
X62491129Y-85724870D01*
X62704257Y-85211600D01*
X62704742Y-84655839D01*
X62492510Y-84142197D01*
X62099870Y-83748871D01*
X61586600Y-83535743D01*
X61030839Y-83535258D01*
X60517197Y-83747490D01*
X60123871Y-84140130D01*
X60044105Y-84332227D01*
X59989897Y-84201357D01*
X59747713Y-84131892D01*
X58947105Y-84932500D01*
X59747713Y-85733108D01*
X59989897Y-85663643D01*
X60040009Y-85523182D01*
X60122490Y-85722803D01*
X60515130Y-86116129D01*
X60771300Y-86222500D01*
X59335435Y-86222500D01*
X59498643Y-86154897D01*
X59568108Y-85912713D01*
X58767500Y-85112105D01*
X57966892Y-85912713D01*
X58036357Y-86154897D01*
X58225846Y-86222500D01*
X56763707Y-86222500D01*
X57017803Y-86117510D01*
X57411129Y-85724870D01*
X57490895Y-85532773D01*
X57545103Y-85663643D01*
X57787287Y-85733108D01*
X58587895Y-84932500D01*
X57787287Y-84131892D01*
X57545103Y-84201357D01*
X57494991Y-84341818D01*
X57412510Y-84142197D01*
X57222932Y-83952287D01*
X57966892Y-83952287D01*
X58767500Y-84752895D01*
X59568108Y-83952287D01*
X59498643Y-83710103D01*
X58975198Y-83523356D01*
X58420132Y-83551138D01*
X58036357Y-83710103D01*
X57966892Y-83952287D01*
X57222932Y-83952287D01*
X57019870Y-83748871D01*
X56506600Y-83535743D01*
X55950839Y-83535258D01*
X55437197Y-83747490D01*
X55043871Y-84140130D01*
X54957551Y-84348012D01*
X54872510Y-84142197D01*
X54479870Y-83748871D01*
X53966600Y-83535743D01*
X53410839Y-83535258D01*
X52897197Y-83747490D01*
X52503871Y-84140130D01*
X52417551Y-84348012D01*
X52332510Y-84142197D01*
X51939870Y-83748871D01*
X51426600Y-83535743D01*
X50870839Y-83535258D01*
X50357197Y-83747490D01*
X49963871Y-84140130D01*
X49884105Y-84332227D01*
X49829897Y-84201357D01*
X49587713Y-84131892D01*
X48787105Y-84932500D01*
X49587713Y-85733108D01*
X49829897Y-85663643D01*
X49880009Y-85523182D01*
X49962490Y-85722803D01*
X50355130Y-86116129D01*
X50611300Y-86222500D01*
X49175435Y-86222500D01*
X49338643Y-86154897D01*
X49408108Y-85912713D01*
X48607500Y-85112105D01*
X47806892Y-85912713D01*
X47876357Y-86154897D01*
X48065846Y-86222500D01*
X46603707Y-86222500D01*
X46857803Y-86117510D01*
X47251129Y-85724870D01*
X47330895Y-85532773D01*
X47385103Y-85663643D01*
X47627287Y-85733108D01*
X48427895Y-84932500D01*
X47627287Y-84131892D01*
X47385103Y-84201357D01*
X47334991Y-84341818D01*
X47252510Y-84142197D01*
X47062932Y-83952287D01*
X47806892Y-83952287D01*
X48607500Y-84752895D01*
X49408108Y-83952287D01*
X49338643Y-83710103D01*
X48815198Y-83523356D01*
X48260132Y-83551138D01*
X47876357Y-83710103D01*
X47806892Y-83952287D01*
X47062932Y-83952287D01*
X46859870Y-83748871D01*
X46346600Y-83535743D01*
X45790839Y-83535258D01*
X45277197Y-83747490D01*
X44883871Y-84140130D01*
X44797551Y-84348012D01*
X44712510Y-84142197D01*
X44319870Y-83748871D01*
X43806600Y-83535743D01*
X43250839Y-83535258D01*
X42737197Y-83747490D01*
X42343871Y-84140130D01*
X42257551Y-84348012D01*
X42172510Y-84142197D01*
X41779870Y-83748871D01*
X41266600Y-83535743D01*
X40710839Y-83535258D01*
X40197197Y-83747490D01*
X39803871Y-84140130D01*
X39717551Y-84348012D01*
X39632510Y-84142197D01*
X39239870Y-83748871D01*
X38726600Y-83535743D01*
X38170839Y-83535258D01*
X37657197Y-83747490D01*
X37263871Y-84140130D01*
X37177551Y-84348012D01*
X37092510Y-84142197D01*
X36699870Y-83748871D01*
X36186600Y-83535743D01*
X35630839Y-83535258D01*
X35117197Y-83747490D01*
X34723871Y-84140130D01*
X34637551Y-84348012D01*
X34552510Y-84142197D01*
X34159870Y-83748871D01*
X33646600Y-83535743D01*
X33090839Y-83535258D01*
X32577197Y-83747490D01*
X32183871Y-84140130D01*
X32097551Y-84348012D01*
X32012510Y-84142197D01*
X31619870Y-83748871D01*
X31106600Y-83535743D01*
X30550839Y-83535258D01*
X30037197Y-83747490D01*
X29643871Y-84140130D01*
X29564105Y-84332227D01*
X29509897Y-84201357D01*
X29267713Y-84131892D01*
X28467105Y-84932500D01*
X29267713Y-85733108D01*
X29509897Y-85663643D01*
X29560009Y-85523182D01*
X29642490Y-85722803D01*
X30035130Y-86116129D01*
X30291300Y-86222500D01*
X28855435Y-86222500D01*
X29018643Y-86154897D01*
X29088108Y-85912713D01*
X28287500Y-85112105D01*
X27486892Y-85912713D01*
X27556357Y-86154897D01*
X27745846Y-86222500D01*
X26283707Y-86222500D01*
X26537803Y-86117510D01*
X26931129Y-85724870D01*
X27010895Y-85532773D01*
X27065103Y-85663643D01*
X27307287Y-85733108D01*
X28107895Y-84932500D01*
X27307287Y-84131892D01*
X27065103Y-84201357D01*
X27014991Y-84341818D01*
X26932510Y-84142197D01*
X26742932Y-83952287D01*
X27486892Y-83952287D01*
X28287500Y-84752895D01*
X29088108Y-83952287D01*
X29018643Y-83710103D01*
X28495198Y-83523356D01*
X27940132Y-83551138D01*
X27556357Y-83710103D01*
X27486892Y-83952287D01*
X26742932Y-83952287D01*
X26539870Y-83748871D01*
X26026600Y-83535743D01*
X25470839Y-83535258D01*
X24957197Y-83747490D01*
X24563871Y-84140130D01*
X24350743Y-84653400D01*
X24350258Y-85209161D01*
X24562490Y-85722803D01*
X24955130Y-86116129D01*
X25211300Y-86222500D01*
X19777500Y-86222500D01*
X19777500Y-61252302D01*
X20265099Y-61739901D01*
X20499771Y-61896703D01*
X20498229Y-61899011D01*
X20384155Y-62472500D01*
X20498229Y-63045989D01*
X20823085Y-63532170D01*
X21137866Y-63742500D01*
X20823085Y-63952830D01*
X20498229Y-64439011D01*
X20384155Y-65012500D01*
X20498229Y-65585989D01*
X20823085Y-66072170D01*
X21309266Y-66397026D01*
X21882755Y-66511100D01*
X22252245Y-66511100D01*
X22825734Y-66397026D01*
X23311915Y-66072170D01*
X23636771Y-65585989D01*
X23750845Y-65012500D01*
X23636771Y-64439011D01*
X23311915Y-63952830D01*
X22997134Y-63742500D01*
X23311915Y-63532170D01*
X23636771Y-63045989D01*
X23750845Y-62472500D01*
X23649400Y-61962500D01*
X23887698Y-61962500D01*
X27490000Y-65564802D01*
X27490000Y-65795504D01*
X27325345Y-65863538D01*
X26865154Y-66322927D01*
X26615794Y-66923453D01*
X26615226Y-67573694D01*
X26863538Y-68174655D01*
X27322927Y-68634846D01*
X27923453Y-68884206D01*
X28573694Y-68884774D01*
X29174655Y-68636462D01*
X29634846Y-68177073D01*
X29875283Y-67598035D01*
X30113538Y-68174655D01*
X30572927Y-68634846D01*
X31173453Y-68884206D01*
X31823694Y-68884774D01*
X32424655Y-68636462D01*
X32884846Y-68177073D01*
X33134206Y-67576547D01*
X33134518Y-67218250D01*
X33432500Y-67218250D01*
X33432500Y-67858810D01*
X33529173Y-68092199D01*
X33707802Y-68270827D01*
X33941191Y-68367500D01*
X34781750Y-68367500D01*
X34940500Y-68208750D01*
X34940500Y-67059500D01*
X35194500Y-67059500D01*
X35194500Y-68208750D01*
X35353250Y-68367500D01*
X36193809Y-68367500D01*
X36427198Y-68270827D01*
X36605827Y-68092199D01*
X36702500Y-67858810D01*
X36702500Y-67218250D01*
X36543750Y-67059500D01*
X35194500Y-67059500D01*
X34940500Y-67059500D01*
X33591250Y-67059500D01*
X33432500Y-67218250D01*
X33134518Y-67218250D01*
X33134774Y-66926306D01*
X32886462Y-66325345D01*
X32567864Y-66006190D01*
X33432500Y-66006190D01*
X33432500Y-66646750D01*
X33591250Y-66805500D01*
X34940500Y-66805500D01*
X34940500Y-65656250D01*
X35194500Y-65656250D01*
X35194500Y-66805500D01*
X36543750Y-66805500D01*
X36702500Y-66646750D01*
X36702500Y-66006190D01*
X36605827Y-65772801D01*
X36427198Y-65594173D01*
X36193809Y-65497500D01*
X35353250Y-65497500D01*
X35194500Y-65656250D01*
X34940500Y-65656250D01*
X34781750Y-65497500D01*
X33941191Y-65497500D01*
X33707802Y-65594173D01*
X33529173Y-65772801D01*
X33432500Y-66006190D01*
X32567864Y-66006190D01*
X32427073Y-65865154D01*
X31826547Y-65615794D01*
X31176306Y-65615226D01*
X30575345Y-65863538D01*
X30115154Y-66322927D01*
X29874717Y-66901965D01*
X29636462Y-66325345D01*
X29177073Y-65865154D01*
X29010000Y-65795779D01*
X29010000Y-65250000D01*
X28952148Y-64959161D01*
X28952148Y-64959160D01*
X28787401Y-64712599D01*
X27893052Y-63818250D01*
X33132500Y-63818250D01*
X33132500Y-64158810D01*
X33229173Y-64392199D01*
X33407802Y-64570827D01*
X33641191Y-64667500D01*
X34281750Y-64667500D01*
X34440500Y-64508750D01*
X34440500Y-63659500D01*
X34694500Y-63659500D01*
X34694500Y-64508750D01*
X34853250Y-64667500D01*
X35493809Y-64667500D01*
X35727198Y-64570827D01*
X35905827Y-64392199D01*
X36002500Y-64158810D01*
X36002500Y-63818250D01*
X35843750Y-63659500D01*
X34694500Y-63659500D01*
X34440500Y-63659500D01*
X33291250Y-63659500D01*
X33132500Y-63818250D01*
X27893052Y-63818250D01*
X26980992Y-62906190D01*
X33132500Y-62906190D01*
X33132500Y-63246750D01*
X33291250Y-63405500D01*
X34440500Y-63405500D01*
X34440500Y-62556250D01*
X34694500Y-62556250D01*
X34694500Y-63405500D01*
X35843750Y-63405500D01*
X36002500Y-63246750D01*
X36002500Y-63032500D01*
X38120060Y-63032500D01*
X38120060Y-64032500D01*
X38164338Y-64267817D01*
X38303410Y-64483941D01*
X38515610Y-64628931D01*
X38767500Y-64679940D01*
X40367500Y-64679940D01*
X40602817Y-64635662D01*
X40818941Y-64496590D01*
X40963931Y-64284390D01*
X41014940Y-64032500D01*
X41014940Y-63032500D01*
X40970662Y-62797183D01*
X40831590Y-62581059D01*
X40619390Y-62436069D01*
X40367500Y-62385060D01*
X38767500Y-62385060D01*
X38532183Y-62429338D01*
X38316059Y-62568410D01*
X38171069Y-62780610D01*
X38120060Y-63032500D01*
X36002500Y-63032500D01*
X36002500Y-62906190D01*
X35905827Y-62672801D01*
X35727198Y-62494173D01*
X35493809Y-62397500D01*
X34853250Y-62397500D01*
X34694500Y-62556250D01*
X34440500Y-62556250D01*
X34281750Y-62397500D01*
X33641191Y-62397500D01*
X33407802Y-62494173D01*
X33229173Y-62672801D01*
X33132500Y-62906190D01*
X26980992Y-62906190D01*
X24739901Y-60665099D01*
X24493339Y-60500352D01*
X24202500Y-60442500D01*
X23607078Y-60442500D01*
X23672209Y-60307291D01*
X23674858Y-60291526D01*
X23553717Y-60059500D01*
X22194500Y-60059500D01*
X22194500Y-60079500D01*
X21940500Y-60079500D01*
X21940500Y-60059500D01*
X21920500Y-60059500D01*
X21920500Y-59805500D01*
X21940500Y-59805500D01*
X21940500Y-59785500D01*
X22194500Y-59785500D01*
X22194500Y-59805500D01*
X23553717Y-59805500D01*
X23674858Y-59573474D01*
X23672209Y-59557709D01*
X23568012Y-59341400D01*
X26615761Y-59341400D01*
X26615226Y-59953694D01*
X26863538Y-60554655D01*
X27322927Y-61014846D01*
X27923453Y-61264206D01*
X28573694Y-61264774D01*
X29174655Y-61016462D01*
X29634846Y-60557073D01*
X29704221Y-60390000D01*
X30045504Y-60390000D01*
X30113538Y-60554655D01*
X30572927Y-61014846D01*
X31173453Y-61264206D01*
X31823694Y-61264774D01*
X32424655Y-61016462D01*
X32884846Y-60557073D01*
X33120060Y-59990614D01*
X33120060Y-60832500D01*
X33164338Y-61067817D01*
X33303410Y-61283941D01*
X33515610Y-61428931D01*
X33767500Y-61479940D01*
X35367500Y-61479940D01*
X35602817Y-61435662D01*
X35818941Y-61296590D01*
X35963931Y-61084390D01*
X35973600Y-61036645D01*
X35983639Y-61034648D01*
X36230201Y-60869901D01*
X36832902Y-60267200D01*
X38120060Y-60267200D01*
X38120060Y-60832500D01*
X38164338Y-61067817D01*
X38303410Y-61283941D01*
X38515610Y-61428931D01*
X38767500Y-61479940D01*
X40314838Y-61479940D01*
X42904799Y-64069901D01*
X43151361Y-64234648D01*
X43158359Y-64236040D01*
X43164338Y-64267817D01*
X43303410Y-64483941D01*
X43515610Y-64628931D01*
X43767500Y-64679940D01*
X44932800Y-64679940D01*
X44932800Y-64867098D01*
X44530099Y-65269799D01*
X44386267Y-65485060D01*
X44067500Y-65485060D01*
X43832183Y-65529338D01*
X43616059Y-65668410D01*
X43471069Y-65880610D01*
X43420060Y-66132500D01*
X43420060Y-67732500D01*
X43464338Y-67967817D01*
X43603410Y-68183941D01*
X43759741Y-68290757D01*
X43219298Y-68831200D01*
X40915702Y-68831200D01*
X40374218Y-68289716D01*
X40518941Y-68196590D01*
X40663931Y-67984390D01*
X40714940Y-67732500D01*
X40714940Y-66132500D01*
X40670662Y-65897183D01*
X40531590Y-65681059D01*
X40319390Y-65536069D01*
X40067500Y-65485060D01*
X38067500Y-65485060D01*
X37832183Y-65529338D01*
X37616059Y-65668410D01*
X37471069Y-65880610D01*
X37420060Y-66132500D01*
X37420060Y-67732500D01*
X37464338Y-67967817D01*
X37603410Y-68183941D01*
X37815610Y-68328931D01*
X38067500Y-68379940D01*
X38386267Y-68379940D01*
X38530099Y-68595201D01*
X40063499Y-70128601D01*
X40310061Y-70293348D01*
X40600900Y-70351200D01*
X40749605Y-70351200D01*
X40615794Y-70673453D01*
X40615226Y-71323694D01*
X40863538Y-71924655D01*
X41322927Y-72384846D01*
X41923453Y-72634206D01*
X42573694Y-72634774D01*
X43174655Y-72386462D01*
X43634846Y-71927073D01*
X43884206Y-71326547D01*
X43884774Y-70676306D01*
X43734012Y-70311435D01*
X43824939Y-70293348D01*
X44071501Y-70128601D01*
X45067500Y-69132602D01*
X45172299Y-69237401D01*
X45418861Y-69402148D01*
X45709700Y-69460000D01*
X49316935Y-69460000D01*
X48945345Y-69613538D01*
X48485154Y-70072927D01*
X48235794Y-70673453D01*
X48235226Y-71323694D01*
X48483538Y-71924655D01*
X48942927Y-72384846D01*
X49543453Y-72634206D01*
X50193694Y-72634774D01*
X50794655Y-72386462D01*
X51254846Y-71927073D01*
X51504206Y-71326547D01*
X51504774Y-70676306D01*
X51256462Y-70075345D01*
X50797073Y-69615154D01*
X50423420Y-69460000D01*
X54165498Y-69460000D01*
X61611602Y-76906104D01*
X61490262Y-77198325D01*
X61489738Y-77799040D01*
X61719138Y-78354229D01*
X62114536Y-78750318D01*
X61720630Y-79143537D01*
X61490262Y-79698325D01*
X61489738Y-80299040D01*
X61719138Y-80854229D01*
X62143537Y-81279370D01*
X62698325Y-81509738D01*
X63299040Y-81510262D01*
X63854229Y-81280862D01*
X64279370Y-80856463D01*
X64509738Y-80301675D01*
X64510262Y-79700960D01*
X64280862Y-79145771D01*
X63885464Y-78749682D01*
X64279370Y-78356463D01*
X64509738Y-77801675D01*
X64510262Y-77200960D01*
X64499613Y-77175189D01*
X65887412Y-75787390D01*
X66052159Y-75540828D01*
X66110011Y-75249989D01*
X66110011Y-58113600D01*
X66052159Y-57822761D01*
X65887412Y-57576199D01*
X58106312Y-49795099D01*
X57859750Y-49630352D01*
X57568911Y-49572500D01*
X50954779Y-49572500D01*
X50831590Y-49381059D01*
X50619390Y-49236069D01*
X50367500Y-49185060D01*
X49202200Y-49185060D01*
X49202200Y-48885302D01*
X49604901Y-48482601D01*
X49673497Y-48379940D01*
X50067500Y-48379940D01*
X50302817Y-48335662D01*
X50518941Y-48196590D01*
X50663931Y-47984390D01*
X50714940Y-47732500D01*
X50714940Y-46132500D01*
X50670662Y-45897183D01*
X50531590Y-45681059D01*
X50319390Y-45536069D01*
X50067500Y-45485060D01*
X48067500Y-45485060D01*
X47832183Y-45529338D01*
X47616059Y-45668410D01*
X47471069Y-45880610D01*
X47420060Y-46132500D01*
X47420060Y-47732500D01*
X47440288Y-47840000D01*
X46702500Y-47840000D01*
X46702500Y-47218250D01*
X46543750Y-47059500D01*
X45194500Y-47059500D01*
X45194500Y-47079500D01*
X44940500Y-47079500D01*
X44940500Y-47059500D01*
X43591250Y-47059500D01*
X43432500Y-47218250D01*
X43432500Y-47840000D01*
X42099000Y-47840000D01*
X41808161Y-47897852D01*
X41561599Y-48062599D01*
X41417000Y-48207198D01*
X40730201Y-47520399D01*
X40714940Y-47510202D01*
X40714940Y-46132500D01*
X40691174Y-46006190D01*
X43432500Y-46006190D01*
X43432500Y-46646750D01*
X43591250Y-46805500D01*
X44940500Y-46805500D01*
X44940500Y-45656250D01*
X45194500Y-45656250D01*
X45194500Y-46805500D01*
X46543750Y-46805500D01*
X46702500Y-46646750D01*
X46702500Y-46006190D01*
X46605827Y-45772801D01*
X46427198Y-45594173D01*
X46193809Y-45497500D01*
X45353250Y-45497500D01*
X45194500Y-45656250D01*
X44940500Y-45656250D01*
X44781750Y-45497500D01*
X43941191Y-45497500D01*
X43707802Y-45594173D01*
X43529173Y-45772801D01*
X43432500Y-46006190D01*
X40691174Y-46006190D01*
X40670662Y-45897183D01*
X40531590Y-45681059D01*
X40319390Y-45536069D01*
X40067500Y-45485060D01*
X38067500Y-45485060D01*
X37832183Y-45529338D01*
X37616059Y-45668410D01*
X37471069Y-45880610D01*
X37420060Y-46132500D01*
X37420060Y-47732500D01*
X37464338Y-47967817D01*
X37603410Y-48183941D01*
X37815610Y-48328931D01*
X38067500Y-48379940D01*
X38386267Y-48379940D01*
X38530099Y-48595201D01*
X38776661Y-48759948D01*
X39067500Y-48817800D01*
X39877998Y-48817800D01*
X40245258Y-49185060D01*
X38767500Y-49185060D01*
X38532183Y-49229338D01*
X38316059Y-49368410D01*
X38171069Y-49580610D01*
X38120060Y-49832500D01*
X38120060Y-50832500D01*
X38140288Y-50940000D01*
X37375102Y-50940000D01*
X36230201Y-49795099D01*
X35983639Y-49630352D01*
X35976641Y-49628960D01*
X35970662Y-49597183D01*
X35831590Y-49381059D01*
X35619390Y-49236069D01*
X35367500Y-49185060D01*
X33767500Y-49185060D01*
X33532183Y-49229338D01*
X33316059Y-49368410D01*
X33171069Y-49580610D01*
X33120060Y-49832500D01*
X33120060Y-50832500D01*
X33164338Y-51067817D01*
X33303410Y-51283941D01*
X33515610Y-51428931D01*
X33767500Y-51479940D01*
X35367500Y-51479940D01*
X35602817Y-51435662D01*
X35674824Y-51389326D01*
X36522899Y-52237401D01*
X36769461Y-52402148D01*
X37060300Y-52460000D01*
X38484533Y-52460000D01*
X38316059Y-52568410D01*
X38171069Y-52780610D01*
X38120060Y-53032500D01*
X38120060Y-54032500D01*
X38164338Y-54267817D01*
X38303410Y-54483941D01*
X38515610Y-54628931D01*
X38767500Y-54679940D01*
X40367500Y-54679940D01*
X40602817Y-54635662D01*
X40818941Y-54496590D01*
X40963931Y-54284390D01*
X40973600Y-54236645D01*
X40983639Y-54234648D01*
X41230201Y-54069901D01*
X41394948Y-53823339D01*
X41395960Y-53818250D01*
X43132500Y-53818250D01*
X43132500Y-54158810D01*
X43229173Y-54392199D01*
X43407802Y-54570827D01*
X43641191Y-54667500D01*
X44281750Y-54667500D01*
X44440500Y-54508750D01*
X44440500Y-53659500D01*
X44694500Y-53659500D01*
X44694500Y-54508750D01*
X44853250Y-54667500D01*
X45493809Y-54667500D01*
X45727198Y-54570827D01*
X45905827Y-54392199D01*
X46002500Y-54158810D01*
X46002500Y-53818250D01*
X45843750Y-53659500D01*
X44694500Y-53659500D01*
X44440500Y-53659500D01*
X43291250Y-53659500D01*
X43132500Y-53818250D01*
X41395960Y-53818250D01*
X41452800Y-53532500D01*
X41452800Y-53396702D01*
X41943312Y-52906190D01*
X43132500Y-52906190D01*
X43132500Y-53246750D01*
X43291250Y-53405500D01*
X44440500Y-53405500D01*
X44440500Y-52556250D01*
X44694500Y-52556250D01*
X44694500Y-53405500D01*
X45843750Y-53405500D01*
X46002500Y-53246750D01*
X46002500Y-52906190D01*
X45905827Y-52672801D01*
X45727198Y-52494173D01*
X45493809Y-52397500D01*
X44853250Y-52397500D01*
X44694500Y-52556250D01*
X44440500Y-52556250D01*
X44281750Y-52397500D01*
X43641191Y-52397500D01*
X43407802Y-52494173D01*
X43229173Y-52672801D01*
X43132500Y-52906190D01*
X41943312Y-52906190D01*
X43459149Y-51390353D01*
X43515610Y-51428931D01*
X43767500Y-51479940D01*
X45367500Y-51479940D01*
X45602817Y-51435662D01*
X45818941Y-51296590D01*
X45963931Y-51084390D01*
X46014940Y-50832500D01*
X46014940Y-50289742D01*
X48262599Y-52537401D01*
X48313849Y-52571645D01*
X48171069Y-52780610D01*
X48120060Y-53032500D01*
X48120060Y-54032500D01*
X48164338Y-54267817D01*
X48303410Y-54483941D01*
X48515610Y-54628931D01*
X48767500Y-54679940D01*
X48857890Y-54679940D01*
X48897852Y-54880839D01*
X49062599Y-55127401D01*
X49140000Y-55204802D01*
X49140000Y-55590964D01*
X48886600Y-55485743D01*
X48330839Y-55485258D01*
X47817197Y-55697490D01*
X47423871Y-56090130D01*
X47337551Y-56298012D01*
X47252510Y-56092197D01*
X46859870Y-55698871D01*
X46346600Y-55485743D01*
X45790839Y-55485258D01*
X45277197Y-55697490D01*
X44883871Y-56090130D01*
X44797551Y-56298012D01*
X44712510Y-56092197D01*
X44319870Y-55698871D01*
X43806600Y-55485743D01*
X43250839Y-55485258D01*
X42737197Y-55697490D01*
X42343871Y-56090130D01*
X42264105Y-56282227D01*
X42209897Y-56151357D01*
X41967713Y-56081892D01*
X41167105Y-56882500D01*
X41967713Y-57683108D01*
X42209897Y-57613643D01*
X42260009Y-57473182D01*
X42342490Y-57672803D01*
X42735130Y-58066129D01*
X43248400Y-58279257D01*
X43804161Y-58279742D01*
X44158522Y-58133324D01*
X45210258Y-59185060D01*
X43767500Y-59185060D01*
X43532183Y-59229338D01*
X43460176Y-59275674D01*
X43154301Y-58969799D01*
X42907739Y-58805052D01*
X42616900Y-58747200D01*
X36518100Y-58747200D01*
X36275514Y-58795454D01*
X36227260Y-58805052D01*
X35980699Y-58969799D01*
X35675851Y-59274647D01*
X35619390Y-59236069D01*
X35367500Y-59185060D01*
X33767500Y-59185060D01*
X33532183Y-59229338D01*
X33316059Y-59368410D01*
X33171069Y-59580610D01*
X33134376Y-59761805D01*
X33134774Y-59306306D01*
X32886462Y-58705345D01*
X32427073Y-58245154D01*
X31826547Y-57995794D01*
X31689764Y-57995675D01*
X32011129Y-57674870D01*
X32097449Y-57466988D01*
X32182490Y-57672803D01*
X32575130Y-58066129D01*
X33088400Y-58279257D01*
X33644161Y-58279742D01*
X34157803Y-58067510D01*
X34551129Y-57674870D01*
X34637449Y-57466988D01*
X34722490Y-57672803D01*
X35115130Y-58066129D01*
X35628400Y-58279257D01*
X36184161Y-58279742D01*
X36697803Y-58067510D01*
X37091129Y-57674870D01*
X37177449Y-57466988D01*
X37262490Y-57672803D01*
X37655130Y-58066129D01*
X38168400Y-58279257D01*
X38724161Y-58279742D01*
X39237803Y-58067510D01*
X39442957Y-57862713D01*
X40186892Y-57862713D01*
X40256357Y-58104897D01*
X40779802Y-58291644D01*
X41334868Y-58263862D01*
X41718643Y-58104897D01*
X41788108Y-57862713D01*
X40987500Y-57062105D01*
X40186892Y-57862713D01*
X39442957Y-57862713D01*
X39631129Y-57674870D01*
X39710895Y-57482773D01*
X39765103Y-57613643D01*
X40007287Y-57683108D01*
X40807895Y-56882500D01*
X40007287Y-56081892D01*
X39765103Y-56151357D01*
X39714991Y-56291818D01*
X39632510Y-56092197D01*
X39442932Y-55902287D01*
X40186892Y-55902287D01*
X40987500Y-56702895D01*
X41788108Y-55902287D01*
X41718643Y-55660103D01*
X41195198Y-55473356D01*
X40640132Y-55501138D01*
X40256357Y-55660103D01*
X40186892Y-55902287D01*
X39442932Y-55902287D01*
X39239870Y-55698871D01*
X38726600Y-55485743D01*
X38170839Y-55485258D01*
X37657197Y-55697490D01*
X37263871Y-56090130D01*
X37177551Y-56298012D01*
X37092510Y-56092197D01*
X36699870Y-55698871D01*
X36186600Y-55485743D01*
X35630839Y-55485258D01*
X35117197Y-55697490D01*
X34723871Y-56090130D01*
X34637551Y-56298012D01*
X34552510Y-56092197D01*
X34159870Y-55698871D01*
X33646600Y-55485743D01*
X33090839Y-55485258D01*
X32577197Y-55697490D01*
X32183871Y-56090130D01*
X32097551Y-56298012D01*
X32012510Y-56092197D01*
X31619870Y-55698871D01*
X31106600Y-55485743D01*
X30550839Y-55485258D01*
X30037197Y-55697490D01*
X29643871Y-56090130D01*
X29557551Y-56298012D01*
X29472510Y-56092197D01*
X29079870Y-55698871D01*
X28566600Y-55485743D01*
X28010839Y-55485258D01*
X27497197Y-55697490D01*
X27103871Y-56090130D01*
X27017551Y-56298012D01*
X26932510Y-56092197D01*
X26539870Y-55698871D01*
X26026600Y-55485743D01*
X25470839Y-55485258D01*
X24957197Y-55697490D01*
X24563871Y-56090130D01*
X24350743Y-56603400D01*
X24350258Y-57159161D01*
X24562490Y-57672803D01*
X24710828Y-57821400D01*
X23730940Y-57821400D01*
X23730940Y-56528900D01*
X23686662Y-56293583D01*
X23547590Y-56077459D01*
X23335390Y-55932469D01*
X23083500Y-55881460D01*
X21793342Y-55881460D01*
X23856552Y-53818250D01*
X33132500Y-53818250D01*
X33132500Y-54158810D01*
X33229173Y-54392199D01*
X33407802Y-54570827D01*
X33641191Y-54667500D01*
X34281750Y-54667500D01*
X34440500Y-54508750D01*
X34440500Y-53659500D01*
X34694500Y-53659500D01*
X34694500Y-54508750D01*
X34853250Y-54667500D01*
X35493809Y-54667500D01*
X35727198Y-54570827D01*
X35905827Y-54392199D01*
X36002500Y-54158810D01*
X36002500Y-53818250D01*
X35843750Y-53659500D01*
X34694500Y-53659500D01*
X34440500Y-53659500D01*
X33291250Y-53659500D01*
X33132500Y-53818250D01*
X23856552Y-53818250D01*
X24768612Y-52906190D01*
X33132500Y-52906190D01*
X33132500Y-53246750D01*
X33291250Y-53405500D01*
X34440500Y-53405500D01*
X34440500Y-52556250D01*
X34694500Y-52556250D01*
X34694500Y-53405500D01*
X35843750Y-53405500D01*
X36002500Y-53246750D01*
X36002500Y-52906190D01*
X35905827Y-52672801D01*
X35727198Y-52494173D01*
X35493809Y-52397500D01*
X34853250Y-52397500D01*
X34694500Y-52556250D01*
X34440500Y-52556250D01*
X34281750Y-52397500D01*
X33641191Y-52397500D01*
X33407802Y-52494173D01*
X33229173Y-52672801D01*
X33132500Y-52906190D01*
X24768612Y-52906190D01*
X30456552Y-47218250D01*
X33432500Y-47218250D01*
X33432500Y-47858810D01*
X33529173Y-48092199D01*
X33707802Y-48270827D01*
X33941191Y-48367500D01*
X34781750Y-48367500D01*
X34940500Y-48208750D01*
X34940500Y-47059500D01*
X35194500Y-47059500D01*
X35194500Y-48208750D01*
X35353250Y-48367500D01*
X36193809Y-48367500D01*
X36427198Y-48270827D01*
X36605827Y-48092199D01*
X36702500Y-47858810D01*
X36702500Y-47218250D01*
X36543750Y-47059500D01*
X35194500Y-47059500D01*
X34940500Y-47059500D01*
X33591250Y-47059500D01*
X33432500Y-47218250D01*
X30456552Y-47218250D01*
X31668612Y-46006190D01*
X33432500Y-46006190D01*
X33432500Y-46646750D01*
X33591250Y-46805500D01*
X34940500Y-46805500D01*
X34940500Y-45656250D01*
X35194500Y-45656250D01*
X35194500Y-46805500D01*
X36543750Y-46805500D01*
X36702500Y-46646750D01*
X36702500Y-46006190D01*
X36605827Y-45772801D01*
X36427198Y-45594173D01*
X36193809Y-45497500D01*
X35353250Y-45497500D01*
X35194500Y-45656250D01*
X34940500Y-45656250D01*
X34781750Y-45497500D01*
X33941191Y-45497500D01*
X33707802Y-45594173D01*
X33529173Y-45772801D01*
X33432500Y-46006190D01*
X31668612Y-46006190D01*
X47918202Y-29756600D01*
X63332430Y-29756600D01*
X63361495Y-29826943D01*
X63722655Y-30188735D01*
X64194776Y-30384777D01*
X64705981Y-30385223D01*
X65178443Y-30190005D01*
X65540235Y-29828845D01*
X65736277Y-29356724D01*
X65736723Y-28845519D01*
X65541505Y-28373057D01*
X65180345Y-28011265D01*
X64708224Y-27815223D01*
X64197019Y-27814777D01*
X63724557Y-28009995D01*
X63497555Y-28236600D01*
X47603400Y-28236600D01*
X47312561Y-28294452D01*
X47065999Y-28459199D01*
X19777500Y-55747698D01*
X19777500Y-33817946D01*
X22791034Y-33817946D01*
X22791034Y-33943034D01*
X22796749Y-33971767D01*
X22793655Y-34000900D01*
X22801383Y-34086022D01*
X22829236Y-34180431D01*
X22849056Y-34276847D01*
X22879328Y-34348629D01*
X22925431Y-34416682D01*
X22961902Y-34490344D01*
X23025350Y-34572762D01*
X23041427Y-34586816D01*
X23052141Y-34605289D01*
X23061571Y-34615999D01*
X23073022Y-34624749D01*
X23080799Y-34636885D01*
X23151374Y-34710210D01*
X23211608Y-34752143D01*
X23264204Y-34803326D01*
X23324870Y-34842677D01*
X23425870Y-34882909D01*
X23524665Y-34928278D01*
X23600562Y-34946381D01*
X23645715Y-34948088D01*
X23689008Y-34961022D01*
X23751929Y-34966951D01*
X23777966Y-34964276D01*
X23803571Y-34969719D01*
X23916115Y-34971196D01*
X23992483Y-34957045D01*
X24070102Y-34954471D01*
X24150219Y-34935755D01*
X24231084Y-34899075D01*
X24315624Y-34871894D01*
X24365604Y-34844106D01*
X24403334Y-34812083D01*
X24447572Y-34789901D01*
X24526124Y-34728795D01*
X24572517Y-34675182D01*
X24589696Y-34661119D01*
X24601431Y-34682028D01*
X24612853Y-34691015D01*
X24615031Y-34694519D01*
X24616949Y-34698035D01*
X24617485Y-34698467D01*
X24620525Y-34703358D01*
X24640980Y-34725205D01*
X24727995Y-34787582D01*
X24811336Y-34854787D01*
X24841751Y-34870709D01*
X24858653Y-34875678D01*
X24872949Y-34885978D01*
X24874707Y-34886780D01*
X24883573Y-34888871D01*
X24891111Y-34893988D01*
X24949682Y-34918751D01*
X24979930Y-34924998D01*
X25007026Y-34939830D01*
X25036042Y-34948949D01*
X25082216Y-34953962D01*
X25125740Y-34970181D01*
X25187882Y-34967943D01*
X25194236Y-34969255D01*
X25204157Y-34967357D01*
X25205228Y-34967318D01*
X25284298Y-34975903D01*
X25328875Y-34962865D01*
X25375293Y-34961193D01*
X25399069Y-34950326D01*
X25419393Y-34952533D01*
X25449997Y-34965405D01*
X25527994Y-34965829D01*
X25544581Y-34969255D01*
X25555019Y-34967258D01*
X25634643Y-34975903D01*
X25666507Y-34966583D01*
X25699709Y-34966764D01*
X25712901Y-34961383D01*
X25762304Y-34973590D01*
X25842479Y-34977271D01*
X25916200Y-34966094D01*
X25990761Y-34966797D01*
X26135040Y-34939511D01*
X26222083Y-34904415D01*
X26295718Y-34882878D01*
X26320918Y-34899666D01*
X26376806Y-34922726D01*
X26382475Y-34923846D01*
X26387338Y-34926962D01*
X26504753Y-34947993D01*
X26621790Y-34971106D01*
X26627454Y-34969971D01*
X26633141Y-34970990D01*
X26709528Y-34969530D01*
X26741969Y-34962430D01*
X26775086Y-34964902D01*
X26802793Y-34961509D01*
X26883862Y-34952264D01*
X26919731Y-34949430D01*
X26933260Y-34950216D01*
X27004484Y-34957477D01*
X27033208Y-34961047D01*
X27047967Y-34959972D01*
X27062211Y-34963983D01*
X27149946Y-34970850D01*
X27253105Y-34958595D01*
X27356849Y-34953255D01*
X27415809Y-34938339D01*
X27423656Y-34934605D01*
X27432319Y-34933927D01*
X27536128Y-34881087D01*
X27568453Y-34865705D01*
X27574130Y-34868919D01*
X27675068Y-34902229D01*
X27773848Y-34941445D01*
X27913145Y-34967018D01*
X28023862Y-34965381D01*
X28134542Y-34968727D01*
X28274028Y-34945339D01*
X28364235Y-34911129D01*
X28457158Y-34885202D01*
X28540221Y-34843171D01*
X28597363Y-34798381D01*
X28661118Y-34763661D01*
X28748316Y-34690953D01*
X28771931Y-34661716D01*
X28813808Y-34704667D01*
X28827585Y-34727689D01*
X28852723Y-34746360D01*
X28901316Y-34799076D01*
X28909591Y-34802905D01*
X28915957Y-34809434D01*
X28939825Y-34825822D01*
X28986917Y-34846030D01*
X29028054Y-34876584D01*
X29043333Y-34883824D01*
X29067845Y-34889982D01*
X29089248Y-34903425D01*
X29154141Y-34928182D01*
X29202943Y-34936464D01*
X29248396Y-34956062D01*
X29286594Y-34964233D01*
X29341322Y-34965020D01*
X29394527Y-34977865D01*
X29464977Y-34966798D01*
X29536284Y-34967824D01*
X29587147Y-34947608D01*
X29596930Y-34946071D01*
X29625876Y-34959659D01*
X29669495Y-34961675D01*
X29712177Y-34974834D01*
X29713972Y-34975019D01*
X29756274Y-34971046D01*
X29797263Y-34977910D01*
X29834556Y-34969305D01*
X29875325Y-34971189D01*
X29910017Y-34958663D01*
X29966691Y-34971717D01*
X30068141Y-34974766D01*
X30120760Y-34965934D01*
X30174020Y-34969162D01*
X30278496Y-34954885D01*
X30340084Y-34933641D01*
X30404566Y-34924391D01*
X30468797Y-34901755D01*
X30494377Y-34910672D01*
X30498622Y-34911266D01*
X30502345Y-34913391D01*
X30567647Y-34935196D01*
X30582513Y-34937078D01*
X30595855Y-34943897D01*
X30631683Y-34954050D01*
X30680438Y-34957949D01*
X30725881Y-34973200D01*
X30737774Y-34972379D01*
X30749324Y-34975767D01*
X30750378Y-34975861D01*
X30815984Y-34968788D01*
X30880604Y-34973955D01*
X30925517Y-34959424D01*
X30975004Y-34956009D01*
X30986210Y-34950435D01*
X30998654Y-34949093D01*
X31058466Y-34916409D01*
X31107565Y-34900524D01*
X31136676Y-34910672D01*
X31140921Y-34911266D01*
X31144644Y-34913391D01*
X31209946Y-34935196D01*
X31224812Y-34937078D01*
X31238154Y-34943897D01*
X31273982Y-34954050D01*
X31332642Y-34958741D01*
X31388066Y-34975433D01*
X31389867Y-34975252D01*
X31391623Y-34975767D01*
X31392677Y-34975861D01*
X31458283Y-34968788D01*
X31522903Y-34973955D01*
X31577034Y-34956441D01*
X31636529Y-34950462D01*
X31638607Y-34949346D01*
X31640953Y-34949093D01*
X31700765Y-34916409D01*
X31760493Y-34897085D01*
X31802423Y-34861364D01*
X31856524Y-34832308D01*
X31858017Y-34830481D01*
X31860087Y-34829350D01*
X31903985Y-34774842D01*
X31927117Y-34755136D01*
X31950196Y-34770557D01*
X32044634Y-34837662D01*
X32168713Y-34893285D01*
X32168714Y-34893285D01*
X32168715Y-34893286D01*
X32292796Y-34948910D01*
X32413883Y-34976634D01*
X32535258Y-35004615D01*
X32535739Y-35004534D01*
X32536213Y-35004643D01*
X32658679Y-34983921D01*
X32781535Y-34963321D01*
X32781949Y-34963062D01*
X32782429Y-34962981D01*
X32857205Y-34916067D01*
X32910269Y-34936311D01*
X32910632Y-34936373D01*
X32910941Y-34936566D01*
X32987737Y-34965764D01*
X33107167Y-34985893D01*
X33226469Y-35007443D01*
X33230208Y-35006630D01*
X33233980Y-35007266D01*
X33352048Y-34980152D01*
X33470489Y-34954413D01*
X33473633Y-34952231D01*
X33477361Y-34951375D01*
X33529763Y-34914089D01*
X33639747Y-34948920D01*
X33748129Y-34960929D01*
X33855779Y-34978380D01*
X33998247Y-34973300D01*
X34109972Y-34946905D01*
X34222466Y-34924111D01*
X34358914Y-34867021D01*
X34409064Y-34833252D01*
X34419938Y-34828806D01*
X34476305Y-34859793D01*
X34561736Y-34886810D01*
X34601202Y-34904364D01*
X34605640Y-34913198D01*
X34640608Y-35002482D01*
X34661290Y-35023983D01*
X34674684Y-35050647D01*
X34701713Y-35085339D01*
X34702494Y-35086014D01*
X34702962Y-35086938D01*
X34797054Y-35167718D01*
X34811841Y-35180495D01*
X34813724Y-35182452D01*
X34814498Y-35182790D01*
X34890665Y-35248602D01*
X34891646Y-35248927D01*
X34892431Y-35249601D01*
X34944186Y-35278759D01*
X34964564Y-35285438D01*
X34981721Y-35298300D01*
X34993809Y-35304094D01*
X34993811Y-35304095D01*
X35051973Y-35332013D01*
X35075299Y-35337998D01*
X35095577Y-35350983D01*
X35140610Y-35368616D01*
X35243455Y-35386997D01*
X35344896Y-35412012D01*
X35378381Y-35413534D01*
X35385704Y-35412420D01*
X35386430Y-35412550D01*
X35390005Y-35411766D01*
X35494007Y-35395949D01*
X35610024Y-35381286D01*
X35617149Y-35377221D01*
X35625258Y-35375988D01*
X35705541Y-35327467D01*
X35727030Y-35321181D01*
X35755457Y-35298320D01*
X35826927Y-35257549D01*
X35850448Y-35237136D01*
X35881786Y-35196730D01*
X35921628Y-35164690D01*
X35957586Y-35098997D01*
X36003488Y-35039813D01*
X36016977Y-34990494D01*
X36027642Y-34971009D01*
X36047248Y-34973656D01*
X36154627Y-34966971D01*
X36262217Y-34966199D01*
X36420209Y-34933593D01*
X36471669Y-34911844D01*
X36474742Y-34911770D01*
X36488486Y-34905686D01*
X36550866Y-34891604D01*
X36594834Y-34872055D01*
X36638126Y-34841492D01*
X36650224Y-34836379D01*
X36654234Y-34832311D01*
X36703083Y-34810686D01*
X36788707Y-34750445D01*
X36833602Y-34703336D01*
X36886580Y-34665551D01*
X36961728Y-34585675D01*
X36986232Y-34546464D01*
X37019650Y-34514508D01*
X37026752Y-34504378D01*
X37036868Y-34481421D01*
X37053603Y-34462733D01*
X37082470Y-34413910D01*
X37101995Y-34358294D01*
X37132645Y-34307949D01*
X37151727Y-34255758D01*
X37160995Y-34196121D01*
X37182198Y-34139615D01*
X37193471Y-34070909D01*
X37192301Y-34036229D01*
X37200940Y-34002619D01*
X37206379Y-33904252D01*
X37204367Y-33890091D01*
X37207315Y-33876094D01*
X37208898Y-33734920D01*
X37208276Y-33731601D01*
X37208938Y-33728290D01*
X37208965Y-33696638D01*
X37208458Y-33694079D01*
X37208949Y-33691517D01*
X37208877Y-33681445D01*
X37208871Y-33681417D01*
X37208876Y-33681391D01*
X37207861Y-33541031D01*
X37205483Y-33529511D01*
X37207275Y-33517883D01*
X37202709Y-33412773D01*
X37195562Y-33383538D01*
X37197364Y-33353496D01*
X37187364Y-33280661D01*
X37168749Y-33226806D01*
X37162077Y-33170216D01*
X37144686Y-33116611D01*
X37113403Y-33060692D01*
X37093431Y-32999811D01*
X37066694Y-32952384D01*
X37050438Y-32933460D01*
X37040860Y-32910421D01*
X37034952Y-32901604D01*
X37010771Y-32877486D01*
X36994408Y-32847511D01*
X36895100Y-32728654D01*
X36818814Y-32667165D01*
X36748059Y-32599376D01*
X36639848Y-32530377D01*
X36532292Y-32488500D01*
X36426031Y-32443407D01*
X36294292Y-32416018D01*
X36238007Y-32415532D01*
X36183152Y-32402905D01*
X36138416Y-32401567D01*
X36082461Y-32410968D01*
X36025793Y-32408146D01*
X35858289Y-32432880D01*
X35757028Y-32469037D01*
X35653922Y-32499551D01*
X35549303Y-32554562D01*
X35531864Y-32542045D01*
X35393211Y-32479095D01*
X35294724Y-32456052D01*
X35198249Y-32425644D01*
X35037860Y-32408094D01*
X34963214Y-32414632D01*
X34888473Y-32409288D01*
X34748326Y-32426894D01*
X34646275Y-32460862D01*
X34542524Y-32489150D01*
X34430974Y-32544769D01*
X34413063Y-32558638D01*
X34398900Y-32551209D01*
X34308830Y-32496580D01*
X34173236Y-32447261D01*
X34070479Y-32431468D01*
X33969000Y-32408876D01*
X33830573Y-32405733D01*
X33732688Y-32422903D01*
X33633730Y-32432085D01*
X33502133Y-32471193D01*
X33416517Y-32516335D01*
X33327214Y-32553654D01*
X33314083Y-32562487D01*
X33287049Y-32542541D01*
X33153156Y-32479620D01*
X33160235Y-32475436D01*
X33197173Y-32442367D01*
X33240885Y-32418970D01*
X33308527Y-32363391D01*
X33317502Y-32352442D01*
X33329680Y-32345224D01*
X33424563Y-32260075D01*
X33429216Y-32253866D01*
X33435792Y-32249753D01*
X33551155Y-32141152D01*
X33554522Y-32136427D01*
X33559389Y-32133262D01*
X33688474Y-32007330D01*
X33690439Y-32004467D01*
X33693330Y-32002542D01*
X33735546Y-31960470D01*
X33736009Y-31959780D01*
X33736696Y-31959320D01*
X34173186Y-31522102D01*
X34209611Y-31467489D01*
X34255606Y-31420652D01*
X34278219Y-31364626D01*
X34311748Y-31314356D01*
X34324502Y-31249957D01*
X34349070Y-31189087D01*
X34348522Y-31128670D01*
X34360260Y-31069398D01*
X34347400Y-31005025D01*
X34346804Y-30939381D01*
X34323175Y-30883769D01*
X34311339Y-30824521D01*
X34274825Y-30769972D01*
X34249153Y-30709551D01*
X33917754Y-30223191D01*
X33819502Y-30077486D01*
X33770184Y-30002694D01*
X33819943Y-29888460D01*
X33821681Y-29880479D01*
X33826173Y-29873654D01*
X33881585Y-29737187D01*
X33883365Y-29727899D01*
X33888332Y-29719852D01*
X33899218Y-29690633D01*
X33941083Y-29682078D01*
X33999853Y-29671047D01*
X34163754Y-29640929D01*
X34164263Y-29640727D01*
X34164812Y-29640734D01*
X34323173Y-29611359D01*
X34323754Y-29611127D01*
X34324376Y-29611134D01*
X34460524Y-29585610D01*
X34461489Y-29585223D01*
X34462530Y-29585231D01*
X34560991Y-29566447D01*
X34562371Y-29565888D01*
X34563860Y-29565893D01*
X34582401Y-29562268D01*
X34582944Y-29562045D01*
X34583532Y-29562046D01*
X34736807Y-29531792D01*
X34795511Y-29507577D01*
X34857790Y-29495189D01*
X34909814Y-29460428D01*
X34967654Y-29436569D01*
X35012621Y-29391734D01*
X35065421Y-29356454D01*
X35100183Y-29304429D01*
X35144489Y-29260253D01*
X35168875Y-29201625D01*
X35204156Y-29148823D01*
X35216363Y-29087455D01*
X35240391Y-29029687D01*
X35240484Y-28966188D01*
X35252873Y-28903906D01*
X35252873Y-28265645D01*
X35252769Y-28265120D01*
X35252872Y-28264596D01*
X35252528Y-28054721D01*
X35252063Y-28052402D01*
X35252504Y-28050075D01*
X35251091Y-27891285D01*
X35249920Y-27885662D01*
X35250891Y-27880001D01*
X35247839Y-27764995D01*
X35244939Y-27752201D01*
X35246633Y-27739191D01*
X35241372Y-27660664D01*
X35233409Y-27631116D01*
X35234475Y-27600536D01*
X35226435Y-27551185D01*
X35200465Y-27481736D01*
X35185980Y-27409019D01*
X35174590Y-27381543D01*
X35159346Y-27358742D01*
X35151730Y-27332390D01*
X35103722Y-27272294D01*
X35102311Y-27268642D01*
X35093001Y-27258873D01*
X35090405Y-27255624D01*
X35035800Y-27173949D01*
X35016425Y-27161011D01*
X35007444Y-27148370D01*
X35001991Y-27144949D01*
X34995870Y-27137286D01*
X34980560Y-27124380D01*
X34947374Y-27106076D01*
X34930028Y-27087875D01*
X34865526Y-27059323D01*
X34842723Y-27045015D01*
X34828131Y-27035271D01*
X34826759Y-27034998D01*
X34795919Y-27015648D01*
X34789639Y-27013255D01*
X34774423Y-27010680D01*
X34761901Y-27003773D01*
X34732641Y-27000501D01*
X34701684Y-26986798D01*
X34663798Y-26978311D01*
X34657038Y-26978149D01*
X34650800Y-26975541D01*
X34567098Y-26958608D01*
X34565271Y-26958602D01*
X34563582Y-26957907D01*
X34444819Y-26934573D01*
X34443898Y-26934575D01*
X34443045Y-26934227D01*
X34299974Y-26906536D01*
X34299345Y-26906539D01*
X34298763Y-26906303D01*
X34142134Y-26876301D01*
X34141602Y-26876305D01*
X34141105Y-26876104D01*
X33981670Y-26845835D01*
X33981105Y-26845840D01*
X33980583Y-26845630D01*
X33855776Y-26822159D01*
X33837670Y-26777493D01*
X33833609Y-26771315D01*
X33832057Y-26764085D01*
X33762509Y-26603114D01*
X33758329Y-26597059D01*
X33756622Y-26589900D01*
X33741747Y-26557502D01*
X33788336Y-26488634D01*
X33888324Y-26341301D01*
X33907878Y-26312538D01*
X33908446Y-26311198D01*
X33909475Y-26310176D01*
X34025869Y-26137306D01*
X34027910Y-26132428D01*
X34031599Y-26128644D01*
X34117159Y-25997007D01*
X34121258Y-25986745D01*
X34128698Y-25978576D01*
X34186834Y-25882111D01*
X34194904Y-25859728D01*
X34209592Y-25841008D01*
X34243716Y-25773655D01*
X34258666Y-25720179D01*
X34284926Y-25671254D01*
X34298449Y-25626952D01*
X34299650Y-25614972D01*
X34304946Y-25604163D01*
X34308972Y-25540230D01*
X34310948Y-25533161D01*
X34309942Y-25524824D01*
X34311117Y-25506154D01*
X34318849Y-25481529D01*
X34316116Y-25450716D01*
X34323357Y-25378483D01*
X34319882Y-25366957D01*
X34320639Y-25354942D01*
X34316972Y-25327630D01*
X34301081Y-25281206D01*
X34296786Y-25232790D01*
X34265638Y-25173130D01*
X34245749Y-25108599D01*
X34245655Y-25108424D01*
X34239313Y-25100766D01*
X34236098Y-25091374D01*
X34203859Y-25054802D01*
X34181214Y-25011429D01*
X34152350Y-24975554D01*
X34135817Y-24961715D01*
X34124590Y-24943307D01*
X34060750Y-24873952D01*
X34055121Y-24869844D01*
X34051367Y-24863975D01*
X33959469Y-24768329D01*
X33956135Y-24766003D01*
X33953902Y-24762607D01*
X33840866Y-24647861D01*
X33838210Y-24646057D01*
X33836418Y-24643389D01*
X33709164Y-24516732D01*
X33707752Y-24515793D01*
X33706799Y-24514390D01*
X33692448Y-24500254D01*
X33690130Y-24498730D01*
X33688552Y-24496449D01*
X33528181Y-24341147D01*
X33521389Y-24336765D01*
X33516627Y-24330233D01*
X33392865Y-24216200D01*
X33379376Y-24207964D01*
X33369456Y-24195662D01*
X33279816Y-24120793D01*
X33246314Y-24102513D01*
X33219023Y-24075838D01*
X33161020Y-24038032D01*
X33046176Y-23991990D01*
X32986159Y-23967666D01*
X32954652Y-23951938D01*
X32945815Y-23951316D01*
X32931606Y-23945557D01*
X32906058Y-23940678D01*
X32805678Y-23941446D01*
X32705553Y-23934394D01*
X32681601Y-23942395D01*
X32656350Y-23942588D01*
X32563918Y-23981706D01*
X32468703Y-24013511D01*
X32431417Y-24034797D01*
X32419802Y-24044884D01*
X32405458Y-24050443D01*
X32328084Y-24099613D01*
X32324694Y-24102851D01*
X32320345Y-24104609D01*
X32210869Y-24176411D01*
X32208976Y-24178272D01*
X32206522Y-24179287D01*
X32072935Y-24268467D01*
X32071486Y-24269915D01*
X32069600Y-24270709D01*
X31919890Y-24372017D01*
X31919073Y-24372844D01*
X31918003Y-24373299D01*
X31883051Y-24397133D01*
X31882897Y-24397290D01*
X31882697Y-24397375D01*
X31682231Y-24534271D01*
X31642268Y-24516890D01*
X31634860Y-24515281D01*
X31628532Y-24511105D01*
X31482245Y-24451492D01*
X31474061Y-24449913D01*
X31466988Y-24445501D01*
X31445435Y-24437355D01*
X31438042Y-24400719D01*
X31406368Y-24234434D01*
X31404003Y-24221639D01*
X31403933Y-24221462D01*
X31403935Y-24221272D01*
X31371161Y-24044540D01*
X31370915Y-24043923D01*
X31370922Y-24043259D01*
X31340834Y-23882834D01*
X31340531Y-23882080D01*
X31340538Y-23881266D01*
X31315075Y-23747344D01*
X31314575Y-23746108D01*
X31314581Y-23744775D01*
X31295683Y-23647549D01*
X31294243Y-23644029D01*
X31294215Y-23640226D01*
X31283821Y-23589895D01*
X31280179Y-23581281D01*
X31279842Y-23571934D01*
X31279660Y-23571165D01*
X31272252Y-23554959D01*
X31270634Y-23537213D01*
X31264308Y-23515803D01*
X31239508Y-23468587D01*
X31237490Y-23456273D01*
X31209124Y-23410533D01*
X31200640Y-23393153D01*
X31186578Y-23359892D01*
X31182391Y-23355766D01*
X31159861Y-23309608D01*
X31147561Y-23293443D01*
X31123092Y-23271808D01*
X31105880Y-23244054D01*
X31030255Y-23189723D01*
X30960485Y-23128034D01*
X30929599Y-23117410D01*
X30903076Y-23098355D01*
X30877431Y-23086698D01*
X30797052Y-23067854D01*
X30719921Y-23038394D01*
X30673562Y-23030508D01*
X30641558Y-23031400D01*
X30634308Y-23029700D01*
X30633899Y-23029767D01*
X30607860Y-23022800D01*
X30533417Y-23017948D01*
X30519934Y-23019728D01*
X30506662Y-23016766D01*
X30396765Y-23014212D01*
X30391397Y-23015151D01*
X30386060Y-23014053D01*
X30233340Y-23013059D01*
X30231527Y-23013407D01*
X30229714Y-23013045D01*
X30026801Y-23012874D01*
X30026531Y-23012927D01*
X30026262Y-23012874D01*
X30000000Y-23012874D01*
X29999810Y-23012912D01*
X29999620Y-23012874D01*
X29790606Y-23012998D01*
X29789044Y-23013310D01*
X29787482Y-23013008D01*
X29629490Y-23013873D01*
X29624702Y-23014853D01*
X29619888Y-23013997D01*
X29505547Y-23016339D01*
X29493535Y-23018985D01*
X29481355Y-23017293D01*
X29403294Y-23021850D01*
X29374090Y-23029452D01*
X29343944Y-23028102D01*
X29294797Y-23035610D01*
X29224428Y-23061133D01*
X29150906Y-23075193D01*
X29123301Y-23086389D01*
X29100957Y-23101081D01*
X29075194Y-23108254D01*
X28997304Y-23169237D01*
X28914651Y-23223584D01*
X28899630Y-23245709D01*
X28878573Y-23262195D01*
X28865140Y-23277817D01*
X28863735Y-23280306D01*
X28861500Y-23282088D01*
X28833346Y-23333007D01*
X28825768Y-23340021D01*
X28819895Y-23352782D01*
X28813915Y-23358665D01*
X28798920Y-23394045D01*
X28774385Y-23430184D01*
X28771639Y-23443473D01*
X28742396Y-23495284D01*
X28742051Y-23498122D01*
X28740668Y-23500622D01*
X28734039Y-23521407D01*
X28731359Y-23545153D01*
X28721367Y-23566864D01*
X28720723Y-23569554D01*
X28720340Y-23579459D01*
X28716473Y-23588584D01*
X28706403Y-23637134D01*
X28706370Y-23641150D01*
X28704848Y-23644869D01*
X28686208Y-23740661D01*
X28686214Y-23742032D01*
X28685700Y-23743302D01*
X28660430Y-23876140D01*
X28660437Y-23876961D01*
X28660132Y-23877720D01*
X28630169Y-24037408D01*
X28630176Y-24038074D01*
X28629930Y-24038691D01*
X28597215Y-24215034D01*
X28597220Y-24215386D01*
X28597089Y-24215714D01*
X28596240Y-24220319D01*
X28564413Y-24388167D01*
X28554552Y-24437271D01*
X28541586Y-24442145D01*
X28534329Y-24446653D01*
X28525939Y-24448262D01*
X28379977Y-24507543D01*
X28373716Y-24511665D01*
X28366389Y-24513245D01*
X28317803Y-24534294D01*
X28117302Y-24397374D01*
X28116426Y-24397001D01*
X28115761Y-24396326D01*
X27963534Y-24293021D01*
X27961703Y-24292247D01*
X27960296Y-24290837D01*
X27822401Y-24198482D01*
X27820136Y-24197541D01*
X27818392Y-24195819D01*
X27702819Y-24119667D01*
X27699130Y-24118167D01*
X27696262Y-24115404D01*
X27610998Y-24060705D01*
X27601036Y-24056795D01*
X27593087Y-24049626D01*
X27546122Y-24021634D01*
X27537528Y-24018583D01*
X27532512Y-24014208D01*
X27509355Y-24006416D01*
X27488532Y-23991170D01*
X27484073Y-23989094D01*
X27389413Y-23966000D01*
X27310797Y-23938090D01*
X27306892Y-23938292D01*
X27295835Y-23934571D01*
X27268293Y-23936450D01*
X27241473Y-23929907D01*
X27144549Y-23944893D01*
X27046699Y-23951570D01*
X27012569Y-23960813D01*
X26999442Y-23967330D01*
X26994690Y-23968065D01*
X26980092Y-23976937D01*
X26913879Y-24009810D01*
X26812999Y-24054147D01*
X26749252Y-24098744D01*
X26727427Y-24121523D01*
X26699917Y-24136971D01*
X26604067Y-24219024D01*
X26595550Y-24229853D01*
X26583835Y-24237101D01*
X26453397Y-24358713D01*
X26449473Y-24364163D01*
X26443836Y-24367813D01*
X26310677Y-24497197D01*
X26308646Y-24500144D01*
X26305664Y-24502122D01*
X26177297Y-24629619D01*
X26175532Y-24632242D01*
X26172915Y-24634014D01*
X26058028Y-24750358D01*
X26055884Y-24753610D01*
X26052686Y-24755833D01*
X25958194Y-24853839D01*
X25954727Y-24859238D01*
X25949531Y-24863003D01*
X25882351Y-24935488D01*
X25872904Y-24950859D01*
X25858902Y-24962242D01*
X25825949Y-25002019D01*
X25802610Y-25045202D01*
X25769668Y-25081588D01*
X25768442Y-25083636D01*
X25766900Y-25087952D01*
X25763872Y-25091393D01*
X25740249Y-25160586D01*
X25707218Y-25221702D01*
X25702382Y-25268580D01*
X25684444Y-25318800D01*
X25684671Y-25323376D01*
X25683190Y-25327715D01*
X25679548Y-25355010D01*
X25680347Y-25367535D01*
X25676754Y-25379558D01*
X25683827Y-25448448D01*
X25681593Y-25470099D01*
X25688330Y-25492684D01*
X25690464Y-25526128D01*
X25689562Y-25533667D01*
X25691351Y-25540040D01*
X25695445Y-25604219D01*
X25700975Y-25615483D01*
X25702257Y-25627967D01*
X25715981Y-25672546D01*
X25742159Y-25721038D01*
X25757051Y-25774090D01*
X25791532Y-25841968D01*
X25806105Y-25860501D01*
X25814110Y-25882676D01*
X25872740Y-25979875D01*
X25880122Y-25987974D01*
X25884190Y-25998155D01*
X25970359Y-26130694D01*
X25974013Y-26134441D01*
X25976032Y-26139268D01*
X26090902Y-26309893D01*
X26091790Y-26310775D01*
X26092279Y-26311931D01*
X26193959Y-26461717D01*
X26258501Y-26557113D01*
X26240444Y-26596498D01*
X26238721Y-26603739D01*
X26234499Y-26609867D01*
X26165073Y-26770914D01*
X26163544Y-26778062D01*
X26159534Y-26784171D01*
X26144152Y-26822178D01*
X26111404Y-26828296D01*
X26110812Y-26828533D01*
X26110172Y-26828527D01*
X25954138Y-26857991D01*
X25953643Y-26858190D01*
X25953107Y-26858186D01*
X25793519Y-26888592D01*
X25792999Y-26888803D01*
X25792440Y-26888799D01*
X25640053Y-26918104D01*
X25639394Y-26918372D01*
X25638683Y-26918369D01*
X25504247Y-26944526D01*
X25503168Y-26944968D01*
X25501999Y-26944967D01*
X25396268Y-26965932D01*
X25393700Y-26966994D01*
X25390925Y-26967016D01*
X25324651Y-26980745D01*
X25315638Y-26984562D01*
X25305856Y-26984934D01*
X25289600Y-26988815D01*
X25261915Y-27001535D01*
X25259724Y-27001665D01*
X25225692Y-27018179D01*
X25207144Y-27026702D01*
X25121060Y-27055432D01*
X25104269Y-27065013D01*
X25082343Y-27084044D01*
X25062690Y-27093074D01*
X25055614Y-27100709D01*
X25035062Y-27110682D01*
X24979201Y-27173567D01*
X24915683Y-27228698D01*
X24899642Y-27260810D01*
X24884840Y-27274953D01*
X24880599Y-27284568D01*
X24869221Y-27297376D01*
X24856544Y-27319012D01*
X24833569Y-27385305D01*
X24832951Y-27386069D01*
X24830924Y-27392934D01*
X24824766Y-27410705D01*
X24804091Y-27452093D01*
X24803594Y-27459129D01*
X24784053Y-27503425D01*
X24774924Y-27544420D01*
X24773981Y-27585834D01*
X24762252Y-27625567D01*
X24756099Y-27693225D01*
X24757941Y-27710598D01*
X24753904Y-27727595D01*
X24750155Y-27829218D01*
X24751369Y-27836768D01*
X24749777Y-27844249D01*
X24747865Y-27987140D01*
X24748458Y-27990345D01*
X24747812Y-27993537D01*
X24747164Y-28184999D01*
X24747348Y-28185943D01*
X24747160Y-28186888D01*
X24747126Y-28265368D01*
X24747154Y-28265507D01*
X24747126Y-28265645D01*
X24747126Y-28903906D01*
X24759514Y-28966187D01*
X24759608Y-29029687D01*
X24783636Y-29087456D01*
X24795843Y-29148823D01*
X24831123Y-29201623D01*
X24855510Y-29260254D01*
X24899818Y-29304432D01*
X24934578Y-29356454D01*
X24987375Y-29391732D01*
X25032345Y-29436570D01*
X25090188Y-29460430D01*
X25142209Y-29495189D01*
X25204487Y-29507577D01*
X25263192Y-29531792D01*
X25416468Y-29562046D01*
X25418045Y-29562044D01*
X25419506Y-29562638D01*
X25504781Y-29579042D01*
X25506102Y-29579034D01*
X25507326Y-29579526D01*
X25634578Y-29603471D01*
X25635263Y-29603464D01*
X25635899Y-29603718D01*
X25789654Y-29632316D01*
X25790207Y-29632309D01*
X25790720Y-29632513D01*
X25955501Y-29662873D01*
X25955864Y-29662868D01*
X25956202Y-29663002D01*
X25998302Y-29670710D01*
X26102764Y-29691020D01*
X26129085Y-29763494D01*
X26134434Y-29772323D01*
X26136321Y-29782474D01*
X26199727Y-29941170D01*
X26205143Y-29949500D01*
X26207255Y-29959206D01*
X26228418Y-30007812D01*
X25750766Y-30710413D01*
X25725291Y-30770547D01*
X25688961Y-30824821D01*
X25677058Y-30884403D01*
X25653358Y-30940347D01*
X25652834Y-31005656D01*
X25640040Y-31069699D01*
X25651843Y-31129298D01*
X25651356Y-31190054D01*
X25675864Y-31250589D01*
X25688552Y-31314657D01*
X25722266Y-31365205D01*
X25745066Y-31421521D01*
X25790876Y-31468071D01*
X25827114Y-31522403D01*
X26263454Y-31959471D01*
X26265634Y-31960930D01*
X26267108Y-31963102D01*
X26399080Y-32093183D01*
X26403717Y-32096233D01*
X26406913Y-32100774D01*
X26527283Y-32215441D01*
X26533110Y-32219133D01*
X26537196Y-32224685D01*
X26639202Y-32317819D01*
X26648806Y-32323623D01*
X26655764Y-32332424D01*
X26732646Y-32397901D01*
X26758566Y-32412369D01*
X26779031Y-32433869D01*
X26824029Y-32465568D01*
X26853599Y-32478680D01*
X26822762Y-32481824D01*
X26757399Y-32476373D01*
X26711539Y-32491037D01*
X26661121Y-32494495D01*
X26651466Y-32499293D01*
X26640736Y-32500387D01*
X26625929Y-32508367D01*
X26592155Y-32503023D01*
X26541891Y-32482947D01*
X26505511Y-32483409D01*
X26469961Y-32473763D01*
X26468884Y-32473689D01*
X26434603Y-32478092D01*
X26400874Y-32472755D01*
X26348213Y-32485406D01*
X26292196Y-32486117D01*
X26258055Y-32500770D01*
X26221203Y-32505503D01*
X26189921Y-32523432D01*
X26169406Y-32528361D01*
X26131753Y-32510400D01*
X26069187Y-32494508D01*
X26001391Y-32490953D01*
X25935343Y-32475250D01*
X25864522Y-32472624D01*
X25806155Y-32482000D01*
X25747106Y-32479080D01*
X25591893Y-32502052D01*
X25507671Y-32532156D01*
X25420608Y-32552591D01*
X25336545Y-32590828D01*
X25326526Y-32598030D01*
X25280115Y-32569446D01*
X25159580Y-32524672D01*
X25070079Y-32510292D01*
X24982676Y-32486271D01*
X24842394Y-32476173D01*
X24759115Y-32486594D01*
X24675183Y-32486113D01*
X24543050Y-32511611D01*
X24479065Y-32537686D01*
X24454310Y-32539690D01*
X24441537Y-32546235D01*
X24408005Y-32553581D01*
X24373110Y-32568832D01*
X24332415Y-32597177D01*
X24287112Y-32569313D01*
X24157732Y-32521342D01*
X24052717Y-32504533D01*
X23948874Y-32481567D01*
X23807225Y-32478548D01*
X23715187Y-32494825D01*
X23621987Y-32501837D01*
X23484960Y-32539974D01*
X23397411Y-32584203D01*
X23306427Y-32620811D01*
X23190916Y-32696305D01*
X23121975Y-32763857D01*
X23047220Y-32824932D01*
X22991507Y-32892514D01*
X22939656Y-32989008D01*
X22883153Y-33082878D01*
X22839013Y-33205517D01*
X22824349Y-33303114D01*
X22801613Y-33399155D01*
X22798108Y-33496198D01*
X22803125Y-33527237D01*
X22798886Y-33558392D01*
X22806827Y-33688150D01*
X22812538Y-33709838D01*
X22791034Y-33817946D01*
X19777500Y-33817946D01*
X19777500Y-20642500D01*
X66357500Y-20642500D01*
X66357500Y-86222500D01*
X66357500Y-86222500D01*
G37*
X66357500Y-86222500D02*
X61843707Y-86222500D01*
X62097803Y-86117510D01*
X62491129Y-85724870D01*
X62704257Y-85211600D01*
X62704742Y-84655839D01*
X62492510Y-84142197D01*
X62099870Y-83748871D01*
X61586600Y-83535743D01*
X61030839Y-83535258D01*
X60517197Y-83747490D01*
X60123871Y-84140130D01*
X60044105Y-84332227D01*
X59989897Y-84201357D01*
X59747713Y-84131892D01*
X58947105Y-84932500D01*
X59747713Y-85733108D01*
X59989897Y-85663643D01*
X60040009Y-85523182D01*
X60122490Y-85722803D01*
X60515130Y-86116129D01*
X60771300Y-86222500D01*
X59335435Y-86222500D01*
X59498643Y-86154897D01*
X59568108Y-85912713D01*
X58767500Y-85112105D01*
X57966892Y-85912713D01*
X58036357Y-86154897D01*
X58225846Y-86222500D01*
X56763707Y-86222500D01*
X57017803Y-86117510D01*
X57411129Y-85724870D01*
X57490895Y-85532773D01*
X57545103Y-85663643D01*
X57787287Y-85733108D01*
X58587895Y-84932500D01*
X57787287Y-84131892D01*
X57545103Y-84201357D01*
X57494991Y-84341818D01*
X57412510Y-84142197D01*
X57222932Y-83952287D01*
X57966892Y-83952287D01*
X58767500Y-84752895D01*
X59568108Y-83952287D01*
X59498643Y-83710103D01*
X58975198Y-83523356D01*
X58420132Y-83551138D01*
X58036357Y-83710103D01*
X57966892Y-83952287D01*
X57222932Y-83952287D01*
X57019870Y-83748871D01*
X56506600Y-83535743D01*
X55950839Y-83535258D01*
X55437197Y-83747490D01*
X55043871Y-84140130D01*
X54957551Y-84348012D01*
X54872510Y-84142197D01*
X54479870Y-83748871D01*
X53966600Y-83535743D01*
X53410839Y-83535258D01*
X52897197Y-83747490D01*
X52503871Y-84140130D01*
X52417551Y-84348012D01*
X52332510Y-84142197D01*
X51939870Y-83748871D01*
X51426600Y-83535743D01*
X50870839Y-83535258D01*
X50357197Y-83747490D01*
X49963871Y-84140130D01*
X49884105Y-84332227D01*
X49829897Y-84201357D01*
X49587713Y-84131892D01*
X48787105Y-84932500D01*
X49587713Y-85733108D01*
X49829897Y-85663643D01*
X49880009Y-85523182D01*
X49962490Y-85722803D01*
X50355130Y-86116129D01*
X50611300Y-86222500D01*
X49175435Y-86222500D01*
X49338643Y-86154897D01*
X49408108Y-85912713D01*
X48607500Y-85112105D01*
X47806892Y-85912713D01*
X47876357Y-86154897D01*
X48065846Y-86222500D01*
X46603707Y-86222500D01*
X46857803Y-86117510D01*
X47251129Y-85724870D01*
X47330895Y-85532773D01*
X47385103Y-85663643D01*
X47627287Y-85733108D01*
X48427895Y-84932500D01*
X47627287Y-84131892D01*
X47385103Y-84201357D01*
X47334991Y-84341818D01*
X47252510Y-84142197D01*
X47062932Y-83952287D01*
X47806892Y-83952287D01*
X48607500Y-84752895D01*
X49408108Y-83952287D01*
X49338643Y-83710103D01*
X48815198Y-83523356D01*
X48260132Y-83551138D01*
X47876357Y-83710103D01*
X47806892Y-83952287D01*
X47062932Y-83952287D01*
X46859870Y-83748871D01*
X46346600Y-83535743D01*
X45790839Y-83535258D01*
X45277197Y-83747490D01*
X44883871Y-84140130D01*
X44797551Y-84348012D01*
X44712510Y-84142197D01*
X44319870Y-83748871D01*
X43806600Y-83535743D01*
X43250839Y-83535258D01*
X42737197Y-83747490D01*
X42343871Y-84140130D01*
X42257551Y-84348012D01*
X42172510Y-84142197D01*
X41779870Y-83748871D01*
X41266600Y-83535743D01*
X40710839Y-83535258D01*
X40197197Y-83747490D01*
X39803871Y-84140130D01*
X39717551Y-84348012D01*
X39632510Y-84142197D01*
X39239870Y-83748871D01*
X38726600Y-83535743D01*
X38170839Y-83535258D01*
X37657197Y-83747490D01*
X37263871Y-84140130D01*
X37177551Y-84348012D01*
X37092510Y-84142197D01*
X36699870Y-83748871D01*
X36186600Y-83535743D01*
X35630839Y-83535258D01*
X35117197Y-83747490D01*
X34723871Y-84140130D01*
X34637551Y-84348012D01*
X34552510Y-84142197D01*
X34159870Y-83748871D01*
X33646600Y-83535743D01*
X33090839Y-83535258D01*
X32577197Y-83747490D01*
X32183871Y-84140130D01*
X32097551Y-84348012D01*
X32012510Y-84142197D01*
X31619870Y-83748871D01*
X31106600Y-83535743D01*
X30550839Y-83535258D01*
X30037197Y-83747490D01*
X29643871Y-84140130D01*
X29564105Y-84332227D01*
X29509897Y-84201357D01*
X29267713Y-84131892D01*
X28467105Y-84932500D01*
X29267713Y-85733108D01*
X29509897Y-85663643D01*
X29560009Y-85523182D01*
X29642490Y-85722803D01*
X30035130Y-86116129D01*
X30291300Y-86222500D01*
X28855435Y-86222500D01*
X29018643Y-86154897D01*
X29088108Y-85912713D01*
X28287500Y-85112105D01*
X27486892Y-85912713D01*
X27556357Y-86154897D01*
X27745846Y-86222500D01*
X26283707Y-86222500D01*
X26537803Y-86117510D01*
X26931129Y-85724870D01*
X27010895Y-85532773D01*
X27065103Y-85663643D01*
X27307287Y-85733108D01*
X28107895Y-84932500D01*
X27307287Y-84131892D01*
X27065103Y-84201357D01*
X27014991Y-84341818D01*
X26932510Y-84142197D01*
X26742932Y-83952287D01*
X27486892Y-83952287D01*
X28287500Y-84752895D01*
X29088108Y-83952287D01*
X29018643Y-83710103D01*
X28495198Y-83523356D01*
X27940132Y-83551138D01*
X27556357Y-83710103D01*
X27486892Y-83952287D01*
X26742932Y-83952287D01*
X26539870Y-83748871D01*
X26026600Y-83535743D01*
X25470839Y-83535258D01*
X24957197Y-83747490D01*
X24563871Y-84140130D01*
X24350743Y-84653400D01*
X24350258Y-85209161D01*
X24562490Y-85722803D01*
X24955130Y-86116129D01*
X25211300Y-86222500D01*
X19777500Y-86222500D01*
X19777500Y-61252302D01*
X20265099Y-61739901D01*
X20499771Y-61896703D01*
X20498229Y-61899011D01*
X20384155Y-62472500D01*
X20498229Y-63045989D01*
X20823085Y-63532170D01*
X21137866Y-63742500D01*
X20823085Y-63952830D01*
X20498229Y-64439011D01*
X20384155Y-65012500D01*
X20498229Y-65585989D01*
X20823085Y-66072170D01*
X21309266Y-66397026D01*
X21882755Y-66511100D01*
X22252245Y-66511100D01*
X22825734Y-66397026D01*
X23311915Y-66072170D01*
X23636771Y-65585989D01*
X23750845Y-65012500D01*
X23636771Y-64439011D01*
X23311915Y-63952830D01*
X22997134Y-63742500D01*
X23311915Y-63532170D01*
X23636771Y-63045989D01*
X23750845Y-62472500D01*
X23649400Y-61962500D01*
X23887698Y-61962500D01*
X27490000Y-65564802D01*
X27490000Y-65795504D01*
X27325345Y-65863538D01*
X26865154Y-66322927D01*
X26615794Y-66923453D01*
X26615226Y-67573694D01*
X26863538Y-68174655D01*
X27322927Y-68634846D01*
X27923453Y-68884206D01*
X28573694Y-68884774D01*
X29174655Y-68636462D01*
X29634846Y-68177073D01*
X29875283Y-67598035D01*
X30113538Y-68174655D01*
X30572927Y-68634846D01*
X31173453Y-68884206D01*
X31823694Y-68884774D01*
X32424655Y-68636462D01*
X32884846Y-68177073D01*
X33134206Y-67576547D01*
X33134518Y-67218250D01*
X33432500Y-67218250D01*
X33432500Y-67858810D01*
X33529173Y-68092199D01*
X33707802Y-68270827D01*
X33941191Y-68367500D01*
X34781750Y-68367500D01*
X34940500Y-68208750D01*
X34940500Y-67059500D01*
X35194500Y-67059500D01*
X35194500Y-68208750D01*
X35353250Y-68367500D01*
X36193809Y-68367500D01*
X36427198Y-68270827D01*
X36605827Y-68092199D01*
X36702500Y-67858810D01*
X36702500Y-67218250D01*
X36543750Y-67059500D01*
X35194500Y-67059500D01*
X34940500Y-67059500D01*
X33591250Y-67059500D01*
X33432500Y-67218250D01*
X33134518Y-67218250D01*
X33134774Y-66926306D01*
X32886462Y-66325345D01*
X32567864Y-66006190D01*
X33432500Y-66006190D01*
X33432500Y-66646750D01*
X33591250Y-66805500D01*
X34940500Y-66805500D01*
X34940500Y-65656250D01*
X35194500Y-65656250D01*
X35194500Y-66805500D01*
X36543750Y-66805500D01*
X36702500Y-66646750D01*
X36702500Y-66006190D01*
X36605827Y-65772801D01*
X36427198Y-65594173D01*
X36193809Y-65497500D01*
X35353250Y-65497500D01*
X35194500Y-65656250D01*
X34940500Y-65656250D01*
X34781750Y-65497500D01*
X33941191Y-65497500D01*
X33707802Y-65594173D01*
X33529173Y-65772801D01*
X33432500Y-66006190D01*
X32567864Y-66006190D01*
X32427073Y-65865154D01*
X31826547Y-65615794D01*
X31176306Y-65615226D01*
X30575345Y-65863538D01*
X30115154Y-66322927D01*
X29874717Y-66901965D01*
X29636462Y-66325345D01*
X29177073Y-65865154D01*
X29010000Y-65795779D01*
X29010000Y-65250000D01*
X28952148Y-64959161D01*
X28952148Y-64959160D01*
X28787401Y-64712599D01*
X27893052Y-63818250D01*
X33132500Y-63818250D01*
X33132500Y-64158810D01*
X33229173Y-64392199D01*
X33407802Y-64570827D01*
X33641191Y-64667500D01*
X34281750Y-64667500D01*
X34440500Y-64508750D01*
X34440500Y-63659500D01*
X34694500Y-63659500D01*
X34694500Y-64508750D01*
X34853250Y-64667500D01*
X35493809Y-64667500D01*
X35727198Y-64570827D01*
X35905827Y-64392199D01*
X36002500Y-64158810D01*
X36002500Y-63818250D01*
X35843750Y-63659500D01*
X34694500Y-63659500D01*
X34440500Y-63659500D01*
X33291250Y-63659500D01*
X33132500Y-63818250D01*
X27893052Y-63818250D01*
X26980992Y-62906190D01*
X33132500Y-62906190D01*
X33132500Y-63246750D01*
X33291250Y-63405500D01*
X34440500Y-63405500D01*
X34440500Y-62556250D01*
X34694500Y-62556250D01*
X34694500Y-63405500D01*
X35843750Y-63405500D01*
X36002500Y-63246750D01*
X36002500Y-63032500D01*
X38120060Y-63032500D01*
X38120060Y-64032500D01*
X38164338Y-64267817D01*
X38303410Y-64483941D01*
X38515610Y-64628931D01*
X38767500Y-64679940D01*
X40367500Y-64679940D01*
X40602817Y-64635662D01*
X40818941Y-64496590D01*
X40963931Y-64284390D01*
X41014940Y-64032500D01*
X41014940Y-63032500D01*
X40970662Y-62797183D01*
X40831590Y-62581059D01*
X40619390Y-62436069D01*
X40367500Y-62385060D01*
X38767500Y-62385060D01*
X38532183Y-62429338D01*
X38316059Y-62568410D01*
X38171069Y-62780610D01*
X38120060Y-63032500D01*
X36002500Y-63032500D01*
X36002500Y-62906190D01*
X35905827Y-62672801D01*
X35727198Y-62494173D01*
X35493809Y-62397500D01*
X34853250Y-62397500D01*
X34694500Y-62556250D01*
X34440500Y-62556250D01*
X34281750Y-62397500D01*
X33641191Y-62397500D01*
X33407802Y-62494173D01*
X33229173Y-62672801D01*
X33132500Y-62906190D01*
X26980992Y-62906190D01*
X24739901Y-60665099D01*
X24493339Y-60500352D01*
X24202500Y-60442500D01*
X23607078Y-60442500D01*
X23672209Y-60307291D01*
X23674858Y-60291526D01*
X23553717Y-60059500D01*
X22194500Y-60059500D01*
X22194500Y-60079500D01*
X21940500Y-60079500D01*
X21940500Y-60059500D01*
X21920500Y-60059500D01*
X21920500Y-59805500D01*
X21940500Y-59805500D01*
X21940500Y-59785500D01*
X22194500Y-59785500D01*
X22194500Y-59805500D01*
X23553717Y-59805500D01*
X23674858Y-59573474D01*
X23672209Y-59557709D01*
X23568012Y-59341400D01*
X26615761Y-59341400D01*
X26615226Y-59953694D01*
X26863538Y-60554655D01*
X27322927Y-61014846D01*
X27923453Y-61264206D01*
X28573694Y-61264774D01*
X29174655Y-61016462D01*
X29634846Y-60557073D01*
X29704221Y-60390000D01*
X30045504Y-60390000D01*
X30113538Y-60554655D01*
X30572927Y-61014846D01*
X31173453Y-61264206D01*
X31823694Y-61264774D01*
X32424655Y-61016462D01*
X32884846Y-60557073D01*
X33120060Y-59990614D01*
X33120060Y-60832500D01*
X33164338Y-61067817D01*
X33303410Y-61283941D01*
X33515610Y-61428931D01*
X33767500Y-61479940D01*
X35367500Y-61479940D01*
X35602817Y-61435662D01*
X35818941Y-61296590D01*
X35963931Y-61084390D01*
X35973600Y-61036645D01*
X35983639Y-61034648D01*
X36230201Y-60869901D01*
X36832902Y-60267200D01*
X38120060Y-60267200D01*
X38120060Y-60832500D01*
X38164338Y-61067817D01*
X38303410Y-61283941D01*
X38515610Y-61428931D01*
X38767500Y-61479940D01*
X40314838Y-61479940D01*
X42904799Y-64069901D01*
X43151361Y-64234648D01*
X43158359Y-64236040D01*
X43164338Y-64267817D01*
X43303410Y-64483941D01*
X43515610Y-64628931D01*
X43767500Y-64679940D01*
X44932800Y-64679940D01*
X44932800Y-64867098D01*
X44530099Y-65269799D01*
X44386267Y-65485060D01*
X44067500Y-65485060D01*
X43832183Y-65529338D01*
X43616059Y-65668410D01*
X43471069Y-65880610D01*
X43420060Y-66132500D01*
X43420060Y-67732500D01*
X43464338Y-67967817D01*
X43603410Y-68183941D01*
X43759741Y-68290757D01*
X43219298Y-68831200D01*
X40915702Y-68831200D01*
X40374218Y-68289716D01*
X40518941Y-68196590D01*
X40663931Y-67984390D01*
X40714940Y-67732500D01*
X40714940Y-66132500D01*
X40670662Y-65897183D01*
X40531590Y-65681059D01*
X40319390Y-65536069D01*
X40067500Y-65485060D01*
X38067500Y-65485060D01*
X37832183Y-65529338D01*
X37616059Y-65668410D01*
X37471069Y-65880610D01*
X37420060Y-66132500D01*
X37420060Y-67732500D01*
X37464338Y-67967817D01*
X37603410Y-68183941D01*
X37815610Y-68328931D01*
X38067500Y-68379940D01*
X38386267Y-68379940D01*
X38530099Y-68595201D01*
X40063499Y-70128601D01*
X40310061Y-70293348D01*
X40600900Y-70351200D01*
X40749605Y-70351200D01*
X40615794Y-70673453D01*
X40615226Y-71323694D01*
X40863538Y-71924655D01*
X41322927Y-72384846D01*
X41923453Y-72634206D01*
X42573694Y-72634774D01*
X43174655Y-72386462D01*
X43634846Y-71927073D01*
X43884206Y-71326547D01*
X43884774Y-70676306D01*
X43734012Y-70311435D01*
X43824939Y-70293348D01*
X44071501Y-70128601D01*
X45067500Y-69132602D01*
X45172299Y-69237401D01*
X45418861Y-69402148D01*
X45709700Y-69460000D01*
X49316935Y-69460000D01*
X48945345Y-69613538D01*
X48485154Y-70072927D01*
X48235794Y-70673453D01*
X48235226Y-71323694D01*
X48483538Y-71924655D01*
X48942927Y-72384846D01*
X49543453Y-72634206D01*
X50193694Y-72634774D01*
X50794655Y-72386462D01*
X51254846Y-71927073D01*
X51504206Y-71326547D01*
X51504774Y-70676306D01*
X51256462Y-70075345D01*
X50797073Y-69615154D01*
X50423420Y-69460000D01*
X54165498Y-69460000D01*
X61611602Y-76906104D01*
X61490262Y-77198325D01*
X61489738Y-77799040D01*
X61719138Y-78354229D01*
X62114536Y-78750318D01*
X61720630Y-79143537D01*
X61490262Y-79698325D01*
X61489738Y-80299040D01*
X61719138Y-80854229D01*
X62143537Y-81279370D01*
X62698325Y-81509738D01*
X63299040Y-81510262D01*
X63854229Y-81280862D01*
X64279370Y-80856463D01*
X64509738Y-80301675D01*
X64510262Y-79700960D01*
X64280862Y-79145771D01*
X63885464Y-78749682D01*
X64279370Y-78356463D01*
X64509738Y-77801675D01*
X64510262Y-77200960D01*
X64499613Y-77175189D01*
X65887412Y-75787390D01*
X66052159Y-75540828D01*
X66110011Y-75249989D01*
X66110011Y-58113600D01*
X66052159Y-57822761D01*
X65887412Y-57576199D01*
X58106312Y-49795099D01*
X57859750Y-49630352D01*
X57568911Y-49572500D01*
X50954779Y-49572500D01*
X50831590Y-49381059D01*
X50619390Y-49236069D01*
X50367500Y-49185060D01*
X49202200Y-49185060D01*
X49202200Y-48885302D01*
X49604901Y-48482601D01*
X49673497Y-48379940D01*
X50067500Y-48379940D01*
X50302817Y-48335662D01*
X50518941Y-48196590D01*
X50663931Y-47984390D01*
X50714940Y-47732500D01*
X50714940Y-46132500D01*
X50670662Y-45897183D01*
X50531590Y-45681059D01*
X50319390Y-45536069D01*
X50067500Y-45485060D01*
X48067500Y-45485060D01*
X47832183Y-45529338D01*
X47616059Y-45668410D01*
X47471069Y-45880610D01*
X47420060Y-46132500D01*
X47420060Y-47732500D01*
X47440288Y-47840000D01*
X46702500Y-47840000D01*
X46702500Y-47218250D01*
X46543750Y-47059500D01*
X45194500Y-47059500D01*
X45194500Y-47079500D01*
X44940500Y-47079500D01*
X44940500Y-47059500D01*
X43591250Y-47059500D01*
X43432500Y-47218250D01*
X43432500Y-47840000D01*
X42099000Y-47840000D01*
X41808161Y-47897852D01*
X41561599Y-48062599D01*
X41417000Y-48207198D01*
X40730201Y-47520399D01*
X40714940Y-47510202D01*
X40714940Y-46132500D01*
X40691174Y-46006190D01*
X43432500Y-46006190D01*
X43432500Y-46646750D01*
X43591250Y-46805500D01*
X44940500Y-46805500D01*
X44940500Y-45656250D01*
X45194500Y-45656250D01*
X45194500Y-46805500D01*
X46543750Y-46805500D01*
X46702500Y-46646750D01*
X46702500Y-46006190D01*
X46605827Y-45772801D01*
X46427198Y-45594173D01*
X46193809Y-45497500D01*
X45353250Y-45497500D01*
X45194500Y-45656250D01*
X44940500Y-45656250D01*
X44781750Y-45497500D01*
X43941191Y-45497500D01*
X43707802Y-45594173D01*
X43529173Y-45772801D01*
X43432500Y-46006190D01*
X40691174Y-46006190D01*
X40670662Y-45897183D01*
X40531590Y-45681059D01*
X40319390Y-45536069D01*
X40067500Y-45485060D01*
X38067500Y-45485060D01*
X37832183Y-45529338D01*
X37616059Y-45668410D01*
X37471069Y-45880610D01*
X37420060Y-46132500D01*
X37420060Y-47732500D01*
X37464338Y-47967817D01*
X37603410Y-48183941D01*
X37815610Y-48328931D01*
X38067500Y-48379940D01*
X38386267Y-48379940D01*
X38530099Y-48595201D01*
X38776661Y-48759948D01*
X39067500Y-48817800D01*
X39877998Y-48817800D01*
X40245258Y-49185060D01*
X38767500Y-49185060D01*
X38532183Y-49229338D01*
X38316059Y-49368410D01*
X38171069Y-49580610D01*
X38120060Y-49832500D01*
X38120060Y-50832500D01*
X38140288Y-50940000D01*
X37375102Y-50940000D01*
X36230201Y-49795099D01*
X35983639Y-49630352D01*
X35976641Y-49628960D01*
X35970662Y-49597183D01*
X35831590Y-49381059D01*
X35619390Y-49236069D01*
X35367500Y-49185060D01*
X33767500Y-49185060D01*
X33532183Y-49229338D01*
X33316059Y-49368410D01*
X33171069Y-49580610D01*
X33120060Y-49832500D01*
X33120060Y-50832500D01*
X33164338Y-51067817D01*
X33303410Y-51283941D01*
X33515610Y-51428931D01*
X33767500Y-51479940D01*
X35367500Y-51479940D01*
X35602817Y-51435662D01*
X35674824Y-51389326D01*
X36522899Y-52237401D01*
X36769461Y-52402148D01*
X37060300Y-52460000D01*
X38484533Y-52460000D01*
X38316059Y-52568410D01*
X38171069Y-52780610D01*
X38120060Y-53032500D01*
X38120060Y-54032500D01*
X38164338Y-54267817D01*
X38303410Y-54483941D01*
X38515610Y-54628931D01*
X38767500Y-54679940D01*
X40367500Y-54679940D01*
X40602817Y-54635662D01*
X40818941Y-54496590D01*
X40963931Y-54284390D01*
X40973600Y-54236645D01*
X40983639Y-54234648D01*
X41230201Y-54069901D01*
X41394948Y-53823339D01*
X41395960Y-53818250D01*
X43132500Y-53818250D01*
X43132500Y-54158810D01*
X43229173Y-54392199D01*
X43407802Y-54570827D01*
X43641191Y-54667500D01*
X44281750Y-54667500D01*
X44440500Y-54508750D01*
X44440500Y-53659500D01*
X44694500Y-53659500D01*
X44694500Y-54508750D01*
X44853250Y-54667500D01*
X45493809Y-54667500D01*
X45727198Y-54570827D01*
X45905827Y-54392199D01*
X46002500Y-54158810D01*
X46002500Y-53818250D01*
X45843750Y-53659500D01*
X44694500Y-53659500D01*
X44440500Y-53659500D01*
X43291250Y-53659500D01*
X43132500Y-53818250D01*
X41395960Y-53818250D01*
X41452800Y-53532500D01*
X41452800Y-53396702D01*
X41943312Y-52906190D01*
X43132500Y-52906190D01*
X43132500Y-53246750D01*
X43291250Y-53405500D01*
X44440500Y-53405500D01*
X44440500Y-52556250D01*
X44694500Y-52556250D01*
X44694500Y-53405500D01*
X45843750Y-53405500D01*
X46002500Y-53246750D01*
X46002500Y-52906190D01*
X45905827Y-52672801D01*
X45727198Y-52494173D01*
X45493809Y-52397500D01*
X44853250Y-52397500D01*
X44694500Y-52556250D01*
X44440500Y-52556250D01*
X44281750Y-52397500D01*
X43641191Y-52397500D01*
X43407802Y-52494173D01*
X43229173Y-52672801D01*
X43132500Y-52906190D01*
X41943312Y-52906190D01*
X43459149Y-51390353D01*
X43515610Y-51428931D01*
X43767500Y-51479940D01*
X45367500Y-51479940D01*
X45602817Y-51435662D01*
X45818941Y-51296590D01*
X45963931Y-51084390D01*
X46014940Y-50832500D01*
X46014940Y-50289742D01*
X48262599Y-52537401D01*
X48313849Y-52571645D01*
X48171069Y-52780610D01*
X48120060Y-53032500D01*
X48120060Y-54032500D01*
X48164338Y-54267817D01*
X48303410Y-54483941D01*
X48515610Y-54628931D01*
X48767500Y-54679940D01*
X48857890Y-54679940D01*
X48897852Y-54880839D01*
X49062599Y-55127401D01*
X49140000Y-55204802D01*
X49140000Y-55590964D01*
X48886600Y-55485743D01*
X48330839Y-55485258D01*
X47817197Y-55697490D01*
X47423871Y-56090130D01*
X47337551Y-56298012D01*
X47252510Y-56092197D01*
X46859870Y-55698871D01*
X46346600Y-55485743D01*
X45790839Y-55485258D01*
X45277197Y-55697490D01*
X44883871Y-56090130D01*
X44797551Y-56298012D01*
X44712510Y-56092197D01*
X44319870Y-55698871D01*
X43806600Y-55485743D01*
X43250839Y-55485258D01*
X42737197Y-55697490D01*
X42343871Y-56090130D01*
X42264105Y-56282227D01*
X42209897Y-56151357D01*
X41967713Y-56081892D01*
X41167105Y-56882500D01*
X41967713Y-57683108D01*
X42209897Y-57613643D01*
X42260009Y-57473182D01*
X42342490Y-57672803D01*
X42735130Y-58066129D01*
X43248400Y-58279257D01*
X43804161Y-58279742D01*
X44158522Y-58133324D01*
X45210258Y-59185060D01*
X43767500Y-59185060D01*
X43532183Y-59229338D01*
X43460176Y-59275674D01*
X43154301Y-58969799D01*
X42907739Y-58805052D01*
X42616900Y-58747200D01*
X36518100Y-58747200D01*
X36275514Y-58795454D01*
X36227260Y-58805052D01*
X35980699Y-58969799D01*
X35675851Y-59274647D01*
X35619390Y-59236069D01*
X35367500Y-59185060D01*
X33767500Y-59185060D01*
X33532183Y-59229338D01*
X33316059Y-59368410D01*
X33171069Y-59580610D01*
X33134376Y-59761805D01*
X33134774Y-59306306D01*
X32886462Y-58705345D01*
X32427073Y-58245154D01*
X31826547Y-57995794D01*
X31689764Y-57995675D01*
X32011129Y-57674870D01*
X32097449Y-57466988D01*
X32182490Y-57672803D01*
X32575130Y-58066129D01*
X33088400Y-58279257D01*
X33644161Y-58279742D01*
X34157803Y-58067510D01*
X34551129Y-57674870D01*
X34637449Y-57466988D01*
X34722490Y-57672803D01*
X35115130Y-58066129D01*
X35628400Y-58279257D01*
X36184161Y-58279742D01*
X36697803Y-58067510D01*
X37091129Y-57674870D01*
X37177449Y-57466988D01*
X37262490Y-57672803D01*
X37655130Y-58066129D01*
X38168400Y-58279257D01*
X38724161Y-58279742D01*
X39237803Y-58067510D01*
X39442957Y-57862713D01*
X40186892Y-57862713D01*
X40256357Y-58104897D01*
X40779802Y-58291644D01*
X41334868Y-58263862D01*
X41718643Y-58104897D01*
X41788108Y-57862713D01*
X40987500Y-57062105D01*
X40186892Y-57862713D01*
X39442957Y-57862713D01*
X39631129Y-57674870D01*
X39710895Y-57482773D01*
X39765103Y-57613643D01*
X40007287Y-57683108D01*
X40807895Y-56882500D01*
X40007287Y-56081892D01*
X39765103Y-56151357D01*
X39714991Y-56291818D01*
X39632510Y-56092197D01*
X39442932Y-55902287D01*
X40186892Y-55902287D01*
X40987500Y-56702895D01*
X41788108Y-55902287D01*
X41718643Y-55660103D01*
X41195198Y-55473356D01*
X40640132Y-55501138D01*
X40256357Y-55660103D01*
X40186892Y-55902287D01*
X39442932Y-55902287D01*
X39239870Y-55698871D01*
X38726600Y-55485743D01*
X38170839Y-55485258D01*
X37657197Y-55697490D01*
X37263871Y-56090130D01*
X37177551Y-56298012D01*
X37092510Y-56092197D01*
X36699870Y-55698871D01*
X36186600Y-55485743D01*
X35630839Y-55485258D01*
X35117197Y-55697490D01*
X34723871Y-56090130D01*
X34637551Y-56298012D01*
X34552510Y-56092197D01*
X34159870Y-55698871D01*
X33646600Y-55485743D01*
X33090839Y-55485258D01*
X32577197Y-55697490D01*
X32183871Y-56090130D01*
X32097551Y-56298012D01*
X32012510Y-56092197D01*
X31619870Y-55698871D01*
X31106600Y-55485743D01*
X30550839Y-55485258D01*
X30037197Y-55697490D01*
X29643871Y-56090130D01*
X29557551Y-56298012D01*
X29472510Y-56092197D01*
X29079870Y-55698871D01*
X28566600Y-55485743D01*
X28010839Y-55485258D01*
X27497197Y-55697490D01*
X27103871Y-56090130D01*
X27017551Y-56298012D01*
X26932510Y-56092197D01*
X26539870Y-55698871D01*
X26026600Y-55485743D01*
X25470839Y-55485258D01*
X24957197Y-55697490D01*
X24563871Y-56090130D01*
X24350743Y-56603400D01*
X24350258Y-57159161D01*
X24562490Y-57672803D01*
X24710828Y-57821400D01*
X23730940Y-57821400D01*
X23730940Y-56528900D01*
X23686662Y-56293583D01*
X23547590Y-56077459D01*
X23335390Y-55932469D01*
X23083500Y-55881460D01*
X21793342Y-55881460D01*
X23856552Y-53818250D01*
X33132500Y-53818250D01*
X33132500Y-54158810D01*
X33229173Y-54392199D01*
X33407802Y-54570827D01*
X33641191Y-54667500D01*
X34281750Y-54667500D01*
X34440500Y-54508750D01*
X34440500Y-53659500D01*
X34694500Y-53659500D01*
X34694500Y-54508750D01*
X34853250Y-54667500D01*
X35493809Y-54667500D01*
X35727198Y-54570827D01*
X35905827Y-54392199D01*
X36002500Y-54158810D01*
X36002500Y-53818250D01*
X35843750Y-53659500D01*
X34694500Y-53659500D01*
X34440500Y-53659500D01*
X33291250Y-53659500D01*
X33132500Y-53818250D01*
X23856552Y-53818250D01*
X24768612Y-52906190D01*
X33132500Y-52906190D01*
X33132500Y-53246750D01*
X33291250Y-53405500D01*
X34440500Y-53405500D01*
X34440500Y-52556250D01*
X34694500Y-52556250D01*
X34694500Y-53405500D01*
X35843750Y-53405500D01*
X36002500Y-53246750D01*
X36002500Y-52906190D01*
X35905827Y-52672801D01*
X35727198Y-52494173D01*
X35493809Y-52397500D01*
X34853250Y-52397500D01*
X34694500Y-52556250D01*
X34440500Y-52556250D01*
X34281750Y-52397500D01*
X33641191Y-52397500D01*
X33407802Y-52494173D01*
X33229173Y-52672801D01*
X33132500Y-52906190D01*
X24768612Y-52906190D01*
X30456552Y-47218250D01*
X33432500Y-47218250D01*
X33432500Y-47858810D01*
X33529173Y-48092199D01*
X33707802Y-48270827D01*
X33941191Y-48367500D01*
X34781750Y-48367500D01*
X34940500Y-48208750D01*
X34940500Y-47059500D01*
X35194500Y-47059500D01*
X35194500Y-48208750D01*
X35353250Y-48367500D01*
X36193809Y-48367500D01*
X36427198Y-48270827D01*
X36605827Y-48092199D01*
X36702500Y-47858810D01*
X36702500Y-47218250D01*
X36543750Y-47059500D01*
X35194500Y-47059500D01*
X34940500Y-47059500D01*
X33591250Y-47059500D01*
X33432500Y-47218250D01*
X30456552Y-47218250D01*
X31668612Y-46006190D01*
X33432500Y-46006190D01*
X33432500Y-46646750D01*
X33591250Y-46805500D01*
X34940500Y-46805500D01*
X34940500Y-45656250D01*
X35194500Y-45656250D01*
X35194500Y-46805500D01*
X36543750Y-46805500D01*
X36702500Y-46646750D01*
X36702500Y-46006190D01*
X36605827Y-45772801D01*
X36427198Y-45594173D01*
X36193809Y-45497500D01*
X35353250Y-45497500D01*
X35194500Y-45656250D01*
X34940500Y-45656250D01*
X34781750Y-45497500D01*
X33941191Y-45497500D01*
X33707802Y-45594173D01*
X33529173Y-45772801D01*
X33432500Y-46006190D01*
X31668612Y-46006190D01*
X47918202Y-29756600D01*
X63332430Y-29756600D01*
X63361495Y-29826943D01*
X63722655Y-30188735D01*
X64194776Y-30384777D01*
X64705981Y-30385223D01*
X65178443Y-30190005D01*
X65540235Y-29828845D01*
X65736277Y-29356724D01*
X65736723Y-28845519D01*
X65541505Y-28373057D01*
X65180345Y-28011265D01*
X64708224Y-27815223D01*
X64197019Y-27814777D01*
X63724557Y-28009995D01*
X63497555Y-28236600D01*
X47603400Y-28236600D01*
X47312561Y-28294452D01*
X47065999Y-28459199D01*
X19777500Y-55747698D01*
X19777500Y-33817946D01*
X22791034Y-33817946D01*
X22791034Y-33943034D01*
X22796749Y-33971767D01*
X22793655Y-34000900D01*
X22801383Y-34086022D01*
X22829236Y-34180431D01*
X22849056Y-34276847D01*
X22879328Y-34348629D01*
X22925431Y-34416682D01*
X22961902Y-34490344D01*
X23025350Y-34572762D01*
X23041427Y-34586816D01*
X23052141Y-34605289D01*
X23061571Y-34615999D01*
X23073022Y-34624749D01*
X23080799Y-34636885D01*
X23151374Y-34710210D01*
X23211608Y-34752143D01*
X23264204Y-34803326D01*
X23324870Y-34842677D01*
X23425870Y-34882909D01*
X23524665Y-34928278D01*
X23600562Y-34946381D01*
X23645715Y-34948088D01*
X23689008Y-34961022D01*
X23751929Y-34966951D01*
X23777966Y-34964276D01*
X23803571Y-34969719D01*
X23916115Y-34971196D01*
X23992483Y-34957045D01*
X24070102Y-34954471D01*
X24150219Y-34935755D01*
X24231084Y-34899075D01*
X24315624Y-34871894D01*
X24365604Y-34844106D01*
X24403334Y-34812083D01*
X24447572Y-34789901D01*
X24526124Y-34728795D01*
X24572517Y-34675182D01*
X24589696Y-34661119D01*
X24601431Y-34682028D01*
X24612853Y-34691015D01*
X24615031Y-34694519D01*
X24616949Y-34698035D01*
X24617485Y-34698467D01*
X24620525Y-34703358D01*
X24640980Y-34725205D01*
X24727995Y-34787582D01*
X24811336Y-34854787D01*
X24841751Y-34870709D01*
X24858653Y-34875678D01*
X24872949Y-34885978D01*
X24874707Y-34886780D01*
X24883573Y-34888871D01*
X24891111Y-34893988D01*
X24949682Y-34918751D01*
X24979930Y-34924998D01*
X25007026Y-34939830D01*
X25036042Y-34948949D01*
X25082216Y-34953962D01*
X25125740Y-34970181D01*
X25187882Y-34967943D01*
X25194236Y-34969255D01*
X25204157Y-34967357D01*
X25205228Y-34967318D01*
X25284298Y-34975903D01*
X25328875Y-34962865D01*
X25375293Y-34961193D01*
X25399069Y-34950326D01*
X25419393Y-34952533D01*
X25449997Y-34965405D01*
X25527994Y-34965829D01*
X25544581Y-34969255D01*
X25555019Y-34967258D01*
X25634643Y-34975903D01*
X25666507Y-34966583D01*
X25699709Y-34966764D01*
X25712901Y-34961383D01*
X25762304Y-34973590D01*
X25842479Y-34977271D01*
X25916200Y-34966094D01*
X25990761Y-34966797D01*
X26135040Y-34939511D01*
X26222083Y-34904415D01*
X26295718Y-34882878D01*
X26320918Y-34899666D01*
X26376806Y-34922726D01*
X26382475Y-34923846D01*
X26387338Y-34926962D01*
X26504753Y-34947993D01*
X26621790Y-34971106D01*
X26627454Y-34969971D01*
X26633141Y-34970990D01*
X26709528Y-34969530D01*
X26741969Y-34962430D01*
X26775086Y-34964902D01*
X26802793Y-34961509D01*
X26883862Y-34952264D01*
X26919731Y-34949430D01*
X26933260Y-34950216D01*
X27004484Y-34957477D01*
X27033208Y-34961047D01*
X27047967Y-34959972D01*
X27062211Y-34963983D01*
X27149946Y-34970850D01*
X27253105Y-34958595D01*
X27356849Y-34953255D01*
X27415809Y-34938339D01*
X27423656Y-34934605D01*
X27432319Y-34933927D01*
X27536128Y-34881087D01*
X27568453Y-34865705D01*
X27574130Y-34868919D01*
X27675068Y-34902229D01*
X27773848Y-34941445D01*
X27913145Y-34967018D01*
X28023862Y-34965381D01*
X28134542Y-34968727D01*
X28274028Y-34945339D01*
X28364235Y-34911129D01*
X28457158Y-34885202D01*
X28540221Y-34843171D01*
X28597363Y-34798381D01*
X28661118Y-34763661D01*
X28748316Y-34690953D01*
X28771931Y-34661716D01*
X28813808Y-34704667D01*
X28827585Y-34727689D01*
X28852723Y-34746360D01*
X28901316Y-34799076D01*
X28909591Y-34802905D01*
X28915957Y-34809434D01*
X28939825Y-34825822D01*
X28986917Y-34846030D01*
X29028054Y-34876584D01*
X29043333Y-34883824D01*
X29067845Y-34889982D01*
X29089248Y-34903425D01*
X29154141Y-34928182D01*
X29202943Y-34936464D01*
X29248396Y-34956062D01*
X29286594Y-34964233D01*
X29341322Y-34965020D01*
X29394527Y-34977865D01*
X29464977Y-34966798D01*
X29536284Y-34967824D01*
X29587147Y-34947608D01*
X29596930Y-34946071D01*
X29625876Y-34959659D01*
X29669495Y-34961675D01*
X29712177Y-34974834D01*
X29713972Y-34975019D01*
X29756274Y-34971046D01*
X29797263Y-34977910D01*
X29834556Y-34969305D01*
X29875325Y-34971189D01*
X29910017Y-34958663D01*
X29966691Y-34971717D01*
X30068141Y-34974766D01*
X30120760Y-34965934D01*
X30174020Y-34969162D01*
X30278496Y-34954885D01*
X30340084Y-34933641D01*
X30404566Y-34924391D01*
X30468797Y-34901755D01*
X30494377Y-34910672D01*
X30498622Y-34911266D01*
X30502345Y-34913391D01*
X30567647Y-34935196D01*
X30582513Y-34937078D01*
X30595855Y-34943897D01*
X30631683Y-34954050D01*
X30680438Y-34957949D01*
X30725881Y-34973200D01*
X30737774Y-34972379D01*
X30749324Y-34975767D01*
X30750378Y-34975861D01*
X30815984Y-34968788D01*
X30880604Y-34973955D01*
X30925517Y-34959424D01*
X30975004Y-34956009D01*
X30986210Y-34950435D01*
X30998654Y-34949093D01*
X31058466Y-34916409D01*
X31107565Y-34900524D01*
X31136676Y-34910672D01*
X31140921Y-34911266D01*
X31144644Y-34913391D01*
X31209946Y-34935196D01*
X31224812Y-34937078D01*
X31238154Y-34943897D01*
X31273982Y-34954050D01*
X31332642Y-34958741D01*
X31388066Y-34975433D01*
X31389867Y-34975252D01*
X31391623Y-34975767D01*
X31392677Y-34975861D01*
X31458283Y-34968788D01*
X31522903Y-34973955D01*
X31577034Y-34956441D01*
X31636529Y-34950462D01*
X31638607Y-34949346D01*
X31640953Y-34949093D01*
X31700765Y-34916409D01*
X31760493Y-34897085D01*
X31802423Y-34861364D01*
X31856524Y-34832308D01*
X31858017Y-34830481D01*
X31860087Y-34829350D01*
X31903985Y-34774842D01*
X31927117Y-34755136D01*
X31950196Y-34770557D01*
X32044634Y-34837662D01*
X32168713Y-34893285D01*
X32168714Y-34893285D01*
X32168715Y-34893286D01*
X32292796Y-34948910D01*
X32413883Y-34976634D01*
X32535258Y-35004615D01*
X32535739Y-35004534D01*
X32536213Y-35004643D01*
X32658679Y-34983921D01*
X32781535Y-34963321D01*
X32781949Y-34963062D01*
X32782429Y-34962981D01*
X32857205Y-34916067D01*
X32910269Y-34936311D01*
X32910632Y-34936373D01*
X32910941Y-34936566D01*
X32987737Y-34965764D01*
X33107167Y-34985893D01*
X33226469Y-35007443D01*
X33230208Y-35006630D01*
X33233980Y-35007266D01*
X33352048Y-34980152D01*
X33470489Y-34954413D01*
X33473633Y-34952231D01*
X33477361Y-34951375D01*
X33529763Y-34914089D01*
X33639747Y-34948920D01*
X33748129Y-34960929D01*
X33855779Y-34978380D01*
X33998247Y-34973300D01*
X34109972Y-34946905D01*
X34222466Y-34924111D01*
X34358914Y-34867021D01*
X34409064Y-34833252D01*
X34419938Y-34828806D01*
X34476305Y-34859793D01*
X34561736Y-34886810D01*
X34601202Y-34904364D01*
X34605640Y-34913198D01*
X34640608Y-35002482D01*
X34661290Y-35023983D01*
X34674684Y-35050647D01*
X34701713Y-35085339D01*
X34702494Y-35086014D01*
X34702962Y-35086938D01*
X34797054Y-35167718D01*
X34811841Y-35180495D01*
X34813724Y-35182452D01*
X34814498Y-35182790D01*
X34890665Y-35248602D01*
X34891646Y-35248927D01*
X34892431Y-35249601D01*
X34944186Y-35278759D01*
X34964564Y-35285438D01*
X34981721Y-35298300D01*
X34993809Y-35304094D01*
X34993811Y-35304095D01*
X35051973Y-35332013D01*
X35075299Y-35337998D01*
X35095577Y-35350983D01*
X35140610Y-35368616D01*
X35243455Y-35386997D01*
X35344896Y-35412012D01*
X35378381Y-35413534D01*
X35385704Y-35412420D01*
X35386430Y-35412550D01*
X35390005Y-35411766D01*
X35494007Y-35395949D01*
X35610024Y-35381286D01*
X35617149Y-35377221D01*
X35625258Y-35375988D01*
X35705541Y-35327467D01*
X35727030Y-35321181D01*
X35755457Y-35298320D01*
X35826927Y-35257549D01*
X35850448Y-35237136D01*
X35881786Y-35196730D01*
X35921628Y-35164690D01*
X35957586Y-35098997D01*
X36003488Y-35039813D01*
X36016977Y-34990494D01*
X36027642Y-34971009D01*
X36047248Y-34973656D01*
X36154627Y-34966971D01*
X36262217Y-34966199D01*
X36420209Y-34933593D01*
X36471669Y-34911844D01*
X36474742Y-34911770D01*
X36488486Y-34905686D01*
X36550866Y-34891604D01*
X36594834Y-34872055D01*
X36638126Y-34841492D01*
X36650224Y-34836379D01*
X36654234Y-34832311D01*
X36703083Y-34810686D01*
X36788707Y-34750445D01*
X36833602Y-34703336D01*
X36886580Y-34665551D01*
X36961728Y-34585675D01*
X36986232Y-34546464D01*
X37019650Y-34514508D01*
X37026752Y-34504378D01*
X37036868Y-34481421D01*
X37053603Y-34462733D01*
X37082470Y-34413910D01*
X37101995Y-34358294D01*
X37132645Y-34307949D01*
X37151727Y-34255758D01*
X37160995Y-34196121D01*
X37182198Y-34139615D01*
X37193471Y-34070909D01*
X37192301Y-34036229D01*
X37200940Y-34002619D01*
X37206379Y-33904252D01*
X37204367Y-33890091D01*
X37207315Y-33876094D01*
X37208898Y-33734920D01*
X37208276Y-33731601D01*
X37208938Y-33728290D01*
X37208965Y-33696638D01*
X37208458Y-33694079D01*
X37208949Y-33691517D01*
X37208877Y-33681445D01*
X37208871Y-33681417D01*
X37208876Y-33681391D01*
X37207861Y-33541031D01*
X37205483Y-33529511D01*
X37207275Y-33517883D01*
X37202709Y-33412773D01*
X37195562Y-33383538D01*
X37197364Y-33353496D01*
X37187364Y-33280661D01*
X37168749Y-33226806D01*
X37162077Y-33170216D01*
X37144686Y-33116611D01*
X37113403Y-33060692D01*
X37093431Y-32999811D01*
X37066694Y-32952384D01*
X37050438Y-32933460D01*
X37040860Y-32910421D01*
X37034952Y-32901604D01*
X37010771Y-32877486D01*
X36994408Y-32847511D01*
X36895100Y-32728654D01*
X36818814Y-32667165D01*
X36748059Y-32599376D01*
X36639848Y-32530377D01*
X36532292Y-32488500D01*
X36426031Y-32443407D01*
X36294292Y-32416018D01*
X36238007Y-32415532D01*
X36183152Y-32402905D01*
X36138416Y-32401567D01*
X36082461Y-32410968D01*
X36025793Y-32408146D01*
X35858289Y-32432880D01*
X35757028Y-32469037D01*
X35653922Y-32499551D01*
X35549303Y-32554562D01*
X35531864Y-32542045D01*
X35393211Y-32479095D01*
X35294724Y-32456052D01*
X35198249Y-32425644D01*
X35037860Y-32408094D01*
X34963214Y-32414632D01*
X34888473Y-32409288D01*
X34748326Y-32426894D01*
X34646275Y-32460862D01*
X34542524Y-32489150D01*
X34430974Y-32544769D01*
X34413063Y-32558638D01*
X34398900Y-32551209D01*
X34308830Y-32496580D01*
X34173236Y-32447261D01*
X34070479Y-32431468D01*
X33969000Y-32408876D01*
X33830573Y-32405733D01*
X33732688Y-32422903D01*
X33633730Y-32432085D01*
X33502133Y-32471193D01*
X33416517Y-32516335D01*
X33327214Y-32553654D01*
X33314083Y-32562487D01*
X33287049Y-32542541D01*
X33153156Y-32479620D01*
X33160235Y-32475436D01*
X33197173Y-32442367D01*
X33240885Y-32418970D01*
X33308527Y-32363391D01*
X33317502Y-32352442D01*
X33329680Y-32345224D01*
X33424563Y-32260075D01*
X33429216Y-32253866D01*
X33435792Y-32249753D01*
X33551155Y-32141152D01*
X33554522Y-32136427D01*
X33559389Y-32133262D01*
X33688474Y-32007330D01*
X33690439Y-32004467D01*
X33693330Y-32002542D01*
X33735546Y-31960470D01*
X33736009Y-31959780D01*
X33736696Y-31959320D01*
X34173186Y-31522102D01*
X34209611Y-31467489D01*
X34255606Y-31420652D01*
X34278219Y-31364626D01*
X34311748Y-31314356D01*
X34324502Y-31249957D01*
X34349070Y-31189087D01*
X34348522Y-31128670D01*
X34360260Y-31069398D01*
X34347400Y-31005025D01*
X34346804Y-30939381D01*
X34323175Y-30883769D01*
X34311339Y-30824521D01*
X34274825Y-30769972D01*
X34249153Y-30709551D01*
X33917754Y-30223191D01*
X33819502Y-30077486D01*
X33770184Y-30002694D01*
X33819943Y-29888460D01*
X33821681Y-29880479D01*
X33826173Y-29873654D01*
X33881585Y-29737187D01*
X33883365Y-29727899D01*
X33888332Y-29719852D01*
X33899218Y-29690633D01*
X33941083Y-29682078D01*
X33999853Y-29671047D01*
X34163754Y-29640929D01*
X34164263Y-29640727D01*
X34164812Y-29640734D01*
X34323173Y-29611359D01*
X34323754Y-29611127D01*
X34324376Y-29611134D01*
X34460524Y-29585610D01*
X34461489Y-29585223D01*
X34462530Y-29585231D01*
X34560991Y-29566447D01*
X34562371Y-29565888D01*
X34563860Y-29565893D01*
X34582401Y-29562268D01*
X34582944Y-29562045D01*
X34583532Y-29562046D01*
X34736807Y-29531792D01*
X34795511Y-29507577D01*
X34857790Y-29495189D01*
X34909814Y-29460428D01*
X34967654Y-29436569D01*
X35012621Y-29391734D01*
X35065421Y-29356454D01*
X35100183Y-29304429D01*
X35144489Y-29260253D01*
X35168875Y-29201625D01*
X35204156Y-29148823D01*
X35216363Y-29087455D01*
X35240391Y-29029687D01*
X35240484Y-28966188D01*
X35252873Y-28903906D01*
X35252873Y-28265645D01*
X35252769Y-28265120D01*
X35252872Y-28264596D01*
X35252528Y-28054721D01*
X35252063Y-28052402D01*
X35252504Y-28050075D01*
X35251091Y-27891285D01*
X35249920Y-27885662D01*
X35250891Y-27880001D01*
X35247839Y-27764995D01*
X35244939Y-27752201D01*
X35246633Y-27739191D01*
X35241372Y-27660664D01*
X35233409Y-27631116D01*
X35234475Y-27600536D01*
X35226435Y-27551185D01*
X35200465Y-27481736D01*
X35185980Y-27409019D01*
X35174590Y-27381543D01*
X35159346Y-27358742D01*
X35151730Y-27332390D01*
X35103722Y-27272294D01*
X35102311Y-27268642D01*
X35093001Y-27258873D01*
X35090405Y-27255624D01*
X35035800Y-27173949D01*
X35016425Y-27161011D01*
X35007444Y-27148370D01*
X35001991Y-27144949D01*
X34995870Y-27137286D01*
X34980560Y-27124380D01*
X34947374Y-27106076D01*
X34930028Y-27087875D01*
X34865526Y-27059323D01*
X34842723Y-27045015D01*
X34828131Y-27035271D01*
X34826759Y-27034998D01*
X34795919Y-27015648D01*
X34789639Y-27013255D01*
X34774423Y-27010680D01*
X34761901Y-27003773D01*
X34732641Y-27000501D01*
X34701684Y-26986798D01*
X34663798Y-26978311D01*
X34657038Y-26978149D01*
X34650800Y-26975541D01*
X34567098Y-26958608D01*
X34565271Y-26958602D01*
X34563582Y-26957907D01*
X34444819Y-26934573D01*
X34443898Y-26934575D01*
X34443045Y-26934227D01*
X34299974Y-26906536D01*
X34299345Y-26906539D01*
X34298763Y-26906303D01*
X34142134Y-26876301D01*
X34141602Y-26876305D01*
X34141105Y-26876104D01*
X33981670Y-26845835D01*
X33981105Y-26845840D01*
X33980583Y-26845630D01*
X33855776Y-26822159D01*
X33837670Y-26777493D01*
X33833609Y-26771315D01*
X33832057Y-26764085D01*
X33762509Y-26603114D01*
X33758329Y-26597059D01*
X33756622Y-26589900D01*
X33741747Y-26557502D01*
X33788336Y-26488634D01*
X33888324Y-26341301D01*
X33907878Y-26312538D01*
X33908446Y-26311198D01*
X33909475Y-26310176D01*
X34025869Y-26137306D01*
X34027910Y-26132428D01*
X34031599Y-26128644D01*
X34117159Y-25997007D01*
X34121258Y-25986745D01*
X34128698Y-25978576D01*
X34186834Y-25882111D01*
X34194904Y-25859728D01*
X34209592Y-25841008D01*
X34243716Y-25773655D01*
X34258666Y-25720179D01*
X34284926Y-25671254D01*
X34298449Y-25626952D01*
X34299650Y-25614972D01*
X34304946Y-25604163D01*
X34308972Y-25540230D01*
X34310948Y-25533161D01*
X34309942Y-25524824D01*
X34311117Y-25506154D01*
X34318849Y-25481529D01*
X34316116Y-25450716D01*
X34323357Y-25378483D01*
X34319882Y-25366957D01*
X34320639Y-25354942D01*
X34316972Y-25327630D01*
X34301081Y-25281206D01*
X34296786Y-25232790D01*
X34265638Y-25173130D01*
X34245749Y-25108599D01*
X34245655Y-25108424D01*
X34239313Y-25100766D01*
X34236098Y-25091374D01*
X34203859Y-25054802D01*
X34181214Y-25011429D01*
X34152350Y-24975554D01*
X34135817Y-24961715D01*
X34124590Y-24943307D01*
X34060750Y-24873952D01*
X34055121Y-24869844D01*
X34051367Y-24863975D01*
X33959469Y-24768329D01*
X33956135Y-24766003D01*
X33953902Y-24762607D01*
X33840866Y-24647861D01*
X33838210Y-24646057D01*
X33836418Y-24643389D01*
X33709164Y-24516732D01*
X33707752Y-24515793D01*
X33706799Y-24514390D01*
X33692448Y-24500254D01*
X33690130Y-24498730D01*
X33688552Y-24496449D01*
X33528181Y-24341147D01*
X33521389Y-24336765D01*
X33516627Y-24330233D01*
X33392865Y-24216200D01*
X33379376Y-24207964D01*
X33369456Y-24195662D01*
X33279816Y-24120793D01*
X33246314Y-24102513D01*
X33219023Y-24075838D01*
X33161020Y-24038032D01*
X33046176Y-23991990D01*
X32986159Y-23967666D01*
X32954652Y-23951938D01*
X32945815Y-23951316D01*
X32931606Y-23945557D01*
X32906058Y-23940678D01*
X32805678Y-23941446D01*
X32705553Y-23934394D01*
X32681601Y-23942395D01*
X32656350Y-23942588D01*
X32563918Y-23981706D01*
X32468703Y-24013511D01*
X32431417Y-24034797D01*
X32419802Y-24044884D01*
X32405458Y-24050443D01*
X32328084Y-24099613D01*
X32324694Y-24102851D01*
X32320345Y-24104609D01*
X32210869Y-24176411D01*
X32208976Y-24178272D01*
X32206522Y-24179287D01*
X32072935Y-24268467D01*
X32071486Y-24269915D01*
X32069600Y-24270709D01*
X31919890Y-24372017D01*
X31919073Y-24372844D01*
X31918003Y-24373299D01*
X31883051Y-24397133D01*
X31882897Y-24397290D01*
X31882697Y-24397375D01*
X31682231Y-24534271D01*
X31642268Y-24516890D01*
X31634860Y-24515281D01*
X31628532Y-24511105D01*
X31482245Y-24451492D01*
X31474061Y-24449913D01*
X31466988Y-24445501D01*
X31445435Y-24437355D01*
X31438042Y-24400719D01*
X31406368Y-24234434D01*
X31404003Y-24221639D01*
X31403933Y-24221462D01*
X31403935Y-24221272D01*
X31371161Y-24044540D01*
X31370915Y-24043923D01*
X31370922Y-24043259D01*
X31340834Y-23882834D01*
X31340531Y-23882080D01*
X31340538Y-23881266D01*
X31315075Y-23747344D01*
X31314575Y-23746108D01*
X31314581Y-23744775D01*
X31295683Y-23647549D01*
X31294243Y-23644029D01*
X31294215Y-23640226D01*
X31283821Y-23589895D01*
X31280179Y-23581281D01*
X31279842Y-23571934D01*
X31279660Y-23571165D01*
X31272252Y-23554959D01*
X31270634Y-23537213D01*
X31264308Y-23515803D01*
X31239508Y-23468587D01*
X31237490Y-23456273D01*
X31209124Y-23410533D01*
X31200640Y-23393153D01*
X31186578Y-23359892D01*
X31182391Y-23355766D01*
X31159861Y-23309608D01*
X31147561Y-23293443D01*
X31123092Y-23271808D01*
X31105880Y-23244054D01*
X31030255Y-23189723D01*
X30960485Y-23128034D01*
X30929599Y-23117410D01*
X30903076Y-23098355D01*
X30877431Y-23086698D01*
X30797052Y-23067854D01*
X30719921Y-23038394D01*
X30673562Y-23030508D01*
X30641558Y-23031400D01*
X30634308Y-23029700D01*
X30633899Y-23029767D01*
X30607860Y-23022800D01*
X30533417Y-23017948D01*
X30519934Y-23019728D01*
X30506662Y-23016766D01*
X30396765Y-23014212D01*
X30391397Y-23015151D01*
X30386060Y-23014053D01*
X30233340Y-23013059D01*
X30231527Y-23013407D01*
X30229714Y-23013045D01*
X30026801Y-23012874D01*
X30026531Y-23012927D01*
X30026262Y-23012874D01*
X30000000Y-23012874D01*
X29999810Y-23012912D01*
X29999620Y-23012874D01*
X29790606Y-23012998D01*
X29789044Y-23013310D01*
X29787482Y-23013008D01*
X29629490Y-23013873D01*
X29624702Y-23014853D01*
X29619888Y-23013997D01*
X29505547Y-23016339D01*
X29493535Y-23018985D01*
X29481355Y-23017293D01*
X29403294Y-23021850D01*
X29374090Y-23029452D01*
X29343944Y-23028102D01*
X29294797Y-23035610D01*
X29224428Y-23061133D01*
X29150906Y-23075193D01*
X29123301Y-23086389D01*
X29100957Y-23101081D01*
X29075194Y-23108254D01*
X28997304Y-23169237D01*
X28914651Y-23223584D01*
X28899630Y-23245709D01*
X28878573Y-23262195D01*
X28865140Y-23277817D01*
X28863735Y-23280306D01*
X28861500Y-23282088D01*
X28833346Y-23333007D01*
X28825768Y-23340021D01*
X28819895Y-23352782D01*
X28813915Y-23358665D01*
X28798920Y-23394045D01*
X28774385Y-23430184D01*
X28771639Y-23443473D01*
X28742396Y-23495284D01*
X28742051Y-23498122D01*
X28740668Y-23500622D01*
X28734039Y-23521407D01*
X28731359Y-23545153D01*
X28721367Y-23566864D01*
X28720723Y-23569554D01*
X28720340Y-23579459D01*
X28716473Y-23588584D01*
X28706403Y-23637134D01*
X28706370Y-23641150D01*
X28704848Y-23644869D01*
X28686208Y-23740661D01*
X28686214Y-23742032D01*
X28685700Y-23743302D01*
X28660430Y-23876140D01*
X28660437Y-23876961D01*
X28660132Y-23877720D01*
X28630169Y-24037408D01*
X28630176Y-24038074D01*
X28629930Y-24038691D01*
X28597215Y-24215034D01*
X28597220Y-24215386D01*
X28597089Y-24215714D01*
X28596240Y-24220319D01*
X28564413Y-24388167D01*
X28554552Y-24437271D01*
X28541586Y-24442145D01*
X28534329Y-24446653D01*
X28525939Y-24448262D01*
X28379977Y-24507543D01*
X28373716Y-24511665D01*
X28366389Y-24513245D01*
X28317803Y-24534294D01*
X28117302Y-24397374D01*
X28116426Y-24397001D01*
X28115761Y-24396326D01*
X27963534Y-24293021D01*
X27961703Y-24292247D01*
X27960296Y-24290837D01*
X27822401Y-24198482D01*
X27820136Y-24197541D01*
X27818392Y-24195819D01*
X27702819Y-24119667D01*
X27699130Y-24118167D01*
X27696262Y-24115404D01*
X27610998Y-24060705D01*
X27601036Y-24056795D01*
X27593087Y-24049626D01*
X27546122Y-24021634D01*
X27537528Y-24018583D01*
X27532512Y-24014208D01*
X27509355Y-24006416D01*
X27488532Y-23991170D01*
X27484073Y-23989094D01*
X27389413Y-23966000D01*
X27310797Y-23938090D01*
X27306892Y-23938292D01*
X27295835Y-23934571D01*
X27268293Y-23936450D01*
X27241473Y-23929907D01*
X27144549Y-23944893D01*
X27046699Y-23951570D01*
X27012569Y-23960813D01*
X26999442Y-23967330D01*
X26994690Y-23968065D01*
X26980092Y-23976937D01*
X26913879Y-24009810D01*
X26812999Y-24054147D01*
X26749252Y-24098744D01*
X26727427Y-24121523D01*
X26699917Y-24136971D01*
X26604067Y-24219024D01*
X26595550Y-24229853D01*
X26583835Y-24237101D01*
X26453397Y-24358713D01*
X26449473Y-24364163D01*
X26443836Y-24367813D01*
X26310677Y-24497197D01*
X26308646Y-24500144D01*
X26305664Y-24502122D01*
X26177297Y-24629619D01*
X26175532Y-24632242D01*
X26172915Y-24634014D01*
X26058028Y-24750358D01*
X26055884Y-24753610D01*
X26052686Y-24755833D01*
X25958194Y-24853839D01*
X25954727Y-24859238D01*
X25949531Y-24863003D01*
X25882351Y-24935488D01*
X25872904Y-24950859D01*
X25858902Y-24962242D01*
X25825949Y-25002019D01*
X25802610Y-25045202D01*
X25769668Y-25081588D01*
X25768442Y-25083636D01*
X25766900Y-25087952D01*
X25763872Y-25091393D01*
X25740249Y-25160586D01*
X25707218Y-25221702D01*
X25702382Y-25268580D01*
X25684444Y-25318800D01*
X25684671Y-25323376D01*
X25683190Y-25327715D01*
X25679548Y-25355010D01*
X25680347Y-25367535D01*
X25676754Y-25379558D01*
X25683827Y-25448448D01*
X25681593Y-25470099D01*
X25688330Y-25492684D01*
X25690464Y-25526128D01*
X25689562Y-25533667D01*
X25691351Y-25540040D01*
X25695445Y-25604219D01*
X25700975Y-25615483D01*
X25702257Y-25627967D01*
X25715981Y-25672546D01*
X25742159Y-25721038D01*
X25757051Y-25774090D01*
X25791532Y-25841968D01*
X25806105Y-25860501D01*
X25814110Y-25882676D01*
X25872740Y-25979875D01*
X25880122Y-25987974D01*
X25884190Y-25998155D01*
X25970359Y-26130694D01*
X25974013Y-26134441D01*
X25976032Y-26139268D01*
X26090902Y-26309893D01*
X26091790Y-26310775D01*
X26092279Y-26311931D01*
X26193959Y-26461717D01*
X26258501Y-26557113D01*
X26240444Y-26596498D01*
X26238721Y-26603739D01*
X26234499Y-26609867D01*
X26165073Y-26770914D01*
X26163544Y-26778062D01*
X26159534Y-26784171D01*
X26144152Y-26822178D01*
X26111404Y-26828296D01*
X26110812Y-26828533D01*
X26110172Y-26828527D01*
X25954138Y-26857991D01*
X25953643Y-26858190D01*
X25953107Y-26858186D01*
X25793519Y-26888592D01*
X25792999Y-26888803D01*
X25792440Y-26888799D01*
X25640053Y-26918104D01*
X25639394Y-26918372D01*
X25638683Y-26918369D01*
X25504247Y-26944526D01*
X25503168Y-26944968D01*
X25501999Y-26944967D01*
X25396268Y-26965932D01*
X25393700Y-26966994D01*
X25390925Y-26967016D01*
X25324651Y-26980745D01*
X25315638Y-26984562D01*
X25305856Y-26984934D01*
X25289600Y-26988815D01*
X25261915Y-27001535D01*
X25259724Y-27001665D01*
X25225692Y-27018179D01*
X25207144Y-27026702D01*
X25121060Y-27055432D01*
X25104269Y-27065013D01*
X25082343Y-27084044D01*
X25062690Y-27093074D01*
X25055614Y-27100709D01*
X25035062Y-27110682D01*
X24979201Y-27173567D01*
X24915683Y-27228698D01*
X24899642Y-27260810D01*
X24884840Y-27274953D01*
X24880599Y-27284568D01*
X24869221Y-27297376D01*
X24856544Y-27319012D01*
X24833569Y-27385305D01*
X24832951Y-27386069D01*
X24830924Y-27392934D01*
X24824766Y-27410705D01*
X24804091Y-27452093D01*
X24803594Y-27459129D01*
X24784053Y-27503425D01*
X24774924Y-27544420D01*
X24773981Y-27585834D01*
X24762252Y-27625567D01*
X24756099Y-27693225D01*
X24757941Y-27710598D01*
X24753904Y-27727595D01*
X24750155Y-27829218D01*
X24751369Y-27836768D01*
X24749777Y-27844249D01*
X24747865Y-27987140D01*
X24748458Y-27990345D01*
X24747812Y-27993537D01*
X24747164Y-28184999D01*
X24747348Y-28185943D01*
X24747160Y-28186888D01*
X24747126Y-28265368D01*
X24747154Y-28265507D01*
X24747126Y-28265645D01*
X24747126Y-28903906D01*
X24759514Y-28966187D01*
X24759608Y-29029687D01*
X24783636Y-29087456D01*
X24795843Y-29148823D01*
X24831123Y-29201623D01*
X24855510Y-29260254D01*
X24899818Y-29304432D01*
X24934578Y-29356454D01*
X24987375Y-29391732D01*
X25032345Y-29436570D01*
X25090188Y-29460430D01*
X25142209Y-29495189D01*
X25204487Y-29507577D01*
X25263192Y-29531792D01*
X25416468Y-29562046D01*
X25418045Y-29562044D01*
X25419506Y-29562638D01*
X25504781Y-29579042D01*
X25506102Y-29579034D01*
X25507326Y-29579526D01*
X25634578Y-29603471D01*
X25635263Y-29603464D01*
X25635899Y-29603718D01*
X25789654Y-29632316D01*
X25790207Y-29632309D01*
X25790720Y-29632513D01*
X25955501Y-29662873D01*
X25955864Y-29662868D01*
X25956202Y-29663002D01*
X25998302Y-29670710D01*
X26102764Y-29691020D01*
X26129085Y-29763494D01*
X26134434Y-29772323D01*
X26136321Y-29782474D01*
X26199727Y-29941170D01*
X26205143Y-29949500D01*
X26207255Y-29959206D01*
X26228418Y-30007812D01*
X25750766Y-30710413D01*
X25725291Y-30770547D01*
X25688961Y-30824821D01*
X25677058Y-30884403D01*
X25653358Y-30940347D01*
X25652834Y-31005656D01*
X25640040Y-31069699D01*
X25651843Y-31129298D01*
X25651356Y-31190054D01*
X25675864Y-31250589D01*
X25688552Y-31314657D01*
X25722266Y-31365205D01*
X25745066Y-31421521D01*
X25790876Y-31468071D01*
X25827114Y-31522403D01*
X26263454Y-31959471D01*
X26265634Y-31960930D01*
X26267108Y-31963102D01*
X26399080Y-32093183D01*
X26403717Y-32096233D01*
X26406913Y-32100774D01*
X26527283Y-32215441D01*
X26533110Y-32219133D01*
X26537196Y-32224685D01*
X26639202Y-32317819D01*
X26648806Y-32323623D01*
X26655764Y-32332424D01*
X26732646Y-32397901D01*
X26758566Y-32412369D01*
X26779031Y-32433869D01*
X26824029Y-32465568D01*
X26853599Y-32478680D01*
X26822762Y-32481824D01*
X26757399Y-32476373D01*
X26711539Y-32491037D01*
X26661121Y-32494495D01*
X26651466Y-32499293D01*
X26640736Y-32500387D01*
X26625929Y-32508367D01*
X26592155Y-32503023D01*
X26541891Y-32482947D01*
X26505511Y-32483409D01*
X26469961Y-32473763D01*
X26468884Y-32473689D01*
X26434603Y-32478092D01*
X26400874Y-32472755D01*
X26348213Y-32485406D01*
X26292196Y-32486117D01*
X26258055Y-32500770D01*
X26221203Y-32505503D01*
X26189921Y-32523432D01*
X26169406Y-32528361D01*
X26131753Y-32510400D01*
X26069187Y-32494508D01*
X26001391Y-32490953D01*
X25935343Y-32475250D01*
X25864522Y-32472624D01*
X25806155Y-32482000D01*
X25747106Y-32479080D01*
X25591893Y-32502052D01*
X25507671Y-32532156D01*
X25420608Y-32552591D01*
X25336545Y-32590828D01*
X25326526Y-32598030D01*
X25280115Y-32569446D01*
X25159580Y-32524672D01*
X25070079Y-32510292D01*
X24982676Y-32486271D01*
X24842394Y-32476173D01*
X24759115Y-32486594D01*
X24675183Y-32486113D01*
X24543050Y-32511611D01*
X24479065Y-32537686D01*
X24454310Y-32539690D01*
X24441537Y-32546235D01*
X24408005Y-32553581D01*
X24373110Y-32568832D01*
X24332415Y-32597177D01*
X24287112Y-32569313D01*
X24157732Y-32521342D01*
X24052717Y-32504533D01*
X23948874Y-32481567D01*
X23807225Y-32478548D01*
X23715187Y-32494825D01*
X23621987Y-32501837D01*
X23484960Y-32539974D01*
X23397411Y-32584203D01*
X23306427Y-32620811D01*
X23190916Y-32696305D01*
X23121975Y-32763857D01*
X23047220Y-32824932D01*
X22991507Y-32892514D01*
X22939656Y-32989008D01*
X22883153Y-33082878D01*
X22839013Y-33205517D01*
X22824349Y-33303114D01*
X22801613Y-33399155D01*
X22798108Y-33496198D01*
X22803125Y-33527237D01*
X22798886Y-33558392D01*
X22806827Y-33688150D01*
X22812538Y-33709838D01*
X22791034Y-33817946D01*
X19777500Y-33817946D01*
X19777500Y-20642500D01*
X66357500Y-20642500D01*
X66357500Y-86222500D01*
G36*
X64590011Y-58428402D02*
X64590011Y-74935187D01*
X64511991Y-75013207D01*
X64495579Y-74634542D01*
X64315953Y-74200884D01*
X64062060Y-74117545D01*
X63179605Y-75000000D01*
X63193748Y-75014143D01*
X63014143Y-75193748D01*
X63000000Y-75179605D01*
X62985858Y-75193748D01*
X62806253Y-75014143D01*
X62820395Y-75000000D01*
X61937940Y-74117545D01*
X61684047Y-74200884D01*
X61516329Y-74661227D01*
X55017701Y-68162599D01*
X54771139Y-67997852D01*
X54480300Y-67940000D01*
X50668870Y-67940000D01*
X50702500Y-67858810D01*
X50702500Y-67218250D01*
X50543750Y-67059500D01*
X49194500Y-67059500D01*
X49194500Y-67079500D01*
X48940500Y-67079500D01*
X48940500Y-67059500D01*
X47591250Y-67059500D01*
X47432500Y-67218250D01*
X47432500Y-67858810D01*
X47466130Y-67940000D01*
X46672920Y-67940000D01*
X46714940Y-67732500D01*
X46714940Y-66132500D01*
X46670662Y-65897183D01*
X46531590Y-65681059D01*
X46342213Y-65551663D01*
X46394948Y-65472739D01*
X46452800Y-65181900D01*
X46452800Y-64022736D01*
X46462599Y-64037401D01*
X47928114Y-65502916D01*
X47707802Y-65594173D01*
X47529173Y-65772801D01*
X47432500Y-66006190D01*
X47432500Y-66646750D01*
X47591250Y-66805500D01*
X48940500Y-66805500D01*
X48940500Y-66785500D01*
X49194500Y-66785500D01*
X49194500Y-66805500D01*
X50543750Y-66805500D01*
X50702500Y-66646750D01*
X50702500Y-66160000D01*
X56884898Y-66160000D01*
X61262299Y-70537401D01*
X61477560Y-70681234D01*
X61477560Y-70875000D01*
X61521838Y-71110317D01*
X61660910Y-71326441D01*
X61873110Y-71471431D01*
X61889676Y-71474786D01*
X61720630Y-71643537D01*
X61490262Y-72198325D01*
X61489738Y-72799040D01*
X61719138Y-73354229D01*
X62143537Y-73779370D01*
X62166469Y-73788892D01*
X62117545Y-73937940D01*
X63000000Y-74820395D01*
X63882455Y-73937940D01*
X63833682Y-73789352D01*
X63854229Y-73780862D01*
X64279370Y-73356463D01*
X64509738Y-72801675D01*
X64510262Y-72200960D01*
X64280862Y-71645771D01*
X64112283Y-71476897D01*
X64326441Y-71339090D01*
X64471431Y-71126890D01*
X64522440Y-70875000D01*
X64522440Y-69125000D01*
X64478162Y-68889683D01*
X64339090Y-68673559D01*
X64126890Y-68528569D01*
X63875000Y-68477560D01*
X62125000Y-68477560D01*
X61889683Y-68521838D01*
X61673559Y-68660910D01*
X61617483Y-68742981D01*
X58271521Y-65397019D01*
X58526661Y-65397242D01*
X59040303Y-65185010D01*
X59433629Y-64792370D01*
X59519949Y-64584488D01*
X59604990Y-64790303D01*
X59997630Y-65183629D01*
X60510900Y-65396757D01*
X61066661Y-65397242D01*
X61580303Y-65185010D01*
X61973629Y-64792370D01*
X62186757Y-64279100D01*
X62187242Y-63723339D01*
X61975010Y-63209697D01*
X61582370Y-62816371D01*
X61069100Y-62603243D01*
X60513339Y-62602758D01*
X59999697Y-62814990D01*
X59606371Y-63207630D01*
X59520051Y-63415512D01*
X59435010Y-63209697D01*
X59042370Y-62816371D01*
X58700000Y-62674207D01*
X58700000Y-60564802D01*
X59115597Y-60149205D01*
X59115226Y-60573694D01*
X59363538Y-61174655D01*
X59822927Y-61634846D01*
X60423453Y-61884206D01*
X61073694Y-61884774D01*
X61674655Y-61636462D01*
X62134846Y-61177073D01*
X62384206Y-60576547D01*
X62384774Y-59926306D01*
X62136462Y-59325345D01*
X61677073Y-58865154D01*
X61076547Y-58615794D01*
X60649381Y-58615421D01*
X60998119Y-58266683D01*
X61028400Y-58279257D01*
X61584161Y-58279742D01*
X62097803Y-58067510D01*
X62491129Y-57674870D01*
X62704257Y-57161600D01*
X62704742Y-56605839D01*
X62660589Y-56498980D01*
X64590011Y-58428402D01*
X64590011Y-58428402D01*
G37*
X64590011Y-58428402D02*
X64590011Y-74935187D01*
X64511991Y-75013207D01*
X64495579Y-74634542D01*
X64315953Y-74200884D01*
X64062060Y-74117545D01*
X63179605Y-75000000D01*
X63193748Y-75014143D01*
X63014143Y-75193748D01*
X63000000Y-75179605D01*
X62985858Y-75193748D01*
X62806253Y-75014143D01*
X62820395Y-75000000D01*
X61937940Y-74117545D01*
X61684047Y-74200884D01*
X61516329Y-74661227D01*
X55017701Y-68162599D01*
X54771139Y-67997852D01*
X54480300Y-67940000D01*
X50668870Y-67940000D01*
X50702500Y-67858810D01*
X50702500Y-67218250D01*
X50543750Y-67059500D01*
X49194500Y-67059500D01*
X49194500Y-67079500D01*
X48940500Y-67079500D01*
X48940500Y-67059500D01*
X47591250Y-67059500D01*
X47432500Y-67218250D01*
X47432500Y-67858810D01*
X47466130Y-67940000D01*
X46672920Y-67940000D01*
X46714940Y-67732500D01*
X46714940Y-66132500D01*
X46670662Y-65897183D01*
X46531590Y-65681059D01*
X46342213Y-65551663D01*
X46394948Y-65472739D01*
X46452800Y-65181900D01*
X46452800Y-64022736D01*
X46462599Y-64037401D01*
X47928114Y-65502916D01*
X47707802Y-65594173D01*
X47529173Y-65772801D01*
X47432500Y-66006190D01*
X47432500Y-66646750D01*
X47591250Y-66805500D01*
X48940500Y-66805500D01*
X48940500Y-66785500D01*
X49194500Y-66785500D01*
X49194500Y-66805500D01*
X50543750Y-66805500D01*
X50702500Y-66646750D01*
X50702500Y-66160000D01*
X56884898Y-66160000D01*
X61262299Y-70537401D01*
X61477560Y-70681234D01*
X61477560Y-70875000D01*
X61521838Y-71110317D01*
X61660910Y-71326441D01*
X61873110Y-71471431D01*
X61889676Y-71474786D01*
X61720630Y-71643537D01*
X61490262Y-72198325D01*
X61489738Y-72799040D01*
X61719138Y-73354229D01*
X62143537Y-73779370D01*
X62166469Y-73788892D01*
X62117545Y-73937940D01*
X63000000Y-74820395D01*
X63882455Y-73937940D01*
X63833682Y-73789352D01*
X63854229Y-73780862D01*
X64279370Y-73356463D01*
X64509738Y-72801675D01*
X64510262Y-72200960D01*
X64280862Y-71645771D01*
X64112283Y-71476897D01*
X64326441Y-71339090D01*
X64471431Y-71126890D01*
X64522440Y-70875000D01*
X64522440Y-69125000D01*
X64478162Y-68889683D01*
X64339090Y-68673559D01*
X64126890Y-68528569D01*
X63875000Y-68477560D01*
X62125000Y-68477560D01*
X61889683Y-68521838D01*
X61673559Y-68660910D01*
X61617483Y-68742981D01*
X58271521Y-65397019D01*
X58526661Y-65397242D01*
X59040303Y-65185010D01*
X59433629Y-64792370D01*
X59519949Y-64584488D01*
X59604990Y-64790303D01*
X59997630Y-65183629D01*
X60510900Y-65396757D01*
X61066661Y-65397242D01*
X61580303Y-65185010D01*
X61973629Y-64792370D01*
X62186757Y-64279100D01*
X62187242Y-63723339D01*
X61975010Y-63209697D01*
X61582370Y-62816371D01*
X61069100Y-62603243D01*
X60513339Y-62602758D01*
X59999697Y-62814990D01*
X59606371Y-63207630D01*
X59520051Y-63415512D01*
X59435010Y-63209697D01*
X59042370Y-62816371D01*
X58700000Y-62674207D01*
X58700000Y-60564802D01*
X59115597Y-60149205D01*
X59115226Y-60573694D01*
X59363538Y-61174655D01*
X59822927Y-61634846D01*
X60423453Y-61884206D01*
X61073694Y-61884774D01*
X61674655Y-61636462D01*
X62134846Y-61177073D01*
X62384206Y-60576547D01*
X62384774Y-59926306D01*
X62136462Y-59325345D01*
X61677073Y-58865154D01*
X61076547Y-58615794D01*
X60649381Y-58615421D01*
X60998119Y-58266683D01*
X61028400Y-58279257D01*
X61584161Y-58279742D01*
X62097803Y-58067510D01*
X62491129Y-57674870D01*
X62704257Y-57161600D01*
X62704742Y-56605839D01*
X62660589Y-56498980D01*
X64590011Y-58428402D01*
G36*
X47422490Y-57672803D02*
X47815130Y-58066129D01*
X48328400Y-58279257D01*
X48884161Y-58279742D01*
X49333620Y-58094030D01*
X49362599Y-58137401D01*
X50340000Y-59114802D01*
X50340000Y-59197500D01*
X49853250Y-59197500D01*
X49694500Y-59356250D01*
X49694500Y-60205500D01*
X49714500Y-60205500D01*
X49714500Y-60459500D01*
X49694500Y-60459500D01*
X49694500Y-61308750D01*
X49853250Y-61467500D01*
X50340000Y-61467500D01*
X50340000Y-62385060D01*
X48767500Y-62385060D01*
X48532183Y-62429338D01*
X48316059Y-62568410D01*
X48171069Y-62780610D01*
X48120060Y-63032500D01*
X48120060Y-63545258D01*
X47760000Y-63185198D01*
X47760000Y-60618250D01*
X48132500Y-60618250D01*
X48132500Y-60958810D01*
X48229173Y-61192199D01*
X48407802Y-61370827D01*
X48641191Y-61467500D01*
X49281750Y-61467500D01*
X49440500Y-61308750D01*
X49440500Y-60459500D01*
X48291250Y-60459500D01*
X48132500Y-60618250D01*
X47760000Y-60618250D01*
X47760000Y-59900000D01*
X47721449Y-59706190D01*
X48132500Y-59706190D01*
X48132500Y-60046750D01*
X48291250Y-60205500D01*
X49440500Y-60205500D01*
X49440500Y-59356250D01*
X49281750Y-59197500D01*
X48641191Y-59197500D01*
X48407802Y-59294173D01*
X48229173Y-59472801D01*
X48132500Y-59706190D01*
X47721449Y-59706190D01*
X47702148Y-59609161D01*
X47702148Y-59609160D01*
X47537401Y-59362599D01*
X46422270Y-58247468D01*
X46857803Y-58067510D01*
X47251129Y-57674870D01*
X47337449Y-57466988D01*
X47422490Y-57672803D01*
X47422490Y-57672803D01*
G37*
X47422490Y-57672803D02*
X47815130Y-58066129D01*
X48328400Y-58279257D01*
X48884161Y-58279742D01*
X49333620Y-58094030D01*
X49362599Y-58137401D01*
X50340000Y-59114802D01*
X50340000Y-59197500D01*
X49853250Y-59197500D01*
X49694500Y-59356250D01*
X49694500Y-60205500D01*
X49714500Y-60205500D01*
X49714500Y-60459500D01*
X49694500Y-60459500D01*
X49694500Y-61308750D01*
X49853250Y-61467500D01*
X50340000Y-61467500D01*
X50340000Y-62385060D01*
X48767500Y-62385060D01*
X48532183Y-62429338D01*
X48316059Y-62568410D01*
X48171069Y-62780610D01*
X48120060Y-63032500D01*
X48120060Y-63545258D01*
X47760000Y-63185198D01*
X47760000Y-60618250D01*
X48132500Y-60618250D01*
X48132500Y-60958810D01*
X48229173Y-61192199D01*
X48407802Y-61370827D01*
X48641191Y-61467500D01*
X49281750Y-61467500D01*
X49440500Y-61308750D01*
X49440500Y-60459500D01*
X48291250Y-60459500D01*
X48132500Y-60618250D01*
X47760000Y-60618250D01*
X47760000Y-59900000D01*
X47721449Y-59706190D01*
X48132500Y-59706190D01*
X48132500Y-60046750D01*
X48291250Y-60205500D01*
X49440500Y-60205500D01*
X49440500Y-59356250D01*
X49281750Y-59197500D01*
X48641191Y-59197500D01*
X48407802Y-59294173D01*
X48229173Y-59472801D01*
X48132500Y-59706190D01*
X47721449Y-59706190D01*
X47702148Y-59609161D01*
X47702148Y-59609160D01*
X47537401Y-59362599D01*
X46422270Y-58247468D01*
X46857803Y-58067510D01*
X47251129Y-57674870D01*
X47337449Y-57466988D01*
X47422490Y-57672803D01*
G36*
X61690491Y-55528882D02*
X61586600Y-55485743D01*
X61030839Y-55485258D01*
X60517197Y-55697490D01*
X60123871Y-56090130D01*
X60044105Y-56282227D01*
X59989897Y-56151357D01*
X59747713Y-56081892D01*
X58947105Y-56882500D01*
X58961248Y-56896643D01*
X58781643Y-57076248D01*
X58767500Y-57062105D01*
X57966892Y-57862713D01*
X58036357Y-58104897D01*
X58559802Y-58291644D01*
X58837451Y-58277747D01*
X57625198Y-59490000D01*
X54584496Y-59490000D01*
X54516462Y-59325345D01*
X54057073Y-58865154D01*
X53456547Y-58615794D01*
X52806306Y-58615226D01*
X52385845Y-58788957D01*
X52794201Y-58380601D01*
X52958948Y-58134039D01*
X52966557Y-58095788D01*
X53408400Y-58279257D01*
X53964161Y-58279742D01*
X54477803Y-58067510D01*
X54871129Y-57674870D01*
X54957449Y-57466988D01*
X55042490Y-57672803D01*
X55435130Y-58066129D01*
X55948400Y-58279257D01*
X56504161Y-58279742D01*
X57017803Y-58067510D01*
X57411129Y-57674870D01*
X57490895Y-57482773D01*
X57545103Y-57613643D01*
X57787287Y-57683108D01*
X58587895Y-56882500D01*
X57787287Y-56081892D01*
X57545103Y-56151357D01*
X57494991Y-56291818D01*
X57412510Y-56092197D01*
X57222932Y-55902287D01*
X57966892Y-55902287D01*
X58767500Y-56702895D01*
X59568108Y-55902287D01*
X59498643Y-55660103D01*
X58975198Y-55473356D01*
X58420132Y-55501138D01*
X58036357Y-55660103D01*
X57966892Y-55902287D01*
X57222932Y-55902287D01*
X57019870Y-55698871D01*
X56506600Y-55485743D01*
X55950839Y-55485258D01*
X55437197Y-55697490D01*
X55043871Y-56090130D01*
X54957551Y-56298012D01*
X54872510Y-56092197D01*
X54479870Y-55698871D01*
X53966600Y-55485743D01*
X53410839Y-55485258D01*
X53016800Y-55648071D01*
X53016800Y-53256800D01*
X52958948Y-52965961D01*
X52794201Y-52719399D01*
X51537401Y-51462599D01*
X51290839Y-51297852D01*
X51000000Y-51240000D01*
X50857607Y-51240000D01*
X50958390Y-51092500D01*
X57254109Y-51092500D01*
X61690491Y-55528882D01*
X61690491Y-55528882D01*
G37*
X61690491Y-55528882D02*
X61586600Y-55485743D01*
X61030839Y-55485258D01*
X60517197Y-55697490D01*
X60123871Y-56090130D01*
X60044105Y-56282227D01*
X59989897Y-56151357D01*
X59747713Y-56081892D01*
X58947105Y-56882500D01*
X58961248Y-56896643D01*
X58781643Y-57076248D01*
X58767500Y-57062105D01*
X57966892Y-57862713D01*
X58036357Y-58104897D01*
X58559802Y-58291644D01*
X58837451Y-58277747D01*
X57625198Y-59490000D01*
X54584496Y-59490000D01*
X54516462Y-59325345D01*
X54057073Y-58865154D01*
X53456547Y-58615794D01*
X52806306Y-58615226D01*
X52385845Y-58788957D01*
X52794201Y-58380601D01*
X52958948Y-58134039D01*
X52966557Y-58095788D01*
X53408400Y-58279257D01*
X53964161Y-58279742D01*
X54477803Y-58067510D01*
X54871129Y-57674870D01*
X54957449Y-57466988D01*
X55042490Y-57672803D01*
X55435130Y-58066129D01*
X55948400Y-58279257D01*
X56504161Y-58279742D01*
X57017803Y-58067510D01*
X57411129Y-57674870D01*
X57490895Y-57482773D01*
X57545103Y-57613643D01*
X57787287Y-57683108D01*
X58587895Y-56882500D01*
X57787287Y-56081892D01*
X57545103Y-56151357D01*
X57494991Y-56291818D01*
X57412510Y-56092197D01*
X57222932Y-55902287D01*
X57966892Y-55902287D01*
X58767500Y-56702895D01*
X59568108Y-55902287D01*
X59498643Y-55660103D01*
X58975198Y-55473356D01*
X58420132Y-55501138D01*
X58036357Y-55660103D01*
X57966892Y-55902287D01*
X57222932Y-55902287D01*
X57019870Y-55698871D01*
X56506600Y-55485743D01*
X55950839Y-55485258D01*
X55437197Y-55697490D01*
X55043871Y-56090130D01*
X54957551Y-56298012D01*
X54872510Y-56092197D01*
X54479870Y-55698871D01*
X53966600Y-55485743D01*
X53410839Y-55485258D01*
X53016800Y-55648071D01*
X53016800Y-53256800D01*
X52958948Y-52965961D01*
X52794201Y-52719399D01*
X51537401Y-51462599D01*
X51290839Y-51297852D01*
X51000000Y-51240000D01*
X50857607Y-51240000D01*
X50958390Y-51092500D01*
X57254109Y-51092500D01*
X61690491Y-55528882D01*
M02*
