G04 #@! TF.FileFunction,Other,User*
%FSLAX46Y46*%
G04 Gerber Fmt 4.6, Leading zero omitted, Abs format (unit mm)*
G04 Created by KiCad (PCBNEW 4.0.6) date 2017 May 11, Thursday 23:22:10*
%MOMM*%
%LPD*%
G01*
G04 APERTURE LIST*
%ADD10C,1.000000*%
%ADD11C,0.050000*%
G04 APERTURE END LIST*
D10*
D11*
X33317500Y-49082500D02*
X40817500Y-49082500D01*
X33317500Y-54782500D02*
X33317500Y-49082500D01*
X40817500Y-54782500D02*
X33317500Y-54782500D01*
X40817500Y-49082500D02*
X40817500Y-54782500D01*
X33767500Y-48082500D02*
X40367500Y-48082500D01*
X33767500Y-45782500D02*
X40367500Y-45782500D01*
X33767500Y-48082500D02*
X33767500Y-45782500D01*
X40367500Y-48082500D02*
X40367500Y-45782500D01*
X43767500Y-48082500D02*
X50367500Y-48082500D01*
X43767500Y-45782500D02*
X50367500Y-45782500D01*
X43767500Y-48082500D02*
X43767500Y-45782500D01*
X50367500Y-48082500D02*
X50367500Y-45782500D01*
X43317500Y-49082500D02*
X50817500Y-49082500D01*
X43317500Y-54782500D02*
X43317500Y-49082500D01*
X50817500Y-54782500D02*
X43317500Y-54782500D01*
X50817500Y-49082500D02*
X50817500Y-54782500D01*
X33317500Y-59082500D02*
X40817500Y-59082500D01*
X33317500Y-64782500D02*
X33317500Y-59082500D01*
X40817500Y-64782500D02*
X33317500Y-64782500D01*
X40817500Y-59082500D02*
X40817500Y-64782500D01*
X50367500Y-65782500D02*
X43767500Y-65782500D01*
X50367500Y-68082500D02*
X43767500Y-68082500D01*
X50367500Y-65782500D02*
X50367500Y-68082500D01*
X43767500Y-65782500D02*
X43767500Y-68082500D01*
X50817500Y-64782500D02*
X43317500Y-64782500D01*
X50817500Y-59082500D02*
X50817500Y-64782500D01*
X43317500Y-59082500D02*
X50817500Y-59082500D01*
X43317500Y-64782500D02*
X43317500Y-59082500D01*
X33767500Y-68082500D02*
X40367500Y-68082500D01*
X33767500Y-65782500D02*
X40367500Y-65782500D01*
X33767500Y-68082500D02*
X33767500Y-65782500D01*
X40367500Y-68082500D02*
X40367500Y-65782500D01*
X51880000Y-61750000D02*
X61980000Y-61750000D01*
X51880000Y-58750000D02*
X51880000Y-61750000D01*
X61980000Y-61750000D02*
X61980000Y-58750000D01*
X51880000Y-58750000D02*
X61980000Y-58750000D01*
M02*
