M48
;DRILL file {KiCad 4.0.6} date 2017 May 11, Thursday 23:22:13
;FORMAT={-:-/ absolute / metric / decimal}
FMAT,2
METRIC,TZ
T1C0.500
T2C0.762
T3C0.800
T4C0.900
T5C1.001
T6C1.016
%
G90
G05
M71
T1
X64.451Y29.1
T2
X25.747Y56.883
X25.747Y84.932
X28.287Y56.883
X28.287Y84.932
X30.827Y56.883
X30.827Y84.932
X33.367Y56.883
X33.367Y84.932
X35.907Y56.883
X35.907Y84.932
X38.447Y56.883
X38.447Y84.932
X40.987Y56.883
X40.987Y84.932
X43.527Y56.883
X43.527Y84.932
X46.067Y56.883
X46.067Y84.932
X48.607Y56.883
X48.607Y84.932
X51.148Y56.883
X51.148Y84.932
X53.688Y56.883
X53.688Y84.932
X56.227Y56.883
X56.227Y84.932
X58.767Y56.883
X58.767Y84.932
X61.307Y56.883
X61.307Y84.932
T3
X55.71Y64.
X58.25Y64.
X60.79Y64.
T4
X63.Y70.
X63.Y72.5
X63.Y75.
X63.Y77.5
X63.Y80.
T5
X28.25Y59.63
X28.25Y67.25
X31.5Y59.63
X31.5Y67.25
X42.25Y71.
X49.87Y71.
X53.13Y60.25
X60.75Y60.25
T6
X22.067Y57.392
X22.067Y59.932
X22.067Y62.472
X22.067Y65.013
T0
M30
