G04 #@! TF.FileFunction,Legend,Bot*
%FSLAX46Y46*%
G04 Gerber Fmt 4.6, Leading zero omitted, Abs format (unit mm)*
G04 Created by KiCad (PCBNEW 4.0.6) date 2017 May 11, Thursday 23:22:10*
%MOMM*%
%LPD*%
G01*
G04 APERTURE LIST*
%ADD10C,1.000000*%
%ADD11C,0.150000*%
G04 APERTURE END LIST*
D10*
D11*
X40567500Y-49332500D02*
X33567500Y-49332500D01*
X40567500Y-54532500D02*
X33567500Y-54532500D01*
X33567500Y-54532500D02*
X33567500Y-53532500D01*
X38067500Y-47957500D02*
X36067500Y-47957500D01*
X36067500Y-45907500D02*
X38067500Y-45907500D01*
X48067500Y-47957500D02*
X46067500Y-47957500D01*
X46067500Y-45907500D02*
X48067500Y-45907500D01*
X50567500Y-49332500D02*
X43567500Y-49332500D01*
X50567500Y-54532500D02*
X43567500Y-54532500D01*
X43567500Y-54532500D02*
X43567500Y-53532500D01*
X40567500Y-59332500D02*
X33567500Y-59332500D01*
X40567500Y-64532500D02*
X33567500Y-64532500D01*
X33567500Y-64532500D02*
X33567500Y-63532500D01*
X46067500Y-65907500D02*
X48067500Y-65907500D01*
X48067500Y-67957500D02*
X46067500Y-67957500D01*
X43567500Y-64532500D02*
X50567500Y-64532500D01*
X43567500Y-59332500D02*
X50567500Y-59332500D01*
X50567500Y-59332500D02*
X50567500Y-60332500D01*
X38067500Y-67957500D02*
X36067500Y-67957500D01*
X36067500Y-65907500D02*
X38067500Y-65907500D01*
X54400000Y-61520000D02*
X59480000Y-61520000D01*
X59480000Y-61520000D02*
X59480000Y-58980000D01*
X59480000Y-58980000D02*
X54400000Y-58980000D01*
X54400000Y-58980000D02*
X54400000Y-61520000D01*
X38186547Y-48884881D02*
X38662738Y-48884881D01*
X38662738Y-47884881D01*
X37853214Y-48361071D02*
X37519880Y-48361071D01*
X37377023Y-48884881D02*
X37853214Y-48884881D01*
X37853214Y-47884881D01*
X37377023Y-47884881D01*
X36948452Y-48884881D02*
X36948452Y-47884881D01*
X36710357Y-47884881D01*
X36567499Y-47932500D01*
X36472261Y-48027738D01*
X36424642Y-48122976D01*
X36377023Y-48313452D01*
X36377023Y-48456310D01*
X36424642Y-48646786D01*
X36472261Y-48742024D01*
X36567499Y-48837262D01*
X36710357Y-48884881D01*
X36948452Y-48884881D01*
X35424642Y-48884881D02*
X35996071Y-48884881D01*
X35710357Y-48884881D02*
X35710357Y-47884881D01*
X35805595Y-48027738D01*
X35900833Y-48122976D01*
X35996071Y-48170595D01*
X37234166Y-49589643D02*
X37281785Y-49637262D01*
X37424642Y-49684881D01*
X37519880Y-49684881D01*
X37662738Y-49637262D01*
X37757976Y-49542024D01*
X37805595Y-49446786D01*
X37853214Y-49256310D01*
X37853214Y-49113452D01*
X37805595Y-48922976D01*
X37757976Y-48827738D01*
X37662738Y-48732500D01*
X37519880Y-48684881D01*
X37424642Y-48684881D01*
X37281785Y-48732500D01*
X37234166Y-48780119D01*
X36281785Y-49684881D02*
X36853214Y-49684881D01*
X36567500Y-49684881D02*
X36567500Y-48684881D01*
X36662738Y-48827738D01*
X36757976Y-48922976D01*
X36853214Y-48970595D01*
X47234166Y-49589643D02*
X47281785Y-49637262D01*
X47424642Y-49684881D01*
X47519880Y-49684881D01*
X47662738Y-49637262D01*
X47757976Y-49542024D01*
X47805595Y-49446786D01*
X47853214Y-49256310D01*
X47853214Y-49113452D01*
X47805595Y-48922976D01*
X47757976Y-48827738D01*
X47662738Y-48732500D01*
X47519880Y-48684881D01*
X47424642Y-48684881D01*
X47281785Y-48732500D01*
X47234166Y-48780119D01*
X46853214Y-48780119D02*
X46805595Y-48732500D01*
X46710357Y-48684881D01*
X46472261Y-48684881D01*
X46377023Y-48732500D01*
X46329404Y-48780119D01*
X46281785Y-48875357D01*
X46281785Y-48970595D01*
X46329404Y-49113452D01*
X46900833Y-49684881D01*
X46281785Y-49684881D01*
X48186547Y-48884881D02*
X48662738Y-48884881D01*
X48662738Y-47884881D01*
X47853214Y-48361071D02*
X47519880Y-48361071D01*
X47377023Y-48884881D02*
X47853214Y-48884881D01*
X47853214Y-47884881D01*
X47377023Y-47884881D01*
X46948452Y-48884881D02*
X46948452Y-47884881D01*
X46710357Y-47884881D01*
X46567499Y-47932500D01*
X46472261Y-48027738D01*
X46424642Y-48122976D01*
X46377023Y-48313452D01*
X46377023Y-48456310D01*
X46424642Y-48646786D01*
X46472261Y-48742024D01*
X46567499Y-48837262D01*
X46710357Y-48884881D01*
X46948452Y-48884881D01*
X45996071Y-47980119D02*
X45948452Y-47932500D01*
X45853214Y-47884881D01*
X45615118Y-47884881D01*
X45519880Y-47932500D01*
X45472261Y-47980119D01*
X45424642Y-48075357D01*
X45424642Y-48170595D01*
X45472261Y-48313452D01*
X46043690Y-48884881D01*
X45424642Y-48884881D01*
X38186547Y-58884881D02*
X38662738Y-58884881D01*
X38662738Y-57884881D01*
X37853214Y-58361071D02*
X37519880Y-58361071D01*
X37377023Y-58884881D02*
X37853214Y-58884881D01*
X37853214Y-57884881D01*
X37377023Y-57884881D01*
X36948452Y-58884881D02*
X36948452Y-57884881D01*
X36710357Y-57884881D01*
X36567499Y-57932500D01*
X36472261Y-58027738D01*
X36424642Y-58122976D01*
X36377023Y-58313452D01*
X36377023Y-58456310D01*
X36424642Y-58646786D01*
X36472261Y-58742024D01*
X36567499Y-58837262D01*
X36710357Y-58884881D01*
X36948452Y-58884881D01*
X35519880Y-58218214D02*
X35519880Y-58884881D01*
X35757976Y-57837262D02*
X35996071Y-58551548D01*
X35377023Y-58551548D01*
X47234166Y-64989643D02*
X47281785Y-65037262D01*
X47424642Y-65084881D01*
X47519880Y-65084881D01*
X47662738Y-65037262D01*
X47757976Y-64942024D01*
X47805595Y-64846786D01*
X47853214Y-64656310D01*
X47853214Y-64513452D01*
X47805595Y-64322976D01*
X47757976Y-64227738D01*
X47662738Y-64132500D01*
X47519880Y-64084881D01*
X47424642Y-64084881D01*
X47281785Y-64132500D01*
X47234166Y-64180119D01*
X46900833Y-64084881D02*
X46281785Y-64084881D01*
X46615119Y-64465833D01*
X46472261Y-64465833D01*
X46377023Y-64513452D01*
X46329404Y-64561071D01*
X46281785Y-64656310D01*
X46281785Y-64894405D01*
X46329404Y-64989643D01*
X46377023Y-65037262D01*
X46472261Y-65084881D01*
X46757976Y-65084881D01*
X46853214Y-65037262D01*
X46900833Y-64989643D01*
X48186547Y-65884881D02*
X48662738Y-65884881D01*
X48662738Y-64884881D01*
X47853214Y-65361071D02*
X47519880Y-65361071D01*
X47377023Y-65884881D02*
X47853214Y-65884881D01*
X47853214Y-64884881D01*
X47377023Y-64884881D01*
X46948452Y-65884881D02*
X46948452Y-64884881D01*
X46710357Y-64884881D01*
X46567499Y-64932500D01*
X46472261Y-65027738D01*
X46424642Y-65122976D01*
X46377023Y-65313452D01*
X46377023Y-65456310D01*
X46424642Y-65646786D01*
X46472261Y-65742024D01*
X46567499Y-65837262D01*
X46710357Y-65884881D01*
X46948452Y-65884881D01*
X46043690Y-64884881D02*
X45424642Y-64884881D01*
X45757976Y-65265833D01*
X45615118Y-65265833D01*
X45519880Y-65313452D01*
X45472261Y-65361071D01*
X45424642Y-65456310D01*
X45424642Y-65694405D01*
X45472261Y-65789643D01*
X45519880Y-65837262D01*
X45615118Y-65884881D01*
X45900833Y-65884881D01*
X45996071Y-65837262D01*
X46043690Y-65789643D01*
X37234166Y-69589643D02*
X37281785Y-69637262D01*
X37424642Y-69684881D01*
X37519880Y-69684881D01*
X37662738Y-69637262D01*
X37757976Y-69542024D01*
X37805595Y-69446786D01*
X37853214Y-69256310D01*
X37853214Y-69113452D01*
X37805595Y-68922976D01*
X37757976Y-68827738D01*
X37662738Y-68732500D01*
X37519880Y-68684881D01*
X37424642Y-68684881D01*
X37281785Y-68732500D01*
X37234166Y-68780119D01*
X36377023Y-69018214D02*
X36377023Y-69684881D01*
X36615119Y-68637262D02*
X36853214Y-69351548D01*
X36234166Y-69351548D01*
X57355586Y-64202501D02*
X57688920Y-63726310D01*
X57927015Y-64202501D02*
X57927015Y-63202501D01*
X57546062Y-63202501D01*
X57450824Y-63250120D01*
X57403205Y-63297739D01*
X57355586Y-63392977D01*
X57355586Y-63535834D01*
X57403205Y-63631072D01*
X57450824Y-63678691D01*
X57546062Y-63726310D01*
X57927015Y-63726310D01*
X57022253Y-63202501D02*
X56403205Y-63202501D01*
X56736539Y-63583453D01*
X56593681Y-63583453D01*
X56498443Y-63631072D01*
X56450824Y-63678691D01*
X56403205Y-63773930D01*
X56403205Y-64012025D01*
X56450824Y-64107263D01*
X56498443Y-64154882D01*
X56593681Y-64202501D01*
X56879396Y-64202501D01*
X56974634Y-64154882D01*
X57022253Y-64107263D01*
M02*
