G04 #@! TF.FileFunction,Soldermask,Bot*
%FSLAX46Y46*%
G04 Gerber Fmt 4.6, Leading zero omitted, Abs format (unit mm)*
G04 Created by KiCad (PCBNEW 4.0.6) date 2017 May 11, Thursday 23:22:10*
%MOMM*%
%LPD*%
G01*
G04 APERTURE LIST*
%ADD10C,1.000000*%
%ADD11R,2.000000X1.400000*%
%ADD12R,2.400000X2.000000*%
%ADD13R,2.432000X2.127200*%
%ADD14O,2.432000X2.127200*%
%ADD15R,2.150000X2.150000*%
%ADD16C,2.150000*%
%ADD17C,1.924000*%
%ADD18C,2.398980*%
G04 APERTURE END LIST*
D10*
D11*
X34567500Y-53532500D03*
X34567500Y-50332500D03*
X39567500Y-53532500D03*
X39567500Y-50332500D03*
D12*
X35067500Y-46932500D03*
X39067500Y-46932500D03*
X45067500Y-46932500D03*
X49067500Y-46932500D03*
D11*
X44567500Y-53532500D03*
X44567500Y-50332500D03*
X49567500Y-53532500D03*
X49567500Y-50332500D03*
X34567500Y-63532500D03*
X34567500Y-60332500D03*
X39567500Y-63532500D03*
X39567500Y-60332500D03*
D12*
X49067500Y-66932500D03*
X45067500Y-66932500D03*
D11*
X49567500Y-60332500D03*
X49567500Y-63532500D03*
X44567500Y-60332500D03*
X44567500Y-63532500D03*
D12*
X35067500Y-66932500D03*
X39067500Y-66932500D03*
D13*
X22067500Y-57392500D03*
D14*
X22067500Y-59932500D03*
X22067500Y-62472500D03*
X22067500Y-65012500D03*
D15*
X63000000Y-70000000D03*
D16*
X63000000Y-72500000D03*
X63000000Y-75000000D03*
X63000000Y-77500000D03*
X63000000Y-80000000D03*
D17*
X25747500Y-84932500D03*
X28287500Y-84932500D03*
X30827500Y-84932500D03*
X33367500Y-84932500D03*
X35907500Y-84932500D03*
X38447500Y-84932500D03*
X40987500Y-84932500D03*
X43527500Y-84932500D03*
X46067500Y-84932500D03*
X48607500Y-84932500D03*
X51147500Y-84932500D03*
X53687500Y-84932500D03*
X56227500Y-84932500D03*
X58767500Y-84932500D03*
X61307500Y-84932500D03*
X61307500Y-56882500D03*
X58767500Y-56882500D03*
X56227500Y-56882500D03*
X53687500Y-56882500D03*
X51147500Y-56882500D03*
X48607500Y-56882500D03*
X46067500Y-56882500D03*
X43527500Y-56882500D03*
X40987500Y-56882500D03*
X38447500Y-56882500D03*
X35907500Y-56882500D03*
X33367500Y-56882500D03*
X30827500Y-56882500D03*
X28287500Y-56882500D03*
X25747500Y-56882500D03*
X58250000Y-64000000D03*
X55710000Y-64000000D03*
X60790000Y-64000000D03*
D18*
X31500000Y-67250000D03*
X31500000Y-59630000D03*
X28250000Y-67250000D03*
X28250000Y-59630000D03*
X53130000Y-60250000D03*
X60750000Y-60250000D03*
X42250000Y-71000000D03*
X49870000Y-71000000D03*
M02*
