G04 #@! TF.FileFunction,Drawing*
%FSLAX46Y46*%
G04 Gerber Fmt 4.6, Leading zero omitted, Abs format (unit mm)*
G04 Created by KiCad (PCBNEW 4.0.6) date 2017 May 11, Thursday 23:22:10*
%MOMM*%
%LPD*%
G01*
G04 APERTURE LIST*
%ADD10C,1.000000*%
%ADD11C,0.100000*%
G04 APERTURE END LIST*
D10*
D11*
X34567500Y-53432500D02*
X35567500Y-54432500D01*
X39567500Y-49432500D02*
X39567500Y-54432500D01*
X39567500Y-54432500D02*
X34567500Y-54432500D01*
X34567500Y-54432500D02*
X34567500Y-49432500D01*
X34567500Y-49432500D02*
X39567500Y-49432500D01*
X39067500Y-51932500D02*
G75*
G03X39067500Y-51932500I-2000000J0D01*
G01*
X44567500Y-53432500D02*
X45567500Y-54432500D01*
X49567500Y-49432500D02*
X49567500Y-54432500D01*
X49567500Y-54432500D02*
X44567500Y-54432500D01*
X44567500Y-54432500D02*
X44567500Y-49432500D01*
X44567500Y-49432500D02*
X49567500Y-49432500D01*
X49067500Y-51932500D02*
G75*
G03X49067500Y-51932500I-2000000J0D01*
G01*
X34567500Y-63432500D02*
X35567500Y-64432500D01*
X39567500Y-59432500D02*
X39567500Y-64432500D01*
X39567500Y-64432500D02*
X34567500Y-64432500D01*
X34567500Y-64432500D02*
X34567500Y-59432500D01*
X34567500Y-59432500D02*
X39567500Y-59432500D01*
X39067500Y-61932500D02*
G75*
G03X39067500Y-61932500I-2000000J0D01*
G01*
X49567500Y-60432500D02*
X48567500Y-59432500D01*
X44567500Y-64432500D02*
X44567500Y-59432500D01*
X44567500Y-59432500D02*
X49567500Y-59432500D01*
X49567500Y-59432500D02*
X49567500Y-64432500D01*
X49567500Y-64432500D02*
X44567500Y-64432500D01*
X49067500Y-61932500D02*
G75*
G03X49067500Y-61932500I-2000000J0D01*
G01*
M02*
