G04 #@! TF.FileFunction,Other,Comment*
%FSLAX46Y46*%
G04 Gerber Fmt 4.6, Leading zero omitted, Abs format (unit mm)*
G04 Created by KiCad (PCBNEW 4.0.6) date 2017 May 11, Thursday 23:22:10*
%MOMM*%
%LPD*%
G01*
G04 APERTURE LIST*
%ADD10C,1.000000*%
%ADD11C,0.300000*%
G04 APERTURE END LIST*
D10*
D11*
X15471429Y-48000001D02*
X15471429Y-47714287D01*
X15400000Y-47571430D01*
X15328571Y-47500001D01*
X15114286Y-47357144D01*
X14828571Y-47285715D01*
X14257143Y-47285715D01*
X14114286Y-47357144D01*
X14042857Y-47428572D01*
X13971429Y-47571430D01*
X13971429Y-47857144D01*
X14042857Y-48000001D01*
X14114286Y-48071430D01*
X14257143Y-48142858D01*
X14614286Y-48142858D01*
X14757143Y-48071430D01*
X14828571Y-48000001D01*
X14900000Y-47857144D01*
X14900000Y-47571430D01*
X14828571Y-47428572D01*
X14757143Y-47357144D01*
X14614286Y-47285715D01*
X15471429Y-48642858D02*
X15471429Y-49642858D01*
X13971429Y-49000001D01*
X14114286Y-50214286D02*
X14042857Y-50285714D01*
X13971429Y-50214286D01*
X14042857Y-50142857D01*
X14114286Y-50214286D01*
X13971429Y-50214286D01*
X15471429Y-51214286D02*
X15471429Y-51357143D01*
X15400000Y-51500000D01*
X15328571Y-51571429D01*
X15185714Y-51642858D01*
X14900000Y-51714286D01*
X14542857Y-51714286D01*
X14257143Y-51642858D01*
X14114286Y-51571429D01*
X14042857Y-51500000D01*
X13971429Y-51357143D01*
X13971429Y-51214286D01*
X14042857Y-51071429D01*
X14114286Y-51000000D01*
X14257143Y-50928572D01*
X14542857Y-50857143D01*
X14900000Y-50857143D01*
X15185714Y-50928572D01*
X15328571Y-51000000D01*
X15400000Y-51071429D01*
X15471429Y-51214286D01*
X15471429Y-52642857D02*
X15471429Y-52785714D01*
X15400000Y-52928571D01*
X15328571Y-53000000D01*
X15185714Y-53071429D01*
X14900000Y-53142857D01*
X14542857Y-53142857D01*
X14257143Y-53071429D01*
X14114286Y-53000000D01*
X14042857Y-52928571D01*
X13971429Y-52785714D01*
X13971429Y-52642857D01*
X14042857Y-52500000D01*
X14114286Y-52428571D01*
X14257143Y-52357143D01*
X14542857Y-52285714D01*
X14900000Y-52285714D01*
X15185714Y-52357143D01*
X15328571Y-52428571D01*
X15400000Y-52500000D01*
X15471429Y-52642857D01*
X15471429Y-54071428D02*
X15471429Y-54214285D01*
X15400000Y-54357142D01*
X15328571Y-54428571D01*
X15185714Y-54500000D01*
X14900000Y-54571428D01*
X14542857Y-54571428D01*
X14257143Y-54500000D01*
X14114286Y-54428571D01*
X14042857Y-54357142D01*
X13971429Y-54214285D01*
X13971429Y-54071428D01*
X14042857Y-53928571D01*
X14114286Y-53857142D01*
X14257143Y-53785714D01*
X14542857Y-53714285D01*
X14900000Y-53714285D01*
X15185714Y-53785714D01*
X15328571Y-53857142D01*
X15400000Y-53928571D01*
X15471429Y-54071428D01*
X13971429Y-56357142D02*
X14971429Y-56357142D01*
X14828571Y-56357142D02*
X14900000Y-56428570D01*
X14971429Y-56571428D01*
X14971429Y-56785713D01*
X14900000Y-56928570D01*
X14757143Y-56999999D01*
X13971429Y-56999999D01*
X14757143Y-56999999D02*
X14900000Y-57071428D01*
X14971429Y-57214285D01*
X14971429Y-57428570D01*
X14900000Y-57571428D01*
X14757143Y-57642856D01*
X13971429Y-57642856D01*
X13971429Y-58357142D02*
X14971429Y-58357142D01*
X14828571Y-58357142D02*
X14900000Y-58428570D01*
X14971429Y-58571428D01*
X14971429Y-58785713D01*
X14900000Y-58928570D01*
X14757143Y-58999999D01*
X13971429Y-58999999D01*
X14757143Y-58999999D02*
X14900000Y-59071428D01*
X14971429Y-59214285D01*
X14971429Y-59428570D01*
X14900000Y-59571428D01*
X14757143Y-59642856D01*
X13971429Y-59642856D01*
X16000000Y-20000000D02*
X16000000Y-87000000D01*
X19000000Y-20000000D02*
X13300000Y-20000000D01*
X19000000Y-87000000D02*
X13300000Y-87000000D01*
X16000000Y-87000000D02*
X15413579Y-85873496D01*
X16000000Y-87000000D02*
X16586421Y-85873496D01*
X16000000Y-20000000D02*
X15413579Y-21126504D01*
X16000000Y-20000000D02*
X16586421Y-21126504D01*
X37500001Y-13328571D02*
X37500001Y-14328571D01*
X37142858Y-12757143D02*
X36785715Y-13828571D01*
X37714287Y-13828571D01*
X38500001Y-13471429D02*
X38357143Y-13400000D01*
X38285715Y-13328571D01*
X38214286Y-13185714D01*
X38214286Y-13114286D01*
X38285715Y-12971429D01*
X38357143Y-12900000D01*
X38500001Y-12828571D01*
X38785715Y-12828571D01*
X38928572Y-12900000D01*
X39000001Y-12971429D01*
X39071429Y-13114286D01*
X39071429Y-13185714D01*
X39000001Y-13328571D01*
X38928572Y-13400000D01*
X38785715Y-13471429D01*
X38500001Y-13471429D01*
X38357143Y-13542857D01*
X38285715Y-13614286D01*
X38214286Y-13757143D01*
X38214286Y-14042857D01*
X38285715Y-14185714D01*
X38357143Y-14257143D01*
X38500001Y-14328571D01*
X38785715Y-14328571D01*
X38928572Y-14257143D01*
X39000001Y-14185714D01*
X39071429Y-14042857D01*
X39071429Y-13757143D01*
X39000001Y-13614286D01*
X38928572Y-13542857D01*
X38785715Y-13471429D01*
X39714286Y-14185714D02*
X39785714Y-14257143D01*
X39714286Y-14328571D01*
X39642857Y-14257143D01*
X39714286Y-14185714D01*
X39714286Y-14328571D01*
X40714286Y-12828571D02*
X40857143Y-12828571D01*
X41000000Y-12900000D01*
X41071429Y-12971429D01*
X41142858Y-13114286D01*
X41214286Y-13400000D01*
X41214286Y-13757143D01*
X41142858Y-14042857D01*
X41071429Y-14185714D01*
X41000000Y-14257143D01*
X40857143Y-14328571D01*
X40714286Y-14328571D01*
X40571429Y-14257143D01*
X40500000Y-14185714D01*
X40428572Y-14042857D01*
X40357143Y-13757143D01*
X40357143Y-13400000D01*
X40428572Y-13114286D01*
X40500000Y-12971429D01*
X40571429Y-12900000D01*
X40714286Y-12828571D01*
X42142857Y-12828571D02*
X42285714Y-12828571D01*
X42428571Y-12900000D01*
X42500000Y-12971429D01*
X42571429Y-13114286D01*
X42642857Y-13400000D01*
X42642857Y-13757143D01*
X42571429Y-14042857D01*
X42500000Y-14185714D01*
X42428571Y-14257143D01*
X42285714Y-14328571D01*
X42142857Y-14328571D01*
X42000000Y-14257143D01*
X41928571Y-14185714D01*
X41857143Y-14042857D01*
X41785714Y-13757143D01*
X41785714Y-13400000D01*
X41857143Y-13114286D01*
X41928571Y-12971429D01*
X42000000Y-12900000D01*
X42142857Y-12828571D01*
X43571428Y-12828571D02*
X43714285Y-12828571D01*
X43857142Y-12900000D01*
X43928571Y-12971429D01*
X44000000Y-13114286D01*
X44071428Y-13400000D01*
X44071428Y-13757143D01*
X44000000Y-14042857D01*
X43928571Y-14185714D01*
X43857142Y-14257143D01*
X43714285Y-14328571D01*
X43571428Y-14328571D01*
X43428571Y-14257143D01*
X43357142Y-14185714D01*
X43285714Y-14042857D01*
X43214285Y-13757143D01*
X43214285Y-13400000D01*
X43285714Y-13114286D01*
X43357142Y-12971429D01*
X43428571Y-12900000D01*
X43571428Y-12828571D01*
X45857142Y-14328571D02*
X45857142Y-13328571D01*
X45857142Y-13471429D02*
X45928570Y-13400000D01*
X46071428Y-13328571D01*
X46285713Y-13328571D01*
X46428570Y-13400000D01*
X46499999Y-13542857D01*
X46499999Y-14328571D01*
X46499999Y-13542857D02*
X46571428Y-13400000D01*
X46714285Y-13328571D01*
X46928570Y-13328571D01*
X47071428Y-13400000D01*
X47142856Y-13542857D01*
X47142856Y-14328571D01*
X47857142Y-14328571D02*
X47857142Y-13328571D01*
X47857142Y-13471429D02*
X47928570Y-13400000D01*
X48071428Y-13328571D01*
X48285713Y-13328571D01*
X48428570Y-13400000D01*
X48499999Y-13542857D01*
X48499999Y-14328571D01*
X48499999Y-13542857D02*
X48571428Y-13400000D01*
X48714285Y-13328571D01*
X48928570Y-13328571D01*
X49071428Y-13400000D01*
X49142856Y-13542857D01*
X49142856Y-14328571D01*
X19000000Y-15000000D02*
X67000000Y-15000000D01*
X19000000Y-20000000D02*
X19000000Y-12300000D01*
X67000000Y-20000000D02*
X67000000Y-12300000D01*
X67000000Y-15000000D02*
X65873496Y-15586421D01*
X67000000Y-15000000D02*
X65873496Y-14413579D01*
X19000000Y-15000000D02*
X20126504Y-15586421D01*
X19000000Y-15000000D02*
X20126504Y-14413579D01*
M02*
